<svg xmlns="http://www.w3.org/2000/svg" xmlns:xlink="http://www.w3.org/1999/xlink" width="400" height="292" viewBox="0 0 400 292">
  <defs>
    <clipPath id="clip-path">
      <rect id="Rectángulo_416053" data-name="Rectángulo 416053" width="400" height="292" fill="#fff" stroke="#707070" stroke-width="1"/>
    </clipPath>
    <clipPath id="clip-path-2">
      <rect id="Rectángulo_416052" data-name="Rectángulo 416052" width="337.222" height="287.674" fill="none"/>
    </clipPath>
    <clipPath id="clip-path-3">
      <rect id="Rectángulo_416028" data-name="Rectángulo 416028" width="251.293" height="174.317" fill="none"/>
    </clipPath>
    <clipPath id="clip-path-4">
      <rect id="Rectángulo_416029" data-name="Rectángulo 416029" width="20.932" height="73.392" fill="none"/>
    </clipPath>
    <clipPath id="clip-path-5">
      <rect id="Rectángulo_416041" data-name="Rectángulo 416041" width="17.11" height="20.6" fill="none"/>
    </clipPath>
    <clipPath id="clip-path-6">
      <rect id="Rectángulo_416042" data-name="Rectángulo 416042" width="30.669" height="20.6" fill="none"/>
    </clipPath>
    <clipPath id="clip-path-7">
      <rect id="Rectángulo_416043" data-name="Rectángulo 416043" width="79.861" height="20.6" fill="none"/>
    </clipPath>
    <clipPath id="clip-path-8">
      <rect id="Rectángulo_416044" data-name="Rectángulo 416044" width="26.994" height="2.59" fill="none"/>
    </clipPath>
    <clipPath id="clip-path-9">
      <rect id="Rectángulo_416045" data-name="Rectángulo 416045" width="21.659" height="14.548" fill="none"/>
    </clipPath>
    <clipPath id="clip-path-10">
      <rect id="Rectángulo_416046" data-name="Rectángulo 416046" width="21.33" height="14.327" fill="none"/>
    </clipPath>
    <clipPath id="clip-path-11">
      <rect id="Rectángulo_416047" data-name="Rectángulo 416047" width="28.423" height="14.327" fill="none"/>
    </clipPath>
    <clipPath id="clip-path-12">
      <rect id="Rectángulo_416049" data-name="Rectángulo 416049" width="20.593" height="51.947" fill="none"/>
    </clipPath>
    <clipPath id="clip-path-13">
      <rect id="Rectángulo_416050" data-name="Rectángulo 416050" width="122.856" height="10.852" fill="none"/>
    </clipPath>
    <clipPath id="clip-path-14">
      <rect id="Rectángulo_416057" data-name="Rectángulo 416057" width="252.142" height="236.95" fill="none"/>
    </clipPath>
    <clipPath id="clip-path-16">
      <rect id="Rectángulo_416054" data-name="Rectángulo 416054" width="235.923" height="233.932" fill="none"/>
    </clipPath>
  </defs>
  <g id="Enmascarar_grupo_1098723" data-name="Enmascarar grupo 1098723" clip-path="url(#clip-path)">
    <g id="Grupo_1177151" data-name="Grupo 1177151" transform="translate(31.778 4.452)">
      <g id="Grupo_1177150" data-name="Grupo 1177150" clip-path="url(#clip-path-2)">
        <rect id="Rectángulo_416026" data-name="Rectángulo 416026" width="259.448" height="184.208" transform="translate(46.937 22.605)" fill="#fff2e3"/>
        <rect id="Rectángulo_416027" data-name="Rectángulo 416027" width="251.293" height="174.317" transform="translate(51.014 27.258)" fill="#2c4556"/>
        <g id="Grupo_1177149" data-name="Grupo 1177149">
          <g id="Grupo_1177148" data-name="Grupo 1177148">
            <g id="Grupo_1177098" data-name="Grupo 1177098" transform="translate(51.014 27.258)" opacity="0.46">
              <g id="Grupo_1177097" data-name="Grupo 1177097">
                <g id="Grupo_1177096" data-name="Grupo 1177096" clip-path="url(#clip-path-3)">
                  <path id="Trazado_1035591" data-name="Trazado 1035591" d="M295.642,34.623S96.291,39.052,72.845,52.91s6.8,15.071,30.126,34.939S47.291,168.341,44.349,208.94V34.623Z" transform="translate(-44.349 -34.623)" fill="#1a2d38"/>
                </g>
              </g>
            </g>
            <path id="Trazado_1035592" data-name="Trazado 1035592" d="M34.859,270.712H299.406a3.969,3.969,0,0,0,3.969-3.969v-.08a3.969,3.969,0,0,0-3.969-3.969H34.859a3.969,3.969,0,0,0-3.969,3.969v.08a3.969,3.969,0,0,0,3.969,3.969" transform="translate(9.529 -55.881)" fill="#b5aaa0"/>
            <ellipse id="Elipse_12325" data-name="Elipse 12325" cx="7.7" cy="24.934" rx="7.7" ry="24.934" transform="translate(258.41 39.327)" fill="none" stroke="#d3cabe" stroke-miterlimit="10" stroke-width="1"/>
            <path id="Trazado_1035593" data-name="Trazado 1035593" d="M80.528,84.42c11.885,6.956,23.26,9.621,25.408,5.951S100.192,78.086,88.308,71.13,65.047,61.509,62.9,65.179,68.644,77.463,80.528,84.42Z" transform="translate(181.692 -13.514)" fill="none" stroke="#d3cabe" stroke-miterlimit="10" stroke-width="1"/>
            <path id="Trazado_1035594" data-name="Trazado 1035594" d="M88.308,84.42C76.423,91.376,65.047,94.04,62.9,90.371S68.644,78.086,80.528,71.13s23.26-9.621,25.408-5.951S100.192,77.463,88.308,84.42Z" transform="translate(181.692 -13.514)" fill="none" stroke="#d3cabe" stroke-miterlimit="10" stroke-width="1"/>
            <path id="Trazado_1035595" data-name="Trazado 1035595" d="M85.765,80.654a3.592,3.592,0,1,0,3.592-3.592A3.592,3.592,0,0,0,85.765,80.654Z" transform="translate(176.753 -16.393)" fill="none" stroke="#d3cabe" stroke-miterlimit="10" stroke-width="1"/>
            <path id="Trazado_1035596" data-name="Trazado 1035596" d="M111.262,185.605v14.51L98.7,207.369l-12.565-7.254v-14.51L98.7,178.35Z" transform="translate(158.152 -37.939)" fill="#2c4556"/>
            <path id="Trazado_1035597" data-name="Trazado 1035597" d="M111.262,185.605v14.51L98.7,207.369l-12.565-7.254v-14.51L98.7,178.35Z" transform="translate(158.152 -37.939)" fill="none" stroke="#d3cabe" stroke-miterlimit="10" stroke-width="1"/>
            <line id="Línea_1038" data-name="Línea 1038" x1="11.467" y2="7.869" transform="translate(232.816 162.175)" fill="#2c4556"/>
            <line id="Línea_1039" data-name="Línea 1039" x1="11.467" y2="7.869" transform="translate(232.816 162.175)" fill="none" stroke="#d3cabe" stroke-miterlimit="10" stroke-width="1"/>
            <line id="Línea_1040" data-name="Línea 1040" y1="7.592" x2="12.682" transform="translate(269.413 140.074)" fill="#2c4556"/>
            <line id="Línea_1041" data-name="Línea 1041" y1="7.592" x2="12.682" transform="translate(269.413 140.074)" fill="none" stroke="#d3cabe" stroke-miterlimit="10" stroke-width="1"/>
            <line id="Línea_1042" data-name="Línea 1042" y2="16.475" transform="translate(256.848 169.43)" fill="#2c4556"/>
            <line id="Línea_1043" data-name="Línea 1043" y2="16.475" transform="translate(256.848 169.43)" fill="none" stroke="#d3cabe" stroke-miterlimit="10" stroke-width="1"/>
            <path id="Trazado_1035598" data-name="Trazado 1035598" d="M69.4,175.006a2.3,2.3,0,1,0,2.3,2.3,2.3,2.3,0,0,0-2.3-2.3" transform="translate(212.694 -37.228)" fill="#2c4556"/>
            <path id="Trazado_1035599" data-name="Trazado 1035599" d="M69.4,175.006a2.3,2.3,0,1,0,2.3,2.3A2.3,2.3,0,0,0,69.4,175.006Z" transform="translate(212.694 -37.228)" fill="none" stroke="#d3cabe" stroke-miterlimit="10" stroke-width="1"/>
            <path id="Trazado_1035600" data-name="Trazado 1035600" d="M85.511,184.146a2.3,2.3,0,1,0,2.3,2.3,2.3,2.3,0,0,0-2.3-2.3" transform="translate(183.902 -39.172)" fill="#2c4556"/>
            <path id="Trazado_1035601" data-name="Trazado 1035601" d="M85.511,184.146a2.3,2.3,0,1,0,2.3,2.3A2.3,2.3,0,0,0,85.511,184.146Z" transform="translate(183.902 -39.172)" fill="none" stroke="#d3cabe" stroke-miterlimit="10" stroke-width="1"/>
            <path id="Trazado_1035602" data-name="Trazado 1035602" d="M101.481,233.221a2.3,2.3,0,1,0,2.3,2.3,2.3,2.3,0,0,0-2.3-2.3" transform="translate(155.358 -49.611)" fill="#2c4556"/>
            <path id="Trazado_1035603" data-name="Trazado 1035603" d="M101.481,233.221a2.3,2.3,0,1,0,2.3,2.3A2.3,2.3,0,0,0,101.481,233.221Z" transform="translate(155.358 -49.611)" fill="none" stroke="#d3cabe" stroke-miterlimit="10" stroke-width="1"/>
            <path id="Trazado_1035604" data-name="Trazado 1035604" d="M101.021,212.293a2.3,2.3,0,1,0,2.3,2.3,2.3,2.3,0,0,0-2.3-2.3" transform="translate(156.182 -45.16)" fill="#2c4556"/>
            <path id="Trazado_1035605" data-name="Trazado 1035605" d="M101.021,212.293a2.3,2.3,0,1,0,2.3,2.3A2.3,2.3,0,0,0,101.021,212.293Z" transform="translate(156.182 -45.16)" fill="none" stroke="#d3cabe" stroke-miterlimit="10" stroke-width="1"/>
            <path id="Trazado_1035606" data-name="Trazado 1035606" d="M117.086,202.842a2.3,2.3,0,1,0,2.3,2.3,2.3,2.3,0,0,0-2.3-2.3" transform="translate(127.468 -43.149)" fill="#2c4556"/>
            <path id="Trazado_1035607" data-name="Trazado 1035607" d="M117.086,202.842a2.3,2.3,0,1,0,2.3,2.3A2.3,2.3,0,0,0,117.086,202.842Z" transform="translate(127.468 -43.149)" fill="none" stroke="#d3cabe" stroke-miterlimit="10" stroke-width="1"/>
            <path id="Trazado_1035608" data-name="Trazado 1035608" d="M132.219,213.227a2.3,2.3,0,1,0,2.3,2.3,2.3,2.3,0,0,0-2.3-2.3" transform="translate(100.421 -45.358)" fill="#2c4556"/>
            <path id="Trazado_1035609" data-name="Trazado 1035609" d="M132.219,213.227a2.3,2.3,0,1,0,2.3,2.3A2.3,2.3,0,0,0,132.219,213.227Z" transform="translate(100.421 -45.358)" fill="none" stroke="#d3cabe" stroke-miterlimit="10" stroke-width="1"/>
            <path id="Trazado_1035610" data-name="Trazado 1035610" d="M317.167,159.454l.172,24.568a16.958,16.958,0,1,1-11.638.039l-.4-24.567" transform="translate(-223.253 -33.919)" fill="none" stroke="#d3cabe" stroke-miterlimit="10" stroke-width="1"/>
            <path id="Trazado_1035611" data-name="Trazado 1035611" d="M326.431,207.346a14.6,14.6,0,1,1-28.468.1" transform="translate(-223.886 -44.107)" fill="none" stroke="#d3cabe" stroke-miterlimit="10" stroke-width="1"/>
            <path id="Trazado_1035612" data-name="Trazado 1035612" d="M298.083,206.95c0,1.037,6.448,1.856,14.392,1.829s14.382-.89,14.379-1.926-6.447-1.856-14.391-1.829S298.08,205.913,298.083,206.95Z" transform="translate(-224.306 -43.613)" fill="none" stroke="#d3cabe" stroke-miterlimit="10" stroke-width="1"/>
            <path id="Trazado_1035613" data-name="Trazado 1035613" d="M306.278,156.127a2.191,2.191,0,0,0,2.2,2.184l11.865-.041a2.19,2.19,0,1,0-.015-4.38l-11.865.04A2.191,2.191,0,0,0,306.278,156.127Z" transform="translate(-226.428 -32.736)" fill="none" stroke="#d3cabe" stroke-miterlimit="10" stroke-width="1"/>
            <path id="Trazado_1035614" data-name="Trazado 1035614" d="M309.662,217.208a1.543,1.543,0,1,0,.645-2.085A1.542,1.542,0,0,0,309.662,217.208Z" transform="translate(-218.997 -45.724)" fill="none" stroke="#d3cabe" stroke-miterlimit="10" stroke-width="1"/>
            <path id="Trazado_1035615" data-name="Trazado 1035615" d="M322.465,216.553a1.543,1.543,0,1,0,.645-2.086A1.544,1.544,0,0,0,322.465,216.553Z" transform="translate(-241.88 -45.584)" fill="none" stroke="#d3cabe" stroke-miterlimit="10" stroke-width="1"/>
            <path id="Trazado_1035616" data-name="Trazado 1035616" d="M316.239,224.156a1.543,1.543,0,1,0,.645-2.085A1.544,1.544,0,0,0,316.239,224.156Z" transform="translate(-230.752 -47.202)" fill="none" stroke="#d3cabe" stroke-miterlimit="10" stroke-width="1"/>
            <path id="Trazado_1035617" data-name="Trazado 1035617" d="M300.861,83.891h16.275l8.137,14.094-8.137,14.094H300.861l-8.137-14.094Z" transform="translate(-218.506 -17.845)" fill="none" stroke="#d3cabe" stroke-miterlimit="10" stroke-width="1"/>
            <path id="Trazado_1035618" data-name="Trazado 1035618" d="M292.706,70.893h11.815l5.908,10.232-5.908,10.232H292.706L286.8,81.126Z" transform="translate(-198.997 -15.081)" fill="none" stroke="#d3cabe" stroke-miterlimit="10" stroke-width="1"/>
            <path id="Trazado_1035619" data-name="Trazado 1035619" d="M63.695,147.449a2.382,2.382,0,1,0,2.382-2.382A2.383,2.383,0,0,0,63.695,147.449Z" transform="translate(218.618 -30.859)" fill="none" stroke="#d3cabe" stroke-miterlimit="10" stroke-width="0.5"/>
            <path id="Trazado_1035620" data-name="Trazado 1035620" d="M335.886,56.248a7.6,7.6,0,1,0,7.6-7.6A7.6,7.6,0,0,0,335.886,56.248Z" transform="translate(-278.297 -10.349)" fill="none" stroke="#d3cabe" stroke-miterlimit="10" stroke-width="1.268"/>
            <path id="Trazado_1035621" data-name="Trazado 1035621" d="M270.771,52.448a3.8,3.8,0,1,0,3.8-3.8A3.8,3.8,0,0,0,270.771,52.448Z" transform="translate(-154.32 -10.349)" fill="none" stroke="#d3cabe" stroke-miterlimit="10" stroke-width="0.634"/>
            <path id="Trazado_1035622" data-name="Trazado 1035622" d="M124.81,50.054a2.37,2.37,0,1,0,2.37-2.37A2.37,2.37,0,0,0,124.81,50.054Z" transform="translate(109.412 -10.143)" fill="none" stroke="#d3cabe" stroke-miterlimit="10" stroke-width="0.634"/>
            <path id="Trazado_1035623" data-name="Trazado 1035623" d="M340.711,137.145a3.8,3.8,0,1,0,3.8-3.8A3.8,3.8,0,0,0,340.711,137.145Z" transform="translate(-279.322 -28.366)" fill="none" stroke="#d3cabe" stroke-miterlimit="10" stroke-width="1"/>
            <line id="Línea_1044" data-name="Línea 1044" y2="113.781" transform="translate(174.877 95.967)" fill="none" stroke="#2c4556" stroke-miterlimit="10" stroke-width="0.776"/>
            <g id="Grupo_1177101" data-name="Grupo 1177101" transform="translate(137.273 4.077)" opacity="0.17" style="mix-blend-mode: overlay;isolation: isolate">
              <g id="Grupo_1177100" data-name="Grupo 1177100">
                <g id="Grupo_1177099" data-name="Grupo 1177099" clip-path="url(#clip-path-4)">
                  <path id="Trazado_1035624" data-name="Trazado 1035624" d="M240.5,13.1a25.345,25.345,0,0,1,7.824-7.92s-8.4,11.681-7.824,23.544-2.6,18.895-4.58,25.606c-2.1,7.1,1.569,15.627,3.666,20.217-4.65,2.248-7.739,4.025-7.739,4.025s-9.353-12.6-.955-26.086,4.2-30.8,9.608-39.385" transform="translate(-227.389 -5.178)" fill="#fff"/>
                </g>
              </g>
            </g>
            <path id="Trazado_1035625" data-name="Trazado 1035625" d="M361.765,247.405s2.053-4.848,6.543-6.826" transform="translate(-315.895 -51.177)" fill="none" stroke="#427824" stroke-miterlimit="10" stroke-width="1"/>
            <g id="Grupo_1177147" data-name="Grupo 1177147">
              <path id="Trazado_1035684" data-name="Trazado 1035684" d="M240.009,261.181s-14.149,46.119-1.3,80.478" transform="translate(-86.47 -55.56)" fill="none" stroke="#fff2e3" stroke-miterlimit="10" stroke-width="0.97"/>
              <path id="Trazado_1035685" data-name="Trazado 1035685" d="M98.608,273.132l-2.4-1.558H29.014L0,328.369H61.272Z" transform="translate(238.614 -57.771)" fill="#b2b2b2"/>
              <rect id="Rectángulo_416036" data-name="Rectángulo 416036" width="103.356" height="6.223" transform="translate(205.948 270.599)" fill="#cecece"/>
              <path id="Trazado_1035686" data-name="Trazado 1035686" d="M27.919,273.553H96.126L68.208,328.79H0Z" transform="translate(241.096 -58.191)" fill="#cecece"/>
              <path id="Trazado_1035687" data-name="Trazado 1035687" d="M46.11,312.172c2.67,3.663,8.461,3.991,12.933.732s5.934-8.872,3.265-12.536-8.459-3.991-12.932-.731-5.936,8.871-3.266,12.535" transform="translate(238.328 -63.263)" fill="#fff"/>
              <line id="Línea_1045" data-name="Línea 1045" x1="70.689" transform="translate(238.615 270.599)" fill="none" stroke="#b2b2b2" stroke-miterlimit="10" stroke-width="0.97"/>
              <rect id="Rectángulo_416037" data-name="Rectángulo 416037" width="48.498" height="6.223" transform="translate(190.116 270.599)" fill="#b2b2b2"/>
              <rect id="Rectángulo_416038" data-name="Rectángulo 416038" width="14.03" height="2.672" transform="translate(250.354 272.499)" fill="#b2b2b2"/>
              <rect id="Rectángulo_416039" data-name="Rectángulo 416039" width="7.349" height="2.672" transform="translate(227.926 272.499)" fill="#7a7774"/>
              <rect id="Rectángulo_416040" data-name="Rectángulo 416040" width="7.349" height="2.672" transform="translate(216.663 272.499)" fill="#7a7774"/>
              <path id="Trazado_1035688" data-name="Trazado 1035688" d="M320.086,345.912H283.977a10.3,10.3,0,1,1,0-20.6h36.109Z" transform="translate(-198.323 -69.201)" fill="#af1018"/>
              <path id="Trazado_1035689" data-name="Trazado 1035689" d="M320.086,345.912H283.977a10.3,10.3,0,1,1,0-20.6h36.109Z" transform="translate(-198.323 -69.201)" fill="#db5e1f"/>
              <path id="Trazado_1035690" data-name="Trazado 1035690" d="M224.787,344.911h45.221V328.556H224.787a7.761,7.761,0,0,0-7.761,7.761v.833a7.761,7.761,0,0,0,7.761,7.761" transform="translate(-103.645 -69.892)" fill="#fff"/>
              <path id="Trazado_1035691" data-name="Trazado 1035691" d="M224.786,328.556a7.76,7.76,0,0,0-7.76,7.744,7.748,7.748,0,0,1,7.576-6.131h45.405v-1.614Z" transform="translate(-103.645 -69.892)" fill="#d6c7b4"/>
              <g id="Grupo_1177122" data-name="Grupo 1177122" transform="translate(86.653 256.11)" opacity="0.35">
                <g id="Grupo_1177121" data-name="Grupo 1177121">
                  <g id="Grupo_1177120" data-name="Grupo 1177120" clip-path="url(#clip-path-5)">
                    <path id="Trazado_1035692" data-name="Trazado 1035692" d="M303.351,335.612h0a10.3,10.3,0,0,1,10.3-10.3h-6.81a10.3,10.3,0,0,0,0,20.6h6.81a10.3,10.3,0,0,1-10.3-10.3" transform="translate(-296.541 -325.312)" fill="#590a06"/>
                  </g>
                </g>
              </g>
              <path id="Trazado_1035693" data-name="Trazado 1035693" d="M266.364,341.271l-1.9-.074c-1.207-.031-2.932-.106-5-.141s-4.484-.1-7.071-.117l-8.107-.051-8.106.05c-2.587.013-5,.086-7.071.117s-3.794.11-5,.141l-1.9.075,1.9.075c1.208.031,2.933.107,5,.141s4.484.1,7.071.117l8.106.05,8.107-.051c2.587-.015,5-.086,7.071-.117s3.795-.109,5-.141l1.9-.074" transform="translate(-104.085 -72.515)" fill="#d3cabe"/>
              <path id="Trazado_1035694" data-name="Trazado 1035694" d="M261.515,338.84l-1.9-.074c-1.207-.031-2.932-.106-5-.141s-4.484-.1-7.071-.117l-8.107-.05-8.106.05c-2.587.013-5,.086-7.071.117s-3.795.11-5,.141l-1.9.075,1.9.075c1.207.031,2.932.107,5,.141s4.484.1,7.071.117l8.106.05,8.107-.051c2.587-.015,5-.086,7.071-.117s3.795-.109,5-.141l1.9-.074" transform="translate(-95.419 -71.998)" fill="#d3cabe"/>
              <path id="Trazado_1035695" data-name="Trazado 1035695" d="M263.872,334.24l-1.9-.074c-1.207-.031-2.932-.106-5-.141s-4.484-.1-7.071-.117l-8.106-.051-8.106.05c-2.587.013-5,.086-7.071.117s-3.794.11-5,.141l-1.9.075,1.9.075c1.208.031,2.933.107,5,.141s4.484.1,7.071.117l8.106.05,8.106-.05c2.588-.015,5-.086,7.071-.117s3.795-.109,5-.141l1.9-.074" transform="translate(-99.631 -71.02)" fill="#d3cabe"/>
              <path id="Trazado_1035696" data-name="Trazado 1035696" d="M225.392,343.358a7.746,7.746,0,1,1,0-15.492h45.483v-2.554h-45.7a10.3,10.3,0,0,0,0,20.6h45.7v-2.554Z" transform="translate(-102.821 -69.201)" fill="#f27740"/>
              <g id="Grupo_1177125" data-name="Grupo 1177125" transform="translate(75.354 256.11)" opacity="0.2" style="mix-blend-mode: multiply;isolation: isolate">
                <g id="Grupo_1177124" data-name="Grupo 1177124">
                  <g id="Grupo_1177123" data-name="Grupo 1177123" clip-path="url(#clip-path-6)">
                    <path id="Trazado_1035697" data-name="Trazado 1035697" d="M324.34,325.312H303.971a10.3,10.3,0,1,0,0,20.6c0-19.138,20.369-20.6,20.369-20.6" transform="translate(-293.671 -325.312)" fill="#560410"/>
                  </g>
                </g>
              </g>
              <g id="Grupo_1177128" data-name="Grupo 1177128" transform="translate(75.354 256.11)" opacity="0.16" style="mix-blend-mode: multiply;isolation: isolate">
                <g id="Grupo_1177127" data-name="Grupo 1177127">
                  <g id="Grupo_1177126" data-name="Grupo 1177126" clip-path="url(#clip-path-7)">
                    <path id="Trazado_1035698" data-name="Trazado 1035698" d="M307.252,325.312H278.19c-.2,0-.4.007-.6.018v-.018H241.486a10.3,10.3,0,1,0,0,20.6H277.6v-.018c.2.011.4.018.6.018l32.857-20.256Z" transform="translate(-231.186 -325.312)" fill="#1b2942"/>
                  </g>
                </g>
              </g>
              <path id="Trazado_1035699" data-name="Trazado 1035699" d="M302.706,303.323h-25.5a7.274,7.274,0,1,1,0-14.548h25.5Z" transform="translate(-177.994 -61.43)" fill="#af1018"/>
              <path id="Trazado_1035700" data-name="Trazado 1035700" d="M302.706,303.323h-25.5a7.274,7.274,0,1,1,0-14.548h25.5Z" transform="translate(-177.994 -61.43)" fill="#6fb590"/>
              <path id="Trazado_1035701" data-name="Trazado 1035701" d="M235.4,302.616H267.34v-11.55H235.4a5.481,5.481,0,0,0-5.481,5.481v.588a5.481,5.481,0,0,0,5.481,5.481" transform="translate(-111.131 -61.917)" fill="#fff"/>
              <path id="Trazado_1035702" data-name="Trazado 1035702" d="M235.4,291.065a5.48,5.48,0,0,0-5.48,5.469,5.471,5.471,0,0,1,5.35-4.329h32.066v-1.14Z" transform="translate(-111.13 -61.917)" fill="#d6c7b4"/>
              <g id="Grupo_1177131" data-name="Grupo 1177131" transform="translate(91.937 233.406)" opacity="0.49" style="mix-blend-mode: multiply;isolation: isolate">
                <g id="Grupo_1177130" data-name="Grupo 1177130">
                  <g id="Grupo_1177129" data-name="Grupo 1177129" clip-path="url(#clip-path-8)">
                    <path id="Trazado_1035703" data-name="Trazado 1035703" d="M277.274,297.686a7.341,7.341,0,0,0,.134,1.377h26.86v-2.59H277.383a7.249,7.249,0,0,0-.109,1.213" transform="translate(-277.274 -296.473)" fill="#1b2942"/>
                  </g>
                </g>
              </g>
              <path id="Trazado_1035704" data-name="Trazado 1035704" d="M235.831,301.519a5.47,5.47,0,0,1,0-10.941h32.121v-1.8H235.68a7.274,7.274,0,0,0,0,14.548h32.272v-1.8Z" transform="translate(-110.548 -61.43)" fill="#2d4f3b"/>
              <g id="Grupo_1177134" data-name="Grupo 1177134" transform="translate(91.937 227.346)" opacity="0.49" style="mix-blend-mode: multiply;isolation: isolate">
                <g id="Grupo_1177133" data-name="Grupo 1177133">
                  <g id="Grupo_1177132" data-name="Grupo 1177132" clip-path="url(#clip-path-9)">
                    <path id="Trazado_1035705" data-name="Trazado 1035705" d="M305.711,288.774H291.326a7.274,7.274,0,1,0,0,14.548c0-13.515,14.384-14.548,14.384-14.548" transform="translate(-284.052 -288.774)" fill="#1b2942"/>
                  </g>
                </g>
              </g>
              <path id="Trazado_1035706" data-name="Trazado 1035706" d="M263.968,301.62l-1.261-.086c-.8-.036-1.949-.123-3.325-.163s-2.981-.113-4.7-.142-3.555-.044-5.389-.054c-1.834.009-3.669.015-5.389.053s-3.325.1-4.7.141-2.522.128-3.325.164l-1.261.087,1.261.087c.8.036,1.949.124,3.325.164s2.981.115,4.7.141,3.555.044,5.389.053c1.834-.009,3.67-.016,5.389-.054s3.325-.1,4.7-.141,2.523-.128,3.325-.164l1.261-.086" transform="translate(-111.452 -64.067)" fill="#d3cabe"/>
              <path id="Trazado_1035707" data-name="Trazado 1035707" d="M261.195,298.341l-1.261-.037-3.325-.087-4.7-.068-5.389-.029-5.389.029-4.7.068c-2.752.06-4.587.125-4.587.125s1.834.065,4.587.125l4.7.068,5.389.029,5.389-.03,4.7-.068,3.325-.087,1.261-.037" transform="translate(-106.496 -63.417)" fill="#d3cabe"/>
              <path id="Trazado_1035708" data-name="Trazado 1035708" d="M220.985,321.581H246.1a7.164,7.164,0,0,0,0-14.328H220.985Z" transform="translate(-90.017 -65.36)" fill="#af1018"/>
              <path id="Trazado_1035709" data-name="Trazado 1035709" d="M220.985,321.581H246.1a7.164,7.164,0,0,0,0-14.328H220.985Z" transform="translate(-90.017 -65.36)" fill="#fdb03e"/>
              <path id="Trazado_1035710" data-name="Trazado 1035710" d="M286.031,320.885H254.58V309.51h31.451a5.4,5.4,0,0,1,5.4,5.4v.579a5.4,5.4,0,0,1-5.4,5.4" transform="translate(-154.631 -65.84)" fill="#fff"/>
              <path id="Trazado_1035711" data-name="Trazado 1035711" d="M286.031,309.51a5.4,5.4,0,0,1,5.4,5.386,5.389,5.389,0,0,0-5.269-4.263H254.58V309.51Z" transform="translate(-154.631 -65.84)" fill="#d6c7b4"/>
              <path id="Trazado_1035712" data-name="Trazado 1035712" d="M234.138,314.417h0a7.163,7.163,0,0,0-7.163-7.163h4.736a7.163,7.163,0,1,1,0,14.327h-4.736a7.164,7.164,0,0,0,7.163-7.163" transform="translate(-80.345 -65.36)" fill="#bc8d2f"/>
              <path id="Trazado_1035713" data-name="Trazado 1035713" d="M285.044,319.8a5.387,5.387,0,1,0,0-10.775H253.411v-1.776h31.782a7.163,7.163,0,1,1,0,14.327H253.411V319.8Z" transform="translate(-154.638 -65.36)" fill="#bc8d2f"/>
              <g id="Grupo_1177137" data-name="Grupo 1177137" transform="translate(141.915 241.894)" opacity="0.2" style="mix-blend-mode: overlay;isolation: isolate">
                <g id="Grupo_1177136" data-name="Grupo 1177136">
                  <g id="Grupo_1177135" data-name="Grupo 1177135" clip-path="url(#clip-path-10)">
                    <path id="Trazado_1035714" data-name="Trazado 1035714" d="M220.985,307.254h14.167a7.164,7.164,0,0,1,0,14.328c0-13.31-14.167-14.328-14.167-14.328" transform="translate(-220.985 -307.254)" fill="#fefefe"/>
                  </g>
                </g>
              </g>
              <path id="Trazado_1035715" data-name="Trazado 1035715" d="M290.795,319.992l-1.312-.067c-.836-.028-2.029-.1-3.462-.128s-3.1-.093-4.893-.106l-5.609-.046-5.609.046c-1.79.011-3.461.077-4.894.105s-2.625.1-3.461.128l-1.312.068,1.312.068c.836.028,2.029.1,3.461.128s3.1.094,4.894.105l5.609.046,5.609-.046c1.79-.013,3.461-.078,4.893-.106s2.626-.1,3.462-.128l1.312-.067" transform="translate(-158.456 -67.996)" fill="#d3cabe"/>
              <path id="Trazado_1035716" data-name="Trazado 1035716" d="M288.422,318.1l-1.313-.067c-.835-.028-2.029-.1-3.461-.128s-3.1-.093-4.893-.106l-5.609-.046-5.609.046c-1.79.011-3.461.077-4.894.105s-2.626.1-3.461.128l-1.312.068,1.312.068c.835.028,2.029.1,3.461.128s3.1.094,4.894.105l5.609.046,5.609-.046c1.79-.013,3.461-.078,4.893-.106s2.626-.1,3.461-.128l1.313-.067" transform="translate(-154.215 -67.594)" fill="#d3cabe"/>
              <path id="Trazado_1035717" data-name="Trazado 1035717" d="M291.916,313.576l-1.313-.067c-.835-.028-2.029-.1-3.461-.128s-3.1-.093-4.893-.106l-5.609-.046-5.609.046c-1.79.011-3.461.077-4.893.105s-2.626.1-3.462.128l-1.312.068,1.312.068c.835.028,2.029.1,3.462.128s3.1.094,4.893.105l5.609.046,5.609-.046c1.79-.013,3.461-.078,4.893-.106s2.626-.1,3.461-.128l1.313-.067" transform="translate(-160.459 -66.632)" fill="#d3cabe"/>
              <g id="Grupo_1177140" data-name="Grupo 1177140" transform="translate(98.773 241.894)" opacity="0.16" style="mix-blend-mode: multiply;isolation: isolate">
                <g id="Grupo_1177139" data-name="Grupo 1177139">
                  <g id="Grupo_1177138" data-name="Grupo 1177138" clip-path="url(#clip-path-11)">
                    <path id="Trazado_1035718" data-name="Trazado 1035718" d="M266.776,307.254v1.776h1.176V319.8h-1.176v1.777h4.768L295.2,307.254Z" transform="translate(-266.776 -307.254)" fill="#1b2942"/>
                  </g>
                </g>
              </g>
              <rect id="Rectángulo_416048" data-name="Rectángulo 416048" width="4.251" height="6.418" transform="translate(146.503 232.94)" fill="#f27740"/>
              <path id="Trazado_1035719" data-name="Trazado 1035719" d="M234.615,295.834s.475.055,1.186.1c.356.014.771.046,1.216.053l1.394.023,1.394-.023c.445-.006.86-.039,1.216-.053.712-.042,1.186-.1,1.186-.1s-.475-.056-1.186-.1c-.356-.014-.771-.047-1.216-.053l-1.394-.023-1.394.023c-.445.007-.86.039-1.216.053-.712.043-1.186.1-1.186.1" transform="translate(-89.692 -62.895)" fill="#d3cabe"/>
              <path id="Trazado_1035720" data-name="Trazado 1035720" d="M367.589,196.222s28.77,35.016,10.335,76.46c-31.995-27.695-10.82-62.789-10.335-76.46" transform="translate(-330.503 -41.741)" fill="#599172"/>
              <path id="Trazado_1035721" data-name="Trazado 1035721" d="M367.4,196.222s13.777,49.37,10.335,76.46" transform="translate(-330.318 -41.741)" fill="none" stroke="#427824" stroke-miterlimit="10" stroke-width="1"/>
              <path id="Trazado_1035722" data-name="Trazado 1035722" d="M384.959,234.344s-6.953-5.928-13.086-6.987" transform="translate(-340.504 -48.364)" fill="none" stroke="#427824" stroke-miterlimit="10" stroke-width="1"/>
              <path id="Trazado_1035723" data-name="Trazado 1035723" d="M385.311,264.235a26.219,26.219,0,0,0-17.284-9.749" transform="translate(-337.828 -54.136)" fill="none" stroke="#427824" stroke-miterlimit="10" stroke-width="1"/>
              <path id="Trazado_1035724" data-name="Trazado 1035724" d="M370.433,220.464s1.52-5.181,3.587-6.414" transform="translate(-328.431 -45.533)" fill="none" stroke="#427824" stroke-miterlimit="10" stroke-width="1"/>
              <path id="Trazado_1035725" data-name="Trazado 1035725" d="M363.73,198.863s11.8,43.756-22.067,73.932c-17.752-38.413,16-61.673,22.067-73.932" transform="translate(-293.46 -42.303)" fill="#6fb590"/>
              <path id="Trazado_1035726" data-name="Trazado 1035726" d="M361.15,198.863s-7.777,50.663-22.067,73.932" transform="translate(-290.88 -42.303)" fill="none" stroke="#448260" stroke-miterlimit="10" stroke-width="1"/>
              <path id="Trazado_1035727" data-name="Trazado 1035727" d="M356.077,236s-3.895-8.266-9.047-11.756" transform="translate(-292.064 -47.702)" fill="none" stroke="#448260" stroke-miterlimit="10" stroke-width="1"/>
              <path id="Trazado_1035728" data-name="Trazado 1035728" d="M367.877,264.355a26.221,26.221,0,0,0-11.736-16" transform="translate(-311.036 -52.831)" fill="none" stroke="#448260" stroke-miterlimit="10" stroke-width="1"/>
              <path id="Trazado_1035729" data-name="Trazado 1035729" d="M339.609,250.826s3.867-3.572,8.773-3.526" transform="translate(-278.526 -52.606)" fill="none" stroke="#448260" stroke-miterlimit="10" stroke-width="1"/>
              <path id="Trazado_1035730" data-name="Trazado 1035730" d="M336.583,223.924s3.519-4.1,5.91-4.368" transform="translate(-270.255 -46.705)" fill="none" stroke="#448260" stroke-miterlimit="10" stroke-width="1"/>
              <path id="Trazado_1035731" data-name="Trazado 1035731" d="M424.411,217.194s-7.824-11.041-13-6.719,3.591,10.292,13,6.719" transform="translate(-409.874 -44.56)" fill="#417556"/>
              <path id="Trazado_1035732" data-name="Trazado 1035732" d="M408.769,250.97s-.329-13.528-7.034-12.829-2.765,10.543,7.034,12.829" transform="translate(-385.197 -50.653)" fill="#417556"/>
              <path id="Trazado_1035733" data-name="Trazado 1035733" d="M406.626,212.836s-.329-13.528-7.034-12.829-2.765,10.543,7.034,12.829" transform="translate(-381.367 -42.541)" fill="#417556"/>
              <path id="Trazado_1035734" data-name="Trazado 1035734" d="M372.015,263.343s11.785-6.651,8.016-12.241-10.605,2.517-8.016,12.241" transform="translate(-335.981 -53.026)" fill="#417556"/>
              <path id="Trazado_1035735" data-name="Trazado 1035735" d="M407.536,280.857s-13.072-8.344-7.907-30.279-15.221-31.472-19.709-33.265" transform="translate(-369.415 -46.228)" fill="none" stroke="#133f1a" stroke-linecap="round" stroke-miterlimit="10" stroke-width="2"/>
              <path id="Trazado_1035736" data-name="Trazado 1035736" d="M398.86,227.528s.794-9.687-3.959-16.11" transform="translate(-372.584 -44.974)" fill="none" stroke="#133f1a" stroke-linecap="round" stroke-miterlimit="10" stroke-width="2"/>
              <path id="Trazado_1035737" data-name="Trazado 1035737" d="M400.569,257.036s-7.727-2.124-10.605-9.362" transform="translate(-370.357 -52.687)" fill="none" stroke="#133f1a" stroke-linecap="round" stroke-miterlimit="10" stroke-width="2"/>
              <path id="Trazado_1035738" data-name="Trazado 1035738" d="M379.3,273.376s7.227-4.485,9.326-15.208" transform="translate(-350.009 -54.919)" fill="none" stroke="#133f1a" stroke-linecap="round" stroke-miterlimit="10" stroke-width="2"/>
              <path id="Trazado_1035739" data-name="Trazado 1035739" d="M363.013,285.637h20.428s-3.149,36.952-11.114,51.947H353.7c-7.965-14.994-11.114-51.947-11.114-51.947Z" transform="translate(-315.928 -60.762)" fill="#2c4556"/>
              <g id="Grupo_1177143" data-name="Grupo 1177143" transform="translate(46.92 224.875)" opacity="0.45">
                <g id="Grupo_1177142" data-name="Grupo 1177142">
                  <g id="Grupo_1177141" data-name="Grupo 1177141" clip-path="url(#clip-path-12)">
                    <path id="Trazado_1035740" data-name="Trazado 1035740" d="M363.178,285.637s-3.149,36.952-11.114,51.947h-9.479c7.965-14.994,11.114-51.947,11.114-51.947Z" transform="translate(-342.585 -285.637)" fill="#1b2e38"/>
                  </g>
                </g>
              </g>
              <path id="Trazado_1035741" data-name="Trazado 1035741" d="M383.441,285.637s-.259,3.04-.816,7.724H343.4c-.557-4.684-.816-7.724-.816-7.724h40.857Z" transform="translate(-315.928 -60.762)" fill="#4b72b7"/>
              <path id="Trazado_1035742" data-name="Trazado 1035742" d="M21.885,357.046a5.426,5.426,0,0,0,5.426,5.426H317.794a5.426,5.426,0,0,0,0-10.852H27.311a5.426,5.426,0,0,0-5.426,5.426" transform="translate(-3.227 -74.798)" fill="#4b72b7"/>
              <g id="Grupo_1177146" data-name="Grupo 1177146" transform="translate(197.137 276.822)" opacity="0.52">
                <g id="Grupo_1177145" data-name="Grupo 1177145">
                  <g id="Grupo_1177144" data-name="Grupo 1177144" clip-path="url(#clip-path-13)">
                    <path id="Trazado_1035743" data-name="Trazado 1035743" d="M21.885,357.046a5.426,5.426,0,0,0,5.426,5.426h112a5.426,5.426,0,1,0,0-10.852h-112a5.426,5.426,0,0,0-5.426,5.426" transform="translate(-21.885 -351.62)" fill="#2c4556"/>
                  </g>
                </g>
              </g>
              <rect id="Rectángulo_416051" data-name="Rectángulo 416051" width="337.222" height="287.674" fill="none"/>
            </g>
            <g id="Grupo_1177158" data-name="Grupo 1177158" transform="translate(74.164 44.814)">
              <g id="Grupo_1177157" data-name="Grupo 1177157" transform="translate(0 0)" clip-path="url(#clip-path-14)">
                <g id="Grupo_1177156" data-name="Grupo 1177156">
                  <g id="Grupo_1177155" data-name="Grupo 1177155" clip-path="url(#clip-path-14)">
                    <g id="Grupo_1177154" data-name="Grupo 1177154" transform="translate(0 3.018)" opacity="0.45" style="mix-blend-mode: multiply;isolation: isolate">
                      <g id="Grupo_1177153" data-name="Grupo 1177153">
                        <g id="Grupo_1177152" data-name="Grupo 1177152" clip-path="url(#clip-path-16)">
                          <path id="Trazado_1035744" data-name="Trazado 1035744" d="M35.5,166.076,20.358,153.688l2.878-3,1.141.86,2.821-8.161a11.34,11.34,0,0,1,6.08-6.644l12.729-5.706a2.743,2.743,0,0,1,2.475,4.889s-5.058,3.208-4.692,3.06c5.238-2.12,20.545-3.43,20.545-3.43,1.7-.4,6.454.83,6.822,2.539l.39,2.541A4.942,4.942,0,0,1,69.1,146L36.931,160.931l-2.374-1.711L39,162.572Z" transform="translate(164.265 -29.605)" fill="#ccc4b1"/>
                          <path id="Trazado_1035745" data-name="Trazado 1035745" d="M65.2,172.589,83.97,114.469c.515-2.585,2.024-5.015,5.11-7.4-4.265-5-6.687-9.066-7.8-12.5-2.4-3.232-4.012-9.87,6.2-19.09l-1.02,3.483c1.734-1.726,3.619-3.418,5.321-5.258,2.65-2.864,4.137-7.046,4.929-11.444-1.045,4.32-2.873,8.135-5.732,10.321-1.3.994-2.456,1.958-3.5,2.9l9.447-32.248c-2.758-15.963,8.379-31.67,25.487-35.508,17.611-3.951,38.735-8.973,42.423,7.465,1.652,7.363-.481,17.777-4.914,27.393.065.232.1.368.1.368-.055-.078-.109-.146-.164-.221-.088.188-.174.377-.264.565q.351.464.727.911l1.747-2.308-.975,3.239c.133.161.265.309.4.481a21.973,21.973,0,0,1,1.848,2.725,18.767,18.767,0,0,1,1.394,2.9c.088.207.167.43.239.645a16.082,16.082,0,0,1,.892,5.553c-.109,5.755-2.812,17.491-8.618,22.757a12,12,0,0,1,3.005,2.623c8.469,7.547,3.991,13.9,3.514,15.916l-.994-3.871a15.374,15.374,0,0,1-1.538,4.268,21.5,21.5,0,0,1,8.255,8.673c12.868,14.907,44.2,50.1,44.2,50.1l33.632-31.153,17.857,14.732L229.234,184.4c-7.167,7.042-16.391,9.683-31.086,1.77l-23.578-18.539,2.864,25.346c.658,4.864,1.2,9.147,1.549,12.41l-1.044-7.938,4.127,36.521-58.171-.935-4.682,4.681-4.834-4.834-26.108-.42,3.855-21.833L82.05,200.556l-.111-.047A21.617,21.617,0,0,1,65.2,172.589" transform="translate(-64.14 -3.788)" fill="#ccc4b1"/>
                        </g>
                      </g>
                    </g>
                    <path id="Trazado_1035746" data-name="Trazado 1035746" d="M188.7,51.531s3.447,22.705-5.044,31.884S162.09,98.1,186.186,122.426s66.736-2.287,68.571-18.581-13.726-16.3-13.726-16.3Z" transform="translate(-140.123 -10.475)" fill="#1e0b02"/>
                    <path id="Trazado_1035747" data-name="Trazado 1035747" d="M105.16,203.636a62.9,62.9,0,0,0-2.039-7.029.393.393,0,0,0-.5-.245.406.406,0,0,0-.212.171c-.68,1.122-1.339,2.256-1.965,3.41-.315.575-.618,1.158-.916,1.745-.28.6-.585,1.178-.844,1.788.419-.513.792-1.054,1.189-1.581.379-.536.753-1.077,1.115-1.625.728-1.092,1.424-2.2,2.1-3.329l-.711-.074a62.839,62.839,0,0,0,2.785,6.768" transform="translate(68.358 -39.91)" fill="#2c2a2e"/>
                    <path id="Trazado_1035748" data-name="Trazado 1035748" d="M163.125,153.566l23.842,67.746,48.683,2.83,3.494-27.636a24.728,24.728,0,0,1,2.949-8.959l4.7-8.409a17.566,17.566,0,0,0,2.2-9.593l-1.66-27.994c.951-7.416-4.117-15.954-10.709-19.487a32.835,32.835,0,0,0-5.771-2.327,81.214,81.214,0,0,0-12.27-2.632c-5.351,17.606,3,51.558,3,51.558s-18.7-44.224-32.623-48.934a2.617,2.617,0,0,0-.709-.118c-3.191.883-19.572,7.888-20.389,8.366-12.614,7.32-8.543,14.761-4.732,25.589" transform="translate(-123.82 -23.804)" fill="#ab293c"/>
                    <path id="Trazado_1035749" data-name="Trazado 1035749" d="M201.285,82.315l.024.366.151,4.661.1,3.394.741,23.472a8.589,8.589,0,0,0,1,3.753l.207.4a13.673,13.673,0,0,0,3.012,2.964,13.051,13.051,0,0,0,11.871,1.354,10.338,10.338,0,0,0,6.924-6.836,10.86,10.86,0,0,0,.486-5.928l-7.959,8.836,3.5-16.381,1.817-8.517-.574-3.466-1.864-11.25c-.223.287-3.753,4.884-3.808,4.932a10.338,10.338,0,0,1-4.255,3.3,5.206,5.206,0,0,1-2.812.247,15.667,15.667,0,0,1-5.513-2.781,30.831,30.831,0,0,1-2.717-2.215L201.6,82.6c-.2-.183-.319-.287-.319-.287" transform="translate(-134.235 -16.086)" fill="#de8464"/>
                    <path id="Trazado_1035750" data-name="Trazado 1035750" d="M204.855,85.651l.12,3.458a25.577,25.577,0,0,0,19.3,14.54l1.817-8.517-.574-3.466-9.927-3.02-8.326-2.534-2.223-.677s-.072.08-.183.215" transform="translate(-137.16 -17.367)" fill="#b55353"/>
                    <path id="Trazado_1035751" data-name="Trazado 1035751" d="M245.257,78.172a9.5,9.5,0,1,1-11.351-7.19,9.5,9.5,0,0,1,11.351,7.19" transform="translate(-173.794 -14.381)" fill="#de8464"/>
                    <path id="Trazado_1035752" data-name="Trazado 1035752" d="M170.129,44.647c3.688,16.438,20.955,26.561,38.566,22.61s32.756-35.624,29.068-52.062S212.95,3.778,195.339,7.729s-28.9,20.48-25.21,36.918" transform="translate(-121.169 -0.77)" fill="#1e0b02"/>
                    <path id="Trazado_1035753" data-name="Trazado 1035753" d="M169.79,49.75c2.048,9.362,4.151,19.1,6.8,24.531,2.6,5.314,25.567,18.843,39.494,10.318,7.011-4.294,10.238-17.775,10.357-24.077a16.082,16.082,0,0,0-.892-5.553c-.072-.215-.151-.438-.239-.645a18.766,18.766,0,0,0-1.394-2.9,21.971,21.971,0,0,0-1.848-2.725c-.287-.366-.574-.709-.852-1.028a22.538,22.538,0,0,1-4.661-8.326c-2.51-8.429-9.792-24.117-28.595-19.639C162.572,25.744,169.79,49.75,169.79,49.75" transform="translate(-108.819 -3.845)" fill="#de8464"/>
                    <path id="Trazado_1035754" data-name="Trazado 1035754" d="M207.542,66.823s-3.252-15.55,19.717-24.391c9.111-3.508,8.535-14.764,6.546-28.1,0,0-53.159-.751-26.263,52.495" transform="translate(-142.179 -2.912)" fill="#1e0b02"/>
                    <path id="Trazado_1035755" data-name="Trazado 1035755" d="M233.781,81.64c1.132.36,2.279.636,3.429.88s2.308.453,3.47.632l-.178-.7a16.47,16.47,0,0,0-1.342,1.178c-.216.206-.419.427-.62.652-.1.117-.2.229-.288.352l-.134.188-.06.1a.375.375,0,0,0-.025.057c0,.01-.01.025.012.037l.029-.011c-.062,0,.008-.026.026-.045l.1-.057.193-.113.387-.224c.254-.155.512-.305.757-.47.5-.319.979-.666,1.45-1.021a.391.391,0,0,0-.17-.7l-.009,0q-1.738-.294-3.492-.492c-1.17-.131-2.344-.229-3.532-.244" transform="translate(-175.258 -16.595)" fill="#b55353"/>
                    <path id="Trazado_1035756" data-name="Trazado 1035756" d="M158.011,166.39a38.01,38.01,0,0,1,2.409,4.284,25.313,25.313,0,0,1,1.623,4.486c.231.758.324,1.543.486,2.319a23.725,23.725,0,0,1,.192,2.373,33.216,33.216,0,0,1-.267,4.893,12.72,12.72,0,0,0,1.509-4.843,14.828,14.828,0,0,0,.065-2.587,16.2,16.2,0,0,0-.444-2.554,15.609,15.609,0,0,0-2.085-4.7,13.362,13.362,0,0,0-3.488-3.675" transform="translate(-37.802 -33.822)" fill="#cbc0d1"/>
                    <path id="Trazado_1035757" data-name="Trazado 1035757" d="M235.547,18.9a25.659,25.659,0,0,1-3.112,8.84,29.393,29.393,0,0,1-5.815,7.286,33.61,33.61,0,0,1-3.71,2.854l-.977.65a7.256,7.256,0,0,1-1.005.6c-.7.359-1.386.731-2.073,1.109a16.837,16.837,0,0,1-2.134.99l-2.176.917c-1.48.535-2.994.98-4.49,1.512,1.539-.357,3.083-.729,4.618-1.143l2.239-.821a17.348,17.348,0,0,0,2.21-.9c.718-.346,1.435-.7,2.145-1.062a7.447,7.447,0,0,0,1.036-.6l1.008-.649a33.817,33.817,0,0,0,3.844-2.869,28.324,28.324,0,0,0,5.819-7.587,26.389,26.389,0,0,0,1.789-4.435,20.687,20.687,0,0,0,.785-4.693" transform="translate(-150.761 -3.841)" fill="#3f3d42"/>
                    <path id="Trazado_1035758" data-name="Trazado 1035758" d="M240.195,28.174a15.951,15.951,0,0,1-1.569,2.032,19.875,19.875,0,0,1-1.781,1.826,32.352,32.352,0,0,1-4.015,3.117c-.717.453-1.429.917-2.183,1.311-.727.444-1.507.787-2.264,1.184s-1.558.7-2.337,1.054c-.788.339-1.6.621-2.393.971.844-.177,1.684-.386,2.523-.6.815-.287,1.653-.526,2.453-.861a26.414,26.414,0,0,0,4.636-2.389,22.835,22.835,0,0,0,4.009-3.35,14.7,14.7,0,0,0,2.919-4.291" transform="translate(-166.245 -5.727)" fill="#3f3d42"/>
                    <path id="Trazado_1035759" data-name="Trazado 1035759" d="M148.24,166.364l-17.857-14.732L96.751,182.785S38.895,117.8,48.126,127.034c1.1,1.1-3.937,54.9-3.937,54.9l37.019,29.106c14.695,7.913,23.919,5.273,31.086-1.77Z" transform="translate(68.695 -25.64)" fill="#ab293c"/>
                    <path id="Trazado_1035760" data-name="Trazado 1035760" d="M56.535,171.151,41.394,158.763l2.878-3,15.767,11.887Z" transform="translate(159.124 -31.661)" fill="#fbfbfb"/>
                    <path id="Trazado_1035761" data-name="Trazado 1035761" d="M232.652,185.5l9.652,85.409L148.509,269.4l10.863-61.52,62.23-6.277" transform="translate(-108.483 -37.707)" fill="#ab293c"/>
                    <path id="Trazado_1035762" data-name="Trazado 1035762" d="M195.138,200.946a2.733,2.733,0,1,1-2.733-2.733,2.733,2.733,0,0,1,2.733,2.733" transform="translate(-94.114 -40.291)" fill="#c94458"/>
                    <path id="Trazado_1035763" data-name="Trazado 1035763" d="M192.059,229.9a2.733,2.733,0,1,1-2.733-2.733,2.733,2.733,0,0,1,2.733,2.733" transform="translate(-88.582 -46.176)" fill="#c94458"/>
                    <rect id="Rectángulo_416055" data-name="Rectángulo 416055" width="56.169" height="75.982" transform="translate(70.968 236.95) rotate(-135)" fill="#679196"/>
                    <path id="Trazado_1035764" data-name="Trazado 1035764" d="M13.057,160.931,45.227,146a4.941,4.941,0,0,0,2.446-5.368l-.39-2.541c-.368-1.709-5.121-2.942-6.822-2.539,0,0-15.308,1.31-20.545,3.43-.366.148,4.692-3.06,4.692-3.06a2.743,2.743,0,0,0-2.475-4.889L9.4,136.74a11.34,11.34,0,0,0-6.08,6.644L.408,151.818Z" transform="translate(204.033 -26.587)" fill="#de8464"/>
                    <path id="Trazado_1035765" data-name="Trazado 1035765" d="M193.154,78.425A29.922,29.922,0,0,1,178.792,83.4s5.16,6.481,10.3,3.137c2.847-1.851,4.057-8.114,4.057-8.114" transform="translate(-83.461 -15.942)" fill="#fbfbfb"/>
                    <path id="Trazado_1035766" data-name="Trazado 1035766" d="M214.3,69.453s-3.834-8.072-9.8-5.352c-5.349,2.44-1.809,11.683-1.809,11.683s-.919-8.4,3.843-9.5c4.364-1.005,7.763,3.165,7.763,3.165" transform="translate(-122.739 -12.916)" fill="#1e0b02"/>
                    <path id="Trazado_1035767" data-name="Trazado 1035767" d="M185.887,55.517s-3.223-6.784-8.236-4.5c-4.5,2.05-1.52,9.819-1.52,9.819s-.585-6.6,3.231-7.982c3.54-1.279,6.525,2.661,6.525,2.661" transform="translate(-73.304 -10.275)" fill="#1e0b02"/>
                    <path id="Trazado_1035768" data-name="Trazado 1035768" d="M222.565,78.277c-.227-.3-6.45-2.474-6.45-2.474l5.788.275Z" transform="translate(-142.608 -15.409)" fill="#1e0b02"/>
                    <path id="Trazado_1035769" data-name="Trazado 1035769" d="M219.034,56.655S209.5,54.2,207.1,64.293c0,0-2.844-9.142,7.47-11.094l-.39-1.45s3.345.613,4.85,4.906" transform="translate(-131.612 -10.519)" fill="#1e0b02"/>
                    <path id="Trazado_1035770" data-name="Trazado 1035770" d="M176.386,47.471s5.3-5.216,11.2,3.153c0,0-2.014-9.16-9.711-7.68l-.36-1.433s-1.964,1.607-1.131,5.961" transform="translate(-75.814 -8.438)" fill="#1e0b02"/>
                    <path id="Trazado_1035771" data-name="Trazado 1035771" d="M174.4,55.736l1.237-4.11L173.612,54.3Z" transform="translate(-61.817 -10.494)" fill="#1e0b02"/>
                    <path id="Trazado_1035772" data-name="Trazado 1035772" d="M193.963,123.25a2.688,2.688,0,0,1,.709.12c.215.072.422.151.637.239l.016.008c3.434,1.442,7.131,5.163,10.74,9.943,10.748,14.2,21.32,40.66,21.734,41.648-.04-.191,1.784,1.235,1.409-.47-1.052-4.892-4.653-21.73-5.4-32.334-.582-8.166-1.417-15.369.5-21.655-.016,0-.032-.008-.048-.008-.725-.1-1.442-.2-2.135-.295-2.2-.279-4.239-.486-5.96-.629l-2.725,7.912-8.955-7.011c-1.585.343-3.362.741-5.187,1.179-1.219.287-2.47.6-3.7.916-.55.143-1.1.287-1.633.438" transform="translate(-131.654 -24.355)" fill="#ededed"/>
                    <path id="Trazado_1035773" data-name="Trazado 1035773" d="M199.095,127.9l3.442,2.326,4.47,3.02.972-3.9,2.565-10.254.916-3.649-1.96-1.084-4.82-2.653-2.231,6.461-2.725,7.912Z" transform="translate(-117.943 -22.706)" fill="#fbfbfb"/>
                    <path id="Trazado_1035774" data-name="Trazado 1035774" d="M209.1,122.658l.1.088.016.008,10.74,9.943,5.115,4.725.327-.414,4.741-6,.948-1.2-3.761-2.948-8.955-7.011-5.466-4.278-2.135,3.976-1.283,2.4Z" transform="translate(-145.545 -23.493)" fill="#fbfbfb"/>
                    <path id="Trazado_1035775" data-name="Trazado 1035775" d="M190.477,176.745c5.545-25.91,8.743-45.71,8.743-45.71l-12.69-2.287,9.424-10.739.511-.59L183.8,115.012c-.036.116-.079.241-.114.366-5.351,17.606,6.794,61.367,6.794,61.367" transform="translate(-92.339 -23.379)" fill="#c94458"/>
                    <path id="Trazado_1035776" data-name="Trazado 1035776" d="M193.145,124.2l15.177,10.434-7.455,9.547c16.681,13.194,37.446,33.747,37.446,33.747s-19.974-53.061-33.9-57.77a2.618,2.618,0,0,0-.709-.118c-3.349-.165-10.718,4.053-10.718,4.053Z" transform="translate(-139.928 -24.401)" fill="#c94458"/>
                    <path id="Trazado_1035777" data-name="Trazado 1035777" d="M.5,152.684c.072.109,1.305-.648,3.422-1.6a68.591,68.591,0,0,1,8.528-3.114l4.815-1.447c1.48-.455,2.8-.868,3.923-1.182,2.236-.633,3.665-.857,3.651-.983a11.169,11.169,0,0,0-3.79.414c-1.154.244-2.507.6-4,1.017s-3.131.862-4.844,1.387a47.682,47.682,0,0,0-8.545,3.382A11.186,11.186,0,0,0,.5,152.684" transform="translate(226.903 -29.333)" fill="#b35f3c"/>
                    <path id="Trazado_1035778" data-name="Trazado 1035778" d="M1.136,147.284A22.216,22.216,0,0,0,5.068,146c2.4-.871,5.7-2.086,9.421-3.149,1.864-.531,3.652-.96,5.3-1.327s3.122-.7,4.368-.945c2.491-.518,4.051-.57,4.059-.676.014-.124-1.609-.278-4.154.1-1.273.171-2.775.444-4.431.776s-3.484.74-5.366,1.276a78.141,78.141,0,0,0-9.409,3.4,19.116,19.116,0,0,0-3.717,1.833" transform="translate(223.025 -28.409)" fill="#b35f3c"/>
                    <path id="Trazado_1035779" data-name="Trazado 1035779" d="M170.307,65.213c.422,1.219,3.784,1.163,7.521-.119a16.12,16.12,0,0,0,4.812-2.478,18.766,18.766,0,0,0-1.394-2.9,16.84,16.84,0,0,0-4.924.988c-3.737,1.275-6.43,3.3-6.015,4.509" transform="translate(-66.154 -12.139)" fill="#d16666"/>
                    <path id="Trazado_1035780" data-name="Trazado 1035780" d="M199.334,81.23c.727,1.057,3.953.1,7.208-2.137s5.3-4.908,4.577-5.964-3.954-.1-7.208,2.137-5.3,4.908-4.577,5.964" transform="translate(-117.822 -14.777)" fill="#d16666"/>
                    <path id="Trazado_1035781" data-name="Trazado 1035781" d="M186.507,74.241a9.473,9.473,0,0,0,2.156-1.556c.32-.251.671-.522,1.056-.8q.288-.206.6-.413l.32-.2a5.03,5.03,0,0,0,.563-.36l.243-.206c.015-.018.054-.033.049-.054l-.05-.072-.1-.135a1.641,1.641,0,0,0-.53-.5,5.538,5.538,0,0,1-.755-.482,10.435,10.435,0,0,1-1.3-1.173,25.841,25.841,0,0,1-3.445-5.235,7.361,7.361,0,0,0-1.491-2.216,10.4,10.4,0,0,0,.967,2.479,19.7,19.7,0,0,0,3.366,5.542,10.18,10.18,0,0,0,1.417,1.256,4.9,4.9,0,0,0,.712.438c.007,0,.051.017.026.028l-.01.011c-.006.006.008,0-.071.05l-.33.229q-.318.234-.6.466c-.381.31-.719.614-1.02.9-1.194,1.144-1.845,1.921-1.774,2" transform="translate(-85.801 -12.367)" fill="#b55353"/>
                    <path id="Trazado_1035782" data-name="Trazado 1035782" d="M227.4,230.264l-19.053-17.588-15.633,14.168,20.137,17.441Z" transform="translate(-128.807 -43.231)" fill="#fbfbfb"/>
                    <path id="Trazado_1035783" data-name="Trazado 1035783" d="M224.2,141.189l-19.165,59.33a21.616,21.616,0,0,0,16.743,27.92l41.81,17.789,14.124-27.021-37.355-16.818,13.307-42.48Z" transform="translate(-188.08 -28.7)" fill="#ab293c"/>
                    <path id="Trazado_1035784" data-name="Trazado 1035784" d="M193.519,239.242l10.922,3.839a9.008,9.008,0,0,1,4.133,14.015l-6.388,8.245c-2.26,2.916-4.138,1.66-7.8,1.227l-.1-.614,1.433-2.354-12.18-4.5Z" transform="translate(-104.55 -48.631)" fill="#de8464"/>
                    <path id="Trazado_1035785" data-name="Trazado 1035785" d="M190.645,264.251c.105.018.347-.689.524-1.88a15.908,15.908,0,0,0-.034-4.709,13.423,13.423,0,0,0-1.542-4.463c-.608-1.049-1.129-1.593-1.213-1.535-.219.133,1.405,2.616,1.938,6.131.552,3.5.06,6.422.328,6.457" transform="translate(-89.257 -51.155)" fill="#8c2828"/>
                    <path id="Trazado_1035786" data-name="Trazado 1035786" d="M195.09,270.7c.111.014.316-.662.513-1.784a19.753,19.753,0,0,0,.276-4.462,10.874,10.874,0,0,0-1.129-4.372c-.554-1.033-1.095-1.526-1.17-1.466-.107.076.251.679.636,1.706a14.584,14.584,0,0,1,.837,4.184,42.833,42.833,0,0,1-.032,4.349c-.046,1.124-.046,1.831.07,1.846" transform="translate(-97.982 -52.568)" fill="#8c2828"/>
                    <path id="Trazado_1035787" data-name="Trazado 1035787" d="M234.862,210.157a11.33,11.33,0,0,0,.312-1.58,31.068,31.068,0,0,1,1.242-4.182c.309-.872.668-1.824,1.02-2.867l1.018-3.338c.7-2.357,1.461-4.948,2.264-7.669.786-2.718,1.571-5.319,2.114-7.727s1.027-4.553,1.435-6.364c.829-3.612,1.577-5.78,1.46-5.825a5.5,5.5,0,0,0-.682,1.474c-.374.974-.849,2.409-1.345,4.207s-1.012,3.952-1.609,6.328c-.578,2.377-1.378,4.945-2.166,7.672s-1.523,5.319-2.2,7.679c-.331,1.182-.647,2.3-.943,3.355-.331,1.04-.64,2.008-.921,2.892a23.166,23.166,0,0,0-1.005,4.317,4.236,4.236,0,0,0,.007,1.63" transform="translate(-180.665 -34.679)" fill="#8c2828"/>
                    <path id="Trazado_1035788" data-name="Trazado 1035788" d="M161.924,238.322a2.555,2.555,0,0,0,0-.747c-.029-.488-.084-1.2-.165-2.127-.169-1.845-.454-4.51-.857-7.8-.8-6.575-2.046-15.636-3.479-25.634s-2.715-19.048-3.65-25.6c-.454-3.277-.786-5.932-1.009-7.767a22.224,22.224,0,0,0-.377-2.852,2.515,2.515,0,0,0-.032.746c.014.488.015,1.211.087,2.135.126,1.849.37,4.521.751,7.811.747,6.582,1.977,15.646,3.411,25.645,1.452,9.994,2.767,19.043,3.718,25.593.472,3.275.854,5.925,1.118,7.757.13.916.237,1.627.319,2.108a2.558,2.558,0,0,0,.167.729" transform="translate(-31.187 -33.702)" fill="#8c2828"/>
                    <path id="Trazado_1035789" data-name="Trazado 1035789" d="M105.611,210.423a12.544,12.544,0,0,0,1.232-3.171,74.514,74.514,0,0,0,2.007-7.949q.05-.259.1-.512a.155.155,0,0,0,0-.054s0,0,.01,0l.01.014,0,.006.035.1.08.221.619,1.675c.4,1.056.739,1.995,1,2.786a15.9,15.9,0,0,0,.874,2.541,7.235,7.235,0,0,0-.363-2.688c-.2-.823-.486-1.8-.839-2.874l-.56-1.693-.483-1.481q-.3-.945-.6-1.922c-.226,1.2-.461,2.447-.7,3.722-1.218,6.242-2.661,11.208-2.426,11.281" transform="translate(56.395 -39.723)" fill="#8c2828"/>
                    <path id="Trazado_1035790" data-name="Trazado 1035790" d="M188.84,37.029a6.311,6.311,0,0,0,.8-1.625,33.776,33.776,0,0,0,1.422-4.723,47.143,47.143,0,0,0,1.084-7.239,29.9,29.9,0,0,0-.561-8.982,10.76,10.76,0,0,0-2.015-4.311,9.429,9.429,0,0,0-3.66-2.509,16.014,16.014,0,0,0-3.831-1.009,26.283,26.283,0,0,0-3.414-.284,34.619,34.619,0,0,0-4.926.265,6.573,6.573,0,0,0-1.775.347c.013.146,2.57-.214,6.679-.025a28.08,28.08,0,0,1,3.325.377,15.894,15.894,0,0,1,3.65,1.037,8.8,8.8,0,0,1,3.334,2.329,10.16,10.16,0,0,1,1.83,3.987,30.686,30.686,0,0,1,.6,8.733,53.373,53.373,0,0,1-.895,7.166,48.339,48.339,0,0,1-1.154,4.737,9.471,9.471,0,0,0-.492,1.732" transform="translate(-77.112 -1.289)" fill="#3f3d42"/>
                    <path id="Trazado_1035791" data-name="Trazado 1035791" d="M256.346,105.2c.065-.051-.5-.664-1.123-1.985a9.513,9.513,0,0,1-.758-2.518,10.528,10.528,0,0,1,.135-3.461,18.437,18.437,0,0,1,4.354-7.916,40.254,40.254,0,0,1,3.851-3.834c1.41-1.275,3.012-2.338,4.508-3.863a16.831,16.831,0,0,0,3.11-5.145,30.117,30.117,0,0,0,1.566-5.336,44.837,44.837,0,0,0,.751-9.33,37.845,37.845,0,0,0-.611-6.272,16,16,0,0,0-.381-1.671c-.1-.378-.17-.573-.2-.566a17.31,17.31,0,0,0,.26,2.287,50.03,50.03,0,0,1-.569,15.4,30.342,30.342,0,0,1-1.567,5.181,16.3,16.3,0,0,1-2.969,4.891c-1.329,1.37-3.026,2.531-4.436,3.817a39.419,39.419,0,0,0-3.894,3.946,18.534,18.534,0,0,0-4.349,8.3,10.647,10.647,0,0,0-.017,3.649,9.145,9.145,0,0,0,.927,2.586c.092.165.178.32.257.466.1.137.187.265.27.383a4.555,4.555,0,0,0,.448.575c.267.292.415.435.436.416" transform="translate(-222.865 -10.834)" fill="#3f3d42"/>
                    <path id="Trazado_1035792" data-name="Trazado 1035792" d="M173.238,118.741c.065.012.167-.221.387-.641a19.419,19.419,0,0,0,.835-1.845,11.082,11.082,0,0,0,.721-2.969,11.272,11.272,0,0,0,.027-1.827,10.687,10.687,0,0,0-.382-1.926,11.445,11.445,0,0,0-.707-1.826c-.3-.552-.615-1.073-.927-1.556l-1-1.285-.991-1.006a6.764,6.764,0,0,0-.866-.77l-.7-.531c-.388-.282-.617-.416-.654-.372s.123.262.441.614l.59.626a8.516,8.516,0,0,1,.76.838l.885,1.04.9,1.272c.277.468.561.966.833,1.488a11.988,11.988,0,0,1,.64,1.7,11.089,11.089,0,0,1,.37,1.772,11.893,11.893,0,0,1,.019,1.688,12.759,12.759,0,0,1-.515,2.846c-.229.8-.458,1.448-.582,1.916s-.135.749-.085.755" transform="translate(-57.719 -20.77)" fill="#3f3d42"/>
                    <path id="Trazado_1035793" data-name="Trazado 1035793" d="M197.895,42.184a2.328,2.328,0,0,0,1.1-.056,6.227,6.227,0,0,0,2.752-1.243,7.773,7.773,0,0,0,1.47-1.521,10.667,10.667,0,0,0,1.148-2.126,16.417,16.417,0,0,0,1.025-5.356,28.394,28.394,0,0,0-1.437-9.684,11.767,11.767,0,0,0-1.68-3.686c-.12.054.487,1.47,1.119,3.853a33.111,33.111,0,0,1,1.17,9.485,16.929,16.929,0,0,1-.909,5.114,10.668,10.668,0,0,1-1,2.007,7.682,7.682,0,0,1-1.277,1.459,6.866,6.866,0,0,1-2.463,1.386c-.646.214-1.026.3-1.017.367" transform="translate(-110.929 -3.763)" fill="#3f3d42"/>
                    <path id="Trazado_1035794" data-name="Trazado 1035794" d="M198.379,216.271c0-.732-31.311-37.9-31.311-37.9l-3.663,3.479Z" transform="translate(-76.428 -36.257)" fill="#fbfbfb"/>
                    <path id="Trazado_1035795" data-name="Trazado 1035795" d="M178.617,4.929c.04.123,1.444-.355,3.492-1.466.516-.265,1.079-.555,1.691-.828a17.043,17.043,0,0,1,2.014-.7A30.227,30.227,0,0,1,190.654.99a23.81,23.81,0,0,1,8.879.522c2.209.607,3.438,1.386,3.516,1.254.031-.049-.255-.27-.808-.634a6.607,6.607,0,0,0-1.056-.576l-.684-.321-.8-.283A21.216,21.216,0,0,0,190.56.166a26.664,26.664,0,0,0-4.966,1.041,15.546,15.546,0,0,0-2.086.807c-.627.312-1.182.637-1.683.937-1.977,1.242-3.239,1.881-3.208,1.978" transform="translate(-93.218 0)" fill="#3f3d42"/>
                  </g>
                </g>
              </g>
            </g>
          </g>
        </g>
      </g>
    </g>
    <path id="Trazado_1035848" data-name="Trazado 1035848" d="M6.75.225A5.371,5.371,0,0,1,3.825-.562,5.2,5.2,0,0,1,1.888-2.8,8.052,8.052,0,0,1,1.2-6.275a8.116,8.116,0,0,1,.688-3.5A5.123,5.123,0,0,1,3.825-12a5.437,5.437,0,0,1,2.925-.775,5.007,5.007,0,0,1,2.937.863,4.056,4.056,0,0,1,1.637,2.337h-.3L11.3-12.55h1.95q-.075.725-.138,1.463T13.05-9.65V0H11.025V-2.95H11.3A3.984,3.984,0,0,1,9.65-.625,5.033,5.033,0,0,1,6.75.225Zm.4-1.65A3.543,3.543,0,0,0,10-2.663a5.447,5.447,0,0,0,1.05-3.613A5.49,5.49,0,0,0,10-9.913,3.543,3.543,0,0,0,7.15-11.15,3.552,3.552,0,0,0,4.313-9.913,5.445,5.445,0,0,0,3.25-6.275,5.4,5.4,0,0,0,4.313-2.663,3.552,3.552,0,0,0,7.15-1.425ZM23.278.225a4.95,4.95,0,0,1-2.925-.863A4.194,4.194,0,0,1,18.7-3h.275V0h-2V-18.4H19v8.775h-.3a4.132,4.132,0,0,1,1.65-2.3,5,5,0,0,1,2.925-.85,5.355,5.355,0,0,1,2.938.788A5.234,5.234,0,0,1,28.14-9.75a8.052,8.052,0,0,1,.688,3.475,7.928,7.928,0,0,1-.7,3.475A5.316,5.316,0,0,1,26.19-.562,5.308,5.308,0,0,1,23.278.225Zm-.425-1.65A3.605,3.605,0,0,0,25.7-2.65a5.351,5.351,0,0,0,1.075-3.625A5.4,5.4,0,0,0,25.7-9.913a3.589,3.589,0,0,0-2.85-1.238,3.552,3.552,0,0,0-2.838,1.238,5.445,5.445,0,0,0-1.062,3.637,5.4,5.4,0,0,0,1.063,3.613A3.552,3.552,0,0,0,22.853-1.425Zm14.4,1.65a6.23,6.23,0,0,1-3.213-.8,5.34,5.34,0,0,1-2.1-2.275,7.743,7.743,0,0,1-.737-3.5,7.461,7.461,0,0,1,.75-3.488,5.15,5.15,0,0,1,2.112-2.187,6.506,6.506,0,0,1,3.188-.75,6.627,6.627,0,0,1,2.337.425,5.028,5.028,0,0,1,1.888,1.2L40.755-9.7a4.979,4.979,0,0,0-1.637-1.075,4.717,4.717,0,0,0-1.737-.35A3.812,3.812,0,0,0,34.355-9.9,5.267,5.267,0,0,0,33.28-6.325a5.428,5.428,0,0,0,1.075,3.6A3.739,3.739,0,0,0,37.38-1.45a4.97,4.97,0,0,0,1.712-.325A4.736,4.736,0,0,0,40.755-2.85l.725,1.425A5.09,5.09,0,0,1,39.555-.2,6.6,6.6,0,0,1,37.255.225Z" transform="translate(243.036 114.581)" fill="#d3cabe"/>
  </g>
</svg>
