<svg xmlns="http://www.w3.org/2000/svg" xmlns:xlink="http://www.w3.org/1999/xlink" width="113" height="113" viewBox="0 0 113 113">
  <defs>
    <filter id="Trazado_982547" x="0" y="0" width="113" height="113" filterUnits="userSpaceOnUse">
      <feOffset dy="3" input="SourceAlpha"/>
      <feGaussianBlur stdDeviation="3" result="blur"/>
      <feFlood flood-opacity="0.161"/>
      <feComposite operator="in" in2="blur"/>
      <feComposite in="SourceGraphic"/>
    </filter>
  </defs>
  <g id="Grupo_1176421" data-name="Grupo 1176421" transform="translate(-585.5 -1298.145)">
    <g id="Grupo_1171047" data-name="Grupo 1171047" transform="translate(594.5 1304.145)">
      <g id="Grupo_1148525" data-name="Grupo 1148525" transform="translate(0)">
        <g transform="matrix(1, 0, 0, 1, -9, -6)" filter="url(#Trazado_982547)">
          <g id="Trazado_982547-2" data-name="Trazado 982547" transform="translate(9 6)" fill="#f4fdfe">
            <path d="M 47.5 93.5 C 41.28937149047852 93.5 35.26533508300781 92.28397369384766 29.59518623352051 89.88570404052734 C 24.11771965026855 87.56893157958984 19.19813346862793 84.25196075439453 14.97309303283691 80.02691650390625 C 10.74804019927979 75.80186462402344 7.431066513061523 70.88229370117188 5.114293098449707 65.40481567382812 C 2.716026782989502 59.73468017578125 1.5 53.71062850952148 1.5 47.5 C 1.5 41.28937149047852 2.716026782989502 35.26533508300781 5.114293098449707 29.59518623352051 C 7.431066513061523 24.11771965026855 10.74804019927979 19.19813346862793 14.97309303283691 14.97309303283691 C 19.19813346862793 10.74804019927979 24.11771965026855 7.431066513061523 29.59518623352051 5.114293098449707 C 35.26533508300781 2.716026782989502 41.28937149047852 1.5 47.5 1.5 C 53.71062850952148 1.5 59.73468017578125 2.716026782989502 65.40481567382812 5.114293098449707 C 70.88229370117188 7.431066513061523 75.80186462402344 10.74804019927979 80.02691650390625 14.97309303283691 C 84.25196075439453 19.19813346862793 87.56893157958984 24.11771965026855 89.88570404052734 29.59518623352051 C 92.28397369384766 35.26533508300781 93.5 41.28937149047852 93.5 47.5 C 93.5 53.71062850952148 92.28397369384766 59.73468017578125 89.88570404052734 65.40481567382812 C 87.56893157958984 70.88229370117188 84.25196075439453 75.80186462402344 80.02691650390625 80.02691650390625 C 75.80186462402344 84.25196075439453 70.88229370117188 87.56893157958984 65.40481567382812 89.88570404052734 C 59.73468017578125 92.28397369384766 53.71062850952148 93.5 47.5 93.5 Z" stroke="none"/>
            <path d="M 47.5 3 C 41.49121475219727 3 35.66376876831055 4.176155090332031 30.17950439453125 6.495796203613281 C 24.88084411621094 8.736953735351562 20.12152099609375 11.94598388671875 16.03375244140625 16.03375244140625 C 11.94598388671875 20.12152099609375 8.736953735351562 24.88084411621094 6.495796203613281 30.17950439453125 C 4.176155090332031 35.66376876831055 3 41.49121475219727 3 47.5 C 3 53.50878524780273 4.176155090332031 59.33623123168945 6.495796203613281 64.82049560546875 C 8.736953735351562 70.11915588378906 11.94598388671875 74.87847900390625 16.03375244140625 78.96624755859375 C 20.12152099609375 83.05401611328125 24.88084411621094 86.26304626464844 30.17950439453125 88.50419616699219 C 35.66376876831055 90.82384490966797 41.49121475219727 92 47.5 92 C 53.50878524780273 92 59.33623123168945 90.82384490966797 64.82049560546875 88.50419616699219 C 70.11915588378906 86.26304626464844 74.87847900390625 83.05401611328125 78.96624755859375 78.96624755859375 C 83.05401611328125 74.87847900390625 86.26304626464844 70.11915588378906 88.50419616699219 64.82049560546875 C 90.82384490966797 59.33623123168945 92 53.50878524780273 92 47.5 C 92 41.49121475219727 90.82384490966797 35.66376876831055 88.50419616699219 30.17950439453125 C 86.26304626464844 24.88084411621094 83.05401611328125 20.12152099609375 78.96624755859375 16.03375244140625 C 74.87847900390625 11.94598388671875 70.11915588378906 8.736953735351562 64.82049560546875 6.495796203613281 C 59.33623123168945 4.176155090332031 53.50878524780273 3 47.5 3 M 47.5 0 C 73.7335205078125 0 95 21.2664794921875 95 47.5 C 95 73.7335205078125 73.7335205078125 95 47.5 95 C 21.2664794921875 95 0 73.7335205078125 0 47.5 C 0 21.2664794921875 21.2664794921875 0 47.5 0 Z" stroke="none" fill="#56838a"/>
          </g>
        </g>
      </g>
    </g>
    <g id="support_994285_1_" data-name="support_994285 (1)" transform="translate(615.902 1323.546)">
      <path id="Trazado_1024054" data-name="Trazado 1024054" d="M340.189,8.533H328.013a3.747,3.747,0,0,0-3.746,3.746v9.366a3.747,3.747,0,0,0,3.746,3.746h2.81v4.683l4.683-4.683h4.683a3.747,3.747,0,0,0,3.746-3.746V12.28A3.747,3.747,0,0,0,340.189,8.533Z" transform="translate(-288.676 -7.596)" fill="#f0e4d6"/>
      <path id="Trazado_1024055" data-name="Trazado 1024055" d="M352.6,13.466A28.186,28.186,0,0,1,336.06,28.847a3.711,3.711,0,0,0,2.452.937h2.81v4.683L346,29.784h4.683a3.747,3.747,0,0,0,3.746-3.746V16.671A3.733,3.733,0,0,0,352.6,13.466Z" transform="translate(-299.174 -11.988)" fill="#ebdcca"/>
      <path id="Trazado_1024056" data-name="Trazado 1024056" d="M46.933,276.5l9.366-17.8H48.806l-4.683,8.43v-7.493a5.619,5.619,0,0,0-5.62-5.62h-5.62a2.81,2.81,0,0,1-2.81-2.81v-3.746H22.581v3.746a2.81,2.81,0,0,1-2.81,2.81h-5.62a5.619,5.619,0,0,0-5.62,5.62V276.5Z" transform="translate(-7.596 -220.305)" fill="#fec9a3"/>
      <g id="Grupo_1171118" data-name="Grupo 1171118" transform="translate(4.683 42.059)">
        <path id="Trazado_1024057" data-name="Trazado 1024057" d="M46.382,397.335H44.509v-2.49a9.336,9.336,0,0,1-.387-10.568l.685-1.079,1.582,1L45.7,385.28a7.462,7.462,0,0,0,.473,8.66.936.936,0,0,1,.205.585v2.81Z" transform="translate(-42.669 -383.198)" fill="#f5b789"/>
        <path id="Trazado_1024058" data-name="Trazado 1024058" d="M266.652,397.335h-1.873v-2.81a.936.936,0,0,1,.205-.585,7.46,7.46,0,0,0,.473-8.659l-.685-1.079,1.582-1,.685,1.079a9.336,9.336,0,0,1-.387,10.568Z" transform="translate(-240.394 -383.198)" fill="#f5b789"/>
      </g>
      <path id="Trazado_1024059" data-name="Trazado 1024059" d="M77.425,31.012V21.646A13.113,13.113,0,0,0,64.312,8.533h0A13.113,13.113,0,0,0,51.2,21.646v9.366a5.619,5.619,0,0,0,5.62,5.62H71.805A5.619,5.619,0,0,0,77.425,31.012Z" transform="translate(-45.58 -7.596)" fill="#f9b44d"/>
      <path id="Trazado_1024060" data-name="Trazado 1024060" d="M140.28,8.533a13.114,13.114,0,0,0-3.746.55A13.114,13.114,0,0,1,145.9,21.646v9.366a5.619,5.619,0,0,1-5.62,5.62h7.493a5.619,5.619,0,0,0,5.62-5.62V21.646A13.113,13.113,0,0,0,140.28,8.533Z" transform="translate(-121.548 -7.596)" fill="#f7aa36"/>
      <path id="Trazado_1024061" data-name="Trazado 1024061" d="M383.9,304.287h-8.43a5.619,5.619,0,0,1,5.62-5.62h8.43A5.619,5.619,0,0,1,383.9,304.287Z" transform="translate(-334.256 -265.886)" fill="#fec9a3"/>
      <g id="Grupo_1171119" data-name="Grupo 1171119" transform="translate(39.338 4.683)">
        <rect id="Rectángulo_414297" data-name="Rectángulo 414297" width="6.556" height="1.873" fill="#ccbfb0"/>
        <rect id="Rectángulo_414298" data-name="Rectángulo 414298" width="3.746" height="1.873" transform="translate(8.429)" fill="#ccbfb0"/>
        <rect id="Rectángulo_414299" data-name="Rectángulo 414299" width="12.176" height="1.873" transform="translate(0 3.746)" fill="#ccbfb0"/>
        <rect id="Rectángulo_414300" data-name="Rectángulo 414300" width="6.556" height="1.873" transform="translate(0 7.493)" fill="#ccbfb0"/>
      </g>
      <path id="Trazado_1024062" data-name="Trazado 1024062" d="M144.032,251.261v-3.794h-7.5v3.794a8.361,8.361,0,0,0,7.5,0Z" transform="translate(-121.548 -220.305)" fill="#f7c097"/>
      <path id="Trazado_1024063" data-name="Trazado 1024063" d="M93.867,90.489v4.033a8.429,8.429,0,1,0,16.859,0V87.029a8.384,8.384,0,0,0-1.009-4Z" transform="translate(-83.564 -73.917)" fill="#fec9a3"/>
      <rect id="Rectángulo_414301" data-name="Rectángulo 414301" width="13.113" height="10.303" transform="translate(12.176 39.338)" fill="#e8594a"/>
      <path id="Trazado_1024064" data-name="Trazado 1024064" d="M48.807,311.883l-4.683,8.43V312.82a5.619,5.619,0,0,0-5.62-5.62h-3l-9.179,12.176L17.618,307.2H14.153a5.619,5.619,0,0,0-5.62,5.62v16.859h38.4l9.366-17.8Z" transform="translate(-7.596 -273.482)" fill="#4398d1"/>
      <path id="Trazado_1024065" data-name="Trazado 1024065" d="M170.7,312.172h-7.493l-4.683,8.429v-7.493a5.62,5.62,0,0,0-5-5.584c-1.686,13.083-9.545,19.407-16.484,22.443h24.3Z" transform="translate(-121.996 -273.77)" fill="#3f8fc4"/>
      <g id="Grupo_1171120" data-name="Grupo 1171120" transform="translate(4.683 42.059)">
        <path id="Trazado_1024066" data-name="Trazado 1024066" d="M46.382,397.335H44.509v-2.49a9.336,9.336,0,0,1-.387-10.568l.685-1.079,1.582,1L45.7,385.28a7.462,7.462,0,0,0,.473,8.66.936.936,0,0,1,.205.585v2.81Z" transform="translate(-42.669 -383.198)" fill="#3685ba"/>
        <path id="Trazado_1024067" data-name="Trazado 1024067" d="M266.652,397.335h-1.873v-2.81a.936.936,0,0,1,.205-.585,7.46,7.46,0,0,0,.473-8.659l-.685-1.079,1.582-1,.685,1.079a9.336,9.336,0,0,1-.387,10.568Z" transform="translate(-240.394 -383.198)" fill="#3685ba"/>
      </g>
      <path id="Trazado_1024068" data-name="Trazado 1024068" d="M179.1,94.521V87.028a8.384,8.384,0,0,0-1.009-4l-2.377,1.118a13.054,13.054,0,0,1,.576,3.818v9.366a5.619,5.619,0,0,1-5.62,5.62,8.429,8.429,0,0,0,8.43-8.429Z" transform="translate(-151.935 -73.916)" fill="#f7c097"/>
      <path id="Trazado_1024069" data-name="Trazado 1024069" d="M64.208,29.035h-.937v1.873h.937a6.563,6.563,0,0,0,6.556-6.556v-10.3a14.049,14.049,0,0,0-28.1,0v10.3a6.563,6.563,0,0,0,6.556,6.556h.937V29.035h-.936a4.688,4.688,0,0,1-4.683-4.683v-10.3a12.176,12.176,0,0,1,24.352,0v10.3A4.688,4.688,0,0,1,64.208,29.035Z" transform="translate(-37.983)"/>
      <path id="Trazado_1024070" data-name="Trazado 1024070" d="M46.388,384.2l-1.582-1-.685,1.079a9.336,9.336,0,0,0,.387,10.568v2.49h1.873v-2.81a.936.936,0,0,0-.205-.585,7.462,7.462,0,0,1-.473-8.66Z" transform="translate(-37.985 -341.139)"/>
      <path id="Trazado_1024071" data-name="Trazado 1024071" d="M332.592,0H320.416a4.689,4.689,0,0,0-4.683,4.683v9.366a4.689,4.689,0,0,0,4.683,4.683h1.873v3.746a.937.937,0,0,0,.578.865.937.937,0,0,0,1.021-.2l4.409-4.409h4.3a4.689,4.689,0,0,0,4.683-4.683V4.683A4.688,4.688,0,0,0,332.592,0Zm2.81,14.049a2.81,2.81,0,0,1-2.81,2.81h-4.683a.934.934,0,0,0-.662.274l-3.084,3.084V17.8a.937.937,0,0,0-.937-.937h-2.81a2.81,2.81,0,0,1-2.81-2.81V4.683a2.81,2.81,0,0,1,2.81-2.81h12.176a2.81,2.81,0,0,1,2.81,2.81Z" transform="translate(-281.078)"/>
      <rect id="Rectángulo_414302" data-name="Rectángulo 414302" width="6.556" height="1.873" transform="translate(39.338 4.683)"/>
      <rect id="Rectángulo_414303" data-name="Rectángulo 414303" width="3.746" height="1.873" transform="translate(47.767 4.683)"/>
      <rect id="Rectángulo_414304" data-name="Rectángulo 414304" width="12.176" height="1.873" transform="translate(39.338 8.429)"/>
      <rect id="Rectángulo_414305" data-name="Rectángulo 414305" width="6.556" height="1.873" transform="translate(39.338 12.176)"/>
      <path id="Trazado_1024072" data-name="Trazado 1024072" d="M264.779,394.525v2.81h1.873v-2.49a9.336,9.336,0,0,0,.387-10.568l-.685-1.079-1.582,1,.685,1.079a7.46,7.46,0,0,1-.473,8.659A.936.936,0,0,0,264.779,394.525Z" transform="translate(-235.711 -341.139)"/>
      <path id="Trazado_1024073" data-name="Trazado 1024073" d="M1.873,105.664a4.688,4.688,0,0,1,4.683-4.683h2.98l8.434,11.784a.935.935,0,0,0,.749.392h.012a.936.936,0,0,0,.749-.375l8.9-11.8h2.529a4.688,4.688,0,0,1,4.683,4.683v7.493a.937.937,0,0,0,1.755.454l4.415-7.947h5.37L38,122.523H40.13l9.136-16.859h.375A6.563,6.563,0,0,0,56.2,99.108a.937.937,0,0,0-.937-.937H46.831a6.556,6.556,0,0,0-6.543,6.289l-2.823,5.082v-3.879a6.563,6.563,0,0,0-6.556-6.556H27.485l-.025-.02-.017.02H25.288a1.873,1.873,0,0,1-1.873-1.873v-2.2a9.367,9.367,0,0,0,4.683-8.1V79.439a9.381,9.381,0,0,0-1.124-4.445.937.937,0,0,0-1.218-.4L9.9,82.05a.938.938,0,0,0-.538.848v4.034a9.367,9.367,0,0,0,4.683,8.1v2.2a1.873,1.873,0,0,1-1.873,1.873H6.556A6.563,6.563,0,0,0,0,105.664v16.859H1.873Zm44.957-5.62h7.4a4.691,4.691,0,0,1-4.589,3.746h-7.4A4.691,4.691,0,0,1,46.831,100.045ZM18.752,110.639l-2.89-4.039H21.8ZM11.239,86.932V83.493L25.7,76.687a7.5,7.5,0,0,1,.524,2.752v7.493a7.493,7.493,0,1,1-14.986,0Zm.937,14.049a3.747,3.747,0,0,0,3.746-3.746V95.866a9.354,9.354,0,0,0,5.62,0v1.368a3.747,3.747,0,0,0,3.746,3.746h.749l-2.825,3.746h-8.7l-2.682-3.746Z" transform="translate(0 -66.327)"/>
    </g>
  </g>
</svg>
