<svg xmlns="http://www.w3.org/2000/svg" xmlns:xlink="http://www.w3.org/1999/xlink" width="113" height="113" viewBox="0 0 113 113">
  <defs>
    <filter id="Trazado_982547" x="0" y="0" width="113" height="113" filterUnits="userSpaceOnUse">
      <feOffset dy="3" input="SourceAlpha"/>
      <feGaussianBlur stdDeviation="3" result="blur"/>
      <feFlood flood-opacity="0.161"/>
      <feComposite operator="in" in2="blur"/>
      <feComposite in="SourceGraphic"/>
    </filter>
  </defs>
  <g id="Grupo_1176423" data-name="Grupo 1176423" transform="translate(-1216.5 -1298.145)">
    <g id="Grupo_1171049" data-name="Grupo 1171049" transform="translate(1225.5 1304.145)">
      <g id="Grupo_1148525" data-name="Grupo 1148525" transform="translate(0)">
        <g transform="matrix(1, 0, 0, 1, -9, -6)" filter="url(#Trazado_982547)">
          <g id="Trazado_982547-2" data-name="Trazado 982547" transform="translate(9 6)" fill="#f4fdfe">
            <path d="M 47.5 93.5 C 41.28937149047852 93.5 35.26533508300781 92.28397369384766 29.59518623352051 89.88570404052734 C 24.11771965026855 87.56893157958984 19.19813346862793 84.25196075439453 14.97309303283691 80.02691650390625 C 10.74804019927979 75.80186462402344 7.431066513061523 70.88229370117188 5.114293098449707 65.40481567382812 C 2.716026782989502 59.73468017578125 1.5 53.71062850952148 1.5 47.5 C 1.5 41.28937149047852 2.716026782989502 35.26533508300781 5.114293098449707 29.59518623352051 C 7.431066513061523 24.11771965026855 10.74804019927979 19.19813346862793 14.97309303283691 14.97309303283691 C 19.19813346862793 10.74804019927979 24.11771965026855 7.431066513061523 29.59518623352051 5.114293098449707 C 35.26533508300781 2.716026782989502 41.28937149047852 1.5 47.5 1.5 C 53.71062850952148 1.5 59.73468017578125 2.716026782989502 65.40481567382812 5.114293098449707 C 70.88229370117188 7.431066513061523 75.80186462402344 10.74804019927979 80.02691650390625 14.97309303283691 C 84.25196075439453 19.19813346862793 87.56893157958984 24.11771965026855 89.88570404052734 29.59518623352051 C 92.28397369384766 35.26533508300781 93.5 41.28937149047852 93.5 47.5 C 93.5 53.71062850952148 92.28397369384766 59.73468017578125 89.88570404052734 65.40481567382812 C 87.56893157958984 70.88229370117188 84.25196075439453 75.80186462402344 80.02691650390625 80.02691650390625 C 75.80186462402344 84.25196075439453 70.88229370117188 87.56893157958984 65.40481567382812 89.88570404052734 C 59.73468017578125 92.28397369384766 53.71062850952148 93.5 47.5 93.5 Z" stroke="none"/>
            <path d="M 47.5 3 C 41.49121475219727 3 35.66376876831055 4.176155090332031 30.17950439453125 6.495796203613281 C 24.88084411621094 8.736953735351562 20.12152099609375 11.94598388671875 16.03375244140625 16.03375244140625 C 11.94598388671875 20.12152099609375 8.736953735351562 24.88084411621094 6.495796203613281 30.17950439453125 C 4.176155090332031 35.66376876831055 3 41.49121475219727 3 47.5 C 3 53.50878524780273 4.176155090332031 59.33623123168945 6.495796203613281 64.82049560546875 C 8.736953735351562 70.11915588378906 11.94598388671875 74.87847900390625 16.03375244140625 78.96624755859375 C 20.12152099609375 83.05401611328125 24.88084411621094 86.26304626464844 30.17950439453125 88.50419616699219 C 35.66376876831055 90.82384490966797 41.49121475219727 92 47.5 92 C 53.50878524780273 92 59.33623123168945 90.82384490966797 64.82049560546875 88.50419616699219 C 70.11915588378906 86.26304626464844 74.87847900390625 83.05401611328125 78.96624755859375 78.96624755859375 C 83.05401611328125 74.87847900390625 86.26304626464844 70.11915588378906 88.50419616699219 64.82049560546875 C 90.82384490966797 59.33623123168945 92 53.50878524780273 92 47.5 C 92 41.49121475219727 90.82384490966797 35.66376876831055 88.50419616699219 30.17950439453125 C 86.26304626464844 24.88084411621094 83.05401611328125 20.12152099609375 78.96624755859375 16.03375244140625 C 74.87847900390625 11.94598388671875 70.11915588378906 8.736953735351562 64.82049560546875 6.495796203613281 C 59.33623123168945 4.176155090332031 53.50878524780273 3 47.5 3 M 47.5 0 C 73.7335205078125 0 95 21.2664794921875 95 47.5 C 95 73.7335205078125 73.7335205078125 95 47.5 95 C 21.2664794921875 95 0 73.7335205078125 0 47.5 C 0 21.2664794921875 21.2664794921875 0 47.5 0 Z" stroke="none" fill="#56838a"/>
          </g>
        </g>
      </g>
    </g>
    <g id="association_6416937" transform="translate(1204.377 1314.6)">
      <g id="Grupo_1176683" data-name="Grupo 1176683" transform="translate(40.806 7.5)">
        <path id="Trazado_1034879" data-name="Trazado 1034879" d="M96.5,120.731,73.315,137.9l21.3,20.319H98.4L119.7,137.9Z" transform="translate(-69.188 -106.358)" fill="#f0d289"/>
        <path id="Trazado_1034880" data-name="Trazado 1034880" d="M279.193,112.975h-8.157v3.116a3.111,3.111,0,0,1-6.223,0v-3.116H256v-5.967h3.117a3.112,3.112,0,0,0,0-6.223H256V95.8h0C268.625,85.993,285.012,97.566,279.193,112.975Z" transform="translate(-228.683 -81.43)" fill="#8ed275"/>
        <path id="Trazado_1034881" data-name="Trazado 1034881" d="M236.365,256s0,.007,0,.011c-3.3,8.716-12.823,15.77-21.3,20.308a4.008,4.008,0,0,1-1.894.477v-7.722h-3.116a3.111,3.111,0,0,1,0-6.222h3.116V256h8.813v3.117a3.112,3.112,0,0,0,6.223,0V256Z" transform="translate(-185.855 -224.456)" fill="#fded80"/>
        <path id="Trazado_1034882" data-name="Trazado 1034882" d="M90.278,223.134a3.111,3.111,0,0,0,3.111,3.112H96.5v7.722a4,4,0,0,1-1.892-.477C86.225,229,76.63,221.939,73.319,213.183c0,0,0-.007,0-.011h8.154v-3.116a3.111,3.111,0,0,1,6.222,0v3.116H96.5v6.851H93.388A3.11,3.11,0,0,0,90.278,223.134Z" transform="translate(-69.188 -181.628)" fill="#71daf9"/>
        <path id="Trazado_1034883" data-name="Trazado 1034883" d="M94.4,103.975a3.111,3.111,0,0,1-3.111,3.112H88.169v5.967H79.356v-3.116a3.111,3.111,0,0,0-6.222,0v3.116H64.979C59.145,97.592,75.6,86.118,88.169,95.882v4.981h3.116A3.111,3.111,0,0,1,94.4,103.975Z" transform="translate(-60.853 -81.509)" fill="#f37a86"/>
        <path id="Trazado_1034884" data-name="Trazado 1034884" d="M262.551,377.525a24.42,24.42,0,0,1-6.551-.891v5.482a4.009,4.009,0,0,0,1.894-.477,74.87,74.87,0,0,0,6.972-4.225C264.1,377.486,263.332,377.525,262.551,377.525Z" transform="translate(-228.683 -329.777)" fill="#fbcc83"/>
        <path id="Trazado_1034885" data-name="Trazado 1034885" d="M327.967,349.344h-1.909v-2.8a2.647,2.647,0,0,0-2.647-2.647h0a2.647,2.647,0,0,0-2.647,2.647,2.647,2.647,0,0,0-2.647-2.647h0a2.647,2.647,0,0,0-2.647,2.647,2.647,2.647,0,0,0-2.647-2.647h0a2.647,2.647,0,0,0-2.647,2.647v17.739h15.883v-9.649h1.909a2.647,2.647,0,0,0,2.647-2.647h0A2.648,2.648,0,0,0,327.967,349.344Z" transform="translate(-275.981 -301.199)" fill="#d89b80"/>
        <path id="Trazado_1034886" data-name="Trazado 1034886" d="M70.318,110.529a24.291,24.291,0,0,1,3.017-11.759c-7.137,2.513-11.929,10.488-8.355,19.959h6.751A24.358,24.358,0,0,1,70.318,110.529Z" transform="translate(-60.853 -87.183)" fill="#dd5c70"/>
        <path id="Trazado_1034887" data-name="Trazado 1034887" d="M82,25.239a2.647,2.647,0,0,1-2.647,2.647h0A2.647,2.647,0,0,1,76.7,25.239V7.5H92.586V25.239a2.647,2.647,0,0,1-2.647,2.647h0a2.647,2.647,0,0,1-2.647-2.647,2.647,2.647,0,0,1-2.647,2.647h0A2.647,2.647,0,0,1,82,25.239Z" transform="translate(-72.146 -7.5)" fill="#fddacc"/>
        <path id="Trazado_1034888" data-name="Trazado 1034888" d="M80.066,256H73.315s0,.007,0,.011c3.311,8.757,12.906,15.815,21.294,20.308a4,4,0,0,0,1.892.477v-5.482A24.458,24.458,0,0,1,80.066,256Z" transform="translate(-69.188 -224.456)" fill="#30c3ef"/>
        <path id="Trazado_1034889" data-name="Trazado 1034889" d="M49.636,15.317A17.292,17.292,0,0,1,51.491,7.5H45.363v9.649H43.453A2.647,2.647,0,0,0,40.806,19.8h0a2.647,2.647,0,0,0,2.647,2.647h1.909v2.8a2.647,2.647,0,0,0,2.647,2.647h0a2.647,2.647,0,0,0,2.647-2.647A2.647,2.647,0,0,0,53.3,27.886h0a2.631,2.631,0,0,0,1.342-.368A17.308,17.308,0,0,1,49.636,15.317Z" transform="translate(-40.806 -7.5)" fill="#fdc8bb"/>
        <path id="Trazado_1034890" data-name="Trazado 1034890" d="M312.668,346.728a15.717,15.717,0,0,1,.255-2.823c-.034,0-.068-.005-.1-.005h0a2.647,2.647,0,0,0-2.647,2.647v17.739h15.883V362.2A15.632,15.632,0,0,1,312.668,346.728Z" transform="translate(-275.98 -301.198)" fill="#c5836a"/>
      </g>
      <g id="Grupo_1176684" data-name="Grupo 1176684" transform="translate(40.806 7.5)">
        <path id="Trazado_1034891" data-name="Trazado 1034891" d="M82.926,225.682a68.109,68.109,0,0,0,11.687,7.808,4,4,0,0,0,1.892.477v-7.722H93.388a3.111,3.111,0,0,1,0-6.222H96.5v-6.851H87.691v-3.116a3.111,3.111,0,0,0-6.222,0v3.116H73.315s0,.007,0,.011a28.718,28.718,0,0,0,6.8,9.925" transform="translate(-69.188 -181.628)" fill="none" stroke="#000" stroke-linecap="round" stroke-linejoin="round" stroke-miterlimit="10" stroke-width="1.5"/>
        <path id="Trazado_1034892" data-name="Trazado 1034892" d="M275,95.3c-4.95-3.927-12.476-4.567-19,.5h0v4.981h3.117a3.112,3.112,0,0,1,0,6.223H256v5.967h8.813v3.116a3.112,3.112,0,0,0,6.223,0v-3.116h8.157c2.208-5.848,1.218-11.144-1.552-14.927" transform="translate(-228.683 -81.431)" fill="none" stroke="#000" stroke-linecap="round" stroke-linejoin="round" stroke-miterlimit="10" stroke-width="1.5"/>
        <path id="Trazado_1034893" data-name="Trazado 1034893" d="M91.287,103.152H88.171V98.171a16.98,16.98,0,0,0-6.877-3.28v6.646a2.647,2.647,0,0,1-2.647,2.647h0A2.647,2.647,0,0,1,76,101.537a2.647,2.647,0,0,1-2.647,2.647h0a2.647,2.647,0,0,1-2.647-2.647,2.647,2.647,0,0,1-2.647,2.647h0a2.647,2.647,0,0,1-2.586-2.086,15.753,15.753,0,0,0-.491,13.244h8.154v-3.116a3.111,3.111,0,0,1,6.222,0v3.116h8.814v-5.967h3.116a3.112,3.112,0,0,0,0-6.223Z" transform="translate(-60.854 -83.798)" fill="none" stroke="#000" stroke-linecap="round" stroke-linejoin="round" stroke-miterlimit="10" stroke-width="1.5"/>
        <path id="Trazado_1034894" data-name="Trazado 1034894" d="M45.363,7.5v9.649H43.453a2.647,2.647,0,0,0,0,5.294h1.909v2.8a2.647,2.647,0,0,0,5.294,0,2.647,2.647,0,1,0,5.294,0,2.647,2.647,0,0,0,5.294,0V7.5Z" transform="translate(-40.806 -7.5)" fill="none" stroke="#000" stroke-linecap="round" stroke-linejoin="round" stroke-miterlimit="10" stroke-width="1.5"/>
        <path id="Trazado_1034895" data-name="Trazado 1034895" d="M228.208,256v3.117a3.112,3.112,0,0,1-6.223,0V256h-8.813v6.851h-3.116a3.111,3.111,0,0,0,0,6.222h3.116V276.8a4.008,4.008,0,0,0,1.894-.477c1.639-.878,3.317-1.85,4.983-2.911v-3.6a2.647,2.647,0,0,1,2.647-2.647h0a2.645,2.645,0,0,1,2.64,2.511l.014-.011a2.645,2.645,0,0,1,2.64-2.5h0a2.654,2.654,0,0,1,.281.015,30.208,30.208,0,0,0,8.089-11.162s0-.007,0-.011h-8.157Z" transform="translate(-185.855 -224.456)" fill="none" stroke="#000" stroke-linecap="round" stroke-linejoin="round" stroke-miterlimit="10" stroke-width="1.5"/>
        <path id="Trazado_1034896" data-name="Trazado 1034896" d="M327.967,349.344h-1.909v-2.8a2.647,2.647,0,0,0-5.294,0,2.647,2.647,0,1,0-5.294,0,2.647,2.647,0,1,0-5.294,0v17.739h15.883v-9.649h1.909a2.647,2.647,0,0,0,2.647-2.647h0A2.648,2.648,0,0,0,327.967,349.344Z" transform="translate(-275.981 -301.199)" fill="none" stroke="#000" stroke-linecap="round" stroke-linejoin="round" stroke-miterlimit="10" stroke-width="1.5"/>
      </g>
    </g>
  </g>
</svg>
