<svg xmlns="http://www.w3.org/2000/svg" xmlns:xlink="http://www.w3.org/1999/xlink" width="108" height="108" viewBox="0 0 108 108">
  <defs>
    <filter id="Trazado_904820" x="0" y="0" width="108" height="108" filterUnits="userSpaceOnUse">
      <feOffset dy="3" input="SourceAlpha"/>
      <feGaussianBlur stdDeviation="3" result="blur"/>
      <feFlood flood-opacity="0.161"/>
      <feComposite operator="in" in2="blur"/>
      <feComposite in="SourceGraphic"/>
    </filter>
  </defs>
  <g id="Grupo_1176969" data-name="Grupo 1176969" transform="translate(-620 -526)">
    <g id="Grupo_1173585" data-name="Grupo 1173585" transform="translate(629 532)">
      <g id="Grupo_1173428" data-name="Grupo 1173428" transform="translate(0 0)">
        <g id="Grupo_1171958" data-name="Grupo 1171958">
          <g id="Grupo_1167341" data-name="Grupo 1167341">
            <g id="Grupo_1166792" data-name="Grupo 1166792">
              <g transform="matrix(1, 0, 0, 1, -9, -6)" filter="url(#Trazado_904820)">
                <g id="Trazado_904820-2" data-name="Trazado 904820" transform="translate(9 6)" fill="#fdfbed">
                  <path d="M 44.99999618530273 88.49999237060547 C 39.12687301635742 88.49999237060547 33.43022155761719 87.35006713867188 28.06829643249512 85.08216857910156 C 22.88852119445801 82.89130401611328 18.23629570007324 79.75457763671875 14.24084663391113 75.75914001464844 C 10.24540901184082 71.76369476318359 7.108683586120605 67.11146545410156 4.917821407318115 61.93169403076172 C 2.649921178817749 56.56976699829102 1.499996185302734 50.87311553955078 1.499996185302734 44.99999237060547 C 1.499996185302734 39.12686920166016 2.649921178817749 33.43021774291992 4.917821407318115 28.06829261779785 C 7.108683586120605 22.88851737976074 10.24540901184082 18.23630523681641 14.24084663391113 14.24085521697998 C 18.23629570007324 10.24540519714355 22.88852119445801 7.108692169189453 28.06829643249512 4.917829990386963 C 33.43022155761719 2.649929761886597 39.12687301635742 1.500004887580872 44.99999618530273 1.500004887580872 C 50.87311935424805 1.500004887580872 56.56977081298828 2.649929761886597 61.93169784545898 4.917829990386963 C 67.11147308349609 7.108692169189453 71.76369476318359 10.24540519714355 75.75914764404297 14.24085521697998 C 79.75458526611328 18.23630523681641 82.89131164550781 22.88851737976074 85.08216857910156 28.06829261779785 C 87.35007476806641 33.43021774291992 88.5 39.12686920166016 88.5 44.99999237060547 C 88.5 50.87311553955078 87.35007476806641 56.56976699829102 85.08216857910156 61.93169403076172 C 82.89131164550781 67.11146545410156 79.75458526611328 71.76369476318359 75.75914764404297 75.75914001464844 C 71.76369476318359 79.75457763671875 67.11147308349609 82.89130401611328 61.93169784545898 85.08216857910156 C 56.56977081298828 87.35006713867188 50.87311935424805 88.49999237060547 44.99999618530273 88.49999237060547 Z" stroke="none"/>
                  <path d="M 44.99999618530273 2.999992370605469 C 39.32870864868164 2.999992370605469 33.82865142822266 4.11004638671875 28.65262603759766 6.299331665039062 C 23.65165710449219 8.414566040039062 19.15968322753906 11.44333648681641 15.301513671875 15.30150604248047 C 11.44333648681641 19.15967559814453 8.414566040039062 23.65164947509766 6.299339294433594 28.65262222290039 C 4.110054016113281 33.82864761352539 2.999992370605469 39.32870483398438 2.999992370605469 44.99999237060547 C 2.999992370605469 50.67127990722656 4.110054016113281 56.17132186889648 6.299339294433594 61.34736633300781 C 8.414566040039062 66.34833526611328 11.44333648681641 70.84029388427734 15.301513671875 74.69846343994141 C 19.15968322753906 78.55663299560547 23.65165710449219 81.58540344238281 28.65262603759766 83.70063781738281 C 33.82865142822266 85.88992309570312 39.32870864868164 86.99997711181641 44.99999618530273 86.99997711181641 C 50.67128372192383 86.99997711181641 56.17134094238281 85.88992309570312 61.34736633300781 83.70063781738281 C 66.34834289550781 81.58540344238281 70.84030914306641 78.55663299560547 74.69847869873047 74.69846343994141 C 78.55665588378906 70.84029388427734 81.58542633056641 66.34833526611328 83.70065307617188 61.34736633300781 C 85.88993835449219 56.17132186889648 87 50.67127990722656 87 44.99999237060547 C 87 39.32870483398438 85.88993835449219 33.82864761352539 83.70065307617188 28.65262222290039 C 81.58542633056641 23.65164947509766 78.55665588378906 19.15967559814453 74.69847869873047 15.30150604248047 C 70.84030914306641 11.44333648681641 66.34834289550781 8.414566040039062 61.34736633300781 6.299331665039062 C 56.17134094238281 4.11004638671875 50.67128372192383 2.999992370605469 44.99999618530273 2.999992370605469 M 44.99999618530273 -7.62939453125e-06 C 69.85281372070312 -7.62939453125e-06 90 20.14717864990234 90 44.99999237060547 C 90 69.85279083251953 69.85281372070312 89.99997711181641 44.99999618530273 89.99997711181641 C 20.14717864990234 89.99997711181641 -7.62939453125e-06 69.85279083251953 -7.62939453125e-06 44.99999237060547 C -7.62939453125e-06 20.14717864990234 20.14717864990234 -7.62939453125e-06 44.99999618530273 -7.62939453125e-06 Z" stroke="none" fill="#86815c"/>
                </g>
              </g>
            </g>
          </g>
        </g>
      </g>
    </g>
    <g id="inspire-idea_14781819_2_" data-name="inspire-idea_14781819 (2)" transform="translate(640.713 543.266)">
      <g id="Grupo_1176629" data-name="Grupo 1176629" transform="translate(8.053 7.501)">
        <path id="Trazado_1034672" data-name="Trazado 1034672" d="M87.9,15.775c0,10.34-11.083,26.3-21.423,26.3-1.491,0-2.9-4.563-4.305-10.085V17.916a10.415,10.415,0,0,1,13.917-9.8L76.883,9.2l.792-1.082a10.315,10.315,0,0,1,6.651-.108C87.539,10.253,87.9,13.766,87.9,15.775Z" transform="translate(-56.461 -7.503)" fill="#d78878"/>
        <path id="Trazado_1034673" data-name="Trazado 1034673" d="M91.57,22.2V56.951h-29.4V36.268A18.739,18.739,0,0,0,84.324,12.29,10.394,10.394,0,0,1,91.57,22.2Z" transform="translate(-56.46 -11.785)" fill="#ca6e59"/>
        <path id="Trazado_1034674" data-name="Trazado 1034674" d="M69.111,416.74l.636,1c1.162,3.324-2.736,2.826-2.889,5.664l-1.872.746H39.525l-.989-.408c-2.926-1.807-4.987-1.92-3.071-6.975,1.665-1.134,3.745-1.467,5.668-1.965.5-.131,22.044-.141,22.625,0A18.277,18.277,0,0,1,69.111,416.74Z" transform="translate(-31.906 -371.718)" fill="#8ac9fe"/>
        <path id="Trazado_1034675" data-name="Trazado 1034675" d="M15.672,441.338v.324H8.349a.3.3,0,0,1-.3-.3,9.112,9.112,0,0,1,.856-3.924,7.963,7.963,0,0,1,2.58-3.077l.122-.085C15.672,436.25,15.52,438.5,15.672,441.338Z" transform="translate(-8.053 -389.226)" fill="#60b7ff"/>
        <path id="Trazado_1034676" data-name="Trazado 1034676" d="M331.087,440.7l-2.632.682H321.4v-.324c.153-2.839,0-5.088,4.06-7.058l.064-.033a7.362,7.362,0,0,1,1.741,1.493Z" transform="translate(-288.324 -388.949)" fill="#60b7ff"/>
        <path id="Trazado_1034677" data-name="Trazado 1034677" d="M119.959,342.427a2.535,2.535,0,0,0,2.016-2.4q0-.041,0-.077v-5h8.814v5c0,.021,0,.042,0,.065a2.53,2.53,0,0,0,2.033,2.4l1.9.4-2.407,3.45-5.856.207-7.156-.171-1.791-3.425Z" transform="translate(-105.96 -300.381)" fill="#ffb09e"/>
        <path id="Trazado_1034678" data-name="Trazado 1034678" d="M49.315,185.666a6.033,6.033,0,0,1-4.635-5.789h0a2.376,2.376,0,0,1,2.381-2.371h2.18l2.753,4.653Z" transform="translate(-40.813 -159.559)" fill="#ffb09e"/>
        <path id="Trazado_1034679" data-name="Trazado 1034679" d="M109.486,91.435a8.422,8.422,0,0,0,2.382-5.867V78.523a1.537,1.537,0,0,1-1.46-1.047l-.911-2.721a8.06,8.06,0,0,0-3.511-4.361l-5.952-3.509a.317.317,0,0,0-.322,0l-5.9,3.479a8.068,8.068,0,0,0-3.559,4.391l-.911,2.721a1.537,1.537,0,0,1-1.46,1.047v7.045a8.432,8.432,0,0,0,2.685,6.165l4.045,3.772a7.729,7.729,0,0,0,10.532,0Z" transform="translate(-79.451 -60.577)" fill="#ffcebf"/>
        <path id="Trazado_1034680" data-name="Trazado 1034680" d="M182.724,275.4a.316.316,0,0,1,.316.3c.035.84-.1,3.144-2.569,3.144-2.453,0-2.6-2.3-2.567-3.142a.316.316,0,0,1,.316-.3Z" transform="translate(-159.971 -247.123)" fill="#eaf6ff"/>
        <path id="Trazado_1034681" data-name="Trazado 1034681" d="M188.024,444.49v3.26a1.836,1.836,0,0,1-1.84,1.861h0a1.836,1.836,0,0,1-1.84-1.832V444.49l1.892-.381Z" transform="translate(-165.733 -398.018)" fill="#c4e2ff"/>
        <path id="Trazado_1034682" data-name="Trazado 1034682" d="M94.737,399.994l-2.928.633a.616.616,0,0,0-.479.694l.1.638a5.788,5.788,0,0,0,8.28,4.318l3.328-1.639h0a10.76,10.76,0,0,1-7.672-4.407A.614.614,0,0,0,94.737,399.994Z" transform="translate(-82.533 -358.547)" fill="#eaf6ff"/>
        <path id="Trazado_1034683" data-name="Trazado 1034683" d="M210.568,399.994l2.928.633a.616.616,0,0,1,.479.694l-.1.638a5.788,5.788,0,0,1-8.28,4.318l-3.328-1.639h0a10.76,10.76,0,0,0,7.672-4.407A.614.614,0,0,1,210.568,399.994Z" transform="translate(-181.766 -358.547)" fill="#eaf6ff"/>
        <g id="Grupo_1176626" data-name="Grupo 1176626" transform="translate(38.033 28.637)">
          <path id="Trazado_1034684" data-name="Trazado 1034684" d="M380.867,387.922v4.06a12.365,12.365,0,0,1-.278,2.461,8.644,8.644,0,0,1-1,1.8c-.64,1.077-.36,2.185-.355,3.437l-.811.519h-8v-1.738a4.366,4.366,0,0,0-1.149-2.951,3.614,3.614,0,0,1-.949-2.439v-1.749a2.141,2.141,0,0,1,.914-1.755Z" transform="translate(-368.323 -376.399)" fill="#ffcebf"/>
          <g id="Grupo_1176625" data-name="Grupo 1176625" transform="translate(9.764 6.817)">
            <path id="Trazado_1034685" data-name="Trazado 1034685" d="M463.595,344.031v4.025a.844.844,0,0,1-.339.756c-.253.253-1.144-.134-1.53-.131l-.688-.736-.223-2.617.73-.564a1.415,1.415,0,0,1,1.379-1.413C463.389,343.523,463.595,343.762,463.595,344.031Z" transform="translate(-460.815 -343.35)" fill="#ffcebf"/>
            <path id="Trazado_1034686" data-name="Trazado 1034686" d="M472.1,344.755v3.181a1.417,1.417,0,0,1-2.562.832l-.091-.1a1.417,1.417,0,0,0,1.4-1.417v-3.178a1.407,1.407,0,0,0-.206-.736h.038A1.416,1.416,0,0,1,472.1,344.755Z" transform="translate(-468.532 -343.34)" fill="#ffb09e"/>
          </g>
          <path id="Trazado_1034687" data-name="Trazado 1034687" d="M467.176,386.87V391.1a6.905,6.905,0,0,1-.971,3.531,6.907,6.907,0,0,0-.97,3.558l0,.746a.317.317,0,0,1-.317.318h-.974l0-1.064a6.918,6.918,0,0,1,.971-3.558,6.905,6.905,0,0,0,.971-3.531v-4.052Z" transform="translate(-453.848 -375.458)" fill="#ffb09e"/>
          <path id="Trazado_1034688" data-name="Trazado 1034688" d="M381.874,281.39v11.435c0,.821-1.344,1.493-2.165,1.493l.7-1.865-.965-.918V281.39a1.5,1.5,0,0,1,.88-1.36A1.381,1.381,0,0,1,381.874,281.39Z" transform="translate(-378.268 -279.897)" fill="#ffcebf"/>
          <path id="Trazado_1034689" data-name="Trazado 1034689" d="M408.15,332.211v3.752c0,.6-.982,1.129-1.5,1.362a1.5,1.5,0,0,1-.884-1.362l-.365-.081V332.34l.365-.129a1.5,1.5,0,0,1,.884-1.361C407.9,331.01,408.15,331.607,408.15,332.211Z" transform="translate(-401.486 -325.352)" fill="#ffcebf"/>
          <path id="Trazado_1034690" data-name="Trazado 1034690" d="M437.755,332.211v3.979c0,.6-1.092,1.127-1.612,1.361a1.5,1.5,0,0,1-.884-1.361l-.356-.227v-3.591l.356-.161a1.5,1.5,0,0,1,.884-1.361C437.559,331.042,437.755,331.607,437.755,332.211Z" transform="translate(-427.875 -325.352)" fill="#ffcebf"/>
          <path id="Trazado_1034691" data-name="Trazado 1034691" d="M390.008,280.263v10.827a.675.675,0,0,1-1.345,0V280.263a1.5,1.5,0,0,0-.879-1.36,1.47,1.47,0,0,1,.612-.133h.119A1.5,1.5,0,0,1,390.008,280.263Z" transform="translate(-385.73 -278.77)" fill="#ffb09e"/>
          <path id="Trazado_1034692" data-name="Trazado 1034692" d="M419.445,331.093v3.752a1.5,1.5,0,0,1-1.493,1.494h-.12a1.458,1.458,0,0,1-.609-.132,1.5,1.5,0,0,0,.884-1.362v-3.752a1.5,1.5,0,0,0-.884-1.361,1.458,1.458,0,0,1,.609-.132h.12A1.5,1.5,0,0,1,419.445,331.093Z" transform="translate(-412.061 -324.234)" fill="#ffb09e"/>
          <path id="Trazado_1034693" data-name="Trazado 1034693" d="M448.865,331.093v3.979a1.5,1.5,0,0,1-1.494,1.493h-.119a1.454,1.454,0,0,1-.609-.132,1.5,1.5,0,0,0,.883-1.361v-3.979a1.5,1.5,0,0,0-.883-1.361,1.454,1.454,0,0,1,.609-.132h.119A1.5,1.5,0,0,1,448.865,331.093Z" transform="translate(-438.375 -324.234)" fill="#ffb09e"/>
          <path id="Trazado_1034694" data-name="Trazado 1034694" d="M389.921,367.117a3.207,3.207,0,0,1-.068.657c-.151.721-.775,1.387-2.082,1.6-.593.095-3.566-.415-4.205-.348l-1.142,1.752-2.985-1.561v-1.35l2.646-1.9a2.965,2.965,0,0,1,1.694-.551l4.393-.041A1.751,1.751,0,0,1,389.921,367.117Z" transform="translate(-378.265 -356.226)" fill="#ffb09e"/>
          <path id="Trazado_1034695" data-name="Trazado 1034695" d="M381.01,381.075l1.25-1.682a.317.317,0,0,1,.216-.125l2.7-.327a2.144,2.144,0,0,0,1.478-2.056.721.721,0,0,0-.726-.706h-3.974a2.683,2.683,0,0,0-1.539.485l-3.43,2.4Z" transform="translate(-376.071 -365.896)" fill="#ffcebf"/>
        </g>
        <g id="Grupo_1176628" data-name="Grupo 1176628" transform="translate(29.402 2.435)">
          <path id="Trazado_1034696" data-name="Trazado 1034696" d="M307.74,39.028A12.3,12.3,0,0,1,295.53,51.516c-2.228,0-7.118-1.635-7.754-3.41l.12-.486a.313.313,0,0,0-.027-.221,11.527,11.527,0,0,1,17.849-13.955A10.943,10.943,0,0,1,307.74,39.028Z" transform="translate(-286.565 -30.57)" fill="#eaf6ff"/>
          <path id="Trazado_1034697" data-name="Trazado 1034697" d="M310.581,68.888a11.545,11.545,0,0,1-17.3,7.372.315.315,0,0,0-.224-.041l-4.754.906a.317.317,0,0,1-.367-.387l1.057-4.276A12.431,12.431,0,0,0,306.933,57.8,11.5,11.5,0,0,1,310.581,68.888Z" transform="translate(-287.781 -54.925)" fill="#d8ecfe"/>
          <g id="Grupo_1176627" data-name="Grupo 1176627" transform="translate(5.579 2.872)">
            <path id="Trazado_1034698" data-name="Trazado 1034698" d="M349.944,64.376c0,3.089-3.244,6.076-6.4,6.076-.478,0-.995.325-1.83-.908a6.719,6.719,0,0,0-.826-1.453,5.722,5.722,0,0,1,3.229-9.474C348.451,58.617,349.944,61.628,349.944,64.376Z" transform="translate(-339.409 -58.528)" fill="#ffe177"/>
            <path id="Trazado_1034699" data-name="Trazado 1034699" d="M368.927,63.494a5.7,5.7,0,0,1-1.456,3.812,6.908,6.908,0,0,0-1.385,4.119v.358l-5.76.019v-.316a9.669,9.669,0,0,0-.708-3.148A5.794,5.794,0,0,0,361,68.5c3.152,0,5.883-2.053,5.883-5.141a5.626,5.626,0,0,0-4.691-5.5,5.726,5.726,0,0,1,6.732,5.633Z" transform="translate(-357.484 -57.772)" fill="#ffd15b"/>
            <path id="Trazado_1034700" data-name="Trazado 1034700" d="M370.884,188.445l.9,1.749c0,.949-.569,1.749-2.613,1.749h-.449A1.718,1.718,0,0,1,367,190.225v-1.78h3.884Z" transform="translate(-364.087 -174.65)" fill="#5e6577"/>
            <path id="Trazado_1034701" data-name="Trazado 1034701" d="M390.974,188.446v1.78a1.718,1.718,0,0,1-1.718,1.718h-1.733a1.717,1.717,0,0,0,1.717-1.718v-1.78Z" transform="translate(-382.444 -174.651)" fill="#4d5263"/>
            <path id="Trazado_1034702" data-name="Trazado 1034702" d="M358.35,169.523c0,.38.23.811,0,1.061a6.92,6.92,0,0,1-2.3.545h-4.225a1.329,1.329,0,0,1-1.276-1.377,1.435,1.435,0,0,1,.373-.975,1.23,1.23,0,0,1,.9-.4h4.225C356.758,168.374,358.35,168.762,358.35,169.523Z" transform="translate(-349.377 -156.698)" fill="#73788c"/>
            <path id="Trazado_1034703" data-name="Trazado 1034703" d="M406.249,169.752a1.433,1.433,0,0,1-.373.974,1.23,1.23,0,0,1-.9.4h-2.314a1.228,1.228,0,0,0,.9-.4,1.433,1.433,0,0,0,.373-.974,1.329,1.329,0,0,0-1.276-1.378h2.314A1.329,1.329,0,0,1,406.249,169.752Z" transform="translate(-395.982 -156.698)" fill="#5e6577"/>
          </g>
        </g>
      </g>
      <g id="Grupo_1176637" data-name="Grupo 1176637" transform="translate(8.053 7.5)">
        <line id="Línea_959" data-name="Línea 959" y1="19.809" transform="translate(35.11 24.038)" fill="none" stroke="#000" stroke-linecap="round" stroke-linejoin="round" stroke-miterlimit="10" stroke-width="1.5"/>
        <line id="Línea_960" data-name="Línea 960" y2="6.702" transform="translate(5.713 37.145)" fill="none" stroke="#000" stroke-linecap="round" stroke-linejoin="round" stroke-miterlimit="10" stroke-width="1.5"/>
        <line id="Línea_961" data-name="Línea 961" y2="8.692" transform="translate(5.713 24.759)" fill="none" stroke="#000" stroke-linecap="round" stroke-linejoin="round" stroke-miterlimit="10" stroke-width="1.5"/>
        <path id="Trazado_1034704" data-name="Trazado 1034704" d="M90.03,12.464a10.427,10.427,0,0,0-12.4-4.333h0a2.2,2.2,0,0,1-1.489,0l-.025-.009a10.416,10.416,0,0,0-13.939,9.792v7.534" transform="translate(-56.459 -7.5)" fill="none" stroke="#000" stroke-linecap="round" stroke-linejoin="round" stroke-miterlimit="10" stroke-width="1.5"/>
        <g id="Grupo_1176630" data-name="Grupo 1176630" transform="translate(0 35.839)">
          <path id="Trazado_1034705" data-name="Trazado 1034705" d="M16.844,416.711a15.2,15.2,0,0,0-5.355,1.94,8.4,8.4,0,0,0-3.436,7v.3" transform="translate(-8.053 -409.35)" fill="none" stroke="#000" stroke-linecap="round" stroke-linejoin="round" stroke-miterlimit="10" stroke-width="1.5"/>
          <path id="Trazado_1034706" data-name="Trazado 1034706" d="M136.6,346.985v3.731c0,.024,0,.05,0,.077a2.535,2.535,0,0,1-2.016,2.4l-.717.153" transform="translate(-120.581 -346.985)" fill="none" stroke="#000" stroke-linecap="round" stroke-linejoin="round" stroke-miterlimit="10" stroke-width="1.5"/>
          <path id="Trazado_1034707" data-name="Trazado 1034707" d="M246.1,353.354l-.822-.169a2.53,2.53,0,0,1-2.033-2.4c0-.023,0-.045,0-.065v-3.731" transform="translate(-218.42 -346.985)" fill="none" stroke="#000" stroke-linecap="round" stroke-linejoin="round" stroke-miterlimit="10" stroke-width="1.5"/>
          <path id="Trazado_1034708" data-name="Trazado 1034708" d="M318.979,418.95a14.536,14.536,0,0,0-5.764-2.387" transform="translate(-281 -409.218)" fill="none" stroke="#000" stroke-linecap="round" stroke-linejoin="round" stroke-miterlimit="10" stroke-width="1.5"/>
        </g>
        <path id="Trazado_1034709" data-name="Trazado 1034709" d="M41.768,434.275c4.06,1.97,3.907,4.22,4.06,7.059v.324" transform="translate(-38.209 -389.221)" fill="none" stroke="#000" stroke-linecap="round" stroke-linejoin="round" stroke-miterlimit="10" stroke-width="1.5"/>
        <path id="Trazado_1034710" data-name="Trazado 1034710" d="M325.467,434.275c-4.06,1.97-3.907,4.22-4.06,7.059v.355" transform="translate(-288.327 -389.221)" fill="none" stroke="#000" stroke-linecap="round" stroke-linejoin="round" stroke-miterlimit="10" stroke-width="1.5"/>
        <line id="Línea_962" data-name="Línea 962" y1="5.177" transform="translate(20.422 0.864)" fill="none" stroke="#000" stroke-linecap="round" stroke-linejoin="round" stroke-miterlimit="10" stroke-width="1.5"/>
        <path id="Trazado_1034711" data-name="Trazado 1034711" d="M49.241,185.666a5.966,5.966,0,0,1-4.561-5.789h0a2.376,2.376,0,0,1,2.381-2.371h2.18" transform="translate(-40.813 -159.559)" fill="none" stroke="#000" stroke-linecap="round" stroke-linejoin="round" stroke-miterlimit="10" stroke-width="1.5"/>
        <path id="Trazado_1034712" data-name="Trazado 1034712" d="M93.807,100.213a8.068,8.068,0,0,0-3.559,4.391l-.911,2.721a1.537,1.537,0,0,1-1.46,1.047v7.045a8.432,8.432,0,0,0,2.685,6.165l4.045,3.772a7.729,7.729,0,0,0,10.532,0l4.347-4.071a8.422,8.422,0,0,0,2.382-5.867v-.662" transform="translate(-79.45 -90.425)" fill="none" stroke="#000" stroke-linecap="round" stroke-linejoin="round" stroke-miterlimit="10" stroke-width="1.5"/>
        <path id="Trazado_1034713" data-name="Trazado 1034713" d="M186.552,72.885a8.063,8.063,0,0,0-2.867-2.922l-6.113-3.6-2.825,1.664" transform="translate(-157.149 -60.145)" fill="none" stroke="#000" stroke-linecap="round" stroke-linejoin="round" stroke-miterlimit="10" stroke-width="1.5"/>
        <g id="Grupo_1176632" data-name="Grupo 1176632" transform="translate(13.821 16.293)">
          <g id="Grupo_1176631" data-name="Grupo 1176631">
            <path id="Trazado_1034714" data-name="Trazado 1034714" d="M193.963,240.769a2.445,2.445,0,0,1-2.217,0" transform="translate(-186.175 -232.436)" fill="none" stroke="#000" stroke-linecap="round" stroke-linejoin="round" stroke-miterlimit="10" stroke-width="1.5"/>
            <path id="Trazado_1034715" data-name="Trazado 1034715" d="M143.031,162.353a4.218,4.218,0,0,0-4.055,0" transform="translate(-138.976 -161.834)" fill="none" stroke="#000" stroke-linecap="round" stroke-linejoin="round" stroke-miterlimit="10" stroke-width="1.5"/>
            <path id="Trazado_1034716" data-name="Trazado 1034716" d="M231.161,162.353a4.218,4.218,0,0,0-4.055,0" transform="translate(-217.802 -161.834)" fill="none" stroke="#000" stroke-linecap="round" stroke-linejoin="round" stroke-miterlimit="10" stroke-width="1.5"/>
            <line id="Línea_963" data-name="Línea 963" y1="1.796" transform="translate(11.331 3.045)" fill="none" stroke="#000" stroke-linecap="round" stroke-linejoin="round" stroke-miterlimit="10" stroke-width="1.5"/>
            <line id="Línea_964" data-name="Línea 964" y1="1.796" transform="translate(2.028 3.045)" fill="none" stroke="#000" stroke-linecap="round" stroke-linejoin="round" stroke-miterlimit="10" stroke-width="1.5"/>
          </g>
          <path id="Trazado_1034717" data-name="Trazado 1034717" d="M183.017,275.4s.48,3.446-2.545,3.446c-3,0-2.545-3.446-2.545-3.446Z" transform="translate(-173.793 -263.415)" fill="none" stroke="#000" stroke-linecap="round" stroke-linejoin="round" stroke-miterlimit="10" stroke-width="1.5"/>
        </g>
        <path id="Trazado_1034718" data-name="Trazado 1034718" d="M188.024,452.962v2.706a1.836,1.836,0,0,1-1.84,1.861h0a1.836,1.836,0,0,1-1.84-1.832v-2.678" transform="translate(-165.733 -405.935)" fill="none" stroke="#000" stroke-linecap="round" stroke-linejoin="round" stroke-miterlimit="10" stroke-width="1.5"/>
        <path id="Trazado_1034719" data-name="Trazado 1034719" d="M94.737,399.994l-2.928.633a.616.616,0,0,0-.479.694l.1.638a5.788,5.788,0,0,0,8.28,4.318l3.328-1.639h0a10.76,10.76,0,0,1-7.672-4.407A.614.614,0,0,0,94.737,399.994Z" transform="translate(-82.533 -358.547)" fill="none" stroke="#000" stroke-linecap="round" stroke-linejoin="round" stroke-miterlimit="10" stroke-width="1.5"/>
        <path id="Trazado_1034720" data-name="Trazado 1034720" d="M210.568,399.994l2.928.633a.616.616,0,0,1,.479.694l-.1.638a5.788,5.788,0,0,1-8.28,4.318l-3.328-1.639h0a10.76,10.76,0,0,0,7.672-4.407A.614.614,0,0,1,210.568,399.994Z" transform="translate(-181.766 -358.547)" fill="none" stroke="#000" stroke-linecap="round" stroke-linejoin="round" stroke-miterlimit="10" stroke-width="1.5"/>
        <g id="Grupo_1176635" data-name="Grupo 1176635" transform="translate(38.033 28.668)">
          <g id="Grupo_1176633" data-name="Grupo 1176633" transform="translate(10.495 6.816)">
            <path id="Trazado_1034721" data-name="Trazado 1034721" d="M470.569,345.041a1.415,1.415,0,0,0-1.415-1.415h0a1.417,1.417,0,0,0-1.417,1.417v3.178a1.417,1.417,0,0,0,1.417,1.417h0a1.417,1.417,0,0,0,1.417-1.417Z" transform="translate(-467.736 -343.626)" fill="none" stroke="#000" stroke-linecap="round" stroke-linejoin="round" stroke-miterlimit="10" stroke-width="1.5"/>
            <path id="Trazado_1034722" data-name="Trazado 1034722" d="M481.155,400.563" transform="translate(-479.738 -394.552)" fill="none" stroke="#000" stroke-linecap="round" stroke-linejoin="round" stroke-miterlimit="10" stroke-width="1.5"/>
          </g>
          <g id="Grupo_1176634" data-name="Grupo 1176634" transform="translate(11.386 11.451)">
            <path id="Trazado_1034723" data-name="Trazado 1034723" d="M478.123,387.53v4.234a6.876,6.876,0,0,1-.971,3.493h0a6.91,6.91,0,0,0-.971,3.557l0,1.064" transform="translate(-476.181 -387.53)" fill="none" stroke="#000" stroke-linecap="round" stroke-linejoin="round" stroke-miterlimit="10" stroke-width="1.5"/>
          </g>
          <path id="Trazado_1034724" data-name="Trazado 1034724" d="M424.183,414.75a5.792,5.792,0,0,1,1.237,5.3l-.044.169" transform="translate(-418.286 -400.425)" fill="none" stroke="#000" stroke-linecap="round" stroke-linejoin="round" stroke-miterlimit="10" stroke-width="1.5"/>
          <path id="Trazado_1034725" data-name="Trazado 1034725" d="M379.439,291.977V280.55a1.5,1.5,0,0,1,1.493-1.493h.12a1.5,1.5,0,0,1,1.493,1.493v9.285" transform="translate(-378.266 -279.057)" fill="none" stroke="#000" stroke-linecap="round" stroke-linejoin="round" stroke-miterlimit="10" stroke-width="1.5"/>
          <path id="Trazado_1034726" data-name="Trazado 1034726" d="M408.856,331.386a1.5,1.5,0,0,1,1.493-1.493h.12a1.5,1.5,0,0,1,1.493,1.493v3.4" transform="translate(-404.577 -324.526)" fill="none" stroke="#000" stroke-linecap="round" stroke-linejoin="round" stroke-miterlimit="10" stroke-width="1.5"/>
          <path id="Trazado_1034727" data-name="Trazado 1034727" d="M438.271,334.748v-3.362a1.5,1.5,0,0,1,1.493-1.493h.12a1.5,1.5,0,0,1,1.493,1.493v1.425" transform="translate(-430.887 -324.526)" fill="none" stroke="#000" stroke-linecap="round" stroke-linejoin="round" stroke-miterlimit="10" stroke-width="1.5"/>
          <path id="Trazado_1034728" data-name="Trazado 1034728" d="M373.263,381.364l1.331-1.791,2.667-.344a2.144,2.144,0,0,0,1.478-2.037.726.726,0,0,0-.726-.725h-3.805a2.683,2.683,0,0,0-1.539.485l-3.43,2.4a2.143,2.143,0,0,0-.914,1.755v1.749a3.61,3.61,0,0,0,.949,2.438,4.367,4.367,0,0,1,1.148,2.951v1.737" transform="translate(-368.324 -366.185)" fill="none" stroke="#000" stroke-linecap="round" stroke-linejoin="round" stroke-miterlimit="10" stroke-width="1.5"/>
        </g>
        <path id="Trazado_1034729" data-name="Trazado 1034729" d="M309.442,44.141q-.036.195-.078.39a11.544,11.544,0,0,1-17.406,7.307L286.6,52.86l1.323-5.357a11.527,11.527,0,1,1,21.59-7.057" transform="translate(-257.162 -28.133)" fill="none" stroke="#000" stroke-linecap="round" stroke-linejoin="round" stroke-miterlimit="10" stroke-width="1.5"/>
        <g id="Grupo_1176636" data-name="Grupo 1176636" transform="translate(35.151 5.845)">
          <path id="Trazado_1034730" data-name="Trazado 1034730" d="M343.436,74.2a6.554,6.554,0,0,0-.978-1.882,5.543,5.543,0,0,1,2.186-8.925" transform="translate(-341.02 -63.341)" fill="none" stroke="#000" stroke-linecap="round" stroke-linejoin="round" stroke-miterlimit="10" stroke-width="1.5"/>
          <path id="Trazado_1034731" data-name="Trazado 1034731" d="M410.351,62.863a5.543,5.543,0,0,1,2.371,8.953,6.845,6.845,0,0,0-.995,1.888" transform="translate(-403.032 -62.863)" fill="none" stroke="#000" stroke-linecap="round" stroke-linejoin="round" stroke-miterlimit="10" stroke-width="1.5"/>
          <line id="Línea_965" data-name="Línea 965" y1="3.949" transform="translate(5.552 6.759)" fill="none" stroke="#000" stroke-linecap="round" stroke-linejoin="round" stroke-miterlimit="10" stroke-width="1.5"/>
          <path id="Trazado_1034732" data-name="Trazado 1034732" d="M373.243,193.7v.548a2.111,2.111,0,0,1-2.111,2.111H369.9a2.111,2.111,0,0,1-2.111-2.111V193.7" transform="translate(-364.966 -179.889)" fill="none" stroke="#000" stroke-linecap="round" stroke-linejoin="round" stroke-miterlimit="10" stroke-width="1.5"/>
          <path id="Trazado_1034733" data-name="Trazado 1034733" d="M361.031,168.651h-5.442a1.445,1.445,0,0,1-1.445-1.445h0a1.445,1.445,0,0,1,1.445-1.445h5.442a1.445,1.445,0,0,1,1.445,1.445h0A1.445,1.445,0,0,1,361.031,168.651Z" transform="translate(-352.759 -154.898)" fill="none" stroke="#000" stroke-linecap="round" stroke-linejoin="round" stroke-miterlimit="10" stroke-width="1.5"/>
          <line id="Línea_966" data-name="Línea 966" x2="3.554" transform="translate(3.848 6.75)" fill="none" stroke="#000" stroke-linecap="round" stroke-linejoin="round" stroke-miterlimit="10" stroke-width="1.5"/>
        </g>
      </g>
    </g>
  </g>
</svg>
