<svg xmlns="http://www.w3.org/2000/svg" xmlns:xlink="http://www.w3.org/1999/xlink" width="113" height="113" viewBox="0 0 113 113">
  <defs>
    <filter id="Trazado_982547" x="0" y="0" width="113" height="113" filterUnits="userSpaceOnUse">
      <feOffset dy="3" input="SourceAlpha"/>
      <feGaussianBlur stdDeviation="3" result="blur"/>
      <feFlood flood-opacity="0.161"/>
      <feComposite operator="in" in2="blur"/>
      <feComposite in="SourceGraphic"/>
    </filter>
  </defs>
  <g id="Grupo_1174897" data-name="Grupo 1174897" transform="translate(-1216.5 -1298.145)">
    <g id="Grupo_1171049" data-name="Grupo 1171049" transform="translate(1225.5 1304.145)">
      <g id="Grupo_1148525" data-name="Grupo 1148525" transform="translate(0)">
        <g transform="matrix(1, 0, 0, 1, -9, -6)" filter="url(#Trazado_982547)">
          <g id="Trazado_982547-2" data-name="Trazado 982547" transform="translate(9 6)" fill="#f4fdfe">
            <path d="M 47.5 93.5 C 41.28937149047852 93.5 35.26533508300781 92.28397369384766 29.59518623352051 89.88570404052734 C 24.11771965026855 87.56893157958984 19.19813346862793 84.25196075439453 14.97309303283691 80.02691650390625 C 10.74804019927979 75.80186462402344 7.431066513061523 70.88229370117188 5.114293098449707 65.40481567382812 C 2.716026782989502 59.73468017578125 1.5 53.71062850952148 1.5 47.5 C 1.5 41.28937149047852 2.716026782989502 35.26533508300781 5.114293098449707 29.59518623352051 C 7.431066513061523 24.11771965026855 10.74804019927979 19.19813346862793 14.97309303283691 14.97309303283691 C 19.19813346862793 10.74804019927979 24.11771965026855 7.431066513061523 29.59518623352051 5.114293098449707 C 35.26533508300781 2.716026782989502 41.28937149047852 1.5 47.5 1.5 C 53.71062850952148 1.5 59.73468017578125 2.716026782989502 65.40481567382812 5.114293098449707 C 70.88229370117188 7.431066513061523 75.80186462402344 10.74804019927979 80.02691650390625 14.97309303283691 C 84.25196075439453 19.19813346862793 87.56893157958984 24.11771965026855 89.88570404052734 29.59518623352051 C 92.28397369384766 35.26533508300781 93.5 41.28937149047852 93.5 47.5 C 93.5 53.71062850952148 92.28397369384766 59.73468017578125 89.88570404052734 65.40481567382812 C 87.56893157958984 70.88229370117188 84.25196075439453 75.80186462402344 80.02691650390625 80.02691650390625 C 75.80186462402344 84.25196075439453 70.88229370117188 87.56893157958984 65.40481567382812 89.88570404052734 C 59.73468017578125 92.28397369384766 53.71062850952148 93.5 47.5 93.5 Z" stroke="none"/>
            <path d="M 47.5 3 C 41.49121475219727 3 35.66376876831055 4.176155090332031 30.17950439453125 6.495796203613281 C 24.88084411621094 8.736953735351562 20.12152099609375 11.94598388671875 16.03375244140625 16.03375244140625 C 11.94598388671875 20.12152099609375 8.736953735351562 24.88084411621094 6.495796203613281 30.17950439453125 C 4.176155090332031 35.66376876831055 3 41.49121475219727 3 47.5 C 3 53.50878524780273 4.176155090332031 59.33623123168945 6.495796203613281 64.82049560546875 C 8.736953735351562 70.11915588378906 11.94598388671875 74.87847900390625 16.03375244140625 78.96624755859375 C 20.12152099609375 83.05401611328125 24.88084411621094 86.26304626464844 30.17950439453125 88.50419616699219 C 35.66376876831055 90.82384490966797 41.49121475219727 92 47.5 92 C 53.50878524780273 92 59.33623123168945 90.82384490966797 64.82049560546875 88.50419616699219 C 70.11915588378906 86.26304626464844 74.87847900390625 83.05401611328125 78.96624755859375 78.96624755859375 C 83.05401611328125 74.87847900390625 86.26304626464844 70.11915588378906 88.50419616699219 64.82049560546875 C 90.82384490966797 59.33623123168945 92 53.50878524780273 92 47.5 C 92 41.49121475219727 90.82384490966797 35.66376876831055 88.50419616699219 30.17950439453125 C 86.26304626464844 24.88084411621094 83.05401611328125 20.12152099609375 78.96624755859375 16.03375244140625 C 74.87847900390625 11.94598388671875 70.11915588378906 8.736953735351562 64.82049560546875 6.495796203613281 C 59.33623123168945 4.176155090332031 53.50878524780273 3 47.5 3 M 47.5 0 C 73.7335205078125 0 95 21.2664794921875 95 47.5 C 95 73.7335205078125 73.7335205078125 95 47.5 95 C 21.2664794921875 95 0 73.7335205078125 0 47.5 C 0 21.2664794921875 21.2664794921875 0 47.5 0 Z" stroke="none" fill="#56838a"/>
          </g>
        </g>
      </g>
    </g>
    <g id="teaching_12963333" transform="translate(1223.49 1315.966)">
      <g id="Grupo_1171293" data-name="Grupo 1171293" transform="translate(25.233 7.5)">
        <g id="Grupo_1171285" data-name="Grupo 1171285" transform="translate(5.884 24.189)">
          <circle id="Elipse_12286" data-name="Elipse 12286" cx="6.24" cy="6.24" r="6.24" fill="#fec165"/>
          <circle id="Elipse_12287" data-name="Elipse 12287" cx="6.24" cy="6.24" r="6.24" transform="translate(24.551)" fill="#fec165"/>
        </g>
        <g id="Grupo_1171286" data-name="Grupo 1171286" transform="translate(5.71 20.142)">
          <path id="Trazado_1024503" data-name="Trazado 1024503" d="M97.036,192.991c-2.651,0-4.8-2.421-4.8-5.407v-.176a2.138,2.138,0,0,1,2-2.253h33.419a2.138,2.138,0,0,1,2,2.253v.176c0,2.986-2.149,5.407-4.8,5.407Z" transform="translate(-92.235 -185.155)" fill="#f0bfb5"/>
        </g>
        <path id="Trazado_1024504" data-name="Trazado 1024504" d="M180.7,306.994l-4.216-1.193a2.687,2.687,0,0,1-2.017-2.546v-7.346h-9.995v7.346a2.687,2.687,0,0,1-2.017,2.546l-4.216,1.193Z" transform="translate(-145.048 -263.211)" fill="#f0bfb5"/>
        <path id="Trazado_1024505" data-name="Trazado 1024505" d="M90.264,406.248a.454.454,0,0,0,.454-.454v-1.47a9.531,9.531,0,0,0-8.01-9.174l-5.183-1.467H55.063l-5.183,1.467a9.531,9.531,0,0,0-8.01,9.174v1.47a.454.454,0,0,0,.453.454l3.378.009,2.346-1.407H84.575l2.264,1.407Z" transform="translate(-41.87 -349.901)" fill="#fe7ab6"/>
        <g id="Grupo_1171287" data-name="Grupo 1171287" transform="translate(11.783 11.164)">
          <path id="Trazado_1024506" data-name="Trazado 1024506" d="M171.06,105.972v15.59a8.776,8.776,0,0,1-3.489,7.006l-4.824,3.639a7.31,7.31,0,0,1-8.636,0l-4.824-3.639a8.776,8.776,0,0,1-3.489-7.006v-15.59Z" transform="translate(-145.797 -105.972)" fill="#f0bfb5"/>
        </g>
        <path id="Trazado_1024507" data-name="Trazado 1024507" d="M158.639,21.475v5.542l-1.46-.564a4.426,4.426,0,0,1-3.564.583c-2.774-.7-6.345-2.2-7.951-5.362a19.522,19.522,0,0,1-.85-5.781,19.5,19.5,0,0,1-.85,5.784c-2.813,5.547-11.65,5.965-11.65,5.965h-1.939V22.1a14.627,14.627,0,0,1,4.246-10.311,14.287,14.287,0,0,1,14.5-3.63c.057.018.115.033.17.055C153.687,10.034,158.639,15.014,158.639,21.475Z" transform="translate(-120.339 -7.5)" fill="#fece85"/>
        <g id="Grupo_1171288" data-name="Grupo 1171288" transform="translate(28.946 0.715)">
          <path id="Trazado_1024508" data-name="Trazado 1024508" d="M297.179,13.8a19.958,19.958,0,0,1,4.33,12.672v6.149a20.943,20.943,0,0,0,3.731.607h1.939V27.69A14.644,14.644,0,0,0,297.179,13.8Z" transform="translate(-297.179 -13.804)" fill="#fec165"/>
        </g>
        <line id="Línea_641" data-name="Línea 641" transform="translate(24.473 10.442)" fill="#fece85"/>
        <g id="Grupo_1171292" data-name="Grupo 1171292" transform="translate(3.831 41.197)">
          <g id="Grupo_1171290" data-name="Grupo 1171290" transform="translate(2.053 0)">
            <path id="Trazado_1024510" data-name="Trazado 1024510" d="M144.717,372.539l.29,11.259H112.14V372.39a.429.429,0,0,1,.348-.407l1.633-.378a27.647,27.647,0,0,1,12.361-.019l1.3.3.79,1.131.79-1.134,1.295-.3a27.641,27.641,0,0,1,10.853-.317c.734.125,1.173.436,1.895.621l.973.249A.428.428,0,0,1,144.717,372.539Z" transform="translate(-110.058 -370.874)" fill="#eef5f6"/>
            <g id="Grupo_1171289" data-name="Grupo 1171289" transform="translate(31.274 0.362)">
              <path id="Trazado_1024511" data-name="Trazado 1024511" d="M372.953,374.808l-.973-.249q-1.172-.3-2.365-.494l.178.045a.428.428,0,0,1,.337.4v12.113h3.161V375.211A.428.428,0,0,0,372.953,374.808Z" transform="translate(-369.615 -374.065)" fill="#deecf1"/>
            </g>
            <path id="Trazado_1024512" data-name="Trazado 1024512" d="M108.718,402.087H94.608a.812.812,0,0,0-.836.785v9.165l5.719,1.669h9.886l1.711-4.928-1.711-6.537A1.469,1.469,0,0,0,108.718,402.087Z" transform="translate(-93.772 -398.548)" fill="#7a8c98"/>
            <path id="Trazado_1024513" data-name="Trazado 1024513" d="M291.039,403.083a.812.812,0,0,0-.836-.785l-2.768-.211H276.413a1.457,1.457,0,0,0-.73.194l-.948,5.976.948,5.45h9.848l5.508-1.188v-9.436Z" transform="translate(-254.218 -398.548)" fill="#7a8c98"/>
            <path id="Trazado_1024514" data-name="Trazado 1024514" d="M388.307,402.087h-3.161a.812.812,0,0,1,.836.785v10.835h3.161V402.872A.812.812,0,0,0,388.307,402.087Z" transform="translate(-352.112 -398.548)" fill="#687c87"/>
            <path id="Trazado_1024515" data-name="Trazado 1024515" d="M237.2,403.531l-.367.239a4.579,4.579,0,0,1-5-.043l-.27-.183a1.378,1.378,0,0,0-.157-.091v11.465h5.86V403.492C237.246,403.5,237.224,403.517,237.2,403.531Z" transform="translate(-215.803 -399.759)" fill="#687c87"/>
          </g>
          <g id="Grupo_1171291" data-name="Grupo 1171291" transform="translate(0 10.688)">
            <path id="Trazado_1024516" data-name="Trazado 1024516" d="M75.663,469.62v-2.389a2.087,2.087,0,0,1,2.081-2.081h2.348a3.352,3.352,0,0,1,3.342,3.342v1.128Z" transform="translate(-75.663 -465.15)" fill="#ffd9e1"/>
            <path id="Trazado_1024517" data-name="Trazado 1024517" d="M369.959,469.62v-1.128a3.352,3.352,0,0,1,3.342-3.342h2.348a2.087,2.087,0,0,1,2.081,2.081v2.389Z" transform="translate(-336.593 -465.15)" fill="#ffd9e1"/>
          </g>
        </g>
      </g>
      <g id="Grupo_1171305" data-name="Grupo 1171305" transform="translate(23.106 7.5)">
        <g id="Grupo_1171294" data-name="Grupo 1171294" transform="translate(0.076 5.096)">
          <line id="Línea_642" data-name="Línea 642" x1="1.811" transform="translate(6.449 4.128)" fill="none" stroke="#000" stroke-linecap="round" stroke-linejoin="round" stroke-miterlimit="10" stroke-width="1.5"/>
          <line id="Línea_643" data-name="Línea 643" x1="1.811" transform="translate(0 4.128)" fill="none" stroke="#000" stroke-linecap="round" stroke-linejoin="round" stroke-miterlimit="10" stroke-width="1.5"/>
          <line id="Línea_644" data-name="Línea 644" y2="1.81" transform="translate(4.13)" fill="none" stroke="#000" stroke-linecap="round" stroke-linejoin="round" stroke-miterlimit="10" stroke-width="1.5"/>
          <line id="Línea_645" data-name="Línea 645" y2="1.81" transform="translate(4.13 6.446)" fill="none" stroke="#000" stroke-linecap="round" stroke-linejoin="round" stroke-miterlimit="10" stroke-width="1.5"/>
        </g>
        <g id="Grupo_1171295" data-name="Grupo 1171295" transform="translate(8.012 26.666)">
          <path id="Trazado_1024518" data-name="Trazado 1024518" d="M104.391,250.915a6.24,6.24,0,0,1-9.359-8.207" transform="translate(-93.771 -242.708)" fill="none" stroke="#000" stroke-linecap="round" stroke-linejoin="round" stroke-miterlimit="10" stroke-width="1.5"/>
          <path id="Trazado_1024519" data-name="Trazado 1024519" d="M336.149,242.706a6.24,6.24,0,0,1-9.351,8.215" transform="translate(-300.379 -242.706)" fill="none" stroke="#000" stroke-linecap="round" stroke-linejoin="round" stroke-miterlimit="10" stroke-width="1.5"/>
        </g>
        <g id="Grupo_1171296" data-name="Grupo 1171296" transform="translate(39.337 20.142)">
          <path id="Trazado_1024520" data-name="Trazado 1024520" d="M370.073,192.991h1.119c2.651,0,4.8-2.421,4.8-5.407v-.176a2.138,2.138,0,0,0-2-2.253H372.01" transform="translate(-370.073 -185.155)" fill="none" stroke="#000" stroke-linecap="round" stroke-linejoin="round" stroke-miterlimit="10" stroke-width="1.5"/>
        </g>
        <g id="Grupo_1171297" data-name="Grupo 1171297" transform="translate(7.838 20.142)">
          <path id="Trazado_1024521" data-name="Trazado 1024521" d="M98.155,192.991H97.036c-2.651,0-4.8-2.421-4.8-5.407v-.176a2.138,2.138,0,0,1,2-2.253h2.209" transform="translate(-92.235 -185.155)" fill="none" stroke="#000" stroke-linecap="round" stroke-linejoin="round" stroke-miterlimit="10" stroke-width="1.5"/>
        </g>
        <path id="Trazado_1024522" data-name="Trazado 1024522" d="M47.605,412.825a9.34,9.34,0,0,0-5.735,8.47v1.923" transform="translate(-39.743 -366.871)" fill="none" stroke="#000" stroke-linecap="round" stroke-linejoin="round" stroke-miterlimit="10" stroke-width="1.5"/>
        <path id="Trazado_1024523" data-name="Trazado 1024523" d="M211.06,334.881v2.928a2.517,2.517,0,0,1-.276,1.144" transform="translate(-189.506 -297.764)" fill="none" stroke="#000" stroke-linecap="round" stroke-linejoin="round" stroke-miterlimit="10" stroke-width="1.5"/>
        <path id="Trazado_1024524" data-name="Trazado 1024524" d="M422.13,412.825a9.34,9.34,0,0,1,5.735,8.47v1.923" transform="translate(-376.891 -366.871)" fill="none" stroke="#000" stroke-linecap="round" stroke-linejoin="round" stroke-miterlimit="10" stroke-width="1.5"/>
        <path id="Trazado_1024525" data-name="Trazado 1024525" d="M301.37,334.881v2.928a2.518,2.518,0,0,0,.276,1.144" transform="translate(-269.822 -297.764)" fill="none" stroke="#000" stroke-linecap="round" stroke-linejoin="round" stroke-miterlimit="10" stroke-width="1.5"/>
        <g id="Grupo_1171298" data-name="Grupo 1171298" transform="translate(13.91 20.142)">
          <path id="Trazado_1024526" data-name="Trazado 1024526" d="M171.06,191.058v.71a8.776,8.776,0,0,1-3.489,7.006l-4.824,3.639a7.31,7.31,0,0,1-8.636,0l-4.824-3.639a8.776,8.776,0,0,1-3.489-7.006v-6.612" transform="translate(-145.797 -185.156)" fill="none" stroke="#000" stroke-linecap="round" stroke-linejoin="round" stroke-miterlimit="10" stroke-width="1.5"/>
          <line id="Línea_646" data-name="Línea 646" y2="1.934" transform="translate(25.263)" fill="none" stroke="#000" stroke-linecap="round" stroke-linejoin="round" stroke-miterlimit="10" stroke-width="1.5"/>
        </g>
        <g id="Grupo_1171299" data-name="Grupo 1171299" transform="translate(25.094 27.363)">
          <path id="Trazado_1024527" data-name="Trazado 1024527" d="M244.443,248.851a3.185,3.185,0,0,0,2.9,0" transform="translate(-244.443 -248.851)" fill="none" stroke="#000" stroke-linecap="round" stroke-linejoin="round" stroke-miterlimit="10" stroke-width="1.5"/>
        </g>
        <path id="Trazado_1024528" data-name="Trazado 1024528" d="M130.37,106.255V109.3h1.938s12.953-1.461,12.5-9.7" transform="translate(-118.209 -89.163)" fill="none" stroke="#000" stroke-linecap="round" stroke-linejoin="round" stroke-miterlimit="10" stroke-width="1.5"/>
        <path id="Trazado_1024529" data-name="Trazado 1024529" d="M145.428,15.362v2.581c-.452,8.239,12.5,9.7,12.5,9.7h1.938V22.1A14.572,14.572,0,0,0,145.412,7.5h0a14.561,14.561,0,0,0-14.38,13.113" transform="translate(-118.796 -7.5)" fill="none" stroke="#000" stroke-linecap="round" stroke-linejoin="round" stroke-miterlimit="10" stroke-width="1.5"/>
        <line id="Línea_647" data-name="Línea 647" y2="1.793" transform="translate(21.915 21.716)" fill="none" stroke="#000" stroke-linecap="round" stroke-linejoin="round" stroke-miterlimit="10" stroke-width="1.5"/>
        <line id="Línea_648" data-name="Línea 648" y2="1.793" transform="translate(30.801 21.716)" fill="none" stroke="#000" stroke-linecap="round" stroke-linejoin="round" stroke-miterlimit="10" stroke-width="1.5"/>
        <g id="Grupo_1171300" data-name="Grupo 1171300" transform="translate(8.012 41.188)">
          <path id="Trazado_1024530" data-name="Trazado 1024530" d="M112.144,374.08v-1.771a.429.429,0,0,1,.347-.406l1.633-.378a27.641,27.641,0,0,1,12.36-.019l2.092.478,2.085-.483a27.632,27.632,0,0,1,13.038.147l.974.249a.427.427,0,0,1,.336.4v1.849" transform="translate(-110.061 -370.793)" fill="none" stroke="#000" stroke-linecap="round" stroke-linejoin="round" stroke-miterlimit="10" stroke-width="1.5"/>
          <line id="Línea_649" data-name="Línea 649" y2="3.379" transform="translate(18.516 1.191)" fill="none" stroke="#000" stroke-linecap="round" stroke-linejoin="round" stroke-miterlimit="10" stroke-width="1.5"/>
          <path id="Trazado_1024531" data-name="Trazado 1024531" d="M191.2,402.007h3.9a1.451,1.451,0,0,1,.815.246l.27.183a4.579,4.579,0,0,0,5,.043l.367-.239a1.45,1.45,0,0,1,.794-.233h14a.812.812,0,0,1,.836.785v6.173" transform="translate(-180.151 -398.468)" fill="none" stroke="#000" stroke-linecap="round" stroke-linejoin="round" stroke-miterlimit="10" stroke-width="1.5"/>
          <path id="Trazado_1024532" data-name="Trazado 1024532" d="M93.772,408.93v-6.138a.812.812,0,0,1,.836-.785h6.241" transform="translate(-93.772 -398.467)" fill="none" stroke="#000" stroke-linecap="round" stroke-linejoin="round" stroke-miterlimit="10" stroke-width="1.5"/>
          <line id="Línea_650" data-name="Línea 650" y2="11.374" transform="translate(15.604 3.785)" fill="none" stroke="#000" stroke-linecap="round" stroke-linejoin="round" stroke-miterlimit="10" stroke-width="1.5"/>
          <line id="Línea_651" data-name="Línea 651" y2="1.719" transform="translate(21.464 13.44)" fill="none" stroke="#000" stroke-linecap="round" stroke-linejoin="round" stroke-miterlimit="10" stroke-width="1.5"/>
          <line id="Línea_652" data-name="Línea 652" y2="5.687" transform="translate(21.464 3.785)" fill="none" stroke="#000" stroke-linecap="round" stroke-linejoin="round" stroke-miterlimit="10" stroke-width="1.5"/>
        </g>
        <path id="Trazado_1024533" data-name="Trazado 1024533" d="M230.342,285.673a3.34,3.34,0,0,0,3.42-3.188,14.546,14.546,0,0,0-6.84,0A3.34,3.34,0,0,0,230.342,285.673Z" transform="translate(-203.814 -250.948)" fill="none" stroke="#000" stroke-linecap="round" stroke-linejoin="round" stroke-miterlimit="10" stroke-width="1.5"/>
        <g id="Grupo_1171301" data-name="Grupo 1171301" transform="translate(5.959 51.877)">
          <path id="Trazado_1024534" data-name="Trazado 1024534" d="M75.663,469.54v-2.389a2.087,2.087,0,0,1,2.081-2.081h2.348a3.352,3.352,0,0,1,3.342,3.342v1.128" transform="translate(-75.663 -465.07)" fill="none" stroke="#000" stroke-linecap="round" stroke-linejoin="round" stroke-miterlimit="10" stroke-width="1.5"/>
          <path id="Trazado_1024535" data-name="Trazado 1024535" d="M369.959,469.54v-1.128a3.352,3.352,0,0,1,3.342-3.342h2.348a2.087,2.087,0,0,1,2.081,2.081v2.389" transform="translate(-336.593 -465.07)" fill="none" stroke="#000" stroke-linecap="round" stroke-linejoin="round" stroke-miterlimit="10" stroke-width="1.5"/>
        </g>
        <g id="Grupo_1171302" data-name="Grupo 1171302" transform="translate(0 35.269)">
          <path id="Trazado_1024536" data-name="Trazado 1024536" d="M26.727,326.982l-3.6-8.035a.259.259,0,0,1,.053-.289h0a.259.259,0,0,1,.289-.053l8.011,3.625" transform="translate(-23.106 -318.583)" fill="none" stroke="#000" stroke-linecap="round" stroke-linejoin="round" stroke-miterlimit="10" stroke-width="1.5"/>
          <line id="Línea_653" data-name="Línea 653" y1="3.353" x2="3.356" transform="translate(2.849 2.863)" fill="none" stroke="#000" stroke-linecap="round" stroke-linejoin="round" stroke-miterlimit="10" stroke-width="1.5"/>
        </g>
        <g id="Grupo_1171303" data-name="Grupo 1171303" transform="translate(43.925 3.205)">
          <path id="Trazado_1024537" data-name="Trazado 1024537" d="M441.472,39.991a1.831,1.831,0,0,1-2.588,0l-1.632-1.633,2.589-2.587,1.632,1.633A1.829,1.829,0,0,1,441.472,39.991Z" transform="translate(-434.223 -35.772)" fill="none" stroke="#000" stroke-linecap="round" stroke-linejoin="round" stroke-miterlimit="10" stroke-width="1.5"/>
          <path id="Trazado_1024538" data-name="Trazado 1024538" d="M415.483,63.533a2.143,2.143,0,0,1-3.028,0l-1.917-1.918,3.029-3.026,1.917,1.918A2.138,2.138,0,0,1,415.483,63.533Z" transform="translate(-410.538 -56.004)" fill="none" stroke="#000" stroke-linecap="round" stroke-linejoin="round" stroke-miterlimit="10" stroke-width="1.5"/>
        </g>
        <g id="Grupo_1171304" data-name="Grupo 1171304" transform="translate(47.198 34.613)">
          <path id="Trazado_1024539" data-name="Trazado 1024539" d="M442.942,312.841a3,3,0,1,0,.693,5.705A2.365,2.365,0,0,0,445.021,317" transform="translate(-439.411 -312.794)" fill="none" stroke="#000" stroke-linecap="round" stroke-linejoin="round" stroke-miterlimit="10" stroke-width="1.5"/>
        </g>
      </g>
    </g>
  </g>
</svg>
