<svg xmlns="http://www.w3.org/2000/svg" xmlns:xlink="http://www.w3.org/1999/xlink" width="113" height="113" viewBox="0 0 113 113">
  <defs>
    <filter id="Trazado_982547" x="0" y="0" width="113" height="113" filterUnits="userSpaceOnUse">
      <feOffset dy="3" input="SourceAlpha"/>
      <feGaussianBlur stdDeviation="3" result="blur"/>
      <feFlood flood-opacity="0.161"/>
      <feComposite operator="in" in2="blur"/>
      <feComposite in="SourceGraphic"/>
    </filter>
  </defs>
  <g id="Grupo_1176296" data-name="Grupo 1176296" transform="translate(-271.5 -1298.145)">
    <g id="Grupo_1171046" data-name="Grupo 1171046" transform="translate(280.5 1304.145)">
      <g id="Grupo_1148525" data-name="Grupo 1148525" transform="translate(0)">
        <g transform="matrix(1, 0, 0, 1, -9, -6)" filter="url(#Trazado_982547)">
          <g id="Trazado_982547-2" data-name="Trazado 982547" transform="translate(9 6)" fill="#f4fdfe">
            <path d="M 47.5 93.5 C 41.28937149047852 93.5 35.26533508300781 92.28397369384766 29.59518623352051 89.88570404052734 C 24.11771965026855 87.56893157958984 19.19813346862793 84.25196075439453 14.97309303283691 80.02691650390625 C 10.74804019927979 75.80186462402344 7.431066513061523 70.88229370117188 5.114293098449707 65.40481567382812 C 2.716026782989502 59.73468017578125 1.5 53.71062850952148 1.5 47.5 C 1.5 41.28937149047852 2.716026782989502 35.26533508300781 5.114293098449707 29.59518623352051 C 7.431066513061523 24.11771965026855 10.74804019927979 19.19813346862793 14.97309303283691 14.97309303283691 C 19.19813346862793 10.74804019927979 24.11771965026855 7.431066513061523 29.59518623352051 5.114293098449707 C 35.26533508300781 2.716026782989502 41.28937149047852 1.5 47.5 1.5 C 53.71062850952148 1.5 59.73468017578125 2.716026782989502 65.40481567382812 5.114293098449707 C 70.88229370117188 7.431066513061523 75.80186462402344 10.74804019927979 80.02691650390625 14.97309303283691 C 84.25196075439453 19.19813346862793 87.56893157958984 24.11771965026855 89.88570404052734 29.59518623352051 C 92.28397369384766 35.26533508300781 93.5 41.28937149047852 93.5 47.5 C 93.5 53.71062850952148 92.28397369384766 59.73468017578125 89.88570404052734 65.40481567382812 C 87.56893157958984 70.88229370117188 84.25196075439453 75.80186462402344 80.02691650390625 80.02691650390625 C 75.80186462402344 84.25196075439453 70.88229370117188 87.56893157958984 65.40481567382812 89.88570404052734 C 59.73468017578125 92.28397369384766 53.71062850952148 93.5 47.5 93.5 Z" stroke="none"/>
            <path d="M 47.5 3 C 41.49121475219727 3 35.66376876831055 4.176155090332031 30.17950439453125 6.495796203613281 C 24.88084411621094 8.736953735351562 20.12152099609375 11.94598388671875 16.03375244140625 16.03375244140625 C 11.94598388671875 20.12152099609375 8.736953735351562 24.88084411621094 6.495796203613281 30.17950439453125 C 4.176155090332031 35.66376876831055 3 41.49121475219727 3 47.5 C 3 53.50878524780273 4.176155090332031 59.33623123168945 6.495796203613281 64.82049560546875 C 8.736953735351562 70.11915588378906 11.94598388671875 74.87847900390625 16.03375244140625 78.96624755859375 C 20.12152099609375 83.05401611328125 24.88084411621094 86.26304626464844 30.17950439453125 88.50419616699219 C 35.66376876831055 90.82384490966797 41.49121475219727 92 47.5 92 C 53.50878524780273 92 59.33623123168945 90.82384490966797 64.82049560546875 88.50419616699219 C 70.11915588378906 86.26304626464844 74.87847900390625 83.05401611328125 78.96624755859375 78.96624755859375 C 83.05401611328125 74.87847900390625 86.26304626464844 70.11915588378906 88.50419616699219 64.82049560546875 C 90.82384490966797 59.33623123168945 92 53.50878524780273 92 47.5 C 92 41.49121475219727 90.82384490966797 35.66376876831055 88.50419616699219 30.17950439453125 C 86.26304626464844 24.88084411621094 83.05401611328125 20.12152099609375 78.96624755859375 16.03375244140625 C 74.87847900390625 11.94598388671875 70.11915588378906 8.736953735351562 64.82049560546875 6.495796203613281 C 59.33623123168945 4.176155090332031 53.50878524780273 3 47.5 3 M 47.5 0 C 73.7335205078125 0 95 21.2664794921875 95 47.5 C 95 73.7335205078125 73.7335205078125 95 47.5 95 C 21.2664794921875 95 0 73.7335205078125 0 47.5 C 0 21.2664794921875 21.2664794921875 0 47.5 0 Z" stroke="none" fill="#56838a"/>
          </g>
        </g>
      </g>
    </g>
    <g id="Layer_32" data-name="Layer 32" transform="translate(296.251 1319.6)">
      <path id="Trazado_1034658" data-name="Trazado 1034658" d="M37.83,2.629A20.935,20.935,0,0,0,32.722,2H27.439A20.478,20.478,0,0,0,6.961,22.478h0a5.715,5.715,0,0,0,.6,2.556h0a3.682,3.682,0,0,1,.389,1.647h0a3.686,3.686,0,0,1-.618,2.042l-4.973,7.46A2.155,2.155,0,0,0,2,37.378H2a2.155,2.155,0,0,0,1.19,1.927l2.778,1.389v3.969l1.984.992-1.1.549a1.6,1.6,0,0,0-.887,1.436h0a1.6,1.6,0,0,0,.887,1.436h0a1.984,1.984,0,0,1,1.1,1.775v2.107a3.611,3.611,0,0,0,3.611,3.611h0a3.608,3.608,0,0,0,.707-.07l3.983-.794a6.407,6.407,0,0,1,1.268-.128h0a6.469,6.469,0,0,1,5.263,2.708l3.026,4.237h24.8l-4.45-13.349a9.972,9.972,0,0,1-.511-3.151h0a9.963,9.963,0,0,1,1.051-4.454l1.317-2.635" transform="translate(-0.008 -0.008)" fill="#d08d78"/>
      <circle id="Elipse_12317" data-name="Elipse 12317" cx="18.851" cy="18.851" r="18.851" transform="translate(23.82 1.992)" fill="#0059be"/>
      <path id="Trazado_1034659" data-name="Trazado 1034659" d="M42.851,2A18.838,18.838,0,0,0,28.124,32.6,18.838,18.838,0,0,0,54.6,6.124,18.752,18.752,0,0,0,42.851,2Z" transform="translate(-0.18 -0.008)" fill="#006bdb"/>
      <path id="Trazado_1034660" data-name="Trazado 1034660" d="M42.679,41.686a20.822,20.822,0,0,1-9.206-39.5A21.06,21.06,0,0,0,30.738,2h-3.3A20.478,20.478,0,0,0,6.961,22.478a5.715,5.715,0,0,0,.6,2.556,3.684,3.684,0,0,1-.229,3.69L2.362,36.183a2.154,2.154,0,0,0,.828,3.122l2.778,1.389v3.969l1.984.992-1.1.549a1.605,1.605,0,0,0,0,2.871,1.984,1.984,0,0,1,1.1,1.775v2.107A3.609,3.609,0,0,0,12.272,56.5l3.983-.794a6.464,6.464,0,0,1,6.531,2.58l3.026,4.238h8.749a10.141,10.141,0,0,0,9.624-13.349,9.96,9.96,0,0,1,.534-7.59C44.045,41.649,43.366,41.686,42.679,41.686Z" transform="translate(-0.008 -0.008)" fill="#f2b9a1"/>
      <rect id="Rectángulo_415895" data-name="Rectángulo 415895" width="21.828" height="21.828" transform="translate(31.757 9.929)" fill="#f9cb5d"/>
      <path id="Trazado_1034661" data-name="Trazado 1034661" d="M32,10V29.843h7.2A12.647,12.647,0,0,0,51.843,17.2V10Z" transform="translate(-0.243 -0.071)" fill="#ffe1ae"/>
      <path id="Trazado_1034662" data-name="Trazado 1034662" d="M43,20.914V17.937h1.488a2.48,2.48,0,0,0,2.48-2.48h0a2.48,2.48,0,0,0-2.48-2.48H43V10H53.914V20.914H50.937V22.4a2.48,2.48,0,0,1-2.48,2.48h0a2.48,2.48,0,0,1-2.48-2.48V20.914H43" transform="translate(-0.329 -0.071)" fill="#8dbf00"/>
      <path id="Trazado_1034663" data-name="Trazado 1034663" d="M32,20.969h2.976V19.48A2.48,2.48,0,0,1,37.457,17h0a2.48,2.48,0,0,1,2.48,2.48v1.488h2.976v2.976H41.426a2.48,2.48,0,0,0-2.48,2.48h0a2.48,2.48,0,0,0,2.48,2.48h1.488v2.976H32Z" transform="translate(-0.243 -0.125)" fill="#e73844"/>
      <path id="Trazado_1034664" data-name="Trazado 1034664" d="M42.914,29.34v-.435H41.426a2.48,2.48,0,1,1,0-4.961h1.488V20.969H39.937V19.48a2.48,2.48,0,1,0-4.961,0v1.488H32V29.9h7.2a12.641,12.641,0,0,0,3.718-.558Z" transform="translate(-0.243 -0.125)" fill="#ff4d55"/>
      <path id="Trazado_1034665" data-name="Trazado 1034665" d="M44.488,12.976a2.48,2.48,0,1,1,0,4.961H43v2.976h2.976V22.4a2.48,2.48,0,0,0,2.48,2.48,2.455,2.455,0,0,0,1.021-.225,12.574,12.574,0,0,0,1.459-2.543v-1.2h.435a12.641,12.641,0,0,0,.558-3.718V10H43v2.976Z" transform="translate(-0.329 -0.071)" fill="#a6d305"/>
      <path id="Trazado_1034666" data-name="Trazado 1034666" d="M32,10V29.843h7.2A12.647,12.647,0,0,0,51.843,17.2V10Z" transform="translate(-0.243 -0.071)" fill="#ffe1ae"/>
      <path id="Trazado_1034667" data-name="Trazado 1034667" d="M42.914,29.34v-.435H41.426a2.48,2.48,0,1,1,0-4.961h1.488V20.969H39.937V19.48a2.48,2.48,0,1,0-4.961,0v1.488H32V29.9h7.2a12.641,12.641,0,0,0,3.718-.558Z" transform="translate(-0.243 -0.125)" fill="#ff4d55"/>
      <path id="Trazado_1034668" data-name="Trazado 1034668" d="M44.488,12.976a2.48,2.48,0,1,1,0,4.961H43v2.976h2.976V22.4a2.48,2.48,0,0,0,2.48,2.48,2.455,2.455,0,0,0,1.021-.225,12.574,12.574,0,0,0,1.459-2.543v-1.2h.435a12.641,12.641,0,0,0,.558-3.718V10H43v2.976Z" transform="translate(-0.329 -0.071)" fill="#a6d305"/>
      <path id="Trazado_1034669" data-name="Trazado 1034669" d="M46.882,15.457a2.48,2.48,0,0,1-2.48,2.48H42.914v2.976H39.937V19.426a2.48,2.48,0,1,0-4.961,0v1.488H32V10H42.914v2.976H44.4a2.48,2.48,0,0,1,2.48,2.48Z" transform="translate(-0.243 -0.071)" fill="#8adef9"/>
      <path id="Trazado_1034670" data-name="Trazado 1034670" d="M42.671,1a19.744,19.744,0,0,0-4.812.615A21.935,21.935,0,0,0,32.714,1H27.431A21.5,21.5,0,0,0,5.961,22.47a6.741,6.741,0,0,0,.708,3A2.689,2.689,0,0,1,6.5,28.165L1.529,35.626a3.147,3.147,0,0,0,1.21,4.564L4.969,41.3v3.355a.992.992,0,0,0,.549.893l.312.156A2.6,2.6,0,0,0,6.4,49.96a.986.986,0,0,1,.549.882v2.107a4.6,4.6,0,0,0,5.506,4.514l3.982-.794a5.544,5.544,0,0,1,5.529,2.183L25,63.089l1.615-1.153L23.585,57.7a7.54,7.54,0,0,0-7.532-2.976l-3.984.794a2.59,2.59,0,0,1-.512.053,2.622,2.622,0,0,1-2.619-2.619V50.842A2.959,2.959,0,0,0,7.291,48.18a.613.613,0,0,1,0-1.1l1.091-.548a.992.992,0,0,0,0-1.776l-1.43-.717V40.686a.992.992,0,0,0-.549-.893L3.626,38.4a1.164,1.164,0,0,1-.446-1.687l4.972-7.451a4.671,4.671,0,0,0,.29-4.684,4.756,4.756,0,0,1-.5-2.112A19.509,19.509,0,0,1,27.431,2.984h5.283c.427,0,.853.015,1.278.042A19.81,19.81,0,0,0,46.2,40.355l-.38.761a10.956,10.956,0,0,0-.6,8.363l4.45,13.349,1.885-.627L47.1,48.851A8.966,8.966,0,0,1,47.587,42l1.136-2.269A19.843,19.843,0,0,0,42.671,1Zm0,37.7A17.859,17.859,0,1,1,60.53,20.843,17.859,17.859,0,0,1,42.671,38.7Z" transform="translate(0)"/>
      <path id="Trazado_1034671" data-name="Trazado 1034671" d="M53.82,9H31.992A.992.992,0,0,0,31,9.992V31.82a.992.992,0,0,0,.992.992H53.82a.992.992,0,0,0,.992-.992V9.992A.992.992,0,0,0,53.82,9Zm-.992,10.914H50.843a.992.992,0,0,0-.992.992v1.488a1.488,1.488,0,0,1-2.976,0V20.906a.992.992,0,0,0-.992-.992H43.9v-.992h.5a3.473,3.473,0,0,0,0-6.945h-.5v-.992h8.929ZM41.914,10.984v1.984a.992.992,0,0,0,.992.992h1.488a1.488,1.488,0,1,1,0,2.976H42.906a.992.992,0,0,0-.992.992v1.984h-.992v-.5a3.473,3.473,0,1,0-6.945,0v.5h-.992V10.984ZM32.984,21.9h1.984a.992.992,0,0,0,.992-.992V19.418a1.488,1.488,0,1,1,2.976,0v1.488a.992.992,0,0,0,.992.992h1.984v.992h-.5a3.473,3.473,0,0,0,0,6.945h.5v.992H32.984ZM43.9,30.828V28.843a.992.992,0,0,0-.992-.992H41.418a1.488,1.488,0,1,1,0-2.976h1.488a.992.992,0,0,0,.992-.992V21.9h.992v.5a3.473,3.473,0,1,0,6.945,0v-.5h.992v8.929Z" transform="translate(-0.235 -0.063)"/>
    </g>
  </g>
</svg>
