<svg xmlns="http://www.w3.org/2000/svg" xmlns:xlink="http://www.w3.org/1999/xlink" width="113" height="113" viewBox="0 0 113 113">
  <defs>
    <filter id="Trazado_982547" x="0" y="0" width="113" height="113" filterUnits="userSpaceOnUse">
      <feOffset dy="3" input="SourceAlpha"/>
      <feGaussianBlur stdDeviation="3" result="blur"/>
      <feFlood flood-opacity="0.161"/>
      <feComposite operator="in" in2="blur"/>
      <feComposite in="SourceGraphic"/>
    </filter>
  </defs>
  <g id="Grupo_1176298" data-name="Grupo 1176298" transform="translate(-901.5 -1298.145)">
    <g id="Grupo_1171048" data-name="Grupo 1171048" transform="translate(910.5 1304.145)">
      <g id="Grupo_1148525" data-name="Grupo 1148525" transform="translate(0)">
        <g transform="matrix(1, 0, 0, 1, -9, -6)" filter="url(#Trazado_982547)">
          <g id="Trazado_982547-2" data-name="Trazado 982547" transform="translate(9 6)" fill="#f4fdfe">
            <path d="M 47.5 93.5 C 41.28937149047852 93.5 35.26533508300781 92.28397369384766 29.59518623352051 89.88570404052734 C 24.11771965026855 87.56893157958984 19.19813346862793 84.25196075439453 14.97309303283691 80.02691650390625 C 10.74804019927979 75.80186462402344 7.431066513061523 70.88229370117188 5.114293098449707 65.40481567382812 C 2.716026782989502 59.73468017578125 1.5 53.71062850952148 1.5 47.5 C 1.5 41.28937149047852 2.716026782989502 35.26533508300781 5.114293098449707 29.59518623352051 C 7.431066513061523 24.11771965026855 10.74804019927979 19.19813346862793 14.97309303283691 14.97309303283691 C 19.19813346862793 10.74804019927979 24.11771965026855 7.431066513061523 29.59518623352051 5.114293098449707 C 35.26533508300781 2.716026782989502 41.28937149047852 1.5 47.5 1.5 C 53.71062850952148 1.5 59.73468017578125 2.716026782989502 65.40481567382812 5.114293098449707 C 70.88229370117188 7.431066513061523 75.80186462402344 10.74804019927979 80.02691650390625 14.97309303283691 C 84.25196075439453 19.19813346862793 87.56893157958984 24.11771965026855 89.88570404052734 29.59518623352051 C 92.28397369384766 35.26533508300781 93.5 41.28937149047852 93.5 47.5 C 93.5 53.71062850952148 92.28397369384766 59.73468017578125 89.88570404052734 65.40481567382812 C 87.56893157958984 70.88229370117188 84.25196075439453 75.80186462402344 80.02691650390625 80.02691650390625 C 75.80186462402344 84.25196075439453 70.88229370117188 87.56893157958984 65.40481567382812 89.88570404052734 C 59.73468017578125 92.28397369384766 53.71062850952148 93.5 47.5 93.5 Z" stroke="none"/>
            <path d="M 47.5 3 C 41.49121475219727 3 35.66376876831055 4.176155090332031 30.17950439453125 6.495796203613281 C 24.88084411621094 8.736953735351562 20.12152099609375 11.94598388671875 16.03375244140625 16.03375244140625 C 11.94598388671875 20.12152099609375 8.736953735351562 24.88084411621094 6.495796203613281 30.17950439453125 C 4.176155090332031 35.66376876831055 3 41.49121475219727 3 47.5 C 3 53.50878524780273 4.176155090332031 59.33623123168945 6.495796203613281 64.82049560546875 C 8.736953735351562 70.11915588378906 11.94598388671875 74.87847900390625 16.03375244140625 78.96624755859375 C 20.12152099609375 83.05401611328125 24.88084411621094 86.26304626464844 30.17950439453125 88.50419616699219 C 35.66376876831055 90.82384490966797 41.49121475219727 92 47.5 92 C 53.50878524780273 92 59.33623123168945 90.82384490966797 64.82049560546875 88.50419616699219 C 70.11915588378906 86.26304626464844 74.87847900390625 83.05401611328125 78.96624755859375 78.96624755859375 C 83.05401611328125 74.87847900390625 86.26304626464844 70.11915588378906 88.50419616699219 64.82049560546875 C 90.82384490966797 59.33623123168945 92 53.50878524780273 92 47.5 C 92 41.49121475219727 90.82384490966797 35.66376876831055 88.50419616699219 30.17950439453125 C 86.26304626464844 24.88084411621094 83.05401611328125 20.12152099609375 78.96624755859375 16.03375244140625 C 74.87847900390625 11.94598388671875 70.11915588378906 8.736953735351562 64.82049560546875 6.495796203613281 C 59.33623123168945 4.176155090332031 53.50878524780273 3 47.5 3 M 47.5 0 C 73.7335205078125 0 95 21.2664794921875 95 47.5 C 95 73.7335205078125 73.7335205078125 95 47.5 95 C 21.2664794921875 95 0 73.7335205078125 0 47.5 C 0 21.2664794921875 21.2664794921875 0 47.5 0 Z" stroke="none" fill="#56838a"/>
          </g>
        </g>
      </g>
    </g>
    <g id="Layer_x0020_1" transform="translate(914.879 1310.454)">
      <path id="Trazado_1034734" data-name="Trazado 1034734" d="M59.373,52.273l-.208-.1a6.707,6.707,0,0,0-3.816-1.179H50.735l-6.9,7.042a1.027,1.027,0,0,1-1.422,0l-6.9-7.042H30.893a6.707,6.707,0,0,0-3.816,1.179l-.208.1a9.068,9.068,0,0,0-3.642,7.389v3.261h5.065V61.57a1.006,1.006,0,1,1,2.012,0v6.8H55.938v-6.8a.978.978,0,0,1,.971-1.006,1.007,1.007,0,0,1,1.006,1.006v1.353h5.1V59.662A9.068,9.068,0,0,0,59.373,52.273ZM57.916,64.935v3.434h5.1V64.935Zm-34.689,0v3.434h5.065V64.935Zm-1.249,5.411a1,1,0,0,1-.763-.971V59.662a10.958,10.958,0,0,1,4.2-8.776V45.3l-1.838,3.816a1,1,0,0,1-.9.555.963.963,0,0,1-.9-.555L19.411,44.26l-4.856-2.324a1,1,0,0,1-.555-.9.963.963,0,0,1,.555-.9l4.856-2.359,2.359-4.856a.963.963,0,0,1,.9-.555,1,1,0,0,1,.9.555l1.838,3.816V29.726a17.637,17.637,0,0,1,3.365-10.372l-.208-.1a1.033,1.033,0,0,1-.59-.9,1.045,1.045,0,0,1,.59-.937L31.83,15.85l1.6-3.3a1.01,1.01,0,0,1,1.8,0l.52,1.075A17.363,17.363,0,0,1,43.1,12,17.736,17.736,0,0,1,60.83,29.726v5.966a4.092,4.092,0,0,1,3.4,1.7,4.159,4.159,0,0,1,3.5-1.7,4.5,4.5,0,0,1,4.51,4.51c0,3.92-3.712,7.631-7.285,11.2a1.017,1.017,0,0,1-.728.278.891.891,0,0,1-.694-.278c-.937-.9-1.838-1.838-2.706-2.775v2.255a10.958,10.958,0,0,1,4.2,8.776v9.782a1.036,1.036,0,0,1-.763.9h-.139l-.035.035H22.152l-.035-.035h-.139ZM37.692,60.321H33.287a1.006,1.006,0,1,1,0-2.012h4.405a1.006,1.006,0,1,1,0,2.012Zm5.446-16.893a5.3,5.3,0,0,1-5.307-5.273,1.007,1.007,0,0,1,1.006-1.006h8.568a1.007,1.007,0,0,1,1.006,1.006A5.293,5.293,0,0,1,43.138,43.428Zm-3.122-4.267a3.25,3.25,0,0,0,6.209,0Zm.59-4.614A1.007,1.007,0,0,1,39.6,33.542c0-.243-.382-.555-.937-.555-.52,0-.937.312-.937.555a1.006,1.006,0,1,1-2.012,0,2.977,2.977,0,0,1,5.9,0A1.007,1.007,0,0,1,40.606,34.548Zm9.852,0a1.007,1.007,0,0,1-1.006-1.006c0-.243-.416-.555-.971-.555-.52,0-.937.312-.937.555a1.006,1.006,0,1,1-2.012,0,2.773,2.773,0,0,1,2.949-2.567,2.807,2.807,0,0,1,2.983,2.567A1.007,1.007,0,0,1,50.458,34.548Zm8.36,11.759c-1.526-1.977-2.6-4.024-2.6-6.105a4.553,4.553,0,0,1,2.6-4.093V29.726A15.722,15.722,0,0,0,43.1,14.012a15.5,15.5,0,0,0-6.487,1.422l.208.416,3.261,1.561a1.045,1.045,0,0,1,.59.937,1.033,1.033,0,0,1-.59.9l-3.261,1.561-1.6,3.3a1.01,1.01,0,0,1-1.8,0l-1.6-3.3-1.214-.59a15.685,15.685,0,0,0-3.191,9.5V38.5l3.33,1.63a.963.963,0,0,1,.555.9,1,1,0,0,1-.555.9l-3.33,1.6v6.175a9,9,0,0,1,3.469-.728H35.16l.9-3.5a11.082,11.082,0,0,1-5.273-9.643c0-7.319,2.463-8.152,5.932-8.533a7.637,7.637,0,0,0,3.989-1.283c2.706-2.012,5.134-3.642,8.117-3.538,2.532.069,6.626,1.353,6.626,4.44v8.915a11.157,11.157,0,0,1-5.273,9.643l.9,3.5h4.267a9,9,0,0,1,3.469.728Zm1.908-8.6a2.509,2.509,0,0,0-2.5,2.5c0,2.844,2.949,6,6,9.054,3.053-3.053,6-6.209,6-9.054a2.487,2.487,0,0,0-2.5-2.5c-1.214,0-1.8.486-2.6,2.081a1.01,1.01,0,0,1-1.8,0C62.529,38.19,61.94,37.7,60.726,37.7Zm-43.4,3.33L20.591,42.6a1.1,1.1,0,0,1,.486.486l1.6,3.3,1.561-3.3a1.1,1.1,0,0,1,.486-.486l3.3-1.561-3.3-1.6a1.225,1.225,0,0,1-.486-.451l-1.561-3.3-1.6,3.3a1.225,1.225,0,0,1-.486.451ZM31.31,18.348l1.734.8a1.023,1.023,0,0,1,.451.486l.833,1.7.833-1.7a1.023,1.023,0,0,1,.451-.486l1.734-.8-1.734-.833a1.023,1.023,0,0,1-.451-.486l-.833-1.7-.833,1.7a1.023,1.023,0,0,1-.451.486Zm34.446,6.591a1.031,1.031,0,0,1-.694-.278l-5.481-5.481a1.031,1.031,0,0,1-.278-.694,1.119,1.119,0,0,1,.278-.728l5.481-5.446a.975.975,0,0,1,1.075-.243,1.019,1.019,0,0,1,.624.937V14.74h4.475a1.007,1.007,0,0,1,1.006,1.006v5.446A1.007,1.007,0,0,1,71.236,22.2H66.761v1.734a1.019,1.019,0,0,1-.624.937A1.247,1.247,0,0,1,65.755,24.939Zm-4.024-6.452L64.749,21.5v-.312a1.007,1.007,0,0,1,1.006-1.006H70.23V16.752H65.755a1.007,1.007,0,0,1-1.006-1.006v-.312ZM20.452,24.939a1.79,1.79,0,0,1-.382-.069,1.019,1.019,0,0,1-.624-.937V22.2h-4.44A1.007,1.007,0,0,1,14,21.192V15.746a1.007,1.007,0,0,1,1.006-1.006h4.44V13.006a1,1,0,0,1,1.734-.694l5.446,5.446a1,1,0,0,1,.312.728.924.924,0,0,1-.312.694l-5.446,5.481A1.119,1.119,0,0,1,20.452,24.939Zm-4.44-4.752h4.44a1.007,1.007,0,0,1,1.006,1.006V21.5l3.053-3.018-3.053-3.053v.312a1.007,1.007,0,0,1-1.006,1.006h-4.44ZM45.567,46.723H40.641a9.046,9.046,0,0,1-2.74-.416l-.867,3.4,6.07,6.175,6.07-6.175-.867-3.4A8.883,8.883,0,0,1,45.567,46.723Zm2.983-22.27c-2.255,0-4.232,1.388-6.626,3.157a9.586,9.586,0,0,1-5,1.665c-2.567.312-4.128.486-4.128,6.556a8.971,8.971,0,0,0,4.752,8.152.758.758,0,0,1,.173.1,6.869,6.869,0,0,0,2.914.624h4.926a7.026,7.026,0,0,0,2.949-.624c.035-.035.1-.069.139-.1a8.935,8.935,0,0,0,4.787-8.152V26.916c0-1.492-3.053-2.394-4.718-2.463Z" fill-rule="evenodd"/>
      <path id="Trazado_1034735" data-name="Trazado 1034735" d="M767.122,797.289A3.281,3.281,0,0,0,770.209,795H764A3.291,3.291,0,0,0,767.122,797.289Z" transform="translate(-723.984 -755.839)" fill="#ff3e1a" fill-rule="evenodd"/>
      <path id="Trazado_1034736" data-name="Trazado 1034736" d="M570.6,383.7a1.007,1.007,0,0,1,1.006,1.006,5.29,5.29,0,0,1-10.58,0,1.007,1.007,0,0,1,1.006-1.006Zm1.249,6.834a8.935,8.935,0,0,0,4.787-8.152v-8.915c0-1.492-3.053-2.394-4.718-2.463h-.173c-2.255,0-4.232,1.388-6.625,3.157a9.587,9.587,0,0,1-5,1.665c-2.567.312-4.128.486-4.128,6.556a8.97,8.97,0,0,0,4.752,8.152.759.759,0,0,1,.173.1,6.868,6.868,0,0,0,2.914.624h4.926a7.026,7.026,0,0,0,2.949-.624C571.749,390.6,571.818,390.564,571.853,390.53Zm-7.042-10.441a1.006,1.006,0,0,1-2.012,0c0-.243-.382-.555-.937-.555-.52,0-.937.312-.937.555a1.006,1.006,0,0,1-2.012,0,2.977,2.977,0,0,1,5.9,0Zm8.846,1.006a1.007,1.007,0,0,1-1.006-1.006c0-.243-.416-.555-.971-.555-.52,0-.937.312-.937.555a1.006,1.006,0,0,1-2.012,0,2.773,2.773,0,0,1,2.948-2.567,2.807,2.807,0,0,1,2.983,2.567A1.007,1.007,0,0,1,573.656,381.094Z" transform="translate(-523.199 -346.547)" fill="#ffc06d" fill-rule="evenodd"/>
      <path id="Trazado_1034737" data-name="Trazado 1034737" d="M686.533,1001.416h-4.926a9.046,9.046,0,0,1-2.74-.416l-.867,3.4,6.07,6.175,6.07-6.175-.867-3.4A8.883,8.883,0,0,1,686.533,1001.416Z" transform="translate(-640.967 -954.693)" fill="#ffc06d" fill-rule="evenodd"/>
      <path id="Trazado_1034738" data-name="Trazado 1034738" d="M307.508,1136l-6.9,7.042a1.027,1.027,0,0,1-1.422,0l-6.9-7.042h-4.614a6.707,6.707,0,0,0-3.816,1.179l-.208.1a9.068,9.068,0,0,0-3.642,7.389v3.261h5.065v-1.353a1.006,1.006,0,1,1,2.012,0v6.8h25.635v-6.8a.978.978,0,0,1,.971-1.006,1.007,1.007,0,0,1,1.006,1.006v1.353h5.1v-3.261a9.068,9.068,0,0,0-3.642-7.389l-.208-.1a6.707,6.707,0,0,0-3.816-1.179Zm-12.037,8.325a1.007,1.007,0,0,1-1.006,1.006H290.06a1.006,1.006,0,1,1,0-2.012h4.405A1.007,1.007,0,0,1,295.471,1144.325Z" transform="translate(-256.773 -1085.01)" fill="#7ed63f" fill-rule="evenodd"/>
      <path id="Trazado_1034739" data-name="Trazado 1034739" d="M1285.1,1538H1280v3.434h5.1Z" transform="translate(-1222.084 -1473.065)" fill="#ffc06d" fill-rule="evenodd"/>
      <path id="Trazado_1034740" data-name="Trazado 1034740" d="M1289,755.5c0,2.844,2.948,6,6,9.054,3.052-3.053,6-6.209,6-9.054a2.487,2.487,0,0,0-2.5-2.5c-1.214,0-1.8.486-2.6,2.081a1.01,1.01,0,0,1-1.8,0c-.8-1.6-1.388-2.081-2.6-2.081A2.509,2.509,0,0,0,1289,755.5Z" transform="translate(-1230.772 -715.296)" fill="#ff3e1a" fill-rule="evenodd"/>
      <path id="Trazado_1034741" data-name="Trazado 1034741" d="M429.792,96.19a4.553,4.553,0,0,1,2.6-4.093V85.714A15.722,15.722,0,0,0,416.679,70a15.5,15.5,0,0,0-6.487,1.422l.208.416,3.261,1.561a1.045,1.045,0,0,1,.59.937,1.033,1.033,0,0,1-.59.9L410.4,76.8l-1.6,3.3a1.01,1.01,0,0,1-1.8,0l-1.6-3.3-1.214-.59a15.685,15.685,0,0,0-3.191,9.5V94.49l3.33,1.63a.963.963,0,0,1,.555.9,1,1,0,0,1-.555.9L401,99.52v6.175a9,9,0,0,1,3.469-.728h4.267l.9-3.5a11.082,11.082,0,0,1-5.273-9.643c0-7.319,2.463-8.152,5.932-8.533A7.637,7.637,0,0,0,414.286,82c2.706-2.012,5.134-3.642,8.117-3.538,2.532.069,6.626,1.353,6.626,4.44v8.915a11.157,11.157,0,0,1-5.273,9.643l.9,3.5h4.267a9,9,0,0,1,3.469.728v-3.4C430.867,100.318,429.792,98.271,429.792,96.19Z" transform="translate(-373.576 -55.988)" fill="#633" fill-rule="evenodd"/>
      <path id="Trazado_1034742" data-name="Trazado 1034742" d="M1394.024,115.752h4.475v-3.434h-4.475a1.007,1.007,0,0,1-1.006-1.006V111L1390,114.053l3.018,3.018v-.312A1.007,1.007,0,0,1,1394.024,115.752Z" transform="translate(-1328.269 -95.566)" fill="#ff3e1a" fill-rule="evenodd"/>
      <path id="Trazado_1034743" data-name="Trazado 1034743" d="M519.036,111.018l-1.734-.833a1.023,1.023,0,0,1-.451-.486l-.833-1.7-.833,1.7a1.023,1.023,0,0,1-.451.486l-1.734.833,1.734.8a1.023,1.023,0,0,1,.451.486l.833,1.7.833-1.7a1.023,1.023,0,0,1,.451-.486Z" transform="translate(-481.69 -92.67)" fill="#ffa721" fill-rule="evenodd"/>
      <path id="Trazado_1034744" data-name="Trazado 1034744" d="M80.5,114.053,77.446,111v.312a1.007,1.007,0,0,1-1.006,1.006H72v3.434h4.44a1.007,1.007,0,0,1,1.006,1.006v.312Z" transform="translate(-55.988 -95.566)" fill="#ff3e1a" fill-rule="evenodd"/>
      <path id="Trazado_1034745" data-name="Trazado 1034745" d="M115.342,695l-1.6,3.3a1.224,1.224,0,0,1-.486.451l-3.261,1.6,3.261,1.561a1.1,1.1,0,0,1,.486.486l1.6,3.3,1.561-3.3a1.1,1.1,0,0,1,.486-.486l3.3-1.561-3.3-1.6a1.224,1.224,0,0,1-.486-.451Z" transform="translate(-92.67 -659.308)" fill="#ffa721" fill-rule="evenodd"/>
      <path id="Trazado_1034746" data-name="Trazado 1034746" d="M285.065,1538H280v3.434h5.065Z" transform="translate(-256.773 -1473.065)" fill="#ffc06d" fill-rule="evenodd"/>
    </g>
  </g>
</svg>
