<svg xmlns="http://www.w3.org/2000/svg" xmlns:xlink="http://www.w3.org/1999/xlink" width="108" height="108" viewBox="0 0 108 108">
  <defs>
    <filter id="Trazado_904820" x="0" y="0" width="108" height="108" filterUnits="userSpaceOnUse">
      <feOffset dy="3" input="SourceAlpha"/>
      <feGaussianBlur stdDeviation="3" result="blur"/>
      <feFlood flood-opacity="0.161"/>
      <feComposite operator="in" in2="blur"/>
      <feComposite in="SourceGraphic"/>
    </filter>
  </defs>
  <g id="Grupo_1176604" data-name="Grupo 1176604" transform="translate(9 6)">
    <g id="Grupo_1173585" data-name="Grupo 1173585" transform="translate(0 0)">
      <g id="Grupo_1173428" data-name="Grupo 1173428">
        <g id="Grupo_1171958" data-name="Grupo 1171958">
          <g id="Grupo_1167341" data-name="Grupo 1167341">
            <g id="Grupo_1166792" data-name="Grupo 1166792">
              <g transform="matrix(1, 0, 0, 1, -9, -6)" filter="url(#Trazado_904820)">
                <g id="Trazado_904820-2" data-name="Trazado 904820" transform="translate(9 6)" fill="#f4fdfe">
                  <path d="M 44.99999618530273 88.49999237060547 C 39.12687301635742 88.49999237060547 33.43022155761719 87.35006713867188 28.06829643249512 85.08216857910156 C 22.88852119445801 82.89130401611328 18.23629570007324 79.75457763671875 14.24084663391113 75.75914001464844 C 10.24540901184082 71.76369476318359 7.108683586120605 67.11146545410156 4.917821407318115 61.93169403076172 C 2.649921178817749 56.56976699829102 1.499996185302734 50.87311553955078 1.499996185302734 44.99999237060547 C 1.499996185302734 39.12686920166016 2.649921178817749 33.43021774291992 4.917821407318115 28.06829261779785 C 7.108683586120605 22.88851737976074 10.24540901184082 18.23630523681641 14.24084663391113 14.24085521697998 C 18.23629570007324 10.24540519714355 22.88852119445801 7.108692169189453 28.06829643249512 4.917829990386963 C 33.43022155761719 2.649929761886597 39.12687301635742 1.500004887580872 44.99999618530273 1.500004887580872 C 50.87311935424805 1.500004887580872 56.56977081298828 2.649929761886597 61.93169784545898 4.917829990386963 C 67.11147308349609 7.108692169189453 71.76369476318359 10.24540519714355 75.75914764404297 14.24085521697998 C 79.75458526611328 18.23630523681641 82.89131164550781 22.88851737976074 85.08216857910156 28.06829261779785 C 87.35007476806641 33.43021774291992 88.5 39.12686920166016 88.5 44.99999237060547 C 88.5 50.87311553955078 87.35007476806641 56.56976699829102 85.08216857910156 61.93169403076172 C 82.89131164550781 67.11146545410156 79.75458526611328 71.76369476318359 75.75914764404297 75.75914001464844 C 71.76369476318359 79.75457763671875 67.11147308349609 82.89130401611328 61.93169784545898 85.08216857910156 C 56.56977081298828 87.35006713867188 50.87311935424805 88.49999237060547 44.99999618530273 88.49999237060547 Z" stroke="none"/>
                  <path d="M 44.99999618530273 2.999992370605469 C 39.32870864868164 2.999992370605469 33.82865142822266 4.11004638671875 28.65262603759766 6.299331665039062 C 23.65165710449219 8.414566040039062 19.15968322753906 11.44333648681641 15.301513671875 15.30150604248047 C 11.44333648681641 19.15967559814453 8.414566040039062 23.65164947509766 6.299339294433594 28.65262222290039 C 4.110054016113281 33.82864761352539 2.999992370605469 39.32870483398438 2.999992370605469 44.99999237060547 C 2.999992370605469 50.67127990722656 4.110054016113281 56.17132186889648 6.299339294433594 61.34736633300781 C 8.414566040039062 66.34833526611328 11.44333648681641 70.84029388427734 15.301513671875 74.69846343994141 C 19.15968322753906 78.55663299560547 23.65165710449219 81.58540344238281 28.65262603759766 83.70063781738281 C 33.82865142822266 85.88992309570312 39.32870864868164 86.99997711181641 44.99999618530273 86.99997711181641 C 50.67128372192383 86.99997711181641 56.17134094238281 85.88992309570312 61.34736633300781 83.70063781738281 C 66.34834289550781 81.58540344238281 70.84030914306641 78.55663299560547 74.69847869873047 74.69846343994141 C 78.55665588378906 70.84029388427734 81.58542633056641 66.34833526611328 83.70065307617188 61.34736633300781 C 85.88993835449219 56.17132186889648 87 50.67127990722656 87 44.99999237060547 C 87 39.32870483398438 85.88993835449219 33.82864761352539 83.70065307617188 28.65262222290039 C 81.58542633056641 23.65164947509766 78.55665588378906 19.15967559814453 74.69847869873047 15.30150604248047 C 70.84030914306641 11.44333648681641 66.34834289550781 8.414566040039062 61.34736633300781 6.299331665039062 C 56.17134094238281 4.11004638671875 50.67128372192383 2.999992370605469 44.99999618530273 2.999992370605469 M 44.99999618530273 -7.62939453125e-06 C 69.85281372070312 -7.62939453125e-06 90 20.14717864990234 90 44.99999237060547 C 90 69.85279083251953 69.85281372070312 89.99997711181641 44.99999618530273 89.99997711181641 C 20.14717864990234 89.99997711181641 -7.62939453125e-06 69.85279083251953 -7.62939453125e-06 44.99999237060547 C -7.62939453125e-06 20.14717864990234 20.14717864990234 -7.62939453125e-06 44.99999618530273 -7.62939453125e-06 Z" stroke="none" fill="#56838a"/>
                </g>
              </g>
            </g>
          </g>
        </g>
      </g>
    </g>
    <g id="learning-process_14781904" transform="translate(11.689 8.819)">
      <g id="Grupo_1176954" data-name="Grupo 1176954" transform="translate(7.5 7.499)">
        <path id="Trazado_1035350" data-name="Trazado 1035350" d="M85.407,380.655a30.073,30.073,0,0,0-5.026-1.769l-12.943.059a30.2,30.2,0,0,0-4.795,1.71l-.9,5.829,12.022,3.654L85.686,384.4Z" transform="translate(-55.68 -337.399)" fill="#26a6fe"/>
        <path id="Trazado_1035351" data-name="Trazado 1035351" d="M91.874,348.3l3.039,2.636c-4.359,4.684-18.113,4.957-22.473.273l2.753-2.911a2.467,2.467,0,0,0,1.983-2.422v-6.047l12.711-.308v6.355A2.467,2.467,0,0,0,91.874,348.3Z" transform="translate(-65.186 -302.43)" fill="#e9a394"/>
        <path id="Trazado_1035352" data-name="Trazado 1035352" d="M79.244,418.552l1.93,4.994-3.8,4.174H59.628l-4.125-4.1,2.246-5.048.116-.022,2.264-.432.03.01.257.3a11.023,11.023,0,0,0,16.138,0l.267-.3.02-.007,2.264.432Z" transform="translate(-50.141 -372.25)" fill="#d8ecfe"/>
        <path id="Trazado_1035353" data-name="Trazado 1035353" d="M13.177,433.943l.127,6.107H7.835a.335.335,0,0,1-.335-.335v-6.852a.333.333,0,0,1,.165-.289,5.873,5.873,0,0,1,1.7-.573Z" transform="translate(-7.5 -384.579)" fill="#60b7ff"/>
        <path id="Trazado_1035354" data-name="Trazado 1035354" d="M283.089,426.207l-3.044,4.8h-2.331l-.8-5.82,3.753-3.368Z" transform="translate(-246.821 -375.536)" fill="#60b7ff"/>
        <path id="Trazado_1035355" data-name="Trazado 1035355" d="M258.86,398.884l-3.947,8.05H251.25l1.874-9.168.623-3.046a13.8,13.8,0,0,1,4.122,3.027C258.225,398.12,258.556,398.5,258.86,398.884Z" transform="translate(-224.021 -351.464)" fill="#8ac9fe"/>
        <path id="Trazado_1035356" data-name="Trazado 1035356" d="M31.822,406.934H28.138l-3.938-8.05a14.518,14.518,0,0,1,5.112-4.165l.631,3.069Z" transform="translate(-22.334 -351.464)" fill="#8ac9fe"/>
        <g id="Grupo_1176953" data-name="Grupo 1176953" transform="translate(31.745 34.612)">
          <path id="Trazado_1035357" data-name="Trazado 1035357" d="M324.507,325.23l.81,1.316v4.723l-.81,1.389H306.03V325.23Z" transform="translate(-304.426 -324.349)" fill="#eaf6ff"/>
          <rect id="Rectángulo_415977" data-name="Rectángulo 415977" width="18.006" height="7.428" transform="translate(2.074 11.311)" fill="#eaf6ff"/>
          <rect id="Rectángulo_415978" data-name="Rectángulo 415978" width="2.984" height="7.428" transform="translate(19.187 11.311)" fill="#d8ecfe"/>
          <path id="Trazado_1035358" data-name="Trazado 1035358" d="M314.929,404.241l-.29,5.123c0,1.687-2.059,2.524-3.747,2.524H293.149a1.479,1.479,0,0,1-1.479-1.477V410.4a1.477,1.477,0,0,1,1.477-1.477h19.019a.335.335,0,0,0,.335-.335v-3.845a.336.336,0,0,0-.335-.335H293.147a1.476,1.476,0,1,1,0-2.953h1.578l1.368-1.162h13.781l1.018,1.162C312.58,401.459,314.929,402.553,314.929,404.241Z" transform="translate(-291.67 -391.03)" fill="#fe93bb"/>
          <path id="Trazado_1035359" data-name="Trazado 1035359" d="M468.293,413.755v4.32a3.054,3.054,0,0,1-3.054,3.054h-1.5a3.054,3.054,0,0,0,3.055-3.054v-4.32a3.055,3.055,0,0,0-3.055-3.055h1.5A3.054,3.054,0,0,1,468.293,413.755Z" transform="translate(-444.518 -400.271)" fill="#fe76a8"/>
          <g id="Grupo_1176952" data-name="Grupo 1176952">
            <rect id="Rectángulo_415979" data-name="Rectángulo 415979" width="1.621" height="7.428" transform="translate(20.081 0.881)" fill="#d8ecfe"/>
            <path id="Trazado_1035360" data-name="Trazado 1035360" d="M314.929,326.283v.009c0,.816-2.213,1.477-3.028,1.477H294.725a3.054,3.054,0,0,1-3.055-3.054V320.4a3.055,3.055,0,0,1,3.055-3.055H311.9a6.912,6.912,0,0,1,2.4.432,1.709,1.709,0,0,1,.632,1.041c0,.814-2.257,1.479-3.071,1.479H294.453c-.682,0-.818.578-.818,1.26v1.7c0,.872.291,1.554,1.163,1.554h17.1C312.717,324.808,314.929,325.468,314.929,326.283Z" transform="translate(-291.67 -317.34)" fill="#bbf49b"/>
            <path id="Trazado_1035361" data-name="Trazado 1035361" d="M476.323,318.817a1.476,1.476,0,0,1-1.477,1.476H472.78a1.476,1.476,0,0,0,0-2.952h2.067a1.476,1.476,0,0,1,1.477,1.477Z" transform="translate(-452.548 -317.34)" fill="#9be69d"/>
            <path id="Trazado_1035362" data-name="Trazado 1035362" d="M476.323,385.667v.008a1.477,1.477,0,0,1-1.477,1.477H472.78a1.476,1.476,0,0,0,1.476-1.477v-.008a1.476,1.476,0,0,0-1.476-1.477h2.067A1.477,1.477,0,0,1,476.323,385.667Z" transform="translate(-452.548 -376.722)" fill="#9be69d"/>
            <path id="Trazado_1035363" data-name="Trazado 1035363" d="M307.263,348.284H306.1a.573.573,0,0,1-.573-.573v-3.368a.574.574,0,0,1,.574-.574h1.158a.335.335,0,0,0-.335.335v3.845A.335.335,0,0,0,307.263,348.284Z" transform="translate(-303.982 -340.817)" fill="#9be69d"/>
          </g>
        </g>
        <path id="Trazado_1035364" data-name="Trazado 1035364" d="M44.014,17.454c0,5.762-4.986,17.287-11.914,12.719l-13.821-.295-1.747-1.433a1.67,1.67,0,0,1-.343-1.415.345.345,0,0,0-.129-.338,2.463,2.463,0,0,1,0-3.841.345.345,0,0,0,.129-.338,1.671,1.671,0,0,1,.22-1.246.344.344,0,0,0-.005-.361A2.464,2.464,0,0,1,17.716,17.3a.345.345,0,0,0,.236-.274,1.657,1.657,0,0,1,.209-.609,1.675,1.675,0,0,1,.423-.486.344.344,0,0,0,.118-.34,2.464,2.464,0,0,1,2.469-2.943.344.344,0,0,0,.315-.176,1.675,1.675,0,0,1,.969-.813.343.343,0,0,0,.228-.279A2.463,2.463,0,0,1,26.01,9.454a.344.344,0,0,0,.356-.057,1.671,1.671,0,0,1,1.4-.412c.308.079,1.552-1.1,1.262-1.273a2.393,2.393,0,0,1,.57-.173,2.456,2.456,0,0,1,2.05.573A.344.344,0,0,0,32,8.179a1.675,1.675,0,0,1,1.264,0,.344.344,0,0,0,.355-.068,2.456,2.456,0,0,1,2.05-.573,2.393,2.393,0,0,1,.57.173c-.289.17.954,1.353,1.262,1.273a1.654,1.654,0,0,1,.35-.021C41.111,11.767,44.014,14.579,44.014,17.454Z" transform="translate(-14.287 -7.5)" fill="#9f8083"/>
        <path id="Trazado_1035365" data-name="Trazado 1035365" d="M184.063,38.328a.345.345,0,0,0-.129.338,1.684,1.684,0,0,1,.013.645,1.666,1.666,0,0,1-.354.771l-1.662,2.048-14.97-.319A15.206,15.206,0,0,0,172.712,20.6a1.672,1.672,0,0,1,1.048.433.344.344,0,0,0,.356.058,2.463,2.463,0,0,1,3.326,1.921.344.344,0,0,0,.228.28,1.683,1.683,0,0,1,.969.813.345.345,0,0,0,.316.176,2.462,2.462,0,0,1,2.467,2.942.344.344,0,0,0,.119.341,1.684,1.684,0,0,1,.632,1.1.344.344,0,0,0,.236.273,2.463,2.463,0,0,1,1.313,3.609.345.345,0,0,0-.005.361,1.677,1.677,0,0,1,.219,1.246.345.345,0,0,0,.129.338,2.464,2.464,0,0,1,0,3.841Z" transform="translate(-149.148 -19.137)" fill="#9f8083"/>
        <path id="Trazado_1035366" data-name="Trazado 1035366" d="M30.759,195.857a6.888,6.888,0,0,1-4.441-6.27h0a2.675,2.675,0,0,1,2.673-2.677h26.83a2.675,2.675,0,0,1,2.673,2.677h0a6.733,6.733,0,0,1-4.271,6.27Z" transform="translate(-24.216 -166.868)" fill="#e9a394"/>
        <path id="Trazado_1035367" data-name="Trazado 1035367" d="M89.534,130.844v10.619A7.432,7.432,0,0,1,87,147.052l-4.6,4.035a4.932,4.932,0,0,1-3.253,1.224H76.459a4.933,4.933,0,0,1-3.253-1.224l-4.636-4.038a7.746,7.746,0,0,1-2.5-5.585v-10.6a2.751,2.751,0,0,0,2.21-3.781.186.186,0,0,1,.164-.255,1.871,1.871,0,0,0,1.758-1.72.188.188,0,0,1,.211-.174,2.753,2.753,0,0,0,2.45-.963.185.185,0,0,1,.235-.04,1.871,1.871,0,0,0,1.881.005,1.562,1.562,0,0,0,.132-.085.186.186,0,0,1,.212,0l.184.124a4.264,4.264,0,0,0,4.728,0l.186-.124a.185.185,0,0,1,.207,0,1.872,1.872,0,0,0,2.01.088h0a.188.188,0,0,1,.241.038,2.752,2.752,0,0,0,2.452.961.188.188,0,0,1,.21.175,1.869,1.869,0,0,0,1.759,1.719.186.186,0,0,1,.163.255,2.752,2.752,0,0,0,2.069,3.76Z" transform="translate(-59.527 -110.823)" fill="#e9a394"/>
      </g>
      <g id="Grupo_1176968" data-name="Grupo 1176968" transform="translate(7.5 7.499)">
        <g id="Grupo_1176963" data-name="Grupo 1176963" transform="translate(0 0)">
          <path id="Trazado_1035368" data-name="Trazado 1035368" d="M9.321,433.419a10.748,10.748,0,0,0-1.821.518" transform="translate(-7.5 -385.84)" fill="none" stroke="#000" stroke-linecap="round" stroke-linejoin="round" stroke-miterlimit="10" stroke-width="1.5"/>
          <g id="Grupo_1176955" data-name="Grupo 1176955" transform="translate(1.865 39.009)">
            <path id="Trazado_1035369" data-name="Trazado 1035369" d="M74.63,379.418a30.2,30.2,0,0,0-4.795,1.71" transform="translate(-64.737 -376.88)" fill="none" stroke="#000" stroke-linecap="round" stroke-linejoin="round" stroke-miterlimit="10" stroke-width="1.5"/>
            <path id="Trazado_1035370" data-name="Trazado 1035370" d="M233.643,380.655a30.074,30.074,0,0,0-5.026-1.769" transform="translate(-205.781 -376.408)" fill="none" stroke="#000" stroke-linecap="round" stroke-linejoin="round" stroke-miterlimit="10" stroke-width="1.5"/>
            <path id="Trazado_1035371" data-name="Trazado 1035371" d="M228.617,356.7v4.436a2.466,2.466,0,0,0,2,2.425l2.264.433" transform="translate(-205.781 -356.701)" fill="none" stroke="#000" stroke-linecap="round" stroke-linejoin="round" stroke-miterlimit="10" stroke-width="1.5"/>
            <path id="Trazado_1035372" data-name="Trazado 1035372" d="M76.654,366.442l2.264-.433a2.467,2.467,0,0,0,2-2.425v-4.128" transform="translate(-70.794 -359.148)" fill="none" stroke="#000" stroke-linecap="round" stroke-linejoin="round" stroke-miterlimit="10" stroke-width="1.5"/>
            <path id="Trazado_1035373" data-name="Trazado 1035373" d="M256.8,396.616a13.03,13.03,0,0,0-2.926-1.9l-2.5,12.214" transform="translate(-225.994 -390.474)" fill="none" stroke="#000" stroke-linecap="round" stroke-linejoin="round" stroke-miterlimit="10" stroke-width="1.5"/>
            <path id="Trazado_1035374" data-name="Trazado 1035374" d="M28.141,406.935l-3.943-8.05a14.515,14.515,0,0,1,5.112-4.164l2.5,12.214" transform="translate(-24.198 -390.474)" fill="none" stroke="#000" stroke-linecap="round" stroke-linejoin="round" stroke-miterlimit="10" stroke-width="1.5"/>
            <path id="Trazado_1035375" data-name="Trazado 1035375" d="M96.921,418.118h0a11.408,11.408,0,0,0,16.712,0h0" transform="translate(-88.797 -411.257)" fill="none" stroke="#000" stroke-linecap="round" stroke-linejoin="round" stroke-miterlimit="10" stroke-width="1.5"/>
          </g>
          <g id="Grupo_1176958" data-name="Grupo 1176958" transform="translate(11.751 20.73)">
            <g id="Grupo_1176956" data-name="Grupo 1176956">
              <path id="Trazado_1035376" data-name="Trazado 1035376" d="M112.692,193.539a3.778,3.778,0,0,1,3.65,0" transform="translate(-112.692 -193.069)" fill="none" stroke="#000" stroke-linecap="round" stroke-linejoin="round" stroke-miterlimit="10" stroke-width="1.5"/>
              <path id="Trazado_1035377" data-name="Trazado 1035377" d="M198.077,193.539a3.778,3.778,0,0,1,3.65,0" transform="translate(-188.539 -193.069)" fill="none" stroke="#000" stroke-linecap="round" stroke-linejoin="round" stroke-miterlimit="10" stroke-width="1.5"/>
            </g>
            <g id="Grupo_1176957" data-name="Grupo 1176957" transform="translate(1.823 3.215)">
              <path id="Trazado_1035378" data-name="Trazado 1035378" d="M162.66,271.273a2.864,2.864,0,0,1-2.607,0" transform="translate(-156.585 -265.752)" fill="none" stroke="#000" stroke-linecap="round" stroke-linejoin="round" stroke-miterlimit="10" stroke-width="1.5"/>
              <line id="Línea_1015" data-name="Línea 1015" y2="1.977" transform="translate(9.543)" fill="none" stroke="#000" stroke-linecap="round" stroke-linejoin="round" stroke-miterlimit="10" stroke-width="1.5"/>
              <line id="Línea_1016" data-name="Línea 1016" y2="1.977" fill="none" stroke="#000" stroke-linecap="round" stroke-linejoin="round" stroke-miterlimit="10" stroke-width="1.5"/>
              <path id="Trazado_1035379" data-name="Trazado 1035379" d="M151.1,312.808a4.907,4.907,0,0,0,4.467,0" transform="translate(-148.632 -302.647)" fill="none" stroke="#000" stroke-linecap="round" stroke-linejoin="round" stroke-miterlimit="10" stroke-width="1.5"/>
            </g>
          </g>
          <path id="Trazado_1035380" data-name="Trazado 1035380" d="M276.882,195.856a6.732,6.732,0,0,0,4.271-6.27h0a2.675,2.675,0,0,0-2.673-2.677h-2.117" transform="translate(-246.328 -166.867)" fill="none" stroke="#000" stroke-linecap="round" stroke-linejoin="round" stroke-miterlimit="10" stroke-width="1.5"/>
          <path id="Trazado_1035381" data-name="Trazado 1035381" d="M30.759,186.91H28.991a2.675,2.675,0,0,0-2.673,2.677h0a6.733,6.733,0,0,0,4.271,6.27" transform="translate(-24.216 -166.868)" fill="none" stroke="#000" stroke-linecap="round" stroke-linejoin="round" stroke-miterlimit="10" stroke-width="1.5"/>
          <path id="Trazado_1035382" data-name="Trazado 1035382" d="M189.2,208.472a4.936,4.936,0,0,0,2.574-1.177l4.6-4.035a7.43,7.43,0,0,0,2.532-5.589V187.094" transform="translate(-168.902 -167.031)" fill="none" stroke="#000" stroke-linecap="round" stroke-linejoin="round" stroke-miterlimit="10" stroke-width="1.5"/>
          <path id="Trazado_1035383" data-name="Trazado 1035383" d="M66.074,239.352v4.74a7.75,7.75,0,0,0,2.5,5.586l4.635,4.038a4.935,4.935,0,0,0,2.712,1.194" transform="translate(-59.531 -213.452)" fill="none" stroke="#000" stroke-linecap="round" stroke-linejoin="round" stroke-miterlimit="10" stroke-width="1.5"/>
          <line id="Línea_1017" data-name="Línea 1017" y2="1.948" transform="translate(6.543 20.042)" fill="none" stroke="#000" stroke-linecap="round" stroke-linejoin="round" stroke-miterlimit="10" stroke-width="1.5"/>
          <g id="Grupo_1176962" data-name="Grupo 1176962" transform="translate(0.854)">
            <path id="Trazado_1035384" data-name="Trazado 1035384" d="M48.735,28.444a1.676,1.676,0,0,0,.285-1.618,2.465,2.465,0,0,0,0-4.113,1.676,1.676,0,0,0-.285-1.618,2.465,2.465,0,0,0-1.406-3.865,1.676,1.676,0,0,0-.821-1.423,2.464,2.464,0,0,0-2.642-3.15A1.676,1.676,0,0,0,42.608,11.6a2.463,2.463,0,0,0-3.56-2.056A1.675,1.675,0,0,0,37.5,8.983a2.463,2.463,0,0,0-4.048-.714,1.675,1.675,0,0,0-1.642,0,2.463,2.463,0,0,0-4.048.714,1.675,1.675,0,0,0-1.543.562,2.463,2.463,0,0,0-3.56,2.056A1.676,1.676,0,0,0,21.4,12.657a2.464,2.464,0,0,0-2.642,3.15,1.676,1.676,0,0,0-.821,1.423A2.465,2.465,0,0,0,16.535,21.1a1.677,1.677,0,0,0-.285,1.618,2.465,2.465,0,0,0,0,4.113,1.677,1.677,0,0,0,.285,1.618" transform="translate(-15.144 -7.499)" fill="none" stroke="#000" stroke-linecap="round" stroke-linejoin="round" stroke-miterlimit="10" stroke-width="1.5"/>
            <path id="Trazado_1035385" data-name="Trazado 1035385" d="M114.131,25.722a2.453,2.453,0,0,1,1.053.983" transform="translate(-103.073 -23.686)" fill="none" stroke="#000" stroke-linecap="round" stroke-linejoin="round" stroke-miterlimit="10" stroke-width="1.5"/>
            <path id="Trazado_1035386" data-name="Trazado 1035386" d="M219.885,26.788a2.452,2.452,0,0,1,1.032-.973" transform="translate(-197.013 -23.769)" fill="none" stroke="#000" stroke-linecap="round" stroke-linejoin="round" stroke-miterlimit="10" stroke-width="1.5"/>
            <path id="Trazado_1035387" data-name="Trazado 1035387" d="M126.872,62.633a2.008,2.008,0,0,1,2.007,2.008" transform="translate(-114.391 -56.474)" fill="none" stroke="#000" stroke-linecap="round" stroke-linejoin="round" stroke-miterlimit="10" stroke-width="1.5"/>
            <g id="Grupo_1176961" data-name="Grupo 1176961" transform="translate(6.577 9.334)">
              <g id="Grupo_1176959" data-name="Grupo 1176959">
                <path id="Trazado_1035388" data-name="Trazado 1035388" d="M74.431,93.058a1.42,1.42,0,0,1,0-2.008" transform="translate(-74.015 -91.05)" fill="none" stroke="#000" stroke-linecap="round" stroke-linejoin="round" stroke-miterlimit="10" stroke-width="1.5"/>
                <path id="Trazado_1035389" data-name="Trazado 1035389" d="M265.706,93.058a1.42,1.42,0,0,0,0-2.008" transform="translate(-244.292 -91.05)" fill="none" stroke="#000" stroke-linecap="round" stroke-linejoin="round" stroke-miterlimit="10" stroke-width="1.5"/>
              </g>
              <g id="Grupo_1176960" data-name="Grupo 1176960">
                <path id="Trazado_1035390" data-name="Trazado 1035390" d="M74.431,93.058a1.42,1.42,0,0,1,0-2.008" transform="translate(-74.015 -91.05)" fill="none" stroke="#000" stroke-linecap="round" stroke-linejoin="round" stroke-miterlimit="10" stroke-width="1.5"/>
                <path id="Trazado_1035391" data-name="Trazado 1035391" d="M265.706,93.058a1.42,1.42,0,0,0,0-2.008" transform="translate(-244.292 -91.05)" fill="none" stroke="#000" stroke-linecap="round" stroke-linejoin="round" stroke-miterlimit="10" stroke-width="1.5"/>
              </g>
            </g>
            <path id="Trazado_1035392" data-name="Trazado 1035392" d="M200.61,62.633a2.008,2.008,0,0,0-2.007,2.008" transform="translate(-178.109 -56.474)" fill="none" stroke="#000" stroke-linecap="round" stroke-linejoin="round" stroke-miterlimit="10" stroke-width="1.5"/>
            <path id="Trazado_1035393" data-name="Trazado 1035393" d="M89.737,130.51a2.752,2.752,0,0,1-1.925-4.018,1.87,1.87,0,0,1-2.051-1.923A2.748,2.748,0,0,1,83,123.514c-.046.032-.092.063-.142.092a1.874,1.874,0,0,1-2.108-.161l-.3.2a4.264,4.264,0,0,1-4.728,0l-.3-.2a1.9,1.9,0,0,1-.233.162,1.873,1.873,0,0,1-2.016-.092,2.751,2.751,0,0,1-2.756,1.056,1.873,1.873,0,0,1-2.053,1.922,2.751,2.751,0,0,1-2.057,4.039" transform="translate(-60.604 -110.492)" fill="none" stroke="#000" stroke-linecap="round" stroke-linejoin="round" stroke-miterlimit="10" stroke-width="1.5"/>
          </g>
        </g>
        <g id="Grupo_1176967" data-name="Grupo 1176967" transform="translate(31.757 34.661)">
          <g id="Grupo_1176964" data-name="Grupo 1176964" transform="translate(0)">
            <line id="Línea_1018" data-name="Línea 1018" y1="4.406" transform="translate(21.69 3.008)" fill="none" stroke="#000" stroke-linecap="round" stroke-linejoin="round" stroke-miterlimit="10" stroke-width="1.5"/>
            <path id="Trazado_1035394" data-name="Trazado 1035394" d="M303.773,317.779h10.294a1.476,1.476,0,0,1,1.476,1.476h0a1.476,1.476,0,0,1-1.476,1.476H294.724v4.515h19.343a1.476,1.476,0,0,1,1.476,1.476v.008a1.476,1.476,0,0,1-1.476,1.476H294.833a3.054,3.054,0,0,1-3.053-3.055v-4.32a3.054,3.054,0,0,1,3.053-3.055h5.03" transform="translate(-291.78 -317.779)" fill="none" stroke="#000" stroke-linecap="round" stroke-linejoin="round" stroke-miterlimit="10" stroke-width="1.5"/>
          </g>
          <g id="Grupo_1176966" data-name="Grupo 1176966" transform="translate(0 10.429)">
            <g id="Grupo_1176965" data-name="Grupo 1176965">
              <line id="Línea_1019" data-name="Línea 1019" y1="4.38" transform="translate(2.073 3.017)" fill="none" stroke="#000" stroke-linecap="round" stroke-linejoin="round" stroke-miterlimit="10" stroke-width="1.5"/>
              <path id="Trazado_1035395" data-name="Trazado 1035395" d="M312.489,411.14a3.054,3.054,0,0,1,3.053,3.055v4.32a3.054,3.054,0,0,1-3.053,3.055H293.255a1.476,1.476,0,0,1-1.476-1.476v-.008a1.476,1.476,0,0,1,1.476-1.476H312.6v-4.515h-3.5" transform="translate(-291.779 -411.14)" fill="none" stroke="#000" stroke-linecap="round" stroke-linejoin="round" stroke-miterlimit="10" stroke-width="1.5"/>
              <path id="Trazado_1035396" data-name="Trazado 1035396" d="M316.538,411.14" transform="translate(-313.772 -411.14)" fill="none" stroke="#000" stroke-linecap="round" stroke-linejoin="round" stroke-miterlimit="10" stroke-width="1.5"/>
              <path id="Trazado_1035397" data-name="Trazado 1035397" d="M305.191,414.094H293.255a1.476,1.476,0,0,1-1.476-1.476h0a1.476,1.476,0,0,1,1.476-1.476h1.492" transform="translate(-291.779 -411.141)" fill="none" stroke="#000" stroke-linecap="round" stroke-linejoin="round" stroke-miterlimit="10" stroke-width="1.5"/>
            </g>
          </g>
        </g>
      </g>
    </g>
  </g>
</svg>
