<svg xmlns="http://www.w3.org/2000/svg" xmlns:xlink="http://www.w3.org/1999/xlink" width="113" height="113" viewBox="0 0 113 113">
  <defs>
    <filter id="Trazado_982547" x="0" y="0" width="113" height="113" filterUnits="userSpaceOnUse">
      <feOffset dy="3" input="SourceAlpha"/>
      <feGaussianBlur stdDeviation="3" result="blur"/>
      <feFlood flood-opacity="0.161"/>
      <feComposite operator="in" in2="blur"/>
      <feComposite in="SourceGraphic"/>
    </filter>
  </defs>
  <g id="Grupo_1176299" data-name="Grupo 1176299" transform="translate(-1216.5 -1298.145)">
    <g id="Grupo_1171049" data-name="Grupo 1171049" transform="translate(1225.5 1304.145)">
      <g id="Grupo_1148525" data-name="Grupo 1148525" transform="translate(0)">
        <g transform="matrix(1, 0, 0, 1, -9, -6)" filter="url(#Trazado_982547)">
          <g id="Trazado_982547-2" data-name="Trazado 982547" transform="translate(9 6)" fill="#f4fdfe">
            <path d="M 47.5 93.5 C 41.28937149047852 93.5 35.26533508300781 92.28397369384766 29.59518623352051 89.88570404052734 C 24.11771965026855 87.56893157958984 19.19813346862793 84.25196075439453 14.97309303283691 80.02691650390625 C 10.74804019927979 75.80186462402344 7.431066513061523 70.88229370117188 5.114293098449707 65.40481567382812 C 2.716026782989502 59.73468017578125 1.5 53.71062850952148 1.5 47.5 C 1.5 41.28937149047852 2.716026782989502 35.26533508300781 5.114293098449707 29.59518623352051 C 7.431066513061523 24.11771965026855 10.74804019927979 19.19813346862793 14.97309303283691 14.97309303283691 C 19.19813346862793 10.74804019927979 24.11771965026855 7.431066513061523 29.59518623352051 5.114293098449707 C 35.26533508300781 2.716026782989502 41.28937149047852 1.5 47.5 1.5 C 53.71062850952148 1.5 59.73468017578125 2.716026782989502 65.40481567382812 5.114293098449707 C 70.88229370117188 7.431066513061523 75.80186462402344 10.74804019927979 80.02691650390625 14.97309303283691 C 84.25196075439453 19.19813346862793 87.56893157958984 24.11771965026855 89.88570404052734 29.59518623352051 C 92.28397369384766 35.26533508300781 93.5 41.28937149047852 93.5 47.5 C 93.5 53.71062850952148 92.28397369384766 59.73468017578125 89.88570404052734 65.40481567382812 C 87.56893157958984 70.88229370117188 84.25196075439453 75.80186462402344 80.02691650390625 80.02691650390625 C 75.80186462402344 84.25196075439453 70.88229370117188 87.56893157958984 65.40481567382812 89.88570404052734 C 59.73468017578125 92.28397369384766 53.71062850952148 93.5 47.5 93.5 Z" stroke="none"/>
            <path d="M 47.5 3 C 41.49121475219727 3 35.66376876831055 4.176155090332031 30.17950439453125 6.495796203613281 C 24.88084411621094 8.736953735351562 20.12152099609375 11.94598388671875 16.03375244140625 16.03375244140625 C 11.94598388671875 20.12152099609375 8.736953735351562 24.88084411621094 6.495796203613281 30.17950439453125 C 4.176155090332031 35.66376876831055 3 41.49121475219727 3 47.5 C 3 53.50878524780273 4.176155090332031 59.33623123168945 6.495796203613281 64.82049560546875 C 8.736953735351562 70.11915588378906 11.94598388671875 74.87847900390625 16.03375244140625 78.96624755859375 C 20.12152099609375 83.05401611328125 24.88084411621094 86.26304626464844 30.17950439453125 88.50419616699219 C 35.66376876831055 90.82384490966797 41.49121475219727 92 47.5 92 C 53.50878524780273 92 59.33623123168945 90.82384490966797 64.82049560546875 88.50419616699219 C 70.11915588378906 86.26304626464844 74.87847900390625 83.05401611328125 78.96624755859375 78.96624755859375 C 83.05401611328125 74.87847900390625 86.26304626464844 70.11915588378906 88.50419616699219 64.82049560546875 C 90.82384490966797 59.33623123168945 92 53.50878524780273 92 47.5 C 92 41.49121475219727 90.82384490966797 35.66376876831055 88.50419616699219 30.17950439453125 C 86.26304626464844 24.88084411621094 83.05401611328125 20.12152099609375 78.96624755859375 16.03375244140625 C 74.87847900390625 11.94598388671875 70.11915588378906 8.736953735351562 64.82049560546875 6.495796203613281 C 59.33623123168945 4.176155090332031 53.50878524780273 3 47.5 3 M 47.5 0 C 73.7335205078125 0 95 21.2664794921875 95 47.5 C 95 73.7335205078125 73.7335205078125 95 47.5 95 C 21.2664794921875 95 0 73.7335205078125 0 47.5 C 0 21.2664794921875 21.2664794921875 0 47.5 0 Z" stroke="none" fill="#56838a"/>
          </g>
        </g>
      </g>
    </g>
    <g id="smart-watch_16135125" transform="translate(-767 991.155)">
      <g id="Grupo_1176673" data-name="Grupo 1176673" transform="translate(1680 -2)">
        <path id="Trazado_1034868" data-name="Trazado 1034868" d="M390,370H347l-10.291-.792a3.173,3.173,0,0,0-3.331,2.437c-.8,3.406-2.177,9.253-2.9,12.328a2,2,0,0,0,1.567,2.422l3.027.585A4.5,4.5,0,0,0,336,392l15.83-5.587a7.246,7.246,0,0,1,2.41-.413H390Z" fill="#f4de9d" fill-rule="evenodd"/>
      </g>
      <g id="Grupo_1176674" data-name="Grupo 1176674" transform="translate(1659 13)">
        <path id="Trazado_1034869" data-name="Trazado 1034869" d="M360,329a10,10,0,0,1,10,10v10H360a10,10,0,0,1,0-20Z" fill="#ead643" fill-rule="evenodd"/>
      </g>
      <g id="Grupo_1176675" data-name="Grupo 1176675" transform="translate(2025.15 -154.27) rotate(45)">
        <path id="Trazado_1034870" data-name="Trazado 1034870" d="M360,329a10,10,0,0,1,10,10v10H360a10,10,0,0,1,0-20Z" fill="#9dd6f3" fill-rule="evenodd"/>
      </g>
      <g id="Grupo_1176676" data-name="Grupo 1176676" transform="translate(2400 -7.932) rotate(90)">
        <path id="Trazado_1034871" data-name="Trazado 1034871" d="M360,329a10,10,0,0,1,10,10v10H360a10,10,0,0,1,0-20Z" fill="#20c864" fill-rule="evenodd"/>
      </g>
      <g id="Grupo_1176677" data-name="Grupo 1176677" transform="translate(1680 -2)">
        <path id="Trazado_1034872" data-name="Trazado 1034872" d="M367,370v-2.383A2.615,2.615,0,0,0,364.383,365h-9.766A2.615,2.615,0,0,0,352,367.617V370Z" fill="#737f7f" fill-rule="evenodd"/>
      </g>
      <g id="Grupo_1176678" data-name="Grupo 1176678" transform="translate(1724.5 -289.778)">
        <path id="Trazado_1034873" data-name="Trazado 1034873" d="M311.5,657.86h7v16h-7Z" fill="#3c4545" fill-rule="evenodd"/>
      </g>
      <g id="Grupo_1176679" data-name="Grupo 1176679" transform="translate(1645.64 -126.929)">
        <path id="Trazado_1034874" data-name="Trazado 1034874" d="M394.4,464.914a3.288,3.288,0,0,1,5.053-1.139c1.263,1.139,1.263,3.418,0,5.7-.885,1.71-3.158,3.418-5.053,4.557-1.9-1.139-4.169-2.848-5.053-4.557-1.262-2.279-1.262-4.557,0-5.7A3.288,3.288,0,0,1,394.4,464.914Z" fill="#e23737" fill-rule="evenodd"/>
      </g>
      <g id="Grupo_1176680" data-name="Grupo 1176680" transform="translate(2435 2) rotate(180)">
        <path id="Trazado_1034875" data-name="Trazado 1034875" d="M378.312-356a1.691,1.691,0,0,1,1.194.494,1.691,1.691,0,0,1,.494,1.194v3.478A1.834,1.834,0,0,1,378.166-349a1.881,1.881,0,0,1-1.42-.647,1.873,1.873,0,0,1-.44-1.494c.166-1.163.366-2.563.509-3.561a1.512,1.512,0,0,1,1.5-1.3Z" fill="#e9eded" fill-rule="evenodd"/>
      </g>
      <g id="Grupo_1176681" data-name="Grupo 1176681" transform="translate(1685 -3)">
        <path id="Trazado_1034876" data-name="Trazado 1034876" d="M378.311,356A1.687,1.687,0,0,0,380,354.312v-3.478A1.836,1.836,0,0,0,378.163,349a1.876,1.876,0,0,0-1.857,2.141c.166,1.163.366,2.563.509,3.561A1.511,1.511,0,0,0,378.311,356Z" fill="#e9eded" fill-rule="evenodd"/>
      </g>
      <path id="Trazado_1034877" data-name="Trazado 1034877" d="M2031,367h-3.96l-10.25-.789a4.19,4.19,0,0,0-4.39,3.2c-.8,3.406-2.17,9.253-2.9,12.328a2.995,2.995,0,0,0,2.36,3.633l1.92.373a5.516,5.516,0,0,0,1.51,4.957,1.006,1.006,0,0,0,1.04.236l15.83-5.587a6.246,6.246,0,0,1,2.08-.356H2070a1,1,0,0,0,0-2h-26V369h26a1,1,0,0,0,0-2h-22v-1.383a3.617,3.617,0,0,0-3.62-3.617h-9.76a3.617,3.617,0,0,0-3.62,3.617Zm4,2h-8c-.03,0-.05,0-.08,0l-10.29-.792a2.181,2.181,0,0,0-2.28,1.669l-2.9,12.328a1.046,1.046,0,0,0,.13.773,1.026,1.026,0,0,0,.65.438l2.31.446a5.518,5.518,0,0,1,2.76-2.215l3.9-1.419.85-2.541a1,1,0,1,1,1.9.632l-1,3a1.007,1.007,0,0,1-.61.624l-4.35,1.584a3.491,3.491,0,0,0-1.67,5.3l15.18-5.358a8.238,8.238,0,0,1,2.74-.47h.76Zm2,14h5V369h-5Zm2-2h1a1,1,0,0,0,0-2h-1a1,1,0,0,0,0,2Zm0-4h1a1,1,0,0,0,0-2h-1a1,1,0,0,0,0,2Zm0-4h1a1,1,0,0,0,0-2h-1a1,1,0,0,0,0,2Zm7-6v-1.383a1.612,1.612,0,0,0-1.62-1.617h-9.76a1.612,1.612,0,0,0-1.62,1.617V367Zm26-14.932a11,11,0,0,0-22,0v10a1,1,0,0,0,1,1h10A11.006,11.006,0,0,0,2072,352.068ZM2019,341a11,11,0,0,0,0,22h10a1,1,0,0,0,1-1V352A11.006,11.006,0,0,0,2019,341Zm51,11.068a9,9,0,0,1-9,9h-9v-9a9,9,0,0,1,18,0ZM2019,343a9,9,0,0,1,9,9v9h-9a9,9,0,0,1,0-18Zm37.69,16a2.518,2.518,0,0,0,2.49-2.157l.5-3.56a2.851,2.851,0,0,0-.67-2.291,2.887,2.887,0,0,0-2.18-.992,2.834,2.834,0,0,0-2.83,2.834v3.478a2.692,2.692,0,0,0,2.69,2.688ZM2013,353h2.88l1.73,3.447a1,1,0,0,0,1.86-.2l1.35-5.378.79,1.582a.993.993,0,0,0,.89.553h2.5a1,1,0,0,0,0-2h-1.88l-1.73-3.447a.985.985,0,0,0-1-.547,1,1,0,0,0-.86.751l-1.35,5.378-.79-1.582a.982.982,0,0,0-.89-.553H2013a1,1,0,0,0,0,2Zm43.69,4a.7.7,0,0,1-.49-.2.681.681,0,0,1-.2-.486v-3.478a.831.831,0,0,1,.83-.834.868.868,0,0,1,.87,1l-.5,3.56A.522.522,0,0,1,2056.69,357Zm-8.91-24.78a11,11,0,0,0-15.56,15.556c1.93,1.927,7.07,7.071,7.07,7.071a1.006,1.006,0,0,0,1.42,0s5.09-5.1,7.07-7.071a11.01,11.01,0,0,0,0-15.556ZM2063.31,354a2.692,2.692,0,0,0,2.69-2.688v-3.478a2.836,2.836,0,0,0-2.84-2.834,2.881,2.881,0,0,0-2.17.992,2.85,2.85,0,0,0-.67,2.291l.5,3.56A2.518,2.518,0,0,0,2063.31,354Zm-16.95-20.366a9.009,9.009,0,0,1,0,12.728l-6.36,6.364-6.37-6.364a9,9,0,1,1,12.73-12.728ZM2063.31,352a.522.522,0,0,1-.51-.44l-.5-3.56a.868.868,0,0,1,.86-1,.839.839,0,0,1,.84.834v3.478a.681.681,0,0,1-.2.486A.7.7,0,0,1,2063.31,352ZM2040,336.235a4.22,4.22,0,0,0-5.72-.229c-1.54,1.383-1.74,4.144-.21,6.911.96,1.84,3.37,3.713,5.42,4.94a1,1,0,0,0,1.03,0c2.04-1.227,4.45-3.1,5.41-4.94,1.53-2.767,1.33-5.528-.21-6.911a4.22,4.22,0,0,0-5.72.229Zm-.88,2.137a1.009,1.009,0,0,0,1.76,0,2.293,2.293,0,0,1,3.5-.881,2.164,2.164,0,0,1,.62,1.678,5.892,5.892,0,0,1-.82,2.79c-.01.008-.01.017-.02.025a4.173,4.173,0,0,1-8.32,0c-.01-.008-.01-.017-.02-.025a5.891,5.891,0,0,1-.82-2.79,2.164,2.164,0,0,1,.62-1.678A2.293,2.293,0,0,1,2039.12,338.372Z" fill-rule="evenodd"/>
    </g>
  </g>
</svg>
