<svg xmlns="http://www.w3.org/2000/svg" xmlns:xlink="http://www.w3.org/1999/xlink" width="400" height="292" viewBox="0 0 400 292">
  <defs>
    <clipPath id="clip-path">
      <rect id="Rectángulo_415756" data-name="Rectángulo 415756" width="400" height="292" transform="translate(1020 1653)" fill="#fff" stroke="#707070" stroke-width="1"/>
    </clipPath>
    <clipPath id="clip-path-2">
      <rect id="Rectángulo_415755" data-name="Rectángulo 415755" width="337.222" height="287.674" fill="none"/>
    </clipPath>
    <clipPath id="clip-path-4">
      <rect id="Rectángulo_415730" data-name="Rectángulo 415730" width="251.293" height="174.317" fill="none"/>
    </clipPath>
    <clipPath id="clip-path-5">
      <rect id="Rectángulo_415731" data-name="Rectángulo 415731" width="32.119" height="85.896" fill="none"/>
    </clipPath>
    <clipPath id="clip-path-6">
      <rect id="Rectángulo_415732" data-name="Rectángulo 415732" width="20.932" height="73.392" fill="none"/>
    </clipPath>
    <clipPath id="clip-path-7">
      <rect id="Rectángulo_415733" data-name="Rectángulo 415733" width="9.589" height="12.151" fill="none"/>
    </clipPath>
    <clipPath id="clip-path-8">
      <rect id="Rectángulo_415734" data-name="Rectángulo 415734" width="9.588" height="12.151" fill="none"/>
    </clipPath>
    <clipPath id="clip-path-9">
      <rect id="Rectángulo_415735" data-name="Rectángulo 415735" width="5.345" height="9.544" fill="none"/>
    </clipPath>
    <clipPath id="clip-path-10">
      <rect id="Rectángulo_415736" data-name="Rectángulo 415736" width="10.564" height="5.502" fill="none"/>
    </clipPath>
    <clipPath id="clip-path-12">
      <rect id="Rectángulo_415738" data-name="Rectángulo 415738" width="35.489" height="53.456" fill="none"/>
    </clipPath>
    <clipPath id="clip-path-13">
      <rect id="Rectángulo_415744" data-name="Rectángulo 415744" width="17.11" height="20.6" fill="none"/>
    </clipPath>
    <clipPath id="clip-path-14">
      <rect id="Rectángulo_415745" data-name="Rectángulo 415745" width="30.669" height="20.6" fill="none"/>
    </clipPath>
    <clipPath id="clip-path-15">
      <rect id="Rectángulo_415746" data-name="Rectángulo 415746" width="79.861" height="20.6" fill="none"/>
    </clipPath>
    <clipPath id="clip-path-16">
      <rect id="Rectángulo_415747" data-name="Rectángulo 415747" width="26.994" height="2.59" fill="none"/>
    </clipPath>
    <clipPath id="clip-path-17">
      <rect id="Rectángulo_415748" data-name="Rectángulo 415748" width="21.659" height="14.548" fill="none"/>
    </clipPath>
    <clipPath id="clip-path-18">
      <rect id="Rectángulo_415749" data-name="Rectángulo 415749" width="21.33" height="14.327" fill="none"/>
    </clipPath>
    <clipPath id="clip-path-19">
      <rect id="Rectángulo_415750" data-name="Rectángulo 415750" width="28.423" height="14.327" fill="none"/>
    </clipPath>
    <clipPath id="clip-path-20">
      <rect id="Rectángulo_415752" data-name="Rectángulo 415752" width="20.593" height="51.947" fill="none"/>
    </clipPath>
    <clipPath id="clip-path-21">
      <rect id="Rectángulo_415753" data-name="Rectángulo 415753" width="122.856" height="10.852" fill="none"/>
    </clipPath>
  </defs>
  <g id="Enmascarar_grupo_1098715" data-name="Enmascarar grupo 1098715" transform="translate(-1020 -1653)" clip-path="url(#clip-path)">
    <g id="Grupo_1176357" data-name="Grupo 1176357" transform="translate(1051 1657.452)">
      <g id="Grupo_1176356" data-name="Grupo 1176356" clip-path="url(#clip-path-2)">
        <rect id="Rectángulo_415728" data-name="Rectángulo 415728" width="259.448" height="184.208" transform="translate(30.838 22.605)" fill="#fff2e3"/>
        <rect id="Rectángulo_415729" data-name="Rectángulo 415729" width="251.293" height="174.317" transform="translate(34.915 27.258)" fill="#2c4556"/>
        <g id="Grupo_1176355" data-name="Grupo 1176355">
          <g id="Grupo_1176354" data-name="Grupo 1176354" clip-path="url(#clip-path-2)">
            <g id="Grupo_1176302" data-name="Grupo 1176302" transform="translate(34.915 27.258)" opacity="0.46">
              <g id="Grupo_1176301" data-name="Grupo 1176301">
                <g id="Grupo_1176300" data-name="Grupo 1176300" clip-path="url(#clip-path-4)">
                  <path id="Trazado_1033888" data-name="Trazado 1033888" d="M44.349,34.623S243.7,39.052,267.147,52.91s-6.8,15.071-30.126,34.939S292.7,168.341,295.642,208.94V34.623Z" transform="translate(-44.349 -34.623)" fill="#1a2d38"/>
                </g>
              </g>
            </g>
            <path id="Trazado_1033889" data-name="Trazado 1033889" d="M299.406,270.712H34.859a3.969,3.969,0,0,1-3.969-3.969v-.08a3.969,3.969,0,0,1,3.969-3.969H299.406a3.969,3.969,0,0,1,3.969,3.969v.08a3.969,3.969,0,0,1-3.969,3.969" transform="translate(-6.571 -55.881)" fill="#b5aaa0"/>
            <path id="Trazado_1033893" data-name="Trazado 1033893" d="M86.131,185.605v14.51L98.7,207.369l12.565-7.254v-14.51L98.7,178.35Z" transform="translate(-18.322 -37.939)" fill="#2c4556"/>
            <path id="Trazado_1033894" data-name="Trazado 1033894" d="M86.131,185.605v14.51L98.7,207.369l12.565-7.254v-14.51L98.7,178.35Z" transform="translate(-18.322 -37.939)" fill="none" stroke="#d3cabe" stroke-miterlimit="10" stroke-width="1"/>
            <line id="Línea_899" data-name="Línea 899" x2="11.467" y2="7.869" transform="translate(92.94 162.175)" fill="#2c4556"/>
            <line id="Línea_900" data-name="Línea 900" x2="11.467" y2="7.869" transform="translate(92.94 162.175)" fill="none" stroke="#d3cabe" stroke-miterlimit="10" stroke-width="1"/>
            <line id="Línea_901" data-name="Línea 901" x1="12.682" y1="7.592" transform="translate(55.127 140.074)" fill="#2c4556"/>
            <line id="Línea_902" data-name="Línea 902" x1="12.682" y1="7.592" transform="translate(55.127 140.074)" fill="none" stroke="#d3cabe" stroke-miterlimit="10" stroke-width="1"/>
            <line id="Línea_903" data-name="Línea 903" y2="16.475" transform="translate(80.374 169.43)" fill="#2c4556"/>
            <line id="Línea_904" data-name="Línea 904" y2="16.475" transform="translate(80.374 169.43)" fill="none" stroke="#d3cabe" stroke-miterlimit="10" stroke-width="1"/>
            <path id="Trazado_1033895" data-name="Trazado 1033895" d="M69.4,175.006a2.3,2.3,0,1,1-2.3,2.3,2.3,2.3,0,0,1,2.3-2.3" transform="translate(-14.275 -37.228)" fill="#2c4556"/>
            <path id="Trazado_1033896" data-name="Trazado 1033896" d="M69.4,175.006a2.3,2.3,0,1,1-2.3,2.3A2.3,2.3,0,0,1,69.4,175.006Z" transform="translate(-14.275 -37.228)" fill="none" stroke="#d3cabe" stroke-miterlimit="10" stroke-width="1"/>
            <path id="Trazado_1033897" data-name="Trazado 1033897" d="M85.511,184.146a2.3,2.3,0,1,1-2.3,2.3,2.3,2.3,0,0,1,2.3-2.3" transform="translate(-17.702 -39.172)" fill="#2c4556"/>
            <path id="Trazado_1033898" data-name="Trazado 1033898" d="M85.511,184.146a2.3,2.3,0,1,1-2.3,2.3A2.3,2.3,0,0,1,85.511,184.146Z" transform="translate(-17.702 -39.172)" fill="none" stroke="#d3cabe" stroke-miterlimit="10" stroke-width="1"/>
            <path id="Trazado_1033899" data-name="Trazado 1033899" d="M101.481,233.221a2.3,2.3,0,1,1-2.3,2.3,2.3,2.3,0,0,1,2.3-2.3" transform="translate(-21.099 -49.611)" fill="#2c4556"/>
            <path id="Trazado_1033900" data-name="Trazado 1033900" d="M101.481,233.221a2.3,2.3,0,1,1-2.3,2.3A2.3,2.3,0,0,1,101.481,233.221Z" transform="translate(-21.099 -49.611)" fill="none" stroke="#d3cabe" stroke-miterlimit="10" stroke-width="1"/>
            <path id="Trazado_1033901" data-name="Trazado 1033901" d="M101.02,212.293a2.3,2.3,0,1,1-2.3,2.3,2.3,2.3,0,0,1,2.3-2.3" transform="translate(-21.001 -45.16)" fill="#2c4556"/>
            <path id="Trazado_1033902" data-name="Trazado 1033902" d="M101.02,212.293a2.3,2.3,0,1,1-2.3,2.3A2.3,2.3,0,0,1,101.02,212.293Z" transform="translate(-21.001 -45.16)" fill="none" stroke="#d3cabe" stroke-miterlimit="10" stroke-width="1"/>
            <path id="Trazado_1033903" data-name="Trazado 1033903" d="M117.086,202.842a2.3,2.3,0,1,1-2.3,2.3,2.3,2.3,0,0,1,2.3-2.3" transform="translate(-24.418 -43.149)" fill="#2c4556"/>
            <path id="Trazado_1033904" data-name="Trazado 1033904" d="M117.086,202.842a2.3,2.3,0,1,1-2.3,2.3A2.3,2.3,0,0,1,117.086,202.842Z" transform="translate(-24.418 -43.149)" fill="none" stroke="#d3cabe" stroke-miterlimit="10" stroke-width="1"/>
            <path id="Trazado_1033905" data-name="Trazado 1033905" d="M132.219,213.227a2.3,2.3,0,1,1-2.3,2.3,2.3,2.3,0,0,1,2.3-2.3" transform="translate(-27.638 -45.358)" fill="#2c4556"/>
            <path id="Trazado_1033906" data-name="Trazado 1033906" d="M132.219,213.227a2.3,2.3,0,1,1-2.3,2.3A2.3,2.3,0,0,1,132.219,213.227Z" transform="translate(-27.638 -45.358)" fill="none" stroke="#d3cabe" stroke-miterlimit="10" stroke-width="1"/>
            <path id="Trazado_1033907" data-name="Trazado 1033907" d="M305.98,159.454l-.172,24.568a16.958,16.958,0,1,0,11.638.039l.4-24.567" transform="translate(-62.671 -33.919)" fill="none" stroke="#d3cabe" stroke-miterlimit="10" stroke-width="1"/>
            <path id="Trazado_1033908" data-name="Trazado 1033908" d="M297.986,207.346a14.6,14.6,0,1,0,28.468.1" transform="translate(-63.309 -44.107)" fill="none" stroke="#d3cabe" stroke-miterlimit="10" stroke-width="1"/>
            <path id="Trazado_1033909" data-name="Trazado 1033909" d="M326.854,206.95c0,1.037-6.448,1.856-14.392,1.829s-14.382-.89-14.379-1.926,6.447-1.856,14.391-1.829S326.857,205.913,326.854,206.95Z" transform="translate(-63.409 -43.613)" fill="none" stroke="#d3cabe" stroke-miterlimit="10" stroke-width="1"/>
            <path id="Trazado_1033910" data-name="Trazado 1033910" d="M322.524,156.127a2.191,2.191,0,0,1-2.2,2.184l-11.865-.041a2.19,2.19,0,1,1,.015-4.38l11.865.04A2.191,2.191,0,0,1,322.524,156.127Z" transform="translate(-65.152 -32.736)" fill="none" stroke="#d3cabe" stroke-miterlimit="10" stroke-width="1"/>
            <path id="Trazado_1033911" data-name="Trazado 1033911" d="M312.392,217.208a1.543,1.543,0,1,1-.645-2.085A1.542,1.542,0,0,1,312.392,217.208Z" transform="translate(-65.834 -45.724)" fill="none" stroke="#d3cabe" stroke-miterlimit="10" stroke-width="1"/>
            <path id="Trazado_1033912" data-name="Trazado 1033912" d="M325.2,216.553a1.543,1.543,0,1,1-.645-2.086A1.544,1.544,0,0,1,325.2,216.553Z" transform="translate(-68.558 -45.584)" fill="none" stroke="#d3cabe" stroke-miterlimit="10" stroke-width="1"/>
            <path id="Trazado_1033913" data-name="Trazado 1033913" d="M318.969,224.156a1.543,1.543,0,1,1-.645-2.085A1.544,1.544,0,0,1,318.969,224.156Z" transform="translate(-67.233 -47.202)" fill="none" stroke="#d3cabe" stroke-miterlimit="10" stroke-width="1"/>
            <path id="Trazado_1033914" data-name="Trazado 1033914" d="M317.136,83.891H300.861l-8.137,14.094,8.137,14.094h16.275l8.137-14.094Z" transform="translate(-62.269 -17.845)" fill="none" stroke="#d3cabe" stroke-miterlimit="10" stroke-width="1"/>
            <path id="Trazado_1033915" data-name="Trazado 1033915" d="M304.522,70.893H292.706L286.8,81.126l5.908,10.232h11.815l5.908-10.232Z" transform="translate(-61.009 -15.081)" fill="none" stroke="#d3cabe" stroke-miterlimit="10" stroke-width="1"/>
            <path id="Trazado_1033916" data-name="Trazado 1033916" d="M68.459,147.449a2.382,2.382,0,1,1-2.382-2.382A2.383,2.383,0,0,1,68.459,147.449Z" transform="translate(-13.549 -30.859)" fill="none" stroke="#d3cabe" stroke-miterlimit="10" stroke-width="0.5"/>
            <path id="Trazado_1033917" data-name="Trazado 1033917" d="M351.084,56.248a7.6,7.6,0,1,1-7.6-7.6A7.6,7.6,0,0,1,351.084,56.248Z" transform="translate(-71.451 -10.349)" fill="none" stroke="#d3cabe" stroke-miterlimit="10" stroke-width="1.268"/>
            <path id="Trazado_1033918" data-name="Trazado 1033918" d="M278.371,52.448a3.8,3.8,0,1,1-3.8-3.8A3.8,3.8,0,0,1,278.371,52.448Z" transform="translate(-57.599 -10.349)" fill="none" stroke="#d3cabe" stroke-miterlimit="10" stroke-width="0.634"/>
            <path id="Trazado_1033919" data-name="Trazado 1033919" d="M129.55,50.054a2.37,2.37,0,1,1-2.37-2.37A2.37,2.37,0,0,1,129.55,50.054Z" transform="translate(-26.55 -10.143)" fill="none" stroke="#d3cabe" stroke-miterlimit="10" stroke-width="0.634"/>
            <path id="Trazado_1033920" data-name="Trazado 1033920" d="M348.311,137.145a3.8,3.8,0,1,1-3.8-3.8A3.8,3.8,0,0,1,348.311,137.145Z" transform="translate(-72.477 -28.366)" fill="none" stroke="#d3cabe" stroke-miterlimit="10" stroke-width="1"/>
            <path id="Trazado_1033921" data-name="Trazado 1033921" d="M227.817,254.3l-33.977,1.156L159.864,254.3s-25.9,53.446-.986,85.9H228.8c24.909-32.45-.986-85.9-.986-85.9" transform="translate(-31.495 -54.095)" fill="#2c4556"/>
            <g id="Grupo_1176305" data-name="Grupo 1176305" transform="translate(116.562 200.204)" opacity="0.45">
              <g id="Grupo_1176304" data-name="Grupo 1176304">
                <g id="Grupo_1176303" data-name="Grupo 1176303" clip-path="url(#clip-path-5)">
                  <path id="Trazado_1033922" data-name="Trazado 1033922" d="M158.878,340.195h9.56c-17.655-32.518,11.738-85.2,11.738-85.2l-20.312-.691s-25.9,53.447-.986,85.9" transform="translate(-148.057 -254.299)" fill="#1b2e38"/>
                </g>
              </g>
            </g>
            <path id="Trazado_1033923" data-name="Trazado 1033923" d="M244.7,137.143c-1.527-10.816-7-22.778-17.943-26.469-4.843-1.633-18.324-6.362-24.91-12.343s-3.085-17.307-3.085-17.307H184s3.5,11.326-3.085,17.307-20.068,10.71-24.91,12.343c-10.944,3.691-16.416,15.653-17.943,26.469-.994,7.039-1.394,41.452-1.553,64.632A16.236,16.236,0,0,0,157.2,217.5l.21-.06s17.561,9.544,33.977,9.544,33.977-9.544,33.977-9.544l21,5.981s-.127-75.461-1.654-86.278" transform="translate(-29.039 -17.236)" fill="#4b72b7"/>
            <path id="Trazado_1033924" data-name="Trazado 1033924" d="M268.2,145.09c-1.527-10.816-7-22.778-17.943-26.469-.214-.072-.451-.153-.7-.237-1.649,12.868-5.218,46.39.7,57.336,3.351,6.2,11.422,7.957,19.237,8.029-.24-17.412-.638-34.01-1.294-38.659" transform="translate(-52.538 -25.183)" fill="#fff2e3"/>
            <path id="Trazado_1033925" data-name="Trazado 1033925" d="M138.037,145.09c1.527-10.816,7-22.778,17.943-26.469.214-.072.452-.153.7-.237,1.649,12.868,5.219,46.39-.7,57.336-3.351,6.2-11.422,7.957-19.237,8.029.24-17.412.638-34.01,1.294-38.659" transform="translate(-29.088 -25.183)" fill="#fff2e3"/>
            <path id="Trazado_1033926" data-name="Trazado 1033926" d="M159.5,210.584l30.129,11.638s-.314,9.544,12.134,4.2l8.248-1.909s6.252,37.241,28.849,45.432a138.581,138.581,0,0,0-9.634-29.78l21,5.981s-.043-25.69-.383-49.24l-95.172-9.052Z" transform="translate(-32.901 -39.961)" fill="#2c4556"/>
            <path id="Trazado_1033927" data-name="Trazado 1033927" d="M206.211,119.192s6.557,14.142,16.672,9.943.921-19.954.921-19.954Z" transform="translate(-43.866 -23.225)" fill="#fff2e3"/>
            <path id="Trazado_1033928" data-name="Trazado 1033928" d="M200.46,119.12s-6.557,14.142-16.672,9.943-.439-20.221-.439-20.221Z" transform="translate(-38.115 -23.153)" fill="#fff2e3"/>
            <path id="Trazado_1033929" data-name="Trazado 1033929" d="M268.708,145.546c-1.364-9.666-5.884-20.242-14.639-25.017-1.6,6.392-3.619,17.768-4.067,35.452-.763,30.159-.636,69.862-.636,69.862l21,5.981s-.127-75.461-1.654-86.278" transform="translate(-53.044 -25.639)" fill="#e48464"/>
            <path id="Trazado_1033930" data-name="Trazado 1033930" d="M138.066,145.546c1.364-9.666,5.883-20.242,14.639-25.017,1.6,6.392,3.619,17.768,4.067,35.452.763,30.159.636,69.862.636,69.862l-.21.06a16.235,16.235,0,0,1-20.686-15.724c.158-23.18.56-57.593,1.553-64.632" transform="translate(-29.039 -25.639)" fill="#e48464"/>
            <line id="Línea_905" data-name="Línea 905" y2="113.781" transform="translate(162.346 95.967)" fill="none" stroke="#2c4556" stroke-miterlimit="10" stroke-width="0.776"/>
            <path id="Trazado_1033931" data-name="Trazado 1033931" d="M201.139,146.692a2.83,2.83,0,1,1-2.83-2.83,2.83,2.83,0,0,1,2.83,2.83" transform="translate(-41.583 -30.603)" fill="#fff2e3"/>
            <path id="Trazado_1033932" data-name="Trazado 1033932" d="M201.139,179.343a2.83,2.83,0,1,1-2.83-2.83,2.83,2.83,0,0,1,2.83,2.83" transform="translate(-41.583 -37.548)" fill="#fff2e3"/>
            <path id="Trazado_1033933" data-name="Trazado 1033933" d="M201.139,211.993a2.83,2.83,0,1,1-2.83-2.83,2.83,2.83,0,0,1,2.83,2.83" transform="translate(-41.583 -44.494)" fill="#fff2e3"/>
            <path id="Trazado_1033934" data-name="Trazado 1033934" d="M201.139,244.644a2.83,2.83,0,1,1-2.83-2.83,2.83,2.83,0,0,1,2.83,2.83" transform="translate(-41.583 -51.439)" fill="#fff2e3"/>
            <path id="Trazado_1033935" data-name="Trazado 1033935" d="M131.9,218.359s-7.174-5.269-13.792-16.212S99.779,152,96.217,146.023,81.972,126.8,80.692,121.34c-1.145-4.879,1.018-6.311,1.4-7.253,2.672-3.945,4.454-5.853,6.49-5.853-3.308-11.2-2.8-16.388.764-12.011s8.908,19.613,9.672,19.884c4.326-.492,7.4,3.357,7.645,10.722-.01,6.6-.265,3.8,1.262,8.128s22.574,41.423,28.085,49.853,10.9,27.221,7.312,36.023c-5.62,1.42-7.974.567-11.425-2.473" transform="translate(-17.094 -20.139)" fill="#e48464"/>
            <path id="Trazado_1033936" data-name="Trazado 1033936" d="M101.5,121.9s-5.345,2.689-7,4.6-3.563,3.818-1.654,5.472,4.835.763,6.617,0a13.629,13.629,0,0,0-.891,8.907" transform="translate(-19.582 -25.93)" fill="none" stroke="#a0533f" stroke-miterlimit="10" stroke-width="0.75"/>
            <line id="Línea_906" data-name="Línea 906" x2="4.632" y2="11.389" transform="translate(71.487 88.094)" fill="none" stroke="#a0533f" stroke-miterlimit="10" stroke-width="0.75"/>
            <line id="Línea_907" data-name="Línea 907" x2="5.378" y2="12.804" transform="translate(67.093 91.069)" fill="none" stroke="#a0533f" stroke-miterlimit="10" stroke-width="0.75"/>
            <line id="Línea_908" data-name="Línea 908" x2="5.392" y2="12.928" transform="translate(64.39 94.89)" fill="none" stroke="#a0533f" stroke-miterlimit="10" stroke-width="0.75"/>
            <line id="Línea_909" data-name="Línea 909" y1="3.849" x2="4.97" transform="translate(67.79 105.455)" fill="none" stroke="#a0533f" stroke-miterlimit="10" stroke-width="0.75"/>
            <path id="Trazado_1033937" data-name="Trazado 1033937" d="M185.043,13.85s-.8-11.015,12.48-13.306S220.795,3.407,226.2,12s1.209,25.9,9.608,39.384-.955,26.087-.955,26.087-17.368-10-31.877-12.6C186.372,25.74,185.043,13.85,185.043,13.85" transform="translate(-39.361 0)" fill="#7c2e25"/>
            <g id="Grupo_1176308" data-name="Grupo 1176308" transform="translate(179.017 4.077)" opacity="0.17" style="mix-blend-mode: overlay;isolation: isolate">
              <g id="Grupo_1176307" data-name="Grupo 1176307">
                <g id="Grupo_1176306" data-name="Grupo 1176306" clip-path="url(#clip-path-6)">
                  <path id="Trazado_1033938" data-name="Trazado 1033938" d="M235.213,13.1a25.345,25.345,0,0,0-7.824-7.92s8.4,11.681,7.824,23.544,2.6,18.895,4.58,25.606c2.1,7.1-1.569,15.627-3.666,20.217,4.65,2.248,7.739,4.025,7.739,4.025s9.353-12.6.955-26.086-4.2-30.8-9.608-39.385" transform="translate(-227.388 -5.178)" fill="#fff"/>
                </g>
              </g>
            </g>
            <path id="Trazado_1033939" data-name="Trazado 1033939" d="M212.713,13.85s.8-11.015-12.48-13.306S176.962,3.407,171.554,12s-1.209,25.9-9.608,39.384.955,26.087.955,26.087,17.369-10,31.877-12.6C211.384,25.74,212.713,13.85,212.713,13.85" transform="translate(-33.705 0)" fill="#872a21"/>
            <path id="Trazado_1033940" data-name="Trazado 1033940" d="M212.054,98.331c-6.586-5.981-3.085-17.307-3.085-17.307H194.207s3.5,11.326-3.085,17.307a36.774,36.774,0,0,1-6.645,4.593,19.908,19.908,0,0,0,34.7.268,37.84,37.84,0,0,1-7.127-4.861" transform="translate(-39.242 -17.236)" fill="#e48464"/>
            <path id="Trazado_1033941" data-name="Trazado 1033941" d="M210.786,85.415a24.494,24.494,0,0,1,.812-4.391H196.836s2.015,6.531.1,12.294c7.694-.868,12.679-6.458,13.848-7.9" transform="translate(-41.871 -17.236)" fill="#380403"/>
            <path id="Trazado_1033942" data-name="Trazado 1033942" d="M241.475,54.666c-1.669,4.1-5.687,6.341-8.975,5s-4.6-5.747-2.929-9.848,5.688-6.341,8.975-5,4.6,5.747,2.929,9.848" transform="translate(-48.681 -9.451)" fill="#e48464"/>
            <path id="Trazado_1033943" data-name="Trazado 1033943" d="M198.127,75.564l-1-9.884L177.75,54.354l-4.04,3.818s-4.2,16.7,2.846,25.454c6.131-2.8,14.018-5.907,21.2-7.193.126-.3.242-.576.366-.868" transform="translate(-36.688 -11.562)" fill="#420e0c"/>
            <g id="Grupo_1176311" data-name="Grupo 1176311" transform="translate(183.929 38.451)" opacity="0.32">
              <g id="Grupo_1176310" data-name="Grupo 1176310">
                <g id="Grupo_1176309" data-name="Grupo 1176309" clip-path="url(#clip-path-7)">
                  <path id="Trazado_1033944" data-name="Trazado 1033944" d="M242.492,55.6a8.893,8.893,0,0,0,.172-6.6c-3.147-.813-6.752,1.391-8.311,5.22a8.891,8.891,0,0,0-.172,6.6c3.147.813,6.752-1.39,8.311-5.22" transform="translate(-233.627 -48.841)" fill="#590a06"/>
                </g>
              </g>
            </g>
            <path id="Trazado_1033945" data-name="Trazado 1033945" d="M167.34,54.666c1.669,4.1,5.687,6.341,8.975,5s4.6-5.747,2.929-9.848-5.687-6.341-8.975-5-4.6,5.747-2.929,9.848" transform="translate(-35.443 -9.451)" fill="#e48464"/>
            <path id="Trazado_1033946" data-name="Trazado 1033946" d="M217.47,17.592c-1.108,3.4-3.73,9.629-8.392,11-4.835.636,1.782-3.563,1.273-8.272-15.163,8.581-24.345,11.027-29.37,11.073-.709,11.963.829,24.3,3.57,29.5,3.308,6.28,6.586,11.578,16.256,12.363,9.671-.785,12.948-6.083,16.257-12.363s4.868-22.962,2.832-36.83a15.949,15.949,0,0,0-2.426-6.473" transform="translate(-38.462 -3.742)" fill="#e48464"/>
            <g id="Grupo_1176314" data-name="Grupo 1176314" transform="translate(131.173 38.451)" opacity="0.32">
              <g id="Grupo_1176313" data-name="Grupo 1176313">
                <g id="Grupo_1176312" data-name="Grupo 1176312" clip-path="url(#clip-path-8)">
                  <path id="Trazado_1033947" data-name="Trazado 1033947" d="M167.34,55.6a8.893,8.893,0,0,1-.172-6.6c3.147-.813,6.752,1.391,8.311,5.22a8.891,8.891,0,0,1,.172,6.6c-3.147.813-6.752-1.39-8.311-5.22" transform="translate(-166.616 -48.841)" fill="#590a06"/>
                </g>
              </g>
            </g>
            <path id="Trazado_1033948" data-name="Trazado 1033948" d="M211.654,51.5c1.29-2.489,4.98-7.507,12.525-3.681a1.378,1.378,0,0,1,.624,1.791c-1.91,4.256-7.9,4.721-12.42,3.534a1.155,1.155,0,0,1-.729-1.645" transform="translate(-44.996 -9.877)" fill="#fff2e3"/>
            <path id="Trazado_1033949" data-name="Trazado 1033949" d="M215.626,47.7a4.032,4.032,0,0,0,1.694,6.009,12.413,12.413,0,0,0,4.268-.664,4,4,0,0,0-.63-6.524,7.422,7.422,0,0,0-5.332,1.179" transform="translate(-45.713 -9.878)" fill="#651d13"/>
            <path id="Trazado_1033950" data-name="Trazado 1033950" d="M211.688,51.291a4.087,4.087,0,0,1,.179-.662,7.381,7.381,0,0,1,.789-1.635,6.59,6.59,0,0,1,.737-.987,8.006,8.006,0,0,1,1-.979L215,46.6a3.122,3.122,0,0,1,.668-.39c.236-.11.471-.236.717-.334l.77-.225.388-.1.4-.044.79-.071c.521,0,1.031.088,1.517.133.473.118.921.264,1.34.4a9.569,9.569,0,0,1,1.1.541l.473.257c.143.094.268.2.39.292.244.183.446.356.612.494.331.282.506.452.506.452s-.25-.054-.662-.168c-.205-.058-.454-.124-.728-.216a6.394,6.394,0,0,0-.935-.239c-.345-.065-.705-.169-1.087-.239-.39-.039-.794-.076-1.2-.145l-1.257.023c-.209.031-.419.068-.63.091l-.317.038-.306.09-.617.164-.589.242a9.313,9.313,0,0,0-1.126.561c-.328.25-.7.433-.991.69-.31.235-.6.476-.857.706-.515.468-.941.89-1.227,1.2s-.456.5-.456.5" transform="translate(-45.031 -9.664)" fill="#590a06"/>
            <path id="Trazado_1033951" data-name="Trazado 1033951" d="M197.148,51.5c-1.29-2.489-4.98-7.507-12.526-3.681A1.379,1.379,0,0,0,184,49.615c1.909,4.256,7.9,4.721,12.42,3.534a1.156,1.156,0,0,0,.729-1.645" transform="translate(-39.115 -9.877)" fill="#fff2e3"/>
            <path id="Trazado_1033952" data-name="Trazado 1033952" d="M194.611,47.7a4.032,4.032,0,0,1-1.694,6.009,12.413,12.413,0,0,1-4.268-.664,4,4,0,0,1,.63-6.524,7.422,7.422,0,0,1,5.332,1.179" transform="translate(-39.832 -9.878)" fill="#651d13"/>
            <path id="Trazado_1033953" data-name="Trazado 1033953" d="M197.225,51.291s-.161-.191-.456-.5-.712-.733-1.227-1.2c-.262-.231-.547-.472-.857-.706-.294-.257-.663-.441-.991-.69a9.312,9.312,0,0,0-1.126-.561l-.589-.242-.617-.164-.306-.09-.317-.038c-.211-.023-.42-.059-.63-.091l-1.257-.023c-.408.069-.812.105-1.2.145-.382.069-.742.174-1.087.239a6.392,6.392,0,0,0-.934.239c-.274.092-.523.158-.728.216-.413.113-.662.168-.662.168s.176-.17.505-.452c.167-.139.368-.312.613-.494.122-.091.247-.2.39-.292l.473-.257a9.569,9.569,0,0,1,1.1-.541c.419-.132.867-.278,1.34-.4.487-.045,1-.135,1.517-.133l.79.071.4.044.388.1.77.225c.246.1.481.224.717.334a3.123,3.123,0,0,1,.668.39l.612.431a8.006,8.006,0,0,1,1,.979,6.593,6.593,0,0,1,.737.987,7.384,7.384,0,0,1,.789,1.635,4.086,4.086,0,0,1,.179.662" transform="translate(-39.191 -9.664)" fill="#590a06"/>
            <path id="Trazado_1033954" data-name="Trazado 1033954" d="M215.279,38.677c2.583-.453,7-.684,10.23,2.034-3.333-5.55-6.663-5.678-10.584-5.62a1.79,1.79,0,0,0-1.763,1.788v.041a1.793,1.793,0,0,0,2.117,1.757" transform="translate(-45.344 -7.463)" fill="#651d13"/>
            <path id="Trazado_1033955" data-name="Trazado 1033955" d="M193.808,38.677c-2.583-.453-7-.684-10.23,2.034,3.333-5.55,6.663-5.678,10.584-5.62a1.79,1.79,0,0,1,1.763,1.788v.041a1.793,1.793,0,0,1-2.117,1.757" transform="translate(-39.051 -7.463)" fill="#651d13"/>
            <g id="Grupo_1176317" data-name="Grupo 1176317" transform="translate(160.437 46.609)" opacity="0.62">
              <g id="Grupo_1176316" data-name="Grupo 1176316">
                <g id="Grupo_1176315" data-name="Grupo 1176315" clip-path="url(#clip-path-9)">
                  <path id="Trazado_1033956" data-name="Trazado 1033956" d="M207.6,59.2v8.144l-3.818-.636,5.345,2.036Z" transform="translate(-203.787 -59.203)" fill="#651d13"/>
                </g>
              </g>
            </g>
            <path id="Trazado_1033957" data-name="Trazado 1033957" d="M199.261,73.452s9.657,1.4,11.58-.509c-2.785,3.436-7.381,4.072-11.58.509" transform="translate(-42.387 -15.517)" fill="#fff2e3"/>
            <g id="Grupo_1176320" data-name="Grupo 1176320" transform="translate(168.454 46.77)" opacity="0.32">
              <g id="Grupo_1176319" data-name="Grupo 1176319">
                <g id="Grupo_1176318" data-name="Grupo 1176318" clip-path="url(#clip-path-10)">
                  <path id="Trazado_1033958" data-name="Trazado 1033958" d="M224.534,62.158c0-1.519-2.365-2.752-5.282-2.752s-5.282,1.232-5.282,2.752,2.364,2.752,5.282,2.752,5.282-1.232,5.282-2.752" transform="translate(-213.97 -59.407)" fill="#af0808"/>
                </g>
              </g>
            </g>
            <g id="Grupo_1176323" data-name="Grupo 1176323" transform="translate(145.674 46.77)" opacity="0.32">
              <g id="Grupo_1176322" data-name="Grupo 1176322">
                <g id="Grupo_1176321" data-name="Grupo 1176321" clip-path="url(#clip-path-10)">
                  <path id="Trazado_1033959" data-name="Trazado 1033959" d="M185.035,62.158c0-1.519,2.364-2.752,5.281-2.752s5.282,1.232,5.282,2.752-2.364,2.752-5.282,2.752-5.281-1.232-5.281-2.752" transform="translate(-185.035 -59.407)" fill="#af0808"/>
                </g>
              </g>
            </g>
            <g id="Grupo_1176326" data-name="Grupo 1176326" transform="translate(146.857 13.85)" opacity="0.17" style="mix-blend-mode: overlay;isolation: isolate">
              <g id="Grupo_1176325" data-name="Grupo 1176325">
                <g id="Grupo_1176324" data-name="Grupo 1176324" clip-path="url(#clip-path-12)">
                  <path id="Trazado_1033960" data-name="Trazado 1033960" d="M218.689,17.592c-1.108,3.4-3.73,9.629-8.392,11-4.835.636,1.782-3.563,1.273-8.272C200.2,26.754,192.2,29.738,186.783,30.849c-.481,11.813-2.576,42.926,23.418,40.007,3.823-2.286,5.951-5.916,8.082-9.961,3.309-6.279,4.868-22.962,2.832-36.83a15.948,15.948,0,0,0-2.426-6.473" transform="translate(-186.538 -17.592)" fill="#fff"/>
                </g>
              </g>
            </g>
            <path id="Trazado_1033961" data-name="Trazado 1033961" d="M193.119,156A90.816,90.816,0,0,0,160.8,141.978v6.948Z" transform="translate(-34.206 -30.202)" fill="#fff2e3"/>
            <path id="Trazado_1033962" data-name="Trazado 1033962" d="M191.814,158.6v-1.842s-24.656-10.253-37.148-11.2l3.064,31.7,34.084-9.428Z" transform="translate(-32.901 -30.965)" fill="#d1beae"/>
            <path id="Trazado_1033963" data-name="Trazado 1033963" d="M209.353,159.785a4.74,4.74,0,0,1-7.5,0v1.842s.524,6.408,3.318,6.408,4.184-6.408,4.184-6.408Z" transform="translate(-42.938 -33.99)" fill="#ececec"/>
            <path id="Trazado_1033964" data-name="Trazado 1033964" d="M211.38,156A90.808,90.808,0,0,1,243.7,141.978v6.948Z" transform="translate(-44.965 -30.202)" fill="#fff2e3"/>
            <path id="Trazado_1033965" data-name="Trazado 1033965" d="M211.38,158.6v-1.842s24.655-10.253,37.148-11.2l-3.064,31.7-34.084-9.428Z" transform="translate(-44.965 -30.965)" fill="#d1beae"/>
            <path id="Trazado_1033966" data-name="Trazado 1033966" d="M205.639,165.464h-.075a3.714,3.714,0,0,1-3.695-3.34h-.019V210.8a3.714,3.714,0,0,0,3.714,3.714h.075a3.714,3.714,0,0,0,3.714-3.714V162.124h-.02a3.712,3.712,0,0,1-3.694,3.34" transform="translate(-42.938 -34.487)" fill="#e5ac3c"/>
            <path id="Trazado_1033967" data-name="Trazado 1033967" d="M211.38,159.274l43.728-10.548-8.438,48.52-35.29,10.7Z" transform="translate(-44.965 -31.637)" fill="#ffcb57"/>
            <path id="Trazado_1033968" data-name="Trazado 1033968" d="M190.036,159.274l-43.728-10.548,8.438,48.52,35.29,10.7Z" transform="translate(-31.123 -31.637)" fill="#bc8d2f"/>
            <path id="Trazado_1033969" data-name="Trazado 1033969" d="M255.107,148.394l-1.136-1.231L211.38,157.1v1.842Z" transform="translate(-44.965 -31.305)" fill="#f9d180"/>
            <path id="Trazado_1033970" data-name="Trazado 1033970" d="M146.309,148.394l1.136-1.231,42.592,9.936v1.842Z" transform="translate(-31.123 -31.305)" fill="#f9d180"/>
            <path id="Trazado_1033971" data-name="Trazado 1033971" d="M230.315,187.441s3.7-13.234,3.289-19.224c-2.826,3.681-7.482,2.617-7.482,2.617l-7.921-10.69-.35,11.263-2.625-5.217s-2.592,11.58-2.085,14.177A41.085,41.085,0,0,0,219,195.2a38.022,38.022,0,0,1,5.036,11.445l4.934-1.5Z" transform="translate(-45.326 -34.066)" fill="#2c4556"/>
            <path id="Trazado_1033972" data-name="Trazado 1033972" d="M262.274,239.55s-1.789,11.708-10.5,11.58-14.058-9.544-17.493-21-9.926-32.7-13.743-36.649-8.271-11.2-9.035-16.161,1.272-3.945,1.272-3.945-2.163-6.235.128-6.745c-.891-6.745-.382-8.152,1.018-7.385s7.253,13.081,7.253,13.081-4.326-12.822-3.181-14.6,2.291-.645,3.691,1.523,5.981,12.348,5.981,12.348,2.672.89,3.69-1.464,3.563-4.263,4.835-4.263,2.5,1.909.615,4.263-2.4,10.88-2.141,12.789,1.97,11.064,6.712,16.794,19.63,26.217,20.9,39.833" transform="translate(-44.954 -33.365)" fill="#e48464"/>
            <path id="Trazado_1033973" data-name="Trazado 1033973" d="M213.324,169.278s2.576,7.476,3.912,10.149" transform="translate(-45.379 -36.009)" fill="none" stroke="#a0533f" stroke-miterlimit="10" stroke-width="0.75"/>
            <path id="Trazado_1033974" data-name="Trazado 1033974" d="M213.162,177.845a40.473,40.473,0,0,0,2.084,7.412" transform="translate(-45.344 -37.832)" fill="none" stroke="#a0533f" stroke-miterlimit="10" stroke-width="0.75"/>
            <path id="Trazado_1033975" data-name="Trazado 1033975" d="M250.15,212.187c.246-.575,10.415,11.764,15.1,23.321" transform="translate(-53.213 -45.133)" fill="none" stroke="#a0533f" stroke-miterlimit="10" stroke-width="1"/>
            <path id="Trazado_1033976" data-name="Trazado 1033976" d="M257.372,260.582a12.242,12.242,0,0,0-9.7,4.772c3.04,4.716,6.893,7.771,11.83,7.843,4.538.067,7.195-3.077,8.7-6.106a12.269,12.269,0,0,0-10.833-6.508" transform="translate(-52.686 -55.432)" fill="#c6684f"/>
            <path id="Trazado_1033977" data-name="Trazado 1033977" d="M137.461,186.338s11.724,16.675,14.651,25.883" transform="translate(-29.241 -39.638)" fill="none" stroke="#a0533f" stroke-miterlimit="10" stroke-width="1"/>
            <path id="Trazado_1033978" data-name="Trazado 1033978" d="M140.677,234.985a12.309,12.309,0,0,0-7.591,2.616,54.183,54.183,0,0,0,10.025,10.605c2.994,2.636,5.165,3.625,9.354,2.914a12.372,12.372,0,0,0-11.789-16.136" transform="translate(-28.31 -49.987)" fill="#c6684f"/>
            <path id="Trazado_1033979" data-name="Trazado 1033979" d="M233.315,261.181s14.149,46.119,1.3,80.478" transform="translate(-49.631 -55.559)" fill="none" stroke="#fff2e3" stroke-miterlimit="10" stroke-width="0.97"/>
            <path id="Trazado_1033980" data-name="Trazado 1033980" d="M174.215,12c-2.111,3.354-2.758,8.04-3.262,13.3a32.344,32.344,0,0,1,9.939-4.906c10.116-3.357,15.1-14.6,17.044-20.372C187.119-.362,178.927,4.512,174.215,12" transform="translate(-36.366 0)" fill="#541610"/>
            <path id="Trazado_1033981" data-name="Trazado 1033981" d="M0,273.132l2.4-1.558h67.19l29.014,56.795H37.336Z" transform="translate(0 -57.77)" fill="#b2b2b2"/>
            <rect id="Rectángulo_415739" data-name="Rectángulo 415739" width="103.356" height="6.223" transform="translate(27.918 270.599)" fill="#cecece"/>
            <path id="Trazado_1033982" data-name="Trazado 1033982" d="M68.208,273.553H0L27.919,328.79H96.126Z" transform="translate(0 -58.191)" fill="#cecece"/>
            <path id="Trazado_1033983" data-name="Trazado 1033983" d="M62.309,312.172c-2.67,3.663-8.461,3.991-12.933.732s-5.934-8.872-3.265-12.536,8.459-3.991,12.932-.731,5.936,8.871,3.266,12.535" transform="translate(-9.525 -63.262)" fill="#fff"/>
            <line id="Línea_910" data-name="Línea 910" x2="70.689" transform="translate(27.919 270.599)" fill="none" stroke="#b2b2b2" stroke-miterlimit="10" stroke-width="0.97"/>
            <rect id="Rectángulo_415740" data-name="Rectángulo 415740" width="48.498" height="6.223" transform="translate(98.608 270.599)" fill="#b2b2b2"/>
            <rect id="Rectángulo_415741" data-name="Rectángulo 415741" width="14.03" height="2.672" transform="translate(72.839 272.499)" fill="#b2b2b2"/>
            <rect id="Rectángulo_415742" data-name="Rectángulo 415742" width="7.349" height="2.672" transform="translate(101.948 272.499)" fill="#7a7774"/>
            <rect id="Rectángulo_415743" data-name="Rectángulo 415743" width="7.349" height="2.672" transform="translate(113.21 272.499)" fill="#7a7774"/>
            <path id="Trazado_1033984" data-name="Trazado 1033984" d="M273.677,345.912h36.109a10.3,10.3,0,1,0,0-20.6H273.677Z" transform="translate(-58.217 -69.201)" fill="#af1018"/>
            <path id="Trazado_1033985" data-name="Trazado 1033985" d="M273.677,345.912h36.109a10.3,10.3,0,1,0,0-20.6H273.677Z" transform="translate(-58.217 -69.201)" fill="#db5e1f"/>
            <path id="Trazado_1033986" data-name="Trazado 1033986" d="M262.247,344.911H217.026V328.556h45.221a7.761,7.761,0,0,1,7.761,7.761v.833a7.761,7.761,0,0,1-7.761,7.761" transform="translate(-46.166 -69.891)" fill="#fff"/>
            <path id="Trazado_1033987" data-name="Trazado 1033987" d="M262.247,328.556a7.76,7.76,0,0,1,7.76,7.744,7.748,7.748,0,0,0-7.576-6.131H217.026v-1.614Z" transform="translate(-46.166 -69.891)" fill="#d6c7b4"/>
            <g id="Grupo_1176329" data-name="Grupo 1176329" transform="translate(233.46 256.111)" opacity="0.35">
              <g id="Grupo_1176328" data-name="Grupo 1176328">
                <g id="Grupo_1176327" data-name="Grupo 1176327" clip-path="url(#clip-path-13)">
                  <path id="Trazado_1033988" data-name="Trazado 1033988" d="M306.841,335.612h0a10.3,10.3,0,0,0-10.3-10.3h6.81a10.3,10.3,0,0,1,0,20.6h-6.81a10.3,10.3,0,0,0,10.3-10.3" transform="translate(-296.541 -325.312)" fill="#590a06"/>
                </g>
              </g>
            </g>
            <path id="Trazado_1033989" data-name="Trazado 1033989" d="M222.213,341.271l1.9-.074c1.207-.031,2.932-.106,5-.141s4.484-.1,7.071-.117l8.107-.051,8.106.05c2.587.013,5,.086,7.071.117s3.794.11,5,.141l1.9.075-1.9.075c-1.208.031-2.933.107-5,.141s-4.484.1-7.071.117l-8.106.05-8.107-.051c-2.587-.015-5-.086-7.071-.117s-3.795-.109-5-.141l-1.9-.074" transform="translate(-47.27 -72.515)" fill="#d3cabe"/>
            <path id="Trazado_1033990" data-name="Trazado 1033990" d="M217.364,338.84l1.9-.074c1.207-.031,2.932-.106,5-.141s4.484-.1,7.071-.117l8.107-.05,8.106.05c2.587.013,5,.086,7.071.117s3.795.11,5,.141l1.9.075-1.9.075c-1.207.031-2.932.107-5,.141s-4.484.1-7.071.117l-8.106.05-8.107-.051c-2.587-.015-5-.086-7.071-.117s-3.795-.109-5-.141l-1.9-.074" transform="translate(-46.238 -71.997)" fill="#d3cabe"/>
            <path id="Trazado_1033991" data-name="Trazado 1033991" d="M219.721,334.24l1.9-.074c1.207-.031,2.932-.106,5-.141s4.484-.1,7.071-.117l8.106-.051,8.106.05c2.587.013,5,.086,7.071.117s3.794.11,5,.141l1.9.075-1.9.075c-1.208.031-2.933.107-5,.141s-4.484.1-7.071.117l-8.106.05-8.106-.05c-2.588-.015-5-.086-7.071-.117s-3.795-.109-5-.141l-1.9-.074" transform="translate(-46.74 -71.019)" fill="#d3cabe"/>
            <path id="Trazado_1033992" data-name="Trazado 1033992" d="M260.361,343.358a7.746,7.746,0,1,0,0-15.492H214.878v-2.554h45.7a10.3,10.3,0,0,1,0,20.6h-45.7v-2.554Z" transform="translate(-45.709 -69.201)" fill="#f27740"/>
            <g id="Grupo_1176332" data-name="Grupo 1176332" transform="translate(231.2 256.111)" opacity="0.2" style="mix-blend-mode: multiply;isolation: isolate">
              <g id="Grupo_1176331" data-name="Grupo 1176331">
                <g id="Grupo_1176330" data-name="Grupo 1176330" clip-path="url(#clip-path-14)">
                  <path id="Trazado_1033993" data-name="Trazado 1033993" d="M293.67,325.312h20.369a10.3,10.3,0,1,1,0,20.6c0-19.138-20.369-20.6-20.369-20.6" transform="translate(-293.67 -325.312)" fill="#560410"/>
                </g>
              </g>
            </g>
            <g id="Grupo_1176335" data-name="Grupo 1176335" transform="translate(182.007 256.111)" opacity="0.16" style="mix-blend-mode: multiply;isolation: isolate">
              <g id="Grupo_1176334" data-name="Grupo 1176334">
                <g id="Grupo_1176333" data-name="Grupo 1176333" clip-path="url(#clip-path-15)">
                  <path id="Trazado_1033994" data-name="Trazado 1033994" d="M234.981,325.312h29.062c.2,0,.4.007.6.018v-.018h36.109a10.3,10.3,0,1,1,0,20.6H264.638v-.018c-.2.011-.4.018-.6.018l-32.857-20.256Z" transform="translate(-231.186 -325.312)" fill="#1b2942"/>
                </g>
              </g>
            </g>
            <path id="Trazado_1033995" data-name="Trazado 1033995" d="M269.931,303.323h25.5a7.274,7.274,0,1,0,0-14.548h-25.5Z" transform="translate(-57.42 -61.429)" fill="#af1018"/>
            <path id="Trazado_1033996" data-name="Trazado 1033996" d="M269.931,303.323h25.5a7.274,7.274,0,1,0,0-14.548h-25.5Z" transform="translate(-57.42 -61.429)" fill="#6fb590"/>
            <path id="Trazado_1033997" data-name="Trazado 1033997" d="M261.859,302.616H229.923v-11.55h31.936a5.481,5.481,0,0,1,5.481,5.481v.588a5.481,5.481,0,0,1-5.481,5.481" transform="translate(-48.91 -61.916)" fill="#fff"/>
            <path id="Trazado_1033998" data-name="Trazado 1033998" d="M261.859,291.065a5.48,5.48,0,0,1,5.48,5.469,5.471,5.471,0,0,0-5.35-4.329H229.923v-1.14Z" transform="translate(-48.91 -61.916)" fill="#d6c7b4"/>
            <g id="Grupo_1176338" data-name="Grupo 1176338" transform="translate(218.292 233.407)" opacity="0.49" style="mix-blend-mode: multiply;isolation: isolate">
              <g id="Grupo_1176337" data-name="Grupo 1176337">
                <g id="Grupo_1176336" data-name="Grupo 1176336" clip-path="url(#clip-path-16)">
                  <path id="Trazado_1033999" data-name="Trazado 1033999" d="M304.268,297.686a7.341,7.341,0,0,1-.134,1.377h-26.86v-2.59h26.885a7.249,7.249,0,0,1,.109,1.213" transform="translate(-277.274 -296.473)" fill="#1b2942"/>
                </g>
              </g>
            </g>
            <path id="Trazado_1034000" data-name="Trazado 1034000" d="M260.527,301.519a5.47,5.47,0,0,0,0-10.941H228.406v-1.8h32.272a7.274,7.274,0,0,1,0,14.548H228.406v-1.8Z" transform="translate(-48.587 -61.429)" fill="#2d4f3b"/>
            <g id="Grupo_1176341" data-name="Grupo 1176341" transform="translate(223.627 227.346)" opacity="0.49" style="mix-blend-mode: multiply;isolation: isolate">
              <g id="Grupo_1176340" data-name="Grupo 1176340">
                <g id="Grupo_1176339" data-name="Grupo 1176339" clip-path="url(#clip-path-17)">
                  <path id="Trazado_1034001" data-name="Trazado 1034001" d="M284.051,288.774h14.384a7.274,7.274,0,1,1,0,14.548c0-13.515-14.384-14.548-14.384-14.548" transform="translate(-284.051 -288.774)" fill="#1b2942"/>
                </g>
              </g>
            </g>
            <path id="Trazado_1034002" data-name="Trazado 1034002" d="M234.615,301.62l1.261-.086c.8-.036,1.949-.123,3.325-.163s2.981-.113,4.7-.142,3.555-.044,5.389-.054c1.834.009,3.669.015,5.389.053s3.325.1,4.7.141,2.522.128,3.325.164l1.261.087-1.261.087c-.8.036-1.949.124-3.325.164s-2.981.115-4.7.141-3.555.044-5.389.053c-1.834-.009-3.67-.016-5.389-.054s-3.325-.1-4.7-.141-2.523-.128-3.325-.164l-1.261-.086" transform="translate(-49.908 -64.067)" fill="#d3cabe"/>
            <path id="Trazado_1034003" data-name="Trazado 1034003" d="M231.842,298.341l1.261-.037,3.325-.087,4.7-.068,5.389-.029,5.389.029,4.7.068c2.752.06,4.587.125,4.587.125s-1.834.065-4.587.125l-4.7.068-5.389.029-5.389-.03-4.7-.068-3.325-.087-1.261-.037" transform="translate(-49.318 -63.417)" fill="#d3cabe"/>
            <path id="Trazado_1034004" data-name="Trazado 1034004" d="M253.263,321.581H228.148a7.164,7.164,0,0,1,0-14.328h25.114Z" transform="translate(-47.009 -65.36)" fill="#af1018"/>
            <path id="Trazado_1034005" data-name="Trazado 1034005" d="M253.263,321.581H228.148a7.164,7.164,0,0,1,0-14.328h25.114Z" transform="translate(-47.009 -65.36)" fill="#fdb03e"/>
            <path id="Trazado_1034006" data-name="Trazado 1034006" d="M259.978,320.885h31.451V309.51H259.978a5.4,5.4,0,0,0-5.4,5.4v.579a5.4,5.4,0,0,0,5.4,5.4" transform="translate(-54.155 -65.84)" fill="#fff"/>
            <path id="Trazado_1034007" data-name="Trazado 1034007" d="M259.978,309.51a5.4,5.4,0,0,0-5.4,5.386,5.389,5.389,0,0,1,5.269-4.263h31.579V309.51Z" transform="translate(-54.155 -65.84)" fill="#d6c7b4"/>
            <path id="Trazado_1034008" data-name="Trazado 1034008" d="M231.711,314.417h0a7.163,7.163,0,0,1,7.163-7.163h-4.736a7.163,7.163,0,1,0,0,14.327h4.736a7.164,7.164,0,0,1-7.163-7.163" transform="translate(-48.283 -65.36)" fill="#bc8d2f"/>
            <path id="Trazado_1034009" data-name="Trazado 1034009" d="M260.723,319.8a5.387,5.387,0,0,1,0-10.775h31.633v-1.776H260.574a7.163,7.163,0,1,0,0,14.327h31.782V319.8Z" transform="translate(-53.906 -65.36)" fill="#bc8d2f"/>
            <g id="Grupo_1176344" data-name="Grupo 1176344" transform="translate(173.976 241.894)" opacity="0.2" style="mix-blend-mode: overlay;isolation: isolate">
              <g id="Grupo_1176343" data-name="Grupo 1176343">
                <g id="Grupo_1176342" data-name="Grupo 1176342" clip-path="url(#clip-path-18)">
                  <path id="Trazado_1034010" data-name="Trazado 1034010" d="M242.315,307.254H228.148a7.164,7.164,0,0,0,0,14.328c0-13.31,14.167-14.328,14.167-14.328" transform="translate(-220.985 -307.254)" fill="#fefefe"/>
                </g>
              </g>
            </g>
            <path id="Trazado_1034011" data-name="Trazado 1034011" d="M260.243,319.992l1.312-.067c.836-.028,2.029-.1,3.462-.128s3.1-.093,4.893-.106l5.609-.046,5.609.046c1.79.011,3.461.077,4.894.105s2.625.1,3.461.128l1.312.068-1.312.068c-.836.028-2.029.1-3.461.128s-3.1.094-4.894.105l-5.609.046-5.609-.046c-1.79-.013-3.461-.078-4.893-.106s-2.626-.1-3.462-.128l-1.312-.067" transform="translate(-55.36 -67.996)" fill="#d3cabe"/>
            <path id="Trazado_1034012" data-name="Trazado 1034012" d="M257.87,318.1l1.313-.067c.835-.028,2.029-.1,3.461-.128s3.1-.093,4.893-.106l5.609-.046,5.609.046c1.79.011,3.461.077,4.894.105s2.626.1,3.461.128l1.312.068-1.312.068c-.835.028-2.029.1-3.461.128s-3.1.094-4.894.105l-5.609.046-5.609-.046c-1.79-.013-3.461-.078-4.893-.106s-2.626-.1-3.461-.128l-1.313-.067" transform="translate(-54.855 -67.593)" fill="#d3cabe"/>
            <path id="Trazado_1034013" data-name="Trazado 1034013" d="M261.364,313.576l1.313-.067c.835-.028,2.029-.1,3.461-.128s3.1-.093,4.893-.106l5.609-.046,5.609.046c1.79.011,3.461.077,4.893.105s2.626.1,3.462.128l1.312.068-1.312.068c-.835.028-2.029.1-3.462.128s-3.1.094-4.893.105l-5.609.046-5.609-.046c-1.79-.013-3.461-.078-4.893-.106s-2.626-.1-3.461-.128l-1.313-.067" transform="translate(-55.598 -66.631)" fill="#d3cabe"/>
            <g id="Grupo_1176347" data-name="Grupo 1176347" transform="translate(210.027 241.894)" opacity="0.16" style="mix-blend-mode: multiply;isolation: isolate">
              <g id="Grupo_1176346" data-name="Grupo 1176346">
                <g id="Grupo_1176345" data-name="Grupo 1176345" clip-path="url(#clip-path-19)">
                  <path id="Trazado_1034014" data-name="Trazado 1034014" d="M295.2,307.254v1.776h-1.176V319.8H295.2v1.777h-4.768l-23.655-14.328Z" transform="translate(-266.776 -307.254)" fill="#1b2942"/>
                </g>
              </g>
            </g>
            <rect id="Rectángulo_415751" data-name="Rectángulo 415751" width="4.251" height="6.418" transform="translate(186.468 232.94)" fill="#f27740"/>
            <path id="Trazado_1034015" data-name="Trazado 1034015" d="M242.208,295.834s-.475.055-1.186.1c-.356.014-.771.046-1.216.053l-1.394.023-1.394-.023c-.445-.006-.86-.039-1.216-.053-.712-.042-1.186-.1-1.186-.1s.475-.056,1.186-.1c.356-.014.771-.047,1.216-.053l1.394-.023,1.394.023c.445.007.86.039,1.216.053.712.043,1.186.1,1.186.1" transform="translate(-49.908 -62.894)" fill="#d3cabe"/>
            <path id="Trazado_1034016" data-name="Trazado 1034016" d="M376.774,196.222s-28.77,35.016-10.335,76.46c31.995-27.695,10.82-62.789,10.335-76.46" transform="translate(-76.638 -41.741)" fill="#599172"/>
            <path id="Trazado_1034017" data-name="Trazado 1034017" d="M378.291,196.222s-13.777,49.37-10.335,76.46" transform="translate(-78.155 -41.741)" fill="none" stroke="#427824" stroke-miterlimit="10" stroke-width="1"/>
            <path id="Trazado_1034018" data-name="Trazado 1034018" d="M371.873,234.344s6.953-5.928,13.086-6.987" transform="translate(-79.106 -48.364)" fill="none" stroke="#427824" stroke-miterlimit="10" stroke-width="1"/>
            <path id="Trazado_1034019" data-name="Trazado 1034019" d="M368.027,264.235a26.219,26.219,0,0,1,17.284-9.749" transform="translate(-78.288 -54.135)" fill="none" stroke="#427824" stroke-miterlimit="10" stroke-width="1"/>
            <path id="Trazado_1034020" data-name="Trazado 1034020" d="M368.308,247.405s-2.053-4.848-6.543-6.826" transform="translate(-76.956 -51.177)" fill="none" stroke="#427824" stroke-miterlimit="10" stroke-width="1"/>
            <path id="Trazado_1034021" data-name="Trazado 1034021" d="M374.02,220.464s-1.52-5.181-3.587-6.414" transform="translate(-78.8 -45.533)" fill="none" stroke="#427824" stroke-miterlimit="10" stroke-width="1"/>
            <path id="Trazado_1034022" data-name="Trazado 1034022" d="M338.545,198.863s-11.8,43.756,22.067,73.932c17.752-38.413-16-61.673-22.067-73.932" transform="translate(-71.593 -42.303)" fill="#6fb590"/>
            <path id="Trazado_1034023" data-name="Trazado 1034023" d="M339.083,198.863s7.777,50.663,22.067,73.932" transform="translate(-72.131 -42.303)" fill="none" stroke="#448260" stroke-miterlimit="10" stroke-width="1"/>
            <path id="Trazado_1034024" data-name="Trazado 1034024" d="M347.03,236s3.895-8.266,9.047-11.756" transform="translate(-73.821 -47.702)" fill="none" stroke="#448260" stroke-miterlimit="10" stroke-width="1"/>
            <path id="Trazado_1034025" data-name="Trazado 1034025" d="M356.141,264.355a26.221,26.221,0,0,1,11.736-16" transform="translate(-75.759 -52.831)" fill="none" stroke="#448260" stroke-miterlimit="10" stroke-width="1"/>
            <path id="Trazado_1034026" data-name="Trazado 1034026" d="M348.382,250.826s-3.867-3.572-8.773-3.526" transform="translate(-72.243 -52.606)" fill="none" stroke="#448260" stroke-miterlimit="10" stroke-width="1"/>
            <path id="Trazado_1034027" data-name="Trazado 1034027" d="M342.493,223.924s-3.519-4.1-5.91-4.368" transform="translate(-71.599 -46.705)" fill="none" stroke="#448260" stroke-miterlimit="10" stroke-width="1"/>
            <path id="Trazado_1034028" data-name="Trazado 1034028" d="M409.875,217.194s7.824-11.041,13-6.719-3.591,10.292-13,6.719" transform="translate(-87.19 -44.559)" fill="#417556"/>
            <path id="Trazado_1034029" data-name="Trazado 1034029" d="M398.4,250.97s.329-13.528,7.034-12.829,2.765,10.543-7.034,12.829" transform="translate(-84.749 -50.653)" fill="#417556"/>
            <path id="Trazado_1034030" data-name="Trazado 1034030" d="M396.256,212.836s.329-13.528,7.034-12.829,2.765,10.543-7.034,12.829" transform="translate(-84.293 -42.54)" fill="#417556"/>
            <path id="Trazado_1034031" data-name="Trazado 1034031" d="M380.2,263.343s-11.785-6.651-8.016-12.241,10.605,2.517,8.016,12.241" transform="translate(-79.015 -53.026)" fill="#417556"/>
            <path id="Trazado_1034032" data-name="Trazado 1034032" d="M379.919,280.857s13.072-8.344,7.907-30.279,15.221-31.472,19.709-33.265" transform="translate(-80.817 -46.227)" fill="none" stroke="#133f1a" stroke-linecap="round" stroke-miterlimit="10" stroke-width="2"/>
            <path id="Trazado_1034033" data-name="Trazado 1034033" d="M394.951,227.528s-.794-9.687,3.959-16.11" transform="translate(-84.004 -44.973)" fill="none" stroke="#133f1a" stroke-linecap="round" stroke-miterlimit="10" stroke-width="2"/>
            <path id="Trazado_1034034" data-name="Trazado 1034034" d="M389.964,257.036s7.727-2.124,10.605-9.362" transform="translate(-82.954 -52.686)" fill="none" stroke="#133f1a" stroke-linecap="round" stroke-miterlimit="10" stroke-width="2"/>
            <path id="Trazado_1034035" data-name="Trazado 1034035" d="M388.621,273.376s-7.227-4.485-9.326-15.208" transform="translate(-80.685 -54.918)" fill="none" stroke="#133f1a" stroke-linecap="round" stroke-miterlimit="10" stroke-width="2"/>
            <path id="Trazado_1034036" data-name="Trazado 1034036" d="M363.013,285.637H342.585s3.149,36.952,11.114,51.947h18.629c7.965-14.994,11.114-51.947,11.114-51.947Z" transform="translate(-72.876 -60.761)" fill="#2c4556"/>
            <g id="Grupo_1176350" data-name="Grupo 1176350" transform="translate(269.709 224.875)" opacity="0.45">
              <g id="Grupo_1176349" data-name="Grupo 1176349">
                <g id="Grupo_1176348" data-name="Grupo 1176348" clip-path="url(#clip-path-20)">
                  <path id="Trazado_1034037" data-name="Trazado 1034037" d="M342.585,285.637s3.149,36.952,11.114,51.947h9.479c-7.965-14.994-11.114-51.947-11.114-51.947Z" transform="translate(-342.585 -285.637)" fill="#1b2e38"/>
                </g>
              </g>
            </g>
            <path id="Trazado_1034038" data-name="Trazado 1034038" d="M342.585,285.637s.259,3.04.816,7.724h39.224c.557-4.684.816-7.724.816-7.724H342.585Z" transform="translate(-72.876 -60.761)" fill="#4b72b7"/>
            <path id="Trazado_1034039" data-name="Trazado 1034039" d="M323.22,357.046a5.426,5.426,0,0,1-5.426,5.426H27.311a5.426,5.426,0,1,1,0-10.852H317.794a5.426,5.426,0,0,1,5.426,5.426" transform="translate(-4.655 -74.798)" fill="#4b72b7"/>
            <g id="Grupo_1176353" data-name="Grupo 1176353" transform="translate(17.23 276.822)" opacity="0.52">
              <g id="Grupo_1176352" data-name="Grupo 1176352">
                <g id="Grupo_1176351" data-name="Grupo 1176351" clip-path="url(#clip-path-21)">
                  <path id="Trazado_1034040" data-name="Trazado 1034040" d="M144.741,357.046a5.426,5.426,0,0,1-5.426,5.426h-112a5.426,5.426,0,1,1,0-10.852h112a5.426,5.426,0,0,1,5.426,5.426" transform="translate(-21.885 -351.62)" fill="#2c4556"/>
                </g>
              </g>
            </g>
            <path id="Trazado_1034878" data-name="Trazado 1034878" d="M6.75.225A5.371,5.371,0,0,1,3.825-.562,5.2,5.2,0,0,1,1.888-2.8,8.052,8.052,0,0,1,1.2-6.275a8.116,8.116,0,0,1,.688-3.5A5.123,5.123,0,0,1,3.825-12a5.437,5.437,0,0,1,2.925-.775,5.007,5.007,0,0,1,2.937.863,4.056,4.056,0,0,1,1.637,2.337h-.3L11.3-12.55h1.95q-.075.725-.138,1.463T13.05-9.65V0H11.025V-2.95H11.3A3.984,3.984,0,0,1,9.65-.625,5.033,5.033,0,0,1,6.75.225Zm.4-1.65A3.543,3.543,0,0,0,10-2.663a5.447,5.447,0,0,0,1.05-3.613A5.49,5.49,0,0,0,10-9.913,3.543,3.543,0,0,0,7.15-11.15,3.552,3.552,0,0,0,4.313-9.913,5.445,5.445,0,0,0,3.25-6.275,5.4,5.4,0,0,0,4.313-2.663,3.552,3.552,0,0,0,7.15-1.425ZM23.278.225a4.95,4.95,0,0,1-2.925-.863A4.194,4.194,0,0,1,18.7-3h.275V0h-2V-18.4H19v8.775h-.3a4.132,4.132,0,0,1,1.65-2.3,5,5,0,0,1,2.925-.85,5.355,5.355,0,0,1,2.938.788A5.234,5.234,0,0,1,28.14-9.75a8.052,8.052,0,0,1,.688,3.475,7.928,7.928,0,0,1-.7,3.475A5.316,5.316,0,0,1,26.19-.562,5.308,5.308,0,0,1,23.278.225Zm-.425-1.65A3.605,3.605,0,0,0,25.7-2.65a5.351,5.351,0,0,0,1.075-3.625A5.4,5.4,0,0,0,25.7-9.913a3.589,3.589,0,0,0-2.85-1.238,3.552,3.552,0,0,0-2.838,1.238,5.445,5.445,0,0,0-1.062,3.637,5.4,5.4,0,0,0,1.063,3.613A3.552,3.552,0,0,0,22.853-1.425Zm14.4,1.65a6.23,6.23,0,0,1-3.213-.8,5.34,5.34,0,0,1-2.1-2.275,7.743,7.743,0,0,1-.737-3.5,7.461,7.461,0,0,1,.75-3.488,5.15,5.15,0,0,1,2.112-2.187,6.506,6.506,0,0,1,3.188-.75,6.627,6.627,0,0,1,2.337.425,5.028,5.028,0,0,1,1.888,1.2L40.755-9.7a4.979,4.979,0,0,0-1.637-1.075,4.717,4.717,0,0,0-1.737-.35A3.812,3.812,0,0,0,34.355-9.9,5.267,5.267,0,0,0,33.28-6.325a5.428,5.428,0,0,0,1.075,3.6A3.739,3.739,0,0,0,37.38-1.45a4.97,4.97,0,0,0,1.712-.325A4.736,4.736,0,0,0,40.755-2.85l.725,1.425A5.09,5.09,0,0,1,39.555-.2,6.6,6.6,0,0,1,37.255.225Z" transform="translate(45 66.005)" fill="#d3cabe"/>
          </g>
        </g>
      </g>
    </g>
  </g>
</svg>
