<svg xmlns="http://www.w3.org/2000/svg" xmlns:xlink="http://www.w3.org/1999/xlink" width="113" height="113" viewBox="0 0 113 113">
  <defs>
    <filter id="Trazado_982547" x="0" y="0" width="113" height="113" filterUnits="userSpaceOnUse">
      <feOffset dy="3" input="SourceAlpha"/>
      <feGaussianBlur stdDeviation="3" result="blur"/>
      <feFlood flood-opacity="0.161"/>
      <feComposite operator="in" in2="blur"/>
      <feComposite in="SourceGraphic"/>
    </filter>
    <clipPath id="clip-path">
      <path id="path7065" d="M0-682.665H60.11v60.11H0Z" transform="translate(0 682.665)"/>
    </clipPath>
  </defs>
  <g id="Grupo_1176682" data-name="Grupo 1176682" transform="translate(-1216.5 -1298.145)">
    <g id="Grupo_1171049" data-name="Grupo 1171049" transform="translate(1225.5 1304.145)">
      <g id="Grupo_1148525" data-name="Grupo 1148525" transform="translate(0)">
        <g transform="matrix(1, 0, 0, 1, -9, -6)" filter="url(#Trazado_982547)">
          <g id="Trazado_982547-2" data-name="Trazado 982547" transform="translate(9 6)" fill="#f4fdfe">
            <path d="M 47.5 93.5 C 41.28937149047852 93.5 35.26533508300781 92.28397369384766 29.59518623352051 89.88570404052734 C 24.11771965026855 87.56893157958984 19.19813346862793 84.25196075439453 14.97309303283691 80.02691650390625 C 10.74804019927979 75.80186462402344 7.431066513061523 70.88229370117188 5.114293098449707 65.40481567382812 C 2.716026782989502 59.73468017578125 1.5 53.71062850952148 1.5 47.5 C 1.5 41.28937149047852 2.716026782989502 35.26533508300781 5.114293098449707 29.59518623352051 C 7.431066513061523 24.11771965026855 10.74804019927979 19.19813346862793 14.97309303283691 14.97309303283691 C 19.19813346862793 10.74804019927979 24.11771965026855 7.431066513061523 29.59518623352051 5.114293098449707 C 35.26533508300781 2.716026782989502 41.28937149047852 1.5 47.5 1.5 C 53.71062850952148 1.5 59.73468017578125 2.716026782989502 65.40481567382812 5.114293098449707 C 70.88229370117188 7.431066513061523 75.80186462402344 10.74804019927979 80.02691650390625 14.97309303283691 C 84.25196075439453 19.19813346862793 87.56893157958984 24.11771965026855 89.88570404052734 29.59518623352051 C 92.28397369384766 35.26533508300781 93.5 41.28937149047852 93.5 47.5 C 93.5 53.71062850952148 92.28397369384766 59.73468017578125 89.88570404052734 65.40481567382812 C 87.56893157958984 70.88229370117188 84.25196075439453 75.80186462402344 80.02691650390625 80.02691650390625 C 75.80186462402344 84.25196075439453 70.88229370117188 87.56893157958984 65.40481567382812 89.88570404052734 C 59.73468017578125 92.28397369384766 53.71062850952148 93.5 47.5 93.5 Z" stroke="none"/>
            <path d="M 47.5 3 C 41.49121475219727 3 35.66376876831055 4.176155090332031 30.17950439453125 6.495796203613281 C 24.88084411621094 8.736953735351562 20.12152099609375 11.94598388671875 16.03375244140625 16.03375244140625 C 11.94598388671875 20.12152099609375 8.736953735351562 24.88084411621094 6.495796203613281 30.17950439453125 C 4.176155090332031 35.66376876831055 3 41.49121475219727 3 47.5 C 3 53.50878524780273 4.176155090332031 59.33623123168945 6.495796203613281 64.82049560546875 C 8.736953735351562 70.11915588378906 11.94598388671875 74.87847900390625 16.03375244140625 78.96624755859375 C 20.12152099609375 83.05401611328125 24.88084411621094 86.26304626464844 30.17950439453125 88.50419616699219 C 35.66376876831055 90.82384490966797 41.49121475219727 92 47.5 92 C 53.50878524780273 92 59.33623123168945 90.82384490966797 64.82049560546875 88.50419616699219 C 70.11915588378906 86.26304626464844 74.87847900390625 83.05401611328125 78.96624755859375 78.96624755859375 C 83.05401611328125 74.87847900390625 86.26304626464844 70.11915588378906 88.50419616699219 64.82049560546875 C 90.82384490966797 59.33623123168945 92 53.50878524780273 92 47.5 C 92 41.49121475219727 90.82384490966797 35.66376876831055 88.50419616699219 30.17950439453125 C 86.26304626464844 24.88084411621094 83.05401611328125 20.12152099609375 78.96624755859375 16.03375244140625 C 74.87847900390625 11.94598388671875 70.11915588378906 8.736953735351562 64.82049560546875 6.495796203613281 C 59.33623123168945 4.176155090332031 53.50878524780273 3 47.5 3 M 47.5 0 C 73.7335205078125 0 95 21.2664794921875 95 47.5 C 95 73.7335205078125 73.7335205078125 95 47.5 95 C 21.2664794921875 95 0 73.7335205078125 0 47.5 C 0 21.2664794921875 21.2664794921875 0 47.5 0 Z" stroke="none" fill="#56838a"/>
          </g>
        </g>
      </g>
    </g>
    <g id="g7059" transform="translate(1243.945 2004.255)">
      <g id="g7061" transform="translate(0 -682.665)">
        <g id="g7063" clip-path="url(#clip-path)">
          <g id="g7069" transform="translate(11.495 18.087)">
            <path id="path7071" d="M-165.129-166.33q-.078-.016-.156-.037a25.2,25.2,0,0,1-15.346-11.54,2.935,2.935,0,0,1,.946-4.042,2.935,2.935,0,0,1,4.041.946,19.263,19.263,0,0,0,11.857,8.96,2.935,2.935,0,0,1,2.089,3.587,2.935,2.935,0,0,1-3.431,2.125" transform="translate(181.073 182.39)" fill="#3b5a9b"/>
          </g>
          <g id="g7073" transform="translate(21.34 25.497)">
            <path id="path7075" d="M-119.383-.231a9.172,9.172,0,0,0-9.254,6.011l-2.2,6.037a1.25,1.25,0,0,0,.747,1.6l1.14.415a4.177,4.177,0,0,0,5.354-2.5l11.554-3.744Z" transform="translate(130.91 0.253)" fill="#5972a5"/>
          </g>
          <g id="g7077" transform="translate(25.812 25.498)">
            <path id="path7079" d="M0-27.125a20.791,20.791,0,0,0,7.216,4.358,21.564,21.564,0,0,0,5.92,1.279L14.4-21.9,7.055-29.721A9.194,9.194,0,0,0,0-27.125" transform="translate(0 29.744)" fill="#4a66a0"/>
          </g>
          <g id="g7081" transform="translate(23.574 4.202)">
            <path id="path7083" d="M-295.734-197.408c-2.623,7.206-10.5,9.47-18.177,6.674s-12.257-9.59-9.634-16.8,10.975-10.783,18.655-7.987,11.779,10.9,9.156,18.11" transform="translate(324.288 216.469)" fill="#ffddcf"/>
          </g>
          <g id="g7085" transform="translate(22.355 0.881)">
            <path id="path7087" d="M-223.2-17.689a5.146,5.146,0,0,1,2.97,2.8,1.148,1.148,0,0,0,1.2.684,5.133,5.133,0,0,1,2.462.264A5.165,5.165,0,0,1-213.2-8.516a1.153,1.153,0,0,0,.754,1.217c2.643.966,4.142,3.742,3.3,6.062-.756,2.077-2.917,2.62-5.6,1.644-4.829-1.758-3.978-9.1-10.82-11.595S-236.481-7.5-241.31-9.26c-2.68-.975-3.987-2.781-3.231-4.857.845-2.32,3.777-3.483,6.423-2.524a1.153,1.153,0,0,0,1.36-.448,5.166,5.166,0,0,1,6.068-2,5.136,5.136,0,0,1,2.056,1.38,1.148,1.148,0,0,0,1.36.249,5.146,5.146,0,0,1,4.073-.234" transform="translate(244.753 19.397)" fill="#ff6e80"/>
          </g>
          <g id="g7089" transform="translate(1.918 30.658)">
            <path id="path7091" d="M-121.286-295.919h-9.442A2.269,2.269,0,0,1-133-298.188v-24.034a2.269,2.269,0,0,1,2.269-2.269h9.442a2.269,2.269,0,0,1,2.269,2.269v24.034a2.269,2.269,0,0,1-2.269,2.269" transform="translate(132.997 324.491)" fill="#f8ea69"/>
          </g>
          <g id="g7093" transform="translate(6.119 36.348)">
            <path id="path7095" d="M-57.77-28.884a2.789,2.789,0,0,0-2.789-2.789,2.789,2.789,0,0,0-2.789,2.789A2.789,2.789,0,0,0-60.559-26.1a2.789,2.789,0,0,0,2.789-2.789" transform="translate(63.348 31.673)" fill="#5972a5"/>
          </g>
          <g id="g7097" transform="translate(27.609 30.658)">
            <path id="path7099" d="M-169.9-295.919h-16.4v-28.572h16.4a4.594,4.594,0,0,1,4.594,4.594v19.385a4.594,4.594,0,0,1-4.594,4.594" transform="translate(186.306 324.491)" fill="#00ce8e"/>
          </g>
          <g id="g7101" transform="translate(34.456 46.675)">
            <path id="path7103" d="M-73.819-74.558H-78.5A2.446,2.446,0,0,1-80.946-77v-2.307A2.446,2.446,0,0,1-78.5-81.757h4.682a2.446,2.446,0,0,1,2.446,2.446V-77a2.446,2.446,0,0,1-2.446,2.446" transform="translate(80.946 81.757)" fill="#efedff"/>
          </g>
          <g id="g7105" transform="translate(15.898 30.658)">
            <path id="path7107" d="M-121.287-295.919h-9.442A2.269,2.269,0,0,1-133-298.188v-24.034a2.269,2.269,0,0,1,2.269-2.269h9.442a2.269,2.269,0,0,1,2.269,2.269v24.034a2.269,2.269,0,0,1-2.269,2.269" transform="translate(132.998 324.491)" fill="#00b762"/>
          </g>
          <g id="g7109" transform="translate(20.099 36.348)">
            <path id="path7111" d="M-57.769-28.884a2.789,2.789,0,0,0-2.789-2.789,2.789,2.789,0,0,0-2.789,2.789A2.789,2.789,0,0,0-60.558-26.1a2.789,2.789,0,0,0,2.789-2.789" transform="translate(63.347 31.673)" fill="#efedff"/>
          </g>
          <g id="g7113" transform="translate(7.462 11.556)">
            <path id="path7115" d="M-110.517-153.677h-9.167a1.5,1.5,0,0,1-1.5-1.5v-11.83a1.5,1.5,0,0,1,1.5-1.5h9.167a1.5,1.5,0,0,1,1.5,1.5v11.83a1.5,1.5,0,0,1-1.5,1.5" transform="translate(121.188 168.516)" fill="#efedff"/>
          </g>
          <g id="g7117" transform="translate(7.462 11.556)">
            <path id="path7119" d="M-97.072-153.677c-4.711-2.438-6.861-9.108-5.788-14.838h-2.08a1.5,1.5,0,0,0-1.5,1.5v11.83a1.5,1.5,0,0,0,1.5,1.5Z" transform="translate(106.445 168.516)" fill="#d4d4ff"/>
          </g>
          <g id="g7121" transform="translate(22.355 0.881)">
            <path id="path7123" d="M-327.008-103.6a5.12,5.12,0,0,1-.024.878,1.153,1.153,0,0,0,.754,1.217c2.643.966,4.142,3.742,3.3,6.062-.756,2.077-2.918,2.62-5.6,1.644-4.829-1.758-3.978-9.1-10.82-11.595s-10.913,3.685-15.741,1.927c-2.68-.975-3.987-2.781-3.231-4.857.845-2.32,3.777-3.483,6.423-2.524a1.153,1.153,0,0,0,1.36-.448,5.165,5.165,0,0,1,6.068-2,5.135,5.135,0,0,1,2.056,1.38,1.148,1.148,0,0,0,1.36.249,5.147,5.147,0,0,1,4.073-.234,5.146,5.146,0,0,1,2.97,2.8,1.148,1.148,0,0,0,1.2.683,5.135,5.135,0,0,1,2.461.264,5.156,5.156,0,0,1,1.528.874" transform="translate(358.582 113.603)" fill="none" stroke="#000" stroke-linecap="round" stroke-linejoin="round" stroke-miterlimit="10" stroke-width="1.5"/>
          </g>
          <g id="g7125" transform="translate(7.462 11.556)">
            <path id="path7127" d="M-110.517-153.677h-9.167a1.5,1.5,0,0,1-1.5-1.5v-11.83a1.5,1.5,0,0,1,1.5-1.5h9.167a1.5,1.5,0,0,1,1.5,1.5v11.83A1.5,1.5,0,0,1-110.517-153.677Z" transform="translate(121.188 168.516)" fill="none" stroke="#000" stroke-linecap="round" stroke-linejoin="round" stroke-miterlimit="10" stroke-width="1.5"/>
          </g>
          <g id="g7129" transform="translate(43.9 20.82)">
            <path id="path7131" d="M0-101.885a11.492,11.492,0,0,0,8.229-7.4,13.135,13.135,0,0,0,.632-2.442" transform="translate(0 111.722)" fill="none" stroke="#000" stroke-linecap="round" stroke-linejoin="round" stroke-miterlimit="10" stroke-width="1.5"/>
          </g>
          <g id="g7133" transform="translate(23.574 10.863)">
            <path id="path7135" d="M-18.949,0a13.126,13.126,0,0,0-1.086,2.277c-2.623,7.206,1.954,14,9.634,16.8a19.975,19.975,0,0,0,2.455.721" transform="translate(20.779)" fill="none" stroke="#000" stroke-linecap="round" stroke-linejoin="round" stroke-miterlimit="10" stroke-width="1.5"/>
          </g>
          <g id="g7137" transform="translate(23.985 26.503)">
            <path id="path7139" d="M-42.225,0A9.129,9.129,0,0,0-46.3,4.155" transform="translate(46.303)" fill="none" stroke="#000" stroke-linecap="round" stroke-linejoin="round" stroke-miterlimit="10" stroke-width="1.5"/>
          </g>
          <g id="g7141" transform="translate(1.918 30.658)">
            <path id="path7143" d="M-9.817-291.528a2.266,2.266,0,0,1-.948-1.845v-24.034A2.269,2.269,0,0,1-8.5-319.677H.945a2.269,2.269,0,0,1,2.269,2.269v24.034A2.269,2.269,0,0,1,.945-291.1H-5.676" transform="translate(10.765 319.677)" fill="none" stroke="#000" stroke-linecap="round" stroke-linejoin="round" stroke-miterlimit="10" stroke-width="1.5"/>
          </g>
          <g id="g7145" transform="translate(15.898 30.658)">
            <path id="path7147" d="M-121.287-295.919h-9.442A2.269,2.269,0,0,1-133-298.188v-24.034a2.269,2.269,0,0,1,2.269-2.269h9.442a2.269,2.269,0,0,1,2.269,2.269v24.034A2.269,2.269,0,0,1-121.287-295.919Z" transform="translate(132.998 324.491)" fill="none" stroke="#000" stroke-linecap="round" stroke-linejoin="round" stroke-miterlimit="10" stroke-width="1.5"/>
          </g>
          <g id="g7149" transform="translate(14.761 26.394)">
            <path id="path7151" d="M0,0A25.006,25.006,0,0,0,4.825,4.263" fill="none" stroke="#000" stroke-linecap="round" stroke-linejoin="round" stroke-miterlimit="10" stroke-width="1.5"/>
          </g>
          <g id="g7153" transform="translate(19.637 23.042)">
            <path id="path7155" d="M-69.513-47.539a18.5,18.5,0,0,1-6.712-4.59" transform="translate(76.225 52.129)" fill="none" stroke="#000" stroke-linecap="round" stroke-linejoin="round" stroke-miterlimit="10" stroke-width="1.5"/>
          </g>
          <g id="g7157" transform="translate(27.609 30.658)">
            <path id="path7159" d="M0,0H16.4A4.594,4.594,0,0,1,21,4.594V23.978A4.594,4.594,0,0,1,16.4,28.572H0" fill="none" stroke="#000" stroke-linecap="round" stroke-linejoin="round" stroke-miterlimit="10" stroke-width="1.5"/>
          </g>
          <g id="g7161" transform="translate(30.884 15.606)">
            <path id="path7163" d="M-4.99,0l-.482,1.324" transform="translate(5.472)" fill="none" stroke="#000" stroke-linecap="round" stroke-linejoin="round" stroke-miterlimit="10" stroke-width="1.5"/>
          </g>
          <g id="g7165" transform="translate(44.663 20.621)">
            <path id="path7167" d="M-4.99,0l-.482,1.324" transform="translate(5.472)" fill="none" stroke="#000" stroke-linecap="round" stroke-linejoin="round" stroke-miterlimit="10" stroke-width="1.5"/>
          </g>
          <g id="g7169" transform="translate(35.971 18.737)">
            <path id="path7171" d="M0,0A2.556,2.556,0,0,0,1.515,1.489a2.557,2.557,0,0,0,2.118-.166" fill="none" stroke="#000" stroke-linecap="round" stroke-linejoin="round" stroke-miterlimit="10" stroke-width="1.5"/>
          </g>
          <g id="g7173" transform="translate(7.008 46.987)">
            <path id="path7175" d="M0,0H3.8" transform="translate(0 0)" fill="none" stroke="#000" stroke-linecap="round" stroke-linejoin="round" stroke-miterlimit="10" stroke-width="1.5"/>
          </g>
          <g id="g7177" transform="translate(7.008 51.413)">
            <path id="path7179" d="M0,0H3.8" fill="none" stroke="#000" stroke-linecap="round" stroke-linejoin="round" stroke-miterlimit="10" stroke-width="1.5"/>
          </g>
          <g id="g7181" transform="translate(20.988 46.987)">
            <path id="path7183" d="M0,0H3.8" transform="translate(0 0)" fill="none" stroke="#000" stroke-linecap="round" stroke-linejoin="round" stroke-miterlimit="10" stroke-width="1.5"/>
          </g>
          <g id="g7185" transform="translate(20.988 51.413)">
            <path id="path7187" d="M0,0H3.8" fill="none" stroke="#000" stroke-linecap="round" stroke-linejoin="round" stroke-miterlimit="10" stroke-width="1.5"/>
          </g>
          <g id="g7189" transform="translate(11.651 16.138)">
            <path id="path7191" d="M0,0H3.8" fill="none" stroke="#000" stroke-linecap="round" stroke-linejoin="round" stroke-miterlimit="10" stroke-width="1.5"/>
          </g>
          <g id="g7193" transform="translate(11.651 20.254)">
            <path id="path7195" d="M0,0H3.8" fill="none" stroke="#000" stroke-linecap="round" stroke-linejoin="round" stroke-miterlimit="10" stroke-width="1.5"/>
          </g>
          <g id="g7197" transform="translate(6.119 36.348)">
            <path id="path7199" d="M-57.77-28.884a2.789,2.789,0,0,0-2.789-2.789,2.789,2.789,0,0,0-2.789,2.789A2.789,2.789,0,0,0-60.559-26.1,2.789,2.789,0,0,0-57.77-28.884Z" transform="translate(63.348 31.673)" fill="none" stroke="#000" stroke-linecap="round" stroke-linejoin="round" stroke-miterlimit="10" stroke-width="1.5"/>
          </g>
          <g id="g7201" transform="translate(34.456 46.675)">
            <path id="path7203" d="M-73.819-74.558H-78.5A2.446,2.446,0,0,1-80.946-77v-2.307A2.446,2.446,0,0,1-78.5-81.757h4.682a2.446,2.446,0,0,1,2.446,2.446V-77A2.446,2.446,0,0,1-73.819-74.558Z" transform="translate(80.946 81.757)" fill="none" stroke="#000" stroke-linecap="round" stroke-linejoin="round" stroke-miterlimit="10" stroke-width="1.5"/>
          </g>
          <g id="g7205" transform="translate(20.099 36.348)">
            <path id="path7207" d="M-57.769-28.884a2.789,2.789,0,0,0-2.789-2.789,2.789,2.789,0,0,0-2.789,2.789A2.789,2.789,0,0,0-60.558-26.1,2.789,2.789,0,0,0-57.769-28.884Z" transform="translate(63.347 31.673)" fill="none" stroke="#000" stroke-linecap="round" stroke-linejoin="round" stroke-miterlimit="10" stroke-width="1.5"/>
          </g>
        </g>
      </g>
    </g>
  </g>
</svg>
