<svg xmlns="http://www.w3.org/2000/svg" xmlns:xlink="http://www.w3.org/1999/xlink" width="400" height="292" viewBox="0 0 400 292">
  <defs>
    <clipPath id="clip-path">
      <rect id="Rectángulo_415852" data-name="Rectángulo 415852" width="400" height="292" fill="#fff" stroke="#707070" stroke-width="1"/>
    </clipPath>
    <clipPath id="clip-path-2">
      <rect id="Rectángulo_415851" data-name="Rectángulo 415851" width="337.222" height="287.674" fill="none"/>
    </clipPath>
    <clipPath id="clip-path-3">
      <rect id="Rectángulo_415826" data-name="Rectángulo 415826" width="251.293" height="174.317" fill="none"/>
    </clipPath>
    <clipPath id="clip-path-4">
      <rect id="Rectángulo_415828" data-name="Rectángulo 415828" width="20.932" height="73.392" fill="none"/>
    </clipPath>
    <clipPath id="clip-path-5">
      <rect id="Rectángulo_415945" data-name="Rectángulo 415945" width="213.609" height="401.557" fill="none"/>
    </clipPath>
    <clipPath id="clip-path-6">
      <rect id="Rectángulo_415940" data-name="Rectángulo 415940" width="213.605" height="401.555" fill="none"/>
    </clipPath>
    <clipPath id="clip-path-7">
      <path id="Trazado_1035043" data-name="Trazado 1035043" d="M11.164,5.338s4.224,5.362,10.308.374A4.844,4.844,0,0,0,17.1,2.856c-1.5,0-3.45.629-5.94,2.482" transform="translate(-11.164 -2.856)" fill="none"/>
    </clipPath>
    <clipPath id="clip-path-9">
      <path id="Trazado_1035047" data-name="Trazado 1035047" d="M13.077,6.682c4.98,3.459,6.858-2.923,6.858-2.923a5.107,5.107,0,0,0-2.94-1.147c-2.915,0-3.918,4.071-3.918,4.071" transform="translate(-13.077 -2.611)" fill="none"/>
    </clipPath>
    <clipPath id="clip-path-11">
      <rect id="Rectángulo_415942" data-name="Rectángulo 415942" width="15.068" height="14.334" fill="none"/>
    </clipPath>
    <clipPath id="clip-path-12">
      <rect id="Rectángulo_415943" data-name="Rectángulo 415943" width="12.92" height="14.379" fill="none"/>
    </clipPath>
    <clipPath id="clip-path-13">
      <rect id="Rectángulo_415840" data-name="Rectángulo 415840" width="17.11" height="20.6" fill="none"/>
    </clipPath>
    <clipPath id="clip-path-14">
      <rect id="Rectángulo_415841" data-name="Rectángulo 415841" width="30.669" height="20.6" fill="none"/>
    </clipPath>
    <clipPath id="clip-path-15">
      <rect id="Rectángulo_415842" data-name="Rectángulo 415842" width="79.861" height="20.6" fill="none"/>
    </clipPath>
    <clipPath id="clip-path-16">
      <rect id="Rectángulo_415843" data-name="Rectángulo 415843" width="26.994" height="2.59" fill="none"/>
    </clipPath>
    <clipPath id="clip-path-17">
      <rect id="Rectángulo_415844" data-name="Rectángulo 415844" width="21.659" height="14.548" fill="none"/>
    </clipPath>
    <clipPath id="clip-path-18">
      <rect id="Rectángulo_415845" data-name="Rectángulo 415845" width="21.33" height="14.327" fill="none"/>
    </clipPath>
    <clipPath id="clip-path-19">
      <rect id="Rectángulo_415846" data-name="Rectángulo 415846" width="28.423" height="14.327" fill="none"/>
    </clipPath>
    <clipPath id="clip-path-20">
      <rect id="Rectángulo_415848" data-name="Rectángulo 415848" width="20.593" height="51.947" fill="none"/>
    </clipPath>
    <clipPath id="clip-path-21">
      <rect id="Rectángulo_415849" data-name="Rectángulo 415849" width="122.856" height="10.852" fill="none"/>
    </clipPath>
  </defs>
  <g id="Enmascarar_grupo_1098718" data-name="Enmascarar grupo 1098718" clip-path="url(#clip-path)">
    <g id="Grupo_1176541" data-name="Grupo 1176541" transform="translate(31.778 4.452)">
      <g id="Grupo_1176540" data-name="Grupo 1176540" clip-path="url(#clip-path-2)">
        <rect id="Rectángulo_415824" data-name="Rectángulo 415824" width="259.448" height="184.208" transform="translate(46.937 22.605)" fill="#fff2e3"/>
        <rect id="Rectángulo_415825" data-name="Rectángulo 415825" width="251.293" height="174.317" transform="translate(51.014 27.258)" fill="#2c4556"/>
        <g id="Grupo_1176539" data-name="Grupo 1176539">
          <g id="Grupo_1176788" data-name="Grupo 1176788">
            <g id="Grupo_1176486" data-name="Grupo 1176486" transform="translate(51.014 27.258)" opacity="0.46">
              <g id="Grupo_1176485" data-name="Grupo 1176485">
                <g id="Grupo_1176484" data-name="Grupo 1176484" clip-path="url(#clip-path-3)">
                  <path id="Trazado_1034349" data-name="Trazado 1034349" d="M295.642,34.623S96.291,39.052,72.845,52.91s6.8,15.071,30.126,34.939S47.291,168.341,44.349,208.94V34.623Z" transform="translate(-44.349 -34.623)" fill="#1a2d38"/>
                </g>
              </g>
            </g>
            <path id="Trazado_1034350" data-name="Trazado 1034350" d="M34.859,270.712H299.406a3.969,3.969,0,0,0,3.969-3.969v-.08a3.969,3.969,0,0,0-3.969-3.969H34.859a3.969,3.969,0,0,0-3.969,3.969v.08a3.969,3.969,0,0,0,3.969,3.969" transform="translate(9.529 -55.881)" fill="#b5aaa0"/>
            <ellipse id="Elipse_12313" data-name="Elipse 12313" cx="7.7" cy="24.934" rx="7.7" ry="24.934" transform="translate(258.41 39.327)" fill="none" stroke="#d3cabe" stroke-miterlimit="10" stroke-width="1"/>
            <path id="Trazado_1034351" data-name="Trazado 1034351" d="M80.528,84.42c11.885,6.956,23.26,9.621,25.408,5.951S100.192,78.086,88.308,71.13,65.047,61.509,62.9,65.179,68.644,77.463,80.528,84.42Z" transform="translate(181.692 -13.514)" fill="none" stroke="#d3cabe" stroke-miterlimit="10" stroke-width="1"/>
            <path id="Trazado_1034352" data-name="Trazado 1034352" d="M88.308,84.42C76.423,91.376,65.047,94.04,62.9,90.371S68.644,78.086,80.528,71.13s23.26-9.621,25.408-5.951S100.192,77.463,88.308,84.42Z" transform="translate(181.692 -13.514)" fill="none" stroke="#d3cabe" stroke-miterlimit="10" stroke-width="1"/>
            <path id="Trazado_1034353" data-name="Trazado 1034353" d="M85.765,80.654a3.592,3.592,0,1,0,3.592-3.592A3.592,3.592,0,0,0,85.765,80.654Z" transform="translate(176.753 -16.393)" fill="none" stroke="#d3cabe" stroke-miterlimit="10" stroke-width="1"/>
            <path id="Trazado_1034354" data-name="Trazado 1034354" d="M111.262,185.605v14.51L98.7,207.369l-12.565-7.254v-14.51L98.7,178.35Z" transform="translate(158.152 -37.939)" fill="#2c4556"/>
            <path id="Trazado_1034355" data-name="Trazado 1034355" d="M111.262,185.605v14.51L98.7,207.369l-12.565-7.254v-14.51L98.7,178.35Z" transform="translate(158.152 -37.939)" fill="none" stroke="#d3cabe" stroke-miterlimit="10" stroke-width="1"/>
            <line id="Línea_935" data-name="Línea 935" x1="11.467" y2="7.869" transform="translate(232.816 162.175)" fill="#2c4556"/>
            <line id="Línea_936" data-name="Línea 936" x1="11.467" y2="7.869" transform="translate(232.816 162.175)" fill="none" stroke="#d3cabe" stroke-miterlimit="10" stroke-width="1"/>
            <line id="Línea_937" data-name="Línea 937" y1="7.592" x2="12.682" transform="translate(269.413 140.074)" fill="#2c4556"/>
            <line id="Línea_938" data-name="Línea 938" y1="7.592" x2="12.682" transform="translate(269.413 140.074)" fill="none" stroke="#d3cabe" stroke-miterlimit="10" stroke-width="1"/>
            <line id="Línea_939" data-name="Línea 939" y2="16.475" transform="translate(256.848 169.43)" fill="#2c4556"/>
            <line id="Línea_940" data-name="Línea 940" y2="16.475" transform="translate(256.848 169.43)" fill="none" stroke="#d3cabe" stroke-miterlimit="10" stroke-width="1"/>
            <path id="Trazado_1034356" data-name="Trazado 1034356" d="M69.4,175.006a2.3,2.3,0,1,0,2.3,2.3,2.3,2.3,0,0,0-2.3-2.3" transform="translate(212.694 -37.228)" fill="#2c4556"/>
            <path id="Trazado_1034357" data-name="Trazado 1034357" d="M69.4,175.006a2.3,2.3,0,1,0,2.3,2.3A2.3,2.3,0,0,0,69.4,175.006Z" transform="translate(212.694 -37.228)" fill="none" stroke="#d3cabe" stroke-miterlimit="10" stroke-width="1"/>
            <path id="Trazado_1034358" data-name="Trazado 1034358" d="M85.511,184.146a2.3,2.3,0,1,0,2.3,2.3,2.3,2.3,0,0,0-2.3-2.3" transform="translate(183.902 -39.172)" fill="#2c4556"/>
            <path id="Trazado_1034359" data-name="Trazado 1034359" d="M85.511,184.146a2.3,2.3,0,1,0,2.3,2.3A2.3,2.3,0,0,0,85.511,184.146Z" transform="translate(183.902 -39.172)" fill="none" stroke="#d3cabe" stroke-miterlimit="10" stroke-width="1"/>
            <path id="Trazado_1034360" data-name="Trazado 1034360" d="M101.481,233.221a2.3,2.3,0,1,0,2.3,2.3,2.3,2.3,0,0,0-2.3-2.3" transform="translate(155.358 -49.611)" fill="#2c4556"/>
            <path id="Trazado_1034361" data-name="Trazado 1034361" d="M101.481,233.221a2.3,2.3,0,1,0,2.3,2.3A2.3,2.3,0,0,0,101.481,233.221Z" transform="translate(155.358 -49.611)" fill="none" stroke="#d3cabe" stroke-miterlimit="10" stroke-width="1"/>
            <path id="Trazado_1034362" data-name="Trazado 1034362" d="M101.021,212.293a2.3,2.3,0,1,0,2.3,2.3,2.3,2.3,0,0,0-2.3-2.3" transform="translate(156.182 -45.16)" fill="#2c4556"/>
            <path id="Trazado_1034363" data-name="Trazado 1034363" d="M101.021,212.293a2.3,2.3,0,1,0,2.3,2.3A2.3,2.3,0,0,0,101.021,212.293Z" transform="translate(156.182 -45.16)" fill="none" stroke="#d3cabe" stroke-miterlimit="10" stroke-width="1"/>
            <path id="Trazado_1034364" data-name="Trazado 1034364" d="M117.086,202.842a2.3,2.3,0,1,0,2.3,2.3,2.3,2.3,0,0,0-2.3-2.3" transform="translate(127.468 -43.149)" fill="#2c4556"/>
            <path id="Trazado_1034365" data-name="Trazado 1034365" d="M117.086,202.842a2.3,2.3,0,1,0,2.3,2.3A2.3,2.3,0,0,0,117.086,202.842Z" transform="translate(127.468 -43.149)" fill="none" stroke="#d3cabe" stroke-miterlimit="10" stroke-width="1"/>
            <path id="Trazado_1034366" data-name="Trazado 1034366" d="M132.219,213.227a2.3,2.3,0,1,0,2.3,2.3,2.3,2.3,0,0,0-2.3-2.3" transform="translate(100.421 -45.358)" fill="#2c4556"/>
            <path id="Trazado_1034367" data-name="Trazado 1034367" d="M132.219,213.227a2.3,2.3,0,1,0,2.3,2.3A2.3,2.3,0,0,0,132.219,213.227Z" transform="translate(100.421 -45.358)" fill="none" stroke="#d3cabe" stroke-miterlimit="10" stroke-width="1"/>
            <path id="Trazado_1034368" data-name="Trazado 1034368" d="M317.167,159.454l.172,24.568a16.958,16.958,0,1,1-11.638.039l-.4-24.567" transform="translate(-223.253 -33.919)" fill="none" stroke="#d3cabe" stroke-miterlimit="10" stroke-width="1"/>
            <path id="Trazado_1034369" data-name="Trazado 1034369" d="M326.431,207.346a14.6,14.6,0,1,1-28.468.1" transform="translate(-223.886 -44.107)" fill="none" stroke="#d3cabe" stroke-miterlimit="10" stroke-width="1"/>
            <path id="Trazado_1034370" data-name="Trazado 1034370" d="M298.083,206.95c0,1.037,6.448,1.856,14.392,1.829s14.382-.89,14.379-1.926-6.447-1.856-14.391-1.829S298.08,205.913,298.083,206.95Z" transform="translate(-224.306 -43.613)" fill="none" stroke="#d3cabe" stroke-miterlimit="10" stroke-width="1"/>
            <path id="Trazado_1034371" data-name="Trazado 1034371" d="M306.278,156.127a2.191,2.191,0,0,0,2.2,2.184l11.865-.041a2.19,2.19,0,1,0-.015-4.38l-11.865.04A2.191,2.191,0,0,0,306.278,156.127Z" transform="translate(-226.428 -32.736)" fill="none" stroke="#d3cabe" stroke-miterlimit="10" stroke-width="1"/>
            <path id="Trazado_1034372" data-name="Trazado 1034372" d="M309.662,217.208a1.543,1.543,0,1,0,.645-2.085A1.542,1.542,0,0,0,309.662,217.208Z" transform="translate(-218.997 -45.724)" fill="none" stroke="#d3cabe" stroke-miterlimit="10" stroke-width="1"/>
            <path id="Trazado_1034373" data-name="Trazado 1034373" d="M322.465,216.553a1.543,1.543,0,1,0,.645-2.086A1.544,1.544,0,0,0,322.465,216.553Z" transform="translate(-241.88 -45.584)" fill="none" stroke="#d3cabe" stroke-miterlimit="10" stroke-width="1"/>
            <path id="Trazado_1034374" data-name="Trazado 1034374" d="M316.239,224.156a1.543,1.543,0,1,0,.645-2.085A1.544,1.544,0,0,0,316.239,224.156Z" transform="translate(-230.752 -47.202)" fill="none" stroke="#d3cabe" stroke-miterlimit="10" stroke-width="1"/>
            <path id="Trazado_1034375" data-name="Trazado 1034375" d="M300.861,83.891h16.275l8.137,14.094-8.137,14.094H300.861l-8.137-14.094Z" transform="translate(-218.506 -17.845)" fill="none" stroke="#d3cabe" stroke-miterlimit="10" stroke-width="1"/>
            <path id="Trazado_1034376" data-name="Trazado 1034376" d="M292.706,70.893h11.815l5.908,10.232-5.908,10.232H292.706L286.8,81.126Z" transform="translate(-198.997 -15.081)" fill="none" stroke="#d3cabe" stroke-miterlimit="10" stroke-width="1"/>
            <path id="Trazado_1034377" data-name="Trazado 1034377" d="M63.695,147.449a2.382,2.382,0,1,0,2.382-2.382A2.383,2.383,0,0,0,63.695,147.449Z" transform="translate(218.618 -30.859)" fill="none" stroke="#d3cabe" stroke-miterlimit="10" stroke-width="0.5"/>
            <path id="Trazado_1034378" data-name="Trazado 1034378" d="M335.886,56.248a7.6,7.6,0,1,0,7.6-7.6A7.6,7.6,0,0,0,335.886,56.248Z" transform="translate(-278.297 -10.349)" fill="none" stroke="#d3cabe" stroke-miterlimit="10" stroke-width="1.268"/>
            <path id="Trazado_1034379" data-name="Trazado 1034379" d="M270.771,52.448a3.8,3.8,0,1,0,3.8-3.8A3.8,3.8,0,0,0,270.771,52.448Z" transform="translate(-154.32 -10.349)" fill="none" stroke="#d3cabe" stroke-miterlimit="10" stroke-width="0.634"/>
            <path id="Trazado_1034380" data-name="Trazado 1034380" d="M124.81,50.054a2.37,2.37,0,1,0,2.37-2.37A2.37,2.37,0,0,0,124.81,50.054Z" transform="translate(109.412 -10.143)" fill="none" stroke="#d3cabe" stroke-miterlimit="10" stroke-width="0.634"/>
            <path id="Trazado_1034381" data-name="Trazado 1034381" d="M340.711,137.145a3.8,3.8,0,1,0,3.8-3.8A3.8,3.8,0,0,0,340.711,137.145Z" transform="translate(-279.322 -28.366)" fill="none" stroke="#d3cabe" stroke-miterlimit="10" stroke-width="1"/>
            <line id="Línea_941" data-name="Línea 941" y2="113.781" transform="translate(174.877 95.967)" fill="none" stroke="#2c4556" stroke-miterlimit="10" stroke-width="0.776"/>
            <g id="Grupo_1176492" data-name="Grupo 1176492" transform="translate(137.273 4.077)" opacity="0.17" style="mix-blend-mode: overlay;isolation: isolate">
              <g id="Grupo_1176491" data-name="Grupo 1176491">
                <g id="Grupo_1176490" data-name="Grupo 1176490" clip-path="url(#clip-path-4)">
                  <path id="Trazado_1034399" data-name="Trazado 1034399" d="M240.5,13.1a25.345,25.345,0,0,1,7.824-7.92s-8.4,11.681-7.824,23.544-2.6,18.895-4.58,25.606c-2.1,7.1,1.569,15.627,3.666,20.217-4.65,2.248-7.739,4.025-7.739,4.025s-9.353-12.6-.955-26.086,4.2-30.8,9.608-39.385" transform="translate(-227.389 -5.178)" fill="#fff"/>
                </g>
              </g>
            </g>
            <path id="Trazado_1034481" data-name="Trazado 1034481" d="M361.765,247.405s2.053-4.848,6.543-6.826" transform="translate(-315.895 -51.177)" fill="none" stroke="#427824" stroke-miterlimit="10" stroke-width="1"/>
            <g id="Grupo_1176790" data-name="Grupo 1176790" transform="translate(65.188 27.259)">
              <g id="Grupo_1176804" data-name="Grupo 1176804" clip-path="url(#clip-path-5)">
                <g id="Grupo_1176789" data-name="Grupo 1176789" transform="translate(0 0.003)">
                  <g id="Grupo_1176788-2" data-name="Grupo 1176788" clip-path="url(#clip-path-6)">
                    <path id="Trazado_1035025" data-name="Trazado 1035025" d="M16.2,44.174s-3.977-.153-3.79,7.419,0,18.73,0,18.73H16.2V57.245L27.547,70.324H66.521s-2.082-7.19-20.43-7Z" transform="translate(93.019 331.228)" fill="#1e0401"/>
                    <path id="Trazado_1035026" data-name="Trazado 1035026" d="M12.852,57.873V48.151l15.17-5.8L25.752,57.873,44.389,77.19H35.814A16.106,16.106,0,0,1,24.971,73c-4.011-3.654-9.4-9.263-12.119-15.127" transform="translate(96.369 317.529)" fill="#fbb087"/>
                    <path id="Trazado_1035027" data-name="Trazado 1035027" d="M40.573,16.18S54.255,49.306,46.743,142.3s-9.765,104.946-9.765,104.946l-24.73-.391L17.993,16.18Z" transform="translate(91.84 121.32)" fill="#0f4088"/>
                    <path id="Trazado_1035028" data-name="Trazado 1035028" d="M50.319,44.174s3.977-.153,3.79,7.419,0,18.73,0,18.73h-3.79V57.245L38.973,70.324H0s2.082-7.19,20.43-7Z" transform="translate(0 331.228)" fill="#1e0401"/>
                    <path id="Trazado_1035029" data-name="Trazado 1035029" d="M33.747,67.576l9.739-20.719-15.161-5.8L20.847,67.576,2.21,86.893h8.575A16.106,16.106,0,0,0,21.629,82.7c4.011-3.654,9.4-9.263,12.119-15.127" transform="translate(16.571 307.826)" fill="#fbb087"/>
                    <path id="Trazado_1035030" data-name="Trazado 1035030" d="M65.056,16.18S57.8,35.582,44.983,80.988C31.046,130.338,3.851,246.85,3.851,246.85l26.438,1.385L103.281,34.018,96.3,16.18Z" transform="translate(28.876 121.32)" fill="#0f4088"/>
                    <path id="Trazado_1035031" data-name="Trazado 1035031" d="M13.033,61.87a.422.422,0,0,0,.4-.28L27.123,22.522a.427.427,0,0,0-.807-.28L12.633,61.309a.414.414,0,0,0,.263.535l.136.025" transform="translate(94.548 164.625)"/>
                    <path id="Trazado_1035032" data-name="Trazado 1035032" d="M19.319,1.62S15.367,10.186,17.4,22.194c2.082,12.289-11.456,11.1-9.833,23,0,0,38.378,11.4,73.842-11.711,0,0,2.422-10.546-4.98-13.062-10.368-3.535-13-14.269-13-14.269Z" transform="translate(55.713 12.145)"/>
                    <path id="Trazado_1035033" data-name="Trazado 1035033" d="M54.424,18.305C56.014,30,47.1,40.869,34.5,42.585S10.4,36.211,8.814,24.509,16.139,1.946,28.734.23s24.1,6.382,25.69,18.076" transform="translate(64.714 -0.003)"/>
                    <path id="Trazado_1035034" data-name="Trazado 1035034" d="M11.082,4.58l.476,35.064,16.9-2.244L23.243,6.612Z" transform="translate(83.096 34.343)" fill="#fbb087"/>
                    <path id="Trazado_1035035" data-name="Trazado 1035035" d="M24.463,20.823,11.324,11.084,21.752,5.076Z" transform="translate(84.913 38.055)" fill="#ee896c"/>
                    <path id="Trazado_1035036" data-name="Trazado 1035036" d="M13.234,14.305a17.156,17.156,0,0,1,.986-6.45c1.037-2.872,2.83-5.736,6.246-4.649,5.83,1.853,1.623,11.49-3.9,12.968-1.623.433-3.289-.5-3.331-1.87" transform="translate(99.148 22.269)" fill="#ee896c"/>
                    <path id="Trazado_1035037" data-name="Trazado 1035037" d="M19.642,2.538A25.542,25.542,0,0,1,31.455.456c5.456.391,12.713,2.8,14.889,12.391,3.62,15.977,2.813,26.583-4.173,32.039-4.9,3.833-10.368,4.224-17.982,1.071-2.83-1.173-7.045-6.272-8.184-9.272l-3.263-8.354S1.872,10.093,19.642,2.538" transform="translate(70.865 2.958)" fill="#fbb087"/>
                    <path id="Trazado_1035038" data-name="Trazado 1035038" d="M13.859,8.855a.476.476,0,0,0,.229-.068l1.819-1.173a.4.4,0,0,0,.178-.272.375.375,0,0,0-.068-.314L13.613,3.637a.417.417,0,1,0-.68.484l2.15,3.025-1.453.943a.417.417,0,0,0,.229.765" transform="translate(96.398 25.96)"/>
                    <path id="Trazado_1035039" data-name="Trazado 1035039" d="M12.98,3.137S12.53,4.812,15.062,4.8a21.736,21.736,0,0,1,4.249.178,1.574,1.574,0,0,0,1.606-.62.876.876,0,0,0-.144-1.156,6.374,6.374,0,0,0-4.428-1.572c-3-.017-3.365,1.5-3.365,1.5" transform="translate(97.098 12.242)"/>
                    <path id="Trazado_1035040" data-name="Trazado 1035040" d="M22.927,2.527s1.045,1.487-2.414,2.244a55.833,55.833,0,0,0-7.147,2.3,2.767,2.767,0,0,1-2.346-.11A.712.712,0,0,1,10.927,5.8a17.043,17.043,0,0,1,7.02-3.7c4.088-.935,4.98.425,4.98.425" transform="translate(79.997 13.302)"/>
                    <path id="Trazado_1035041" data-name="Trazado 1035041" d="M21.48,5.716S18.956-.463,11.163,5.342c0,0,4.232,5.362,10.317.374" transform="translate(83.704 21.409)" fill="#fff"/>
                  </g>
                </g>
                <g id="Grupo_1176791" data-name="Grupo 1176791" transform="translate(94.875 24.271)">
                  <g id="Grupo_1176790-2" data-name="Grupo 1176790" clip-path="url(#clip-path-7)">
                    <path id="Trazado_1035042" data-name="Trazado 1035042" d="M16.745,4.916A2.657,2.657,0,1,1,11.6,6.25a2.657,2.657,0,1,1,5.141-1.334" transform="translate(-8.561 -2.936)"/>
                  </g>
                </g>
                <g id="Grupo_1176793" data-name="Grupo 1176793" transform="translate(0 0.003)">
                  <g id="Grupo_1176792" data-name="Grupo 1176792" clip-path="url(#clip-path-6)">
                    <path id="Trazado_1035044" data-name="Trazado 1035044" d="M11.566,5.845a8.385,8.385,0,0,1,2.4-1.521,8.947,8.947,0,0,1,2.719-.714,5.262,5.262,0,0,1,2.651.476,3.33,3.33,0,0,1,1.64,1.844l.017.051a.524.524,0,0,0,.663.34.518.518,0,0,0,.34-.663l-.009-.025A4.233,4.233,0,0,0,19.725,3.27a6.152,6.152,0,0,0-3.11-.416,9.688,9.688,0,0,0-2.915.892,9.041,9.041,0,0,0-2.49,1.734.246.246,0,0,0,0,.357.254.254,0,0,0,.357.009" transform="translate(83.479 21.092)"/>
                    <path id="Trazado_1035045" data-name="Trazado 1035045" d="M13.077,6.681S14.726,0,19.935,3.757c0,0-1.87,6.374-6.858,2.923" transform="translate(98.056 19.577)" fill="#fff"/>
                  </g>
                </g>
                <g id="Grupo_1176795" data-name="Grupo 1176795" transform="translate(111.133 22.189)">
                  <g id="Grupo_1176794" data-name="Grupo 1176794" clip-path="url(#clip-path-9)">
                    <path id="Trazado_1035046" data-name="Trazado 1035046" d="M13.262,5.054a2.291,2.291,0,0,0,1.9,2.558,2.275,2.275,0,0,0,2.048-2.439,2.28,2.28,0,0,0-1.9-2.558,2.287,2.287,0,0,0-2.048,2.439" transform="translate(-11.699 -2.589)"/>
                  </g>
                </g>
                <g id="Grupo_1176803" data-name="Grupo 1176803" transform="translate(0 0.003)">
                  <g id="Grupo_1176802" data-name="Grupo 1176802" clip-path="url(#clip-path-6)">
                    <path id="Trazado_1035048" data-name="Trazado 1035048" d="M20.389,3.884a3.764,3.764,0,0,0-1.657-1.156A3.244,3.244,0,0,0,17.7,2.575a2.894,2.894,0,0,0-1.054.178l.042-.017a4.8,4.8,0,0,0-2.32,1.428,6.009,6.009,0,0,0-.79,1.113,6.086,6.086,0,0,0-.527,1.275.445.445,0,0,0,.306.552.44.44,0,0,0,.544-.306l.008-.017V6.756a5.37,5.37,0,0,1,1.037-2.091,4.015,4.015,0,0,1,1.912-1.317l.009-.008.034-.008a2.668,2.668,0,0,1,1.674-.093,3.259,3.259,0,0,1,1.487.935.224.224,0,0,0,.306.008.213.213,0,0,0,.017-.3" transform="translate(97.763 19.306)"/>
                    <path id="Trazado_1035049" data-name="Trazado 1035049" d="M22.332,4.32l-10.156.756a4.854,4.854,0,0,0,5.218,3.17A5.793,5.793,0,0,0,22.332,4.32" transform="translate(91.3 32.39)" fill="#fff"/>
                    <g id="Grupo_1176798" data-name="Grupo 1176798" transform="translate(91.892 20.673)" opacity="0.22">
                      <g id="Grupo_1176797" data-name="Grupo 1176797">
                        <g id="Grupo_1176796" data-name="Grupo 1176796" clip-path="url(#clip-path-11)">
                          <path id="Trazado_1035050" data-name="Trazado 1035050" d="M16.286,2.433l9.595,9.306s-1.6,4.9-5.439,5.031L10.813,7.736s1.368-4.912,5.473-5.3" transform="translate(-10.813 -2.432)" fill="#fff"/>
                        </g>
                      </g>
                    </g>
                    <g id="Grupo_1176801" data-name="Grupo 1176801" transform="translate(110.326 17.722)" opacity="0.22">
                      <g id="Grupo_1176800" data-name="Grupo 1176800">
                        <g id="Grupo_1176799" data-name="Grupo 1176799" clip-path="url(#clip-path-12)">
                          <path id="Trazado_1035051" data-name="Trazado 1035051" d="M17.521,2.086l8.371,9.484s-1.258,4.853-4.521,4.9L12.983,7.244s1.045-4.861,4.538-5.158" transform="translate(-12.975 -2.083)" fill="#fff"/>
                        </g>
                      </g>
                    </g>
                    <path id="Trazado_1035052" data-name="Trazado 1035052" d="M10.821,12.1A8.413,8.413,0,0,1,24.011,3.866,8.422,8.422,0,0,1,25.974,15.6a8.344,8.344,0,0,1-5.464,3.416,8.654,8.654,0,0,1-1.394.119A8.431,8.431,0,0,1,10.821,12.1m7.13-8.379a7.086,7.086,0,0,0-2.94,12.764,7.083,7.083,0,0,0,11.1-6.943,7.061,7.061,0,0,0-6.977-5.915,6.919,6.919,0,0,0-1.181.093" transform="translate(80.272 17.199)" fill="#d86539"/>
                    <path id="Trazado_1035053" data-name="Trazado 1035053" d="M16.544,17.434a8.967,8.967,0,0,1-3.527-5.881c-.756-4.572,1.836-8.847,5.762-9.51a6.649,6.649,0,0,1,5,1.207,9.032,9.032,0,0,1,3.518,5.881c.756,4.572-1.827,8.847-5.762,9.518a6.3,6.3,0,0,1-1.054.085,6.753,6.753,0,0,1-3.935-1.3M19.008,3.353C15.8,3.9,13.7,7.483,14.334,11.341a7.633,7.633,0,0,0,2.983,5.006,5.289,5.289,0,0,0,3.986.986c3.221-.544,5.311-4.13,4.674-7.988A7.657,7.657,0,0,0,23,4.338a5.511,5.511,0,0,0-3.17-1.054,5.305,5.305,0,0,0-.824.068" transform="translate(96.62 14.636)" fill="#d86539"/>
                    <path id="Trazado_1035054" data-name="Trazado 1035054" d="M13.371,4.892A2.973,2.973,0,0,1,16,4.45l.442-1.258a4.3,4.3,0,0,0-3.892.654l.824,1.045-.408-.527Z" transform="translate(94.082 22.266)" fill="#d86539"/>
                    <path id="Trazado_1035055" data-name="Trazado 1035055" d="M11.006,8.566l5.057-4.079L15.221,3.45,10.164,7.529Z" transform="translate(76.216 25.868)" fill="#d86539"/>
                    <path id="Trazado_1035056" data-name="Trazado 1035056" d="M17.732,28.515c-.017-1.479,4.207-13.376-2.014-27.679,0,0-5.685-.68-6.382,9.705-1.13,16.648,8.4,17.974,8.4,17.974" transform="translate(69.3 6.198)"/>
                    <path id="Trazado_1035057" data-name="Trazado 1035057" d="M22.044,12.669a18.065,18.065,0,0,0-3.476-5.915c-2.142-2.405-5.006-4.5-7.929-2.108C5.677,8.725,13.546,16.51,19.52,15.8c1.751-.2,3.017-1.776,2.524-3.127" transform="translate(68.012 26.906)" fill="#fbb087"/>
                    <path id="Trazado_1035058" data-name="Trazado 1035058" d="M16.786,7.868a.45.45,0,0,0,.229-.068.421.421,0,0,0,.119-.578C17.109,7.179,13.99,2.5,9.681,4.664a.414.414,0,1,0,.374.739c3.646-1.819,6.272,2.108,6.382,2.278a.417.417,0,0,0,.348.187" transform="translate(70.857 30.678)"/>
                    <path id="Trazado_1035059" data-name="Trazado 1035059" d="M9.8,8.176s7.8,7.572,35.846,3.059c0,0-5.609-10.657-20.124-11.2S9.8,8.176,9.8,8.176" transform="translate(73.521 0.065)"/>
                    <path id="Trazado_1035060" data-name="Trazado 1035060" d="M11.747,11.716s7.2,24.433,58.519,62.072L83.626,56.349,38.78,7.688Z" transform="translate(88.083 57.645)" fill="#eb3737"/>
                    <path id="Trazado_1035061" data-name="Trazado 1035061" d="M44.117,13.488,34.658,8.61,20.636,28.963c3.323,2.2,7.7,4.64,11.048,6.833Z" transform="translate(154.736 64.558)" fill="#fbb087"/>
                    <path id="Trazado_1035062" data-name="Trazado 1035062" d="M23.286,31.663l-.612-2.2a19.519,19.519,0,0,1-.357-9.076l1.054-5.3a2.073,2.073,0,0,1,2.77-1.538,2.662,2.662,0,0,1,1.717,2.431l.119,5.736L36.526,6.253a1.61,1.61,0,0,1,2.337-.586l.535.374A1.591,1.591,0,0,1,39.968,8L34,19.885,42.747,7.171a1.62,1.62,0,0,1,2.371-.442l.374.3a1.619,1.619,0,0,1,.391,2.1l-7.1,11.668,7.343-7.674a1.6,1.6,0,0,1,2.5.136l.119.17a1.607,1.607,0,0,1-.017,1.9l-7.054,8.524L46.3,20.3a1.611,1.611,0,0,1,2.66.586,1.585,1.585,0,0,1-.263,1.555L31.589,41.8l-4.674-4.249a12.581,12.581,0,0,1-3.629-5.889" transform="translate(164.553 40.383)" fill="#fbb087"/>
                    <path id="Trazado_1035063" data-name="Trazado 1035063" d="M26.3,16.7a.53.53,0,0,0,.527-.5,11,11,0,0,0-3.374-8.83.526.526,0,0,0-.739.068.534.534,0,0,0,.068.739,10.143,10.143,0,0,1,2.991,7.971.536.536,0,0,0,.5.552Z" transform="translate(169.411 54.321)"/>
                    <path id="Trazado_1035064" data-name="Trazado 1035064" d="M18.689,49.525,49.572,9.064l12.3,10.283L40.657,58.125c-3.595,6.246-8.966,9.408-14.906,6.6-5.345-2.524-9.544-9.833-7.062-15.2" transform="translate(134.647 67.962)" fill="#eb3737"/>
                    <path id="Trazado_1035065" data-name="Trazado 1035065" d="M18.786,20.8a.439.439,0,0,0,.323-.144l6.646-7.691a.425.425,0,0,0-.646-.552L18.463,20.1a.425.425,0,0,0,.323.705" transform="translate(137.685 91.978)"/>
                    <path id="Trazado_1035066" data-name="Trazado 1035066" d="M33.43,8.486,12.4,23.231l1.292,72.686,28.971-4.9S56.367,29.281,33.43,8.486" transform="translate(92.957 63.628)" fill="#fff"/>
                    <path id="Trazado_1035067" data-name="Trazado 1035067" d="M41.479,23.84,12.857,29.4l.654-7.215,27.968-4.768Z" transform="translate(96.405 130.582)"/>
                    <path id="Trazado_1035068" data-name="Trazado 1035068" d="M16.2,29.6S50.91,41.22,49.236,19.966L32.885,7.414l-10.963,6.2L16.2,18.385l-5.728,9.569Z" transform="translate(78.545 55.59)" fill="#fbb087"/>
                    <path id="Trazado_1035069" data-name="Trazado 1035069" d="M12.956,9.492a84.04,84.04,0,0,1,23.5,32.651c4.564,11.481,1.776,34.495,1.011,49.851S35.7,136.7,35.7,136.7l11.311-6.323s.255-67.358-1.394-76.2S36.148,11.2,24.828,7.512c0,0-3.858-1.147-10.546,1.232Z" transform="translate(97.148 54.251)" fill="#eb3737"/>
                    <path id="Trazado_1035070" data-name="Trazado 1035070" d="M22.268,43.343a.427.427,0,0,0,.425-.4c.051-.884,1.147-21.722-5.736-32.472a.424.424,0,1,0-.714.459c6.739,10.521,5.617,31.75,5.6,31.962a.433.433,0,0,0,.4.45Z" transform="translate(121.286 77.058)"/>
                    <path id="Trazado_1035071" data-name="Trazado 1035071" d="M28.822,10.126s5.124-4.428,12.51,1.266,16.674,25.962,16.674,49.4-6.96,68.08-6.96,68.08-25.419,9.782-43.155-2.889L34.652,80.858,21.675,44.8Z" transform="translate(59.169 63.628)" fill="#eb3737"/>
                    <path id="Trazado_1035072" data-name="Trazado 1035072" d="M57.11,8.55S38.328,13.063,4.386,66.891L22.708,79,58.172,38.872Z" transform="translate(32.888 64.108)" fill="#eb3737"/>
                    <path id="Trazado_1035073" data-name="Trazado 1035073" d="M10.115,22.29a.421.421,0,0,0,.314-.144l8.286-9.374a.411.411,0,0,0-.034-.595.419.419,0,0,0-.595.034L9.8,21.584a.411.411,0,0,0,.034.595.391.391,0,0,0,.28.11" transform="translate(72.651 90.489)"/>
                    <path id="Trazado_1035074" data-name="Trazado 1035074" d="M7.986,26.869,44.409,12.235l3.671,8.728L12.507,34.849Z" transform="translate(59.878 91.743)" fill="#d6800a"/>
                    <path id="Trazado_1035075" data-name="Trazado 1035075" d="M44.193,16.589l-1.887-4.147L8.143,26.473,10.2,30.62Z" transform="translate(61.057 93.292)" fill="#fff"/>
                    <path id="Trazado_1035076" data-name="Trazado 1035076" d="M8.36,27.537,29.334,77.77,65.265,62.618,45.013,12.512Z" transform="translate(62.688 93.814)" fill="#e89924"/>
                    <path id="Trazado_1035077" data-name="Trazado 1035077" d="M11.172,16.694,7.985,13.958,28.747,64.064l3.4,2.864Z" transform="translate(59.876 104.657)" fill="#d6800a"/>
                    <path id="Trazado_1035078" data-name="Trazado 1035078" d="M35.152,20.142,12.19,29.558,9.64,23.55,32.6,14.125Z" transform="translate(72.284 105.911)" fill="#fff"/>
                    <path id="Trazado_1035079" data-name="Trazado 1035079" d="M39.875,23.547,27.663,20.785l.391-2.719A2.287,2.287,0,0,0,26.8,15.677a2.1,2.1,0,0,0-2.6.646L15.969,27.745,9.74,36.532c7.156,3.578,13.861,3,15.764,1.419.28.017,9.51.714,9.51.714a1.726,1.726,0,0,0,1.963-1.4c.127-.68-.025-1.674-1.98-2.116l1.955.442a1.789,1.789,0,0,0,2.04-1.5c.17-.892-.578-1.8-1.759-2.21l1.453.178A1.85,1.85,0,0,0,40.81,30.3,2.048,2.048,0,0,0,39.2,28.229l-2.159-.476,2.4-.042a2.007,2.007,0,0,0,2.167-2,2.2,2.2,0,0,0-1.734-2.167" transform="translate(73.034 116.002)" fill="#fbb087"/>
                    <path id="Trazado_1035080" data-name="Trazado 1035080" d="M31.3,21.692,11.026,16.278,7.695,28.465l20.863,3.467Z" transform="translate(57.7 122.056)" fill="#fbb087"/>
                    <path id="Trazado_1035081" data-name="Trazado 1035081" d="M18.765,15.562l35.54,12.153-7.521,16.07L12.527,36.137a10.775,10.775,0,1,1,6.238-20.574" transform="translate(31.248 111.409)" fill="#eb3737"/>
                    <path id="Trazado_1035082" data-name="Trazado 1035082" d="M18.543,19.939a.424.424,0,0,0,.136-.824L6.807,15.053a.426.426,0,0,0-.272.807l11.872,4.054.136.025" transform="translate(46.852 112.717)"/>
                  </g>
                </g>
              </g>
            </g>
            <g id="Grupo_1176789-2" data-name="Grupo 1176789">
              <path id="Trazado_1034440" data-name="Trazado 1034440" d="M240.009,261.181s-14.149,46.119-1.3,80.478" transform="translate(-86.47 -55.56)" fill="none" stroke="#fff2e3" stroke-miterlimit="10" stroke-width="0.97"/>
              <path id="Trazado_1034442" data-name="Trazado 1034442" d="M98.608,273.132l-2.4-1.558H29.014L0,328.369H61.272Z" transform="translate(238.614 -57.771)" fill="#b2b2b2"/>
              <rect id="Rectángulo_415835" data-name="Rectángulo 415835" width="103.356" height="6.223" transform="translate(205.948 270.599)" fill="#cecece"/>
              <path id="Trazado_1034443" data-name="Trazado 1034443" d="M27.919,273.553H96.126L68.208,328.79H0Z" transform="translate(241.096 -58.191)" fill="#cecece"/>
              <path id="Trazado_1034444" data-name="Trazado 1034444" d="M46.11,312.172c2.67,3.663,8.461,3.991,12.933.732s5.934-8.872,3.265-12.536-8.459-3.991-12.932-.731-5.936,8.871-3.266,12.535" transform="translate(238.328 -63.263)" fill="#fff"/>
              <line id="Línea_946" data-name="Línea 946" x1="70.689" transform="translate(238.615 270.599)" fill="none" stroke="#b2b2b2" stroke-miterlimit="10" stroke-width="0.97"/>
              <rect id="Rectángulo_415836" data-name="Rectángulo 415836" width="48.498" height="6.223" transform="translate(190.116 270.599)" fill="#b2b2b2"/>
              <rect id="Rectángulo_415837" data-name="Rectángulo 415837" width="14.03" height="2.672" transform="translate(250.354 272.499)" fill="#b2b2b2"/>
              <rect id="Rectángulo_415838" data-name="Rectángulo 415838" width="7.349" height="2.672" transform="translate(227.926 272.499)" fill="#7a7774"/>
              <rect id="Rectángulo_415839" data-name="Rectángulo 415839" width="7.349" height="2.672" transform="translate(216.663 272.499)" fill="#7a7774"/>
              <path id="Trazado_1034445" data-name="Trazado 1034445" d="M320.086,345.912H283.977a10.3,10.3,0,1,1,0-20.6h36.109Z" transform="translate(-198.323 -69.201)" fill="#af1018"/>
              <path id="Trazado_1034446" data-name="Trazado 1034446" d="M320.086,345.912H283.977a10.3,10.3,0,1,1,0-20.6h36.109Z" transform="translate(-198.323 -69.201)" fill="#db5e1f"/>
              <path id="Trazado_1034447" data-name="Trazado 1034447" d="M224.787,344.911h45.221V328.556H224.787a7.761,7.761,0,0,0-7.761,7.761v.833a7.761,7.761,0,0,0,7.761,7.761" transform="translate(-103.645 -69.892)" fill="#fff"/>
              <path id="Trazado_1034448" data-name="Trazado 1034448" d="M224.786,328.556a7.76,7.76,0,0,0-7.76,7.744,7.748,7.748,0,0,1,7.576-6.131h45.405v-1.614Z" transform="translate(-103.645 -69.892)" fill="#d6c7b4"/>
              <g id="Grupo_1176513" data-name="Grupo 1176513" transform="translate(86.653 256.11)" opacity="0.35">
                <g id="Grupo_1176512" data-name="Grupo 1176512">
                  <g id="Grupo_1176511" data-name="Grupo 1176511" clip-path="url(#clip-path-13)">
                    <path id="Trazado_1034449" data-name="Trazado 1034449" d="M303.351,335.612h0a10.3,10.3,0,0,1,10.3-10.3h-6.81a10.3,10.3,0,0,0,0,20.6h6.81a10.3,10.3,0,0,1-10.3-10.3" transform="translate(-296.541 -325.312)" fill="#590a06"/>
                  </g>
                </g>
              </g>
              <path id="Trazado_1034450" data-name="Trazado 1034450" d="M266.364,341.271l-1.9-.074c-1.207-.031-2.932-.106-5-.141s-4.484-.1-7.071-.117l-8.107-.051-8.106.05c-2.587.013-5,.086-7.071.117s-3.794.11-5,.141l-1.9.075,1.9.075c1.208.031,2.933.107,5,.141s4.484.1,7.071.117l8.106.05,8.107-.051c2.587-.015,5-.086,7.071-.117s3.795-.109,5-.141l1.9-.074" transform="translate(-104.085 -72.515)" fill="#d3cabe"/>
              <path id="Trazado_1034451" data-name="Trazado 1034451" d="M261.515,338.84l-1.9-.074c-1.207-.031-2.932-.106-5-.141s-4.484-.1-7.071-.117l-8.107-.05-8.106.05c-2.587.013-5,.086-7.071.117s-3.795.11-5,.141l-1.9.075,1.9.075c1.207.031,2.932.107,5,.141s4.484.1,7.071.117l8.106.05,8.107-.051c2.587-.015,5-.086,7.071-.117s3.795-.109,5-.141l1.9-.074" transform="translate(-95.419 -71.998)" fill="#d3cabe"/>
              <path id="Trazado_1034452" data-name="Trazado 1034452" d="M263.872,334.24l-1.9-.074c-1.207-.031-2.932-.106-5-.141s-4.484-.1-7.071-.117l-8.106-.051-8.106.05c-2.587.013-5,.086-7.071.117s-3.794.11-5,.141l-1.9.075,1.9.075c1.208.031,2.933.107,5,.141s4.484.1,7.071.117l8.106.05,8.106-.05c2.588-.015,5-.086,7.071-.117s3.795-.109,5-.141l1.9-.074" transform="translate(-99.631 -71.02)" fill="#d3cabe"/>
              <path id="Trazado_1034453" data-name="Trazado 1034453" d="M225.392,343.358a7.746,7.746,0,1,1,0-15.492h45.483v-2.554h-45.7a10.3,10.3,0,0,0,0,20.6h45.7v-2.554Z" transform="translate(-102.821 -69.201)" fill="#f27740"/>
              <g id="Grupo_1176516" data-name="Grupo 1176516" transform="translate(75.354 256.11)" opacity="0.2" style="mix-blend-mode: multiply;isolation: isolate">
                <g id="Grupo_1176515" data-name="Grupo 1176515">
                  <g id="Grupo_1176514" data-name="Grupo 1176514" clip-path="url(#clip-path-14)">
                    <path id="Trazado_1034454" data-name="Trazado 1034454" d="M324.34,325.312H303.971a10.3,10.3,0,1,0,0,20.6c0-19.138,20.369-20.6,20.369-20.6" transform="translate(-293.671 -325.312)" fill="#560410"/>
                  </g>
                </g>
              </g>
              <g id="Grupo_1176519" data-name="Grupo 1176519" transform="translate(75.354 256.11)" opacity="0.16" style="mix-blend-mode: multiply;isolation: isolate">
                <g id="Grupo_1176518" data-name="Grupo 1176518">
                  <g id="Grupo_1176517" data-name="Grupo 1176517" clip-path="url(#clip-path-15)">
                    <path id="Trazado_1034455" data-name="Trazado 1034455" d="M307.252,325.312H278.19c-.2,0-.4.007-.6.018v-.018H241.486a10.3,10.3,0,1,0,0,20.6H277.6v-.018c.2.011.4.018.6.018l32.857-20.256Z" transform="translate(-231.186 -325.312)" fill="#1b2942"/>
                  </g>
                </g>
              </g>
              <path id="Trazado_1034456" data-name="Trazado 1034456" d="M302.706,303.323h-25.5a7.274,7.274,0,1,1,0-14.548h25.5Z" transform="translate(-177.994 -61.43)" fill="#af1018"/>
              <path id="Trazado_1034457" data-name="Trazado 1034457" d="M302.706,303.323h-25.5a7.274,7.274,0,1,1,0-14.548h25.5Z" transform="translate(-177.994 -61.43)" fill="#6fb590"/>
              <path id="Trazado_1034458" data-name="Trazado 1034458" d="M235.4,302.616H267.34v-11.55H235.4a5.481,5.481,0,0,0-5.481,5.481v.588a5.481,5.481,0,0,0,5.481,5.481" transform="translate(-111.131 -61.917)" fill="#fff"/>
              <path id="Trazado_1034459" data-name="Trazado 1034459" d="M235.4,291.065a5.48,5.48,0,0,0-5.48,5.469,5.471,5.471,0,0,1,5.35-4.329h32.066v-1.14Z" transform="translate(-111.13 -61.917)" fill="#d6c7b4"/>
              <g id="Grupo_1176522" data-name="Grupo 1176522" transform="translate(91.937 233.406)" opacity="0.49" style="mix-blend-mode: multiply;isolation: isolate">
                <g id="Grupo_1176521" data-name="Grupo 1176521">
                  <g id="Grupo_1176520" data-name="Grupo 1176520" clip-path="url(#clip-path-16)">
                    <path id="Trazado_1034460" data-name="Trazado 1034460" d="M277.274,297.686a7.341,7.341,0,0,0,.134,1.377h26.86v-2.59H277.383a7.249,7.249,0,0,0-.109,1.213" transform="translate(-277.274 -296.473)" fill="#1b2942"/>
                  </g>
                </g>
              </g>
              <path id="Trazado_1034461" data-name="Trazado 1034461" d="M235.831,301.519a5.47,5.47,0,0,1,0-10.941h32.121v-1.8H235.68a7.274,7.274,0,0,0,0,14.548h32.272v-1.8Z" transform="translate(-110.548 -61.43)" fill="#2d4f3b"/>
              <g id="Grupo_1176525" data-name="Grupo 1176525" transform="translate(91.937 227.346)" opacity="0.49" style="mix-blend-mode: multiply;isolation: isolate">
                <g id="Grupo_1176524" data-name="Grupo 1176524">
                  <g id="Grupo_1176523" data-name="Grupo 1176523" clip-path="url(#clip-path-17)">
                    <path id="Trazado_1034462" data-name="Trazado 1034462" d="M305.711,288.774H291.326a7.274,7.274,0,1,0,0,14.548c0-13.515,14.384-14.548,14.384-14.548" transform="translate(-284.052 -288.774)" fill="#1b2942"/>
                  </g>
                </g>
              </g>
              <path id="Trazado_1034463" data-name="Trazado 1034463" d="M263.968,301.62l-1.261-.086c-.8-.036-1.949-.123-3.325-.163s-2.981-.113-4.7-.142-3.555-.044-5.389-.054c-1.834.009-3.669.015-5.389.053s-3.325.1-4.7.141-2.522.128-3.325.164l-1.261.087,1.261.087c.8.036,1.949.124,3.325.164s2.981.115,4.7.141,3.555.044,5.389.053c1.834-.009,3.67-.016,5.389-.054s3.325-.1,4.7-.141,2.523-.128,3.325-.164l1.261-.086" transform="translate(-111.452 -64.067)" fill="#d3cabe"/>
              <path id="Trazado_1034464" data-name="Trazado 1034464" d="M261.195,298.341l-1.261-.037-3.325-.087-4.7-.068-5.389-.029-5.389.029-4.7.068c-2.752.06-4.587.125-4.587.125s1.834.065,4.587.125l4.7.068,5.389.029,5.389-.03,4.7-.068,3.325-.087,1.261-.037" transform="translate(-106.496 -63.417)" fill="#d3cabe"/>
              <path id="Trazado_1034465" data-name="Trazado 1034465" d="M220.985,321.581H246.1a7.164,7.164,0,0,0,0-14.328H220.985Z" transform="translate(-90.017 -65.36)" fill="#af1018"/>
              <path id="Trazado_1034466" data-name="Trazado 1034466" d="M220.985,321.581H246.1a7.164,7.164,0,0,0,0-14.328H220.985Z" transform="translate(-90.017 -65.36)" fill="#fdb03e"/>
              <path id="Trazado_1034467" data-name="Trazado 1034467" d="M286.031,320.885H254.58V309.51h31.451a5.4,5.4,0,0,1,5.4,5.4v.579a5.4,5.4,0,0,1-5.4,5.4" transform="translate(-154.631 -65.84)" fill="#fff"/>
              <path id="Trazado_1034468" data-name="Trazado 1034468" d="M286.031,309.51a5.4,5.4,0,0,1,5.4,5.386,5.389,5.389,0,0,0-5.269-4.263H254.58V309.51Z" transform="translate(-154.631 -65.84)" fill="#d6c7b4"/>
              <path id="Trazado_1034469" data-name="Trazado 1034469" d="M234.138,314.417h0a7.163,7.163,0,0,0-7.163-7.163h4.736a7.163,7.163,0,1,1,0,14.327h-4.736a7.164,7.164,0,0,0,7.163-7.163" transform="translate(-80.345 -65.36)" fill="#bc8d2f"/>
              <path id="Trazado_1034470" data-name="Trazado 1034470" d="M285.044,319.8a5.387,5.387,0,1,0,0-10.775H253.411v-1.776h31.782a7.163,7.163,0,1,1,0,14.327H253.411V319.8Z" transform="translate(-154.638 -65.36)" fill="#bc8d2f"/>
              <g id="Grupo_1176528" data-name="Grupo 1176528" transform="translate(141.915 241.894)" opacity="0.2" style="mix-blend-mode: overlay;isolation: isolate">
                <g id="Grupo_1176527" data-name="Grupo 1176527">
                  <g id="Grupo_1176526" data-name="Grupo 1176526" clip-path="url(#clip-path-18)">
                    <path id="Trazado_1034471" data-name="Trazado 1034471" d="M220.985,307.254h14.167a7.164,7.164,0,0,1,0,14.328c0-13.31-14.167-14.328-14.167-14.328" transform="translate(-220.985 -307.254)" fill="#fefefe"/>
                  </g>
                </g>
              </g>
              <path id="Trazado_1034472" data-name="Trazado 1034472" d="M290.795,319.992l-1.312-.067c-.836-.028-2.029-.1-3.462-.128s-3.1-.093-4.893-.106l-5.609-.046-5.609.046c-1.79.011-3.461.077-4.894.105s-2.625.1-3.461.128l-1.312.068,1.312.068c.836.028,2.029.1,3.461.128s3.1.094,4.894.105l5.609.046,5.609-.046c1.79-.013,3.461-.078,4.893-.106s2.626-.1,3.462-.128l1.312-.067" transform="translate(-158.456 -67.996)" fill="#d3cabe"/>
              <path id="Trazado_1034473" data-name="Trazado 1034473" d="M288.422,318.1l-1.313-.067c-.835-.028-2.029-.1-3.461-.128s-3.1-.093-4.893-.106l-5.609-.046-5.609.046c-1.79.011-3.461.077-4.894.105s-2.626.1-3.461.128l-1.312.068,1.312.068c.835.028,2.029.1,3.461.128s3.1.094,4.894.105l5.609.046,5.609-.046c1.79-.013,3.461-.078,4.893-.106s2.626-.1,3.461-.128l1.313-.067" transform="translate(-154.215 -67.594)" fill="#d3cabe"/>
              <path id="Trazado_1034474" data-name="Trazado 1034474" d="M291.916,313.576l-1.313-.067c-.835-.028-2.029-.1-3.461-.128s-3.1-.093-4.893-.106l-5.609-.046-5.609.046c-1.79.011-3.461.077-4.893.105s-2.626.1-3.462.128l-1.312.068,1.312.068c.835.028,2.029.1,3.462.128s3.1.094,4.893.105l5.609.046,5.609-.046c1.79-.013,3.461-.078,4.893-.106s2.626-.1,3.461-.128l1.313-.067" transform="translate(-160.459 -66.632)" fill="#d3cabe"/>
              <g id="Grupo_1176531" data-name="Grupo 1176531" transform="translate(98.773 241.894)" opacity="0.16" style="mix-blend-mode: multiply;isolation: isolate">
                <g id="Grupo_1176530" data-name="Grupo 1176530">
                  <g id="Grupo_1176529" data-name="Grupo 1176529" clip-path="url(#clip-path-19)">
                    <path id="Trazado_1034475" data-name="Trazado 1034475" d="M266.776,307.254v1.776h1.176V319.8h-1.176v1.777h4.768L295.2,307.254Z" transform="translate(-266.776 -307.254)" fill="#1b2942"/>
                  </g>
                </g>
              </g>
              <rect id="Rectángulo_415847" data-name="Rectángulo 415847" width="4.251" height="6.418" transform="translate(146.503 232.94)" fill="#f27740"/>
              <path id="Trazado_1034476" data-name="Trazado 1034476" d="M234.615,295.834s.475.055,1.186.1c.356.014.771.046,1.216.053l1.394.023,1.394-.023c.445-.006.86-.039,1.216-.053.712-.042,1.186-.1,1.186-.1s-.475-.056-1.186-.1c-.356-.014-.771-.047-1.216-.053l-1.394-.023-1.394.023c-.445.007-.86.039-1.216.053-.712.043-1.186.1-1.186.1" transform="translate(-89.692 -62.895)" fill="#d3cabe"/>
              <path id="Trazado_1034477" data-name="Trazado 1034477" d="M367.589,196.222s28.77,35.016,10.335,76.46c-31.995-27.695-10.82-62.789-10.335-76.46" transform="translate(-330.503 -41.741)" fill="#599172"/>
              <path id="Trazado_1034478" data-name="Trazado 1034478" d="M367.4,196.222s13.777,49.37,10.335,76.46" transform="translate(-330.318 -41.741)" fill="none" stroke="#427824" stroke-miterlimit="10" stroke-width="1"/>
              <path id="Trazado_1034479" data-name="Trazado 1034479" d="M384.959,234.344s-6.953-5.928-13.086-6.987" transform="translate(-340.504 -48.364)" fill="none" stroke="#427824" stroke-miterlimit="10" stroke-width="1"/>
              <path id="Trazado_1034480" data-name="Trazado 1034480" d="M385.311,264.235a26.219,26.219,0,0,0-17.284-9.749" transform="translate(-337.828 -54.136)" fill="none" stroke="#427824" stroke-miterlimit="10" stroke-width="1"/>
              <path id="Trazado_1034482" data-name="Trazado 1034482" d="M370.433,220.464s1.52-5.181,3.587-6.414" transform="translate(-328.431 -45.533)" fill="none" stroke="#427824" stroke-miterlimit="10" stroke-width="1"/>
              <path id="Trazado_1034483" data-name="Trazado 1034483" d="M363.73,198.863s11.8,43.756-22.067,73.932c-17.752-38.413,16-61.673,22.067-73.932" transform="translate(-293.46 -42.303)" fill="#6fb590"/>
              <path id="Trazado_1034484" data-name="Trazado 1034484" d="M361.15,198.863s-7.777,50.663-22.067,73.932" transform="translate(-290.88 -42.303)" fill="none" stroke="#448260" stroke-miterlimit="10" stroke-width="1"/>
              <path id="Trazado_1034485" data-name="Trazado 1034485" d="M356.077,236s-3.895-8.266-9.047-11.756" transform="translate(-292.064 -47.702)" fill="none" stroke="#448260" stroke-miterlimit="10" stroke-width="1"/>
              <path id="Trazado_1034486" data-name="Trazado 1034486" d="M367.877,264.355a26.221,26.221,0,0,0-11.736-16" transform="translate(-311.036 -52.831)" fill="none" stroke="#448260" stroke-miterlimit="10" stroke-width="1"/>
              <path id="Trazado_1034487" data-name="Trazado 1034487" d="M339.609,250.826s3.867-3.572,8.773-3.526" transform="translate(-278.526 -52.606)" fill="none" stroke="#448260" stroke-miterlimit="10" stroke-width="1"/>
              <path id="Trazado_1034488" data-name="Trazado 1034488" d="M336.583,223.924s3.519-4.1,5.91-4.368" transform="translate(-270.255 -46.705)" fill="none" stroke="#448260" stroke-miterlimit="10" stroke-width="1"/>
              <path id="Trazado_1034489" data-name="Trazado 1034489" d="M424.411,217.194s-7.824-11.041-13-6.719,3.591,10.292,13,6.719" transform="translate(-409.874 -44.56)" fill="#417556"/>
              <path id="Trazado_1034490" data-name="Trazado 1034490" d="M408.769,250.97s-.329-13.528-7.034-12.829-2.765,10.543,7.034,12.829" transform="translate(-385.197 -50.653)" fill="#417556"/>
              <path id="Trazado_1034491" data-name="Trazado 1034491" d="M406.626,212.836s-.329-13.528-7.034-12.829-2.765,10.543,7.034,12.829" transform="translate(-381.367 -42.541)" fill="#417556"/>
              <path id="Trazado_1034492" data-name="Trazado 1034492" d="M372.015,263.343s11.785-6.651,8.016-12.241-10.605,2.517-8.016,12.241" transform="translate(-335.981 -53.026)" fill="#417556"/>
              <path id="Trazado_1034493" data-name="Trazado 1034493" d="M407.536,280.857s-13.072-8.344-7.907-30.279-15.221-31.472-19.709-33.265" transform="translate(-369.415 -46.228)" fill="none" stroke="#133f1a" stroke-linecap="round" stroke-miterlimit="10" stroke-width="2"/>
              <path id="Trazado_1034494" data-name="Trazado 1034494" d="M398.86,227.528s.794-9.687-3.959-16.11" transform="translate(-372.584 -44.974)" fill="none" stroke="#133f1a" stroke-linecap="round" stroke-miterlimit="10" stroke-width="2"/>
              <path id="Trazado_1034495" data-name="Trazado 1034495" d="M400.569,257.036s-7.727-2.124-10.605-9.362" transform="translate(-370.357 -52.687)" fill="none" stroke="#133f1a" stroke-linecap="round" stroke-miterlimit="10" stroke-width="2"/>
              <path id="Trazado_1034496" data-name="Trazado 1034496" d="M379.3,273.376s7.227-4.485,9.326-15.208" transform="translate(-350.009 -54.919)" fill="none" stroke="#133f1a" stroke-linecap="round" stroke-miterlimit="10" stroke-width="2"/>
              <path id="Trazado_1034497" data-name="Trazado 1034497" d="M363.013,285.637h20.428s-3.149,36.952-11.114,51.947H353.7c-7.965-14.994-11.114-51.947-11.114-51.947Z" transform="translate(-315.928 -60.762)" fill="#2c4556"/>
              <g id="Grupo_1176534" data-name="Grupo 1176534" transform="translate(46.92 224.875)" opacity="0.45">
                <g id="Grupo_1176533" data-name="Grupo 1176533">
                  <g id="Grupo_1176532" data-name="Grupo 1176532" clip-path="url(#clip-path-20)">
                    <path id="Trazado_1034498" data-name="Trazado 1034498" d="M363.178,285.637s-3.149,36.952-11.114,51.947h-9.479c7.965-14.994,11.114-51.947,11.114-51.947Z" transform="translate(-342.585 -285.637)" fill="#1b2e38"/>
                  </g>
                </g>
              </g>
              <path id="Trazado_1034499" data-name="Trazado 1034499" d="M383.441,285.637s-.259,3.04-.816,7.724H343.4c-.557-4.684-.816-7.724-.816-7.724h40.857Z" transform="translate(-315.928 -60.762)" fill="#4b72b7"/>
              <path id="Trazado_1034500" data-name="Trazado 1034500" d="M21.885,357.046a5.426,5.426,0,0,0,5.426,5.426H317.794a5.426,5.426,0,0,0,0-10.852H27.311a5.426,5.426,0,0,0-5.426,5.426" transform="translate(-3.227 -74.798)" fill="#4b72b7"/>
              <g id="Grupo_1176537" data-name="Grupo 1176537" transform="translate(197.137 276.822)" opacity="0.52">
                <g id="Grupo_1176536" data-name="Grupo 1176536">
                  <g id="Grupo_1176535" data-name="Grupo 1176535" clip-path="url(#clip-path-21)">
                    <path id="Trazado_1034501" data-name="Trazado 1034501" d="M21.885,357.046a5.426,5.426,0,0,0,5.426,5.426h112a5.426,5.426,0,1,0,0-10.852h-112a5.426,5.426,0,0,0-5.426,5.426" transform="translate(-21.885 -351.62)" fill="#2c4556"/>
                  </g>
                </g>
              </g>
              <rect id="Rectángulo_415850" data-name="Rectángulo 415850" width="337.222" height="287.674" fill="none"/>
            </g>
          </g>
        </g>
      </g>
    </g>
  </g>
</svg>
