<svg xmlns="http://www.w3.org/2000/svg" xmlns:xlink="http://www.w3.org/1999/xlink" width="113" height="113" viewBox="0 0 113 113">
  <defs>
    <filter id="Trazado_982547" x="0" y="0" width="113" height="113" filterUnits="userSpaceOnUse">
      <feOffset dy="3" input="SourceAlpha"/>
      <feGaussianBlur stdDeviation="3" result="blur"/>
      <feFlood flood-opacity="0.161"/>
      <feComposite operator="in" in2="blur"/>
      <feComposite in="SourceGraphic"/>
    </filter>
  </defs>
  <g id="Grupo_1176542" data-name="Grupo 1176542" transform="translate(-271.5 -1298.145)">
    <g id="Grupo_1171046" data-name="Grupo 1171046" transform="translate(280.5 1304.145)">
      <g id="Grupo_1148525" data-name="Grupo 1148525" transform="translate(0)">
        <g transform="matrix(1, 0, 0, 1, -9, -6)" filter="url(#Trazado_982547)">
          <g id="Trazado_982547-2" data-name="Trazado 982547" transform="translate(9 6)" fill="#f4fdfe">
            <path d="M 47.5 93.5 C 41.28937149047852 93.5 35.26533508300781 92.28397369384766 29.59518623352051 89.88570404052734 C 24.11771965026855 87.56893157958984 19.19813346862793 84.25196075439453 14.97309303283691 80.02691650390625 C 10.74804019927979 75.80186462402344 7.431066513061523 70.88229370117188 5.114293098449707 65.40481567382812 C 2.716026782989502 59.73468017578125 1.5 53.71062850952148 1.5 47.5 C 1.5 41.28937149047852 2.716026782989502 35.26533508300781 5.114293098449707 29.59518623352051 C 7.431066513061523 24.11771965026855 10.74804019927979 19.19813346862793 14.97309303283691 14.97309303283691 C 19.19813346862793 10.74804019927979 24.11771965026855 7.431066513061523 29.59518623352051 5.114293098449707 C 35.26533508300781 2.716026782989502 41.28937149047852 1.5 47.5 1.5 C 53.71062850952148 1.5 59.73468017578125 2.716026782989502 65.40481567382812 5.114293098449707 C 70.88229370117188 7.431066513061523 75.80186462402344 10.74804019927979 80.02691650390625 14.97309303283691 C 84.25196075439453 19.19813346862793 87.56893157958984 24.11771965026855 89.88570404052734 29.59518623352051 C 92.28397369384766 35.26533508300781 93.5 41.28937149047852 93.5 47.5 C 93.5 53.71062850952148 92.28397369384766 59.73468017578125 89.88570404052734 65.40481567382812 C 87.56893157958984 70.88229370117188 84.25196075439453 75.80186462402344 80.02691650390625 80.02691650390625 C 75.80186462402344 84.25196075439453 70.88229370117188 87.56893157958984 65.40481567382812 89.88570404052734 C 59.73468017578125 92.28397369384766 53.71062850952148 93.5 47.5 93.5 Z" stroke="none"/>
            <path d="M 47.5 3 C 41.49121475219727 3 35.66376876831055 4.176155090332031 30.17950439453125 6.495796203613281 C 24.88084411621094 8.736953735351562 20.12152099609375 11.94598388671875 16.03375244140625 16.03375244140625 C 11.94598388671875 20.12152099609375 8.736953735351562 24.88084411621094 6.495796203613281 30.17950439453125 C 4.176155090332031 35.66376876831055 3 41.49121475219727 3 47.5 C 3 53.50878524780273 4.176155090332031 59.33623123168945 6.495796203613281 64.82049560546875 C 8.736953735351562 70.11915588378906 11.94598388671875 74.87847900390625 16.03375244140625 78.96624755859375 C 20.12152099609375 83.05401611328125 24.88084411621094 86.26304626464844 30.17950439453125 88.50419616699219 C 35.66376876831055 90.82384490966797 41.49121475219727 92 47.5 92 C 53.50878524780273 92 59.33623123168945 90.82384490966797 64.82049560546875 88.50419616699219 C 70.11915588378906 86.26304626464844 74.87847900390625 83.05401611328125 78.96624755859375 78.96624755859375 C 83.05401611328125 74.87847900390625 86.26304626464844 70.11915588378906 88.50419616699219 64.82049560546875 C 90.82384490966797 59.33623123168945 92 53.50878524780273 92 47.5 C 92 41.49121475219727 90.82384490966797 35.66376876831055 88.50419616699219 30.17950439453125 C 86.26304626464844 24.88084411621094 83.05401611328125 20.12152099609375 78.96624755859375 16.03375244140625 C 74.87847900390625 11.94598388671875 70.11915588378906 8.736953735351562 64.82049560546875 6.495796203613281 C 59.33623123168945 4.176155090332031 53.50878524780273 3 47.5 3 M 47.5 0 C 73.7335205078125 0 95 21.2664794921875 95 47.5 C 95 73.7335205078125 73.7335205078125 95 47.5 95 C 21.2664794921875 95 0 73.7335205078125 0 47.5 C 0 21.2664794921875 21.2664794921875 0 47.5 0 Z" stroke="none" fill="#56838a"/>
          </g>
        </g>
      </g>
    </g>
    <g id="innovative_3881204" transform="translate(297 1321.076)">
      <g id="Grupo_1176822" data-name="Grupo 1176822">
        <g id="Grupo_1176805" data-name="Grupo 1176805">
          <path id="Trazado_1035083" data-name="Trazado 1035083" d="M32,55l1,6H29l1-6Z" fill="#ffeaa7"/>
        </g>
        <g id="Grupo_1176806" data-name="Grupo 1176806">
          <path id="Trazado_1035084" data-name="Trazado 1035084" d="M33,53l-1,2H30l-1-2,2-2Z" fill="#fcd770"/>
        </g>
        <g id="Grupo_1176807" data-name="Grupo 1176807">
          <path id="Trazado_1035085" data-name="Trazado 1035085" d="M35,55l.61-6.05a3.989,3.989,0,0,0,.93-.26L50,46l1,5L40,54v7H33l-1-6,1-2Z" fill="#ff826e"/>
        </g>
        <g id="Grupo_1176808" data-name="Grupo 1176808">
          <path id="Trazado_1035086" data-name="Trazado 1035086" d="M12,46l13.46,2.69a3.989,3.989,0,0,0,.93.26L27,55l2-2,1,2-1,6H22V54L11,51Z" fill="#ff826e"/>
        </g>
        <g id="Grupo_1176809" data-name="Grupo 1176809">
          <path id="Trazado_1035087" data-name="Trazado 1035087" d="M35.61,48.95,35,55l-2-2-2-2-2,2-2,2-.61-6.05A4.071,4.071,0,0,0,27,49h8A4.071,4.071,0,0,0,35.61,48.95Z" fill="#fc6e51"/>
        </g>
        <g id="Grupo_1176810" data-name="Grupo 1176810">
          <path id="Trazado_1035088" data-name="Trazado 1035088" d="M58,38v8.27A2,2,0,0,0,57,48v2a2,2,0,0,0,1,1.73V55a2.006,2.006,0,0,1-2,2,2.015,2.015,0,0,1-2-2V48l.38-.38a2.125,2.125,0,0,0,0-3,2.285,2.285,0,0,0-.38-.3V38a1,1,0,0,1,1-1h2A1,1,0,0,1,58,38Z" fill="#969faa"/>
        </g>
        <g id="Grupo_1176811" data-name="Grupo 1176811">
          <path id="Trazado_1035089" data-name="Trazado 1035089" d="M56,31c1.1,0,2,2.9,2,4a2,2,0,0,1-4,0C54,33.9,54.9,31,56,31Z" fill="#cf9e76"/>
        </g>
        <g id="Grupo_1176812" data-name="Grupo 1176812">
          <path id="Trazado_1035090" data-name="Trazado 1035090" d="M5,48a2,2,0,0,0-1-1.73V37H8v7.32a2.285,2.285,0,0,0-.38.3,2.125,2.125,0,0,0,0,3L8,48v7a2.015,2.015,0,0,1-2,2,2.006,2.006,0,0,1-2-2V51.73A2,2,0,0,0,5,50Z" fill="#b4dd7f"/>
        </g>
        <g id="Grupo_1176813" data-name="Grupo 1176813">
          <path id="Trazado_1035091" data-name="Trazado 1035091" d="M7.16,31.99,8,37H4l.84-5.01a1.175,1.175,0,0,1,2.32,0Z" fill="#aab2bd"/>
        </g>
        <g id="Grupo_1176814" data-name="Grupo 1176814">
          <path id="Trazado_1035092" data-name="Trazado 1035092" d="M61,50a2,2,0,0,1-4,0V48a2,2,0,0,1,2-2,2.015,2.015,0,0,1,2,2Z" fill="#f0d0b4"/>
        </g>
        <g id="Grupo_1176815" data-name="Grupo 1176815">
          <path id="Trazado_1035093" data-name="Trazado 1035093" d="M54,48v4h-.59A3.415,3.415,0,0,1,51,51l-1-5,1.38-1.38a2.119,2.119,0,0,1,1.5-.62,2.15,2.15,0,0,1,1.12.32,2.285,2.285,0,0,1,.38.3,2.125,2.125,0,0,1,0,3Z" fill="#f0d0b4"/>
        </g>
        <g id="Grupo_1176816" data-name="Grupo 1176816">
          <path id="Trazado_1035094" data-name="Trazado 1035094" d="M11,51a3.415,3.415,0,0,1-2.41,1H8V48l-.38-.38a2.125,2.125,0,0,1,0-3,2.285,2.285,0,0,1,.38-.3A2.15,2.15,0,0,1,9.12,44a2.119,2.119,0,0,1,1.5.62L12,46Z" fill="#f0d0b4"/>
        </g>
        <g id="Grupo_1176817" data-name="Grupo 1176817">
          <path id="Trazado_1035095" data-name="Trazado 1035095" d="M5,48v2a2,2,0,0,1-4,0V48a1.955,1.955,0,0,1,.59-1.41A1.955,1.955,0,0,1,3,46a2,2,0,0,1,2,2Z" fill="#f0d0b4"/>
        </g>
        <g id="Grupo_1176818" data-name="Grupo 1176818">
          <path id="Trazado_1035096" data-name="Trazado 1035096" d="M39,45a3.992,3.992,0,0,1-3.39,3.95A4.071,4.071,0,0,1,35,49H27a4.071,4.071,0,0,1-.61-.05A3.992,3.992,0,0,1,23,45Z" fill="#aab2bd"/>
        </g>
        <g id="Grupo_1176819" data-name="Grupo 1176819">
          <path id="Trazado_1035097" data-name="Trazado 1035097" d="M41,41v2a2.006,2.006,0,0,1-2,2H23a2.006,2.006,0,0,1-2-2V41a2.006,2.006,0,0,1,2-2H39A2.006,2.006,0,0,1,41,41Z" fill="#ccd1d9"/>
        </g>
        <g id="Grupo_1176820" data-name="Grupo 1176820">
          <path id="Trazado_1035098" data-name="Trazado 1035098" d="M33,39H23V37.96a5.709,5.709,0,0,0-2.43-4.66A17.756,17.756,0,0,1,30.76,1h.48A17.757,17.757,0,0,1,41.43,33.3a5.829,5.829,0,0,0-1.79,2.04A5.761,5.761,0,0,0,39,37.96V39Z" fill="#ffeaa7"/>
        </g>
        <g id="Grupo_1176821" data-name="Grupo 1176821">
          <path id="Trazado_1035099" data-name="Trazado 1035099" d="M37,13,30.28,26.44a1.021,1.021,0,0,1-1.89-.75L31,17H25L29,7h5l-2,6Z" fill="#fcd770"/>
        </g>
      </g>
      <g id="Grupo_1176823" data-name="Grupo 1176823">
        <path id="Trazado_1035100" data-name="Trazado 1035100" d="M59,45V38a1.983,1.983,0,0,0-.513-1.324A2.982,2.982,0,0,0,59,35c0-1.164-.936-5-3-5s-3,3.836-3,5a2.982,2.982,0,0,0,.513,1.676A1.983,1.983,0,0,0,53,38v5.012c-.041,0-.08-.012-.121-.012a3.142,3.142,0,0,0-2.207.914l-1.165,1.165-9.971,1.994a4.916,4.916,0,0,0,.378-1.231A2.993,2.993,0,0,0,42,43V41a3,3,0,0,0-2-2.816v-.222a4.694,4.694,0,0,1,2-3.841A18.756,18.756,0,0,0,31.244,0h-.488A18.756,18.756,0,0,0,20,34.121a4.694,4.694,0,0,1,2,3.841v.222A3,3,0,0,0,20,41v2a2.993,2.993,0,0,0,2.085,2.842,4.97,4.97,0,0,0,.378,1.231l-9.971-1.994-1.165-1.165A3.138,3.138,0,0,0,9.121,43c-.041,0-.08.011-.121.012V37l-.85-5.178a2.18,2.18,0,0,0-4.3,0l-.836,5.014L3,45H3a3,3,0,0,0-3,3v2a3,3,0,0,0,3,3v2a3,3,0,1,0,6,0V52.96a4.34,4.34,0,0,0,2.23-.861L21,54.764V62H41V54.764L50.77,52.1A4.349,4.349,0,0,0,53,52.96V55a3,3,0,0,0,6,0V53a3,3,0,0,0,3-3V48a3,3,0,0,0-3-3ZM56,32.085A6.192,6.192,0,0,1,57,35a1,1,0,0,1-2,0A6.192,6.192,0,0,1,56,32.085ZM27,48a3,3,0,0,1-2.816-2H37.815A3,3,0,0,1,35,48Zm3.586,2-2.8,2.8L27.5,50Zm.261,6h.306l.667,4H30.18Zm.535-2h-.764l-.4-.8L31,52.414l.783.783Zm.032-4h3.081l-.28,2.8ZM21.146,32.482A16.756,16.756,0,0,1,30.756,2h.488a16.756,16.756,0,0,1,9.61,30.483A6.689,6.689,0,0,0,38,37.962V38H34V33.535l2.555-1.7-1.109-1.664L32,32.465V38H30V32.465l-3.445-2.3-1.109,1.664L28,33.535V38H24v-.038A6.692,6.692,0,0,0,21.146,32.482ZM22,41a1,1,0,0,1,1-1H39a1,1,0,0,1,1,1v2a1,1,0,0,1-1,1H23a1,1,0,0,1-1-1ZM6.178,32.15,6.819,36H5.181l.642-3.85A.186.186,0,0,1,6.178,32.15ZM2,50V48a1,1,0,0,1,2,0v2a1,1,0,0,1-2,0Zm5,5a1,1,0,0,1-2,0V52.22A2.985,2.985,0,0,0,6,50V48a2.985,2.985,0,0,0-1-2.22V38H7v5.845a3.105,3.105,0,0,0-1,2.276,3.142,3.142,0,0,0,.914,2.207L7,48.414Zm1.328-8.086a1.121,1.121,0,0,1,1.586-1.586l1,1-.827,4.133A2.364,2.364,0,0,1,9,50.96V47.586ZM21,51v1.691l-8.836-2.41.62-3.1,12.477,2.495v0c.067.025.138.042.207.064l.747,7.464,2.511-2.511.234.469L28.153,60H23V51Zm20,1.691V51H39v9H33.847l-.807-4.843.234-.469L35.785,57.2l.747-7.464c.069-.022.14-.039.207-.064v0l12.477-2.495.62,3.1Zm12.672-5.777L53,47.586V50.96a2.372,2.372,0,0,1-1.087-.5l-.827-4.133,1-1a1.121,1.121,0,0,1,1.586,1.585ZM57,55a1,1,0,0,1-2,0V48.414l.086-.086A3.142,3.142,0,0,0,56,46.121a3.105,3.105,0,0,0-1-2.276V38h2v7.78A2.983,2.983,0,0,0,56,48v2a2.985,2.985,0,0,0,1,2.22Zm3-5a1,1,0,0,1-2,0V48a1,1,0,0,1,2,0Z"/>
        <path id="Trazado_1035101" data-name="Trazado 1035101" d="M27.436,25.4a2.019,2.019,0,0,0,3.741,1.482L38.618,12h-5.23l2-6H28.324l-4.8,12h6.133ZM26.477,16l3.2-8h2.936l-2,6h4.77L29.388,25.989l-.035-.016L32.344,16Z"/>
        <path id="Trazado_1035102" data-name="Trazado 1035102" d="M59,22H55a1,1,0,0,1,0-2h2a3,3,0,0,0,0-6H54a1,1,0,0,1,0-2h5a3,3,0,0,0,0-6H50V8h9a1,1,0,0,1,0,2H54a3,3,0,0,0,0,6h3a1,1,0,0,1,0,2H55a3,3,0,0,0,0,6h4a1,1,0,0,1,0,2H51v2h8a3,3,0,0,0,0-6Z"/>
        <path id="Trazado_1035103" data-name="Trazado 1035103" d="M7,22H3a3,3,0,0,0,0,6h8V26H3a1,1,0,0,1,0-2H7a3,3,0,0,0,0-6H5a1,1,0,0,1,0-2H8a3,3,0,0,0,0-6H3A1,1,0,0,1,3,8h9V6H3a3,3,0,0,0,0,6H8a1,1,0,0,1,0,2H5a3,3,0,0,0,0,6H7a1,1,0,0,1,0,2Z"/>
      </g>
    </g>
  </g>
</svg>
