<svg xmlns="http://www.w3.org/2000/svg" xmlns:xlink="http://www.w3.org/1999/xlink" width="113" height="113" viewBox="0 0 113 113">
  <defs>
    <filter id="Trazado_982547" x="0" y="0" width="113" height="113" filterUnits="userSpaceOnUse">
      <feOffset dy="3" input="SourceAlpha"/>
      <feGaussianBlur stdDeviation="3" result="blur"/>
      <feFlood flood-opacity="0.161"/>
      <feComposite operator="in" in2="blur"/>
      <feComposite in="SourceGraphic"/>
    </filter>
  </defs>
  <g id="Grupo_1176875" data-name="Grupo 1176875" transform="translate(-901.5 -10518.068)">
    <g id="Grupo_1176544" data-name="Grupo 1176544" transform="translate(0 9219.924)">
      <g id="Grupo_1171048" data-name="Grupo 1171048" transform="translate(910.5 1304.145)">
        <g id="Grupo_1148525" data-name="Grupo 1148525" transform="translate(0)">
          <g transform="matrix(1, 0, 0, 1, -9, -6)" filter="url(#Trazado_982547)">
            <g id="Trazado_982547-2" data-name="Trazado 982547" transform="translate(9 6)" fill="#f4fdfe">
              <path d="M 47.5 93.5 C 41.28937149047852 93.5 35.26533508300781 92.28397369384766 29.59518623352051 89.88570404052734 C 24.11771965026855 87.56893157958984 19.19813346862793 84.25196075439453 14.97309303283691 80.02691650390625 C 10.74804019927979 75.80186462402344 7.431066513061523 70.88229370117188 5.114293098449707 65.40481567382812 C 2.716026782989502 59.73468017578125 1.5 53.71062850952148 1.5 47.5 C 1.5 41.28937149047852 2.716026782989502 35.26533508300781 5.114293098449707 29.59518623352051 C 7.431066513061523 24.11771965026855 10.74804019927979 19.19813346862793 14.97309303283691 14.97309303283691 C 19.19813346862793 10.74804019927979 24.11771965026855 7.431066513061523 29.59518623352051 5.114293098449707 C 35.26533508300781 2.716026782989502 41.28937149047852 1.5 47.5 1.5 C 53.71062850952148 1.5 59.73468017578125 2.716026782989502 65.40481567382812 5.114293098449707 C 70.88229370117188 7.431066513061523 75.80186462402344 10.74804019927979 80.02691650390625 14.97309303283691 C 84.25196075439453 19.19813346862793 87.56893157958984 24.11771965026855 89.88570404052734 29.59518623352051 C 92.28397369384766 35.26533508300781 93.5 41.28937149047852 93.5 47.5 C 93.5 53.71062850952148 92.28397369384766 59.73468017578125 89.88570404052734 65.40481567382812 C 87.56893157958984 70.88229370117188 84.25196075439453 75.80186462402344 80.02691650390625 80.02691650390625 C 75.80186462402344 84.25196075439453 70.88229370117188 87.56893157958984 65.40481567382812 89.88570404052734 C 59.73468017578125 92.28397369384766 53.71062850952148 93.5 47.5 93.5 Z" stroke="none"/>
              <path d="M 47.5 3 C 41.49121475219727 3 35.66376876831055 4.176155090332031 30.17950439453125 6.495796203613281 C 24.88084411621094 8.736953735351562 20.12152099609375 11.94598388671875 16.03375244140625 16.03375244140625 C 11.94598388671875 20.12152099609375 8.736953735351562 24.88084411621094 6.495796203613281 30.17950439453125 C 4.176155090332031 35.66376876831055 3 41.49121475219727 3 47.5 C 3 53.50878524780273 4.176155090332031 59.33623123168945 6.495796203613281 64.82049560546875 C 8.736953735351562 70.11915588378906 11.94598388671875 74.87847900390625 16.03375244140625 78.96624755859375 C 20.12152099609375 83.05401611328125 24.88084411621094 86.26304626464844 30.17950439453125 88.50419616699219 C 35.66376876831055 90.82384490966797 41.49121475219727 92 47.5 92 C 53.50878524780273 92 59.33623123168945 90.82384490966797 64.82049560546875 88.50419616699219 C 70.11915588378906 86.26304626464844 74.87847900390625 83.05401611328125 78.96624755859375 78.96624755859375 C 83.05401611328125 74.87847900390625 86.26304626464844 70.11915588378906 88.50419616699219 64.82049560546875 C 90.82384490966797 59.33623123168945 92 53.50878524780273 92 47.5 C 92 41.49121475219727 90.82384490966797 35.66376876831055 88.50419616699219 30.17950439453125 C 86.26304626464844 24.88084411621094 83.05401611328125 20.12152099609375 78.96624755859375 16.03375244140625 C 74.87847900390625 11.94598388671875 70.11915588378906 8.736953735351562 64.82049560546875 6.495796203613281 C 59.33623123168945 4.176155090332031 53.50878524780273 3 47.5 3 M 47.5 0 C 73.7335205078125 0 95 21.2664794921875 95 47.5 C 95 73.7335205078125 73.7335205078125 95 47.5 95 C 21.2664794921875 95 0 73.7335205078125 0 47.5 C 0 21.2664794921875 21.2664794921875 0 47.5 0 Z" stroke="none" fill="#56838a"/>
            </g>
          </g>
        </g>
      </g>
    </g>
    <g id="continuity_9445865" transform="translate(916.769 10509.175)">
      <g id="Grupo_1176874" data-name="Grupo 1176874" transform="translate(6.056 31.296)">
        <path id="Trazado_1035127" data-name="Trazado 1035127" d="M176.365,76.8c13.163,0,19.434,8.991,19,22.154,1.156,2.466,3.749,6.285,5.665,9.456a2.041,2.041,0,0,1,.014,2.1,2.148,2.148,0,0,1-1.8,1.127c-1.959.085-4.073.169-5.257.268-.056,3.185-.028,3.875-.085,7.06a5.657,5.657,0,0,1-5.609,5.51h-4.242a5.619,5.619,0,0,0-5.468,4.341c-.338,1.437-.691,2.875-1.029,4.326H157.312c1.127-4.735,1.353-6.426,2.48-11.161,2.17-9.076-2.607-9.062-5.242-16.756C150,91.936,154.127,76.8,176.365,76.8Z" transform="translate(-132.255 -70.966)" fill="#fad1a2" fill-rule="evenodd"/>
        <path id="Trazado_1035128" data-name="Trazado 1035128" d="M161.262,125.024a15.468,15.468,0,0,0,.268-2.931,19.973,19.973,0,0,0,3.875-38.9,25.147,25.147,0,0,1,4.425-1.3,22.864,22.864,0,0,1-8.568,43.124Zm-1.931-8.836a24.846,24.846,0,0,1-3.594-6.581c-.183-.536-.352-1.071-.507-1.621a7.154,7.154,0,1,0-.93-10.894,18.123,18.123,0,0,1,1.888-5.947c.338-.1.676-.169,1.029-.24V89.454a15.91,15.91,0,0,1,1.057-1.353h3.241v2.79a11.424,11.424,0,0,1,4.284,1.776l1.973-1.973,3.03,3.03L168.83,95.7a11.2,11.2,0,0,1,1.776,4.284h2.79v4.284h-2.79a11.424,11.424,0,0,1-1.776,4.284l1.973,1.973-3.03,3.03-1.973-1.973a11.424,11.424,0,0,1-4.284,1.776v2.79h-2.184Zm3.861-31.962q.74-.4,1.564-.761l-.493,1.832Z" transform="translate(-133.457 -75.347)" fill="#b79876" fill-rule="evenodd"/>
        <path id="Trazado_1035129" data-name="Trazado 1035129" d="M35.5,37.81A22.867,22.867,0,1,1,25,37.345l.578,2.833a19.977,19.977,0,1,0,9.188.437l-.606,2.255-2.748-2.734L28.681,37.4l3.72-1,3.735-1Z" transform="translate(-6.4 -35.4)" fill="#ed2024" fill-rule="evenodd"/>
        <path id="Trazado_1035130" data-name="Trazado 1035130" d="M80.894,108.3h4.284v2.79a11.425,11.425,0,0,1,4.284,1.776l1.973-1.973,3.03,3.03L92.493,115.9a11.425,11.425,0,0,1,1.776,4.284h2.79v4.284h-2.79a11.425,11.425,0,0,1-1.776,4.284l1.973,1.973-3.03,3.03-1.973-1.973a11.2,11.2,0,0,1-4.284,1.776v2.79H80.894v-2.79a11.424,11.424,0,0,1-4.284-1.776l-1.973,1.973-3.03-3.03,1.973-1.973a11.425,11.425,0,0,1-1.776-4.284H69V120.18h2.79a11.424,11.424,0,0,1,1.776-4.284l-1.973-1.973,3.03-3.03,1.973,1.973a11.425,11.425,0,0,1,4.284-1.776V108.3Zm2.142,6.877a7.159,7.159,0,1,1-7.159,7.159A7.16,7.16,0,0,1,83.036,115.177Z" transform="translate(-60.178 -98.026)" fill="#fcb13b" fill-rule="evenodd"/>
      </g>
      <path id="Trazado_1035131" data-name="Trazado 1035131" d="M27.407,40.879h4.975v1.3a19.6,19.6,0,0,1,5.933-3.636,18.734,18.734,0,0,0-2.79-1.156L35.1,38.949a.693.693,0,0,1-1.156.31L28.492,33.8a.7.7,0,0,1,.338-1.17l7.427-1.987a.693.693,0,0,1,.846.86l-.465,1.747A23.615,23.615,0,0,1,43.853,37a40.752,40.752,0,0,1,7.906-.55c12.782.423,18.757,9.358,18.757,21.562,0,.338,0,.7-.014,1.127.789,1.621,2.17,3.833,3.565,6.032.7,1.113,1.409,2.241,2,3.213a2.859,2.859,0,0,1-2.353,4.284l-4.608.225-.085,6.426a6.038,6.038,0,0,1-1.9,4.369,6.1,6.1,0,0,1-4.411,1.818H58.467a4.928,4.928,0,0,0-4.792,3.805l-1.029,4.312a.707.707,0,0,1-.676.536H31.733a.686.686,0,0,1-.648-.916c.55-2.283.888-3.89,1.212-5.51.338-1.592.676-3.185,1.24-5.595a19.113,19.113,0,0,0,.521-3.326,23.55,23.55,0,1,1-8.893-46.252.7.7,0,0,1,.817.578l.564,2.8a.694.694,0,0,1-.55.817,19.273,19.273,0,1,0,7.272,37.853,50.432,50.432,0,0,0-2.748-4.284H26.716V67.4a12.157,12.157,0,0,1-3.509-1.452l-2.072,2.072-4-4L19.2,61.948a12.074,12.074,0,0,1-1.452-3.495H14.822V52.774h2.931A12.157,12.157,0,0,1,19.2,49.264l-2.072-2.072,4.016-4.016,2.072,2.072A12.157,12.157,0,0,1,26.73,43.8V40.865h.676Zm5.214,2.988a12.435,12.435,0,0,1,3.27,1.4l2.072-2.072,4.016,4.016-2.072,2.072a12,12,0,0,1,1.452,3.509H44.29v5.651H41.359a11.914,11.914,0,0,1-1.452,3.495l2.072,2.072-4.016,4.016L35.891,65.95A12.157,12.157,0,0,1,32.382,67.4v2.931h-.225a27.272,27.272,0,0,1,2.48,3.96,19.287,19.287,0,0,0,5.228-34.879,18.551,18.551,0,0,0-7.244,4.453ZM31,42.26H28.1v2.678a12.078,12.078,0,0,0-2.664.733,11.376,11.376,0,0,0-2.4,1.367L21.15,45.149l-2.058,2.058L20.981,49.1a12.029,12.029,0,0,0-1.367,2.4,12.293,12.293,0,0,0-.733,2.664H16.2v2.917h2.678a12.293,12.293,0,0,0,.733,2.664,11.376,11.376,0,0,0,1.367,2.4L19.092,64.02l2.058,2.058,1.888-1.888a12.438,12.438,0,0,0,2.4,1.367,12.293,12.293,0,0,0,2.664.733v2.678H31V66.288a12.078,12.078,0,0,0,2.664-.733,11.376,11.376,0,0,0,2.4-1.367l1.888,1.888,2.058-2.058-1.874-1.9a12.029,12.029,0,0,0,1.367-2.4,12.293,12.293,0,0,0,.733-2.664h2.678V54.14H40.231a12.293,12.293,0,0,0-.733-2.664,11.377,11.377,0,0,0-1.367-2.4l1.888-1.888-2.058-2.058-1.888,1.888a12.439,12.439,0,0,0-2.4-1.367,12.293,12.293,0,0,0-2.664-.733V42.26Zm-1.452,5.5a7.843,7.843,0,1,1-7.836,7.85A7.852,7.852,0,0,1,29.549,47.757Zm4.566,3.284a6.465,6.465,0,0,0-4.862-1.888A22.4,22.4,0,0,0,28.689,62a6.459,6.459,0,0,0,7.328-6.4,6.35,6.35,0,0,0-1.9-4.566Zm-6.426-1.621a6.457,6.457,0,0,0-.493,12.2,24.013,24.013,0,0,1,.493-12.2ZM45.276,38.173a23.561,23.561,0,0,1-9.823,40.333,19.017,19.017,0,0,1-.564,3.96c-1.029,4.326-1.3,6.1-2.283,10.316H51.435l.9-3.791a6.3,6.3,0,0,1,6.13-4.876h4.242a4.958,4.958,0,0,0,4.918-4.834c.028-1.592.042-2.565.042-3.523s.014-1.931.042-3.481a.7.7,0,0,1,.634-.719l5.271-.268a1.463,1.463,0,0,0,1.226-2.184c-1.719-2.875-4.524-7.032-5.693-9.513a.768.768,0,0,1-.07-.31c.395-12.373-5.2-21.449-18.321-21.449a37.194,37.194,0,0,0-5.482.338Zm1.973,4.186a22.239,22.239,0,0,0-11.626-7.976.685.685,0,0,1-.493-.846l.338-1.254-5.144,1.381,3.763,3.763.3-1.113a.687.687,0,0,1,.846-.479,20.669,20.669,0,1,1-10.175-.3l-.282-1.48a22.167,22.167,0,1,0,22.478,8.3Z" transform="translate(0 0)"/>
    </g>
  </g>
</svg>
