<svg xmlns="http://www.w3.org/2000/svg" xmlns:xlink="http://www.w3.org/1999/xlink" width="113" height="113" viewBox="0 0 113 113">
  <defs>
    <filter id="Trazado_982547" x="0" y="0" width="113" height="113" filterUnits="userSpaceOnUse">
      <feOffset dy="3" input="SourceAlpha"/>
      <feGaussianBlur stdDeviation="3" result="blur"/>
      <feFlood flood-opacity="0.161"/>
      <feComposite operator="in" in2="blur"/>
      <feComposite in="SourceGraphic"/>
    </filter>
  </defs>
  <g id="Grupo_1176884" data-name="Grupo 1176884" transform="translate(-1217 -10518.068)">
    <g id="Grupo_1176545" data-name="Grupo 1176545" transform="translate(0.5 9219.924)">
      <g id="Grupo_1171049" data-name="Grupo 1171049" transform="translate(1225.5 1304.145)">
        <g id="Grupo_1148525" data-name="Grupo 1148525" transform="translate(0)">
          <g transform="matrix(1, 0, 0, 1, -9, -6)" filter="url(#Trazado_982547)">
            <g id="Trazado_982547-2" data-name="Trazado 982547" transform="translate(9 6)" fill="#f4fdfe">
              <path d="M 47.5 93.5 C 41.28937149047852 93.5 35.26533508300781 92.28397369384766 29.59518623352051 89.88570404052734 C 24.11771965026855 87.56893157958984 19.19813346862793 84.25196075439453 14.97309303283691 80.02691650390625 C 10.74804019927979 75.80186462402344 7.431066513061523 70.88229370117188 5.114293098449707 65.40481567382812 C 2.716026782989502 59.73468017578125 1.5 53.71062850952148 1.5 47.5 C 1.5 41.28937149047852 2.716026782989502 35.26533508300781 5.114293098449707 29.59518623352051 C 7.431066513061523 24.11771965026855 10.74804019927979 19.19813346862793 14.97309303283691 14.97309303283691 C 19.19813346862793 10.74804019927979 24.11771965026855 7.431066513061523 29.59518623352051 5.114293098449707 C 35.26533508300781 2.716026782989502 41.28937149047852 1.5 47.5 1.5 C 53.71062850952148 1.5 59.73468017578125 2.716026782989502 65.40481567382812 5.114293098449707 C 70.88229370117188 7.431066513061523 75.80186462402344 10.74804019927979 80.02691650390625 14.97309303283691 C 84.25196075439453 19.19813346862793 87.56893157958984 24.11771965026855 89.88570404052734 29.59518623352051 C 92.28397369384766 35.26533508300781 93.5 41.28937149047852 93.5 47.5 C 93.5 53.71062850952148 92.28397369384766 59.73468017578125 89.88570404052734 65.40481567382812 C 87.56893157958984 70.88229370117188 84.25196075439453 75.80186462402344 80.02691650390625 80.02691650390625 C 75.80186462402344 84.25196075439453 70.88229370117188 87.56893157958984 65.40481567382812 89.88570404052734 C 59.73468017578125 92.28397369384766 53.71062850952148 93.5 47.5 93.5 Z" stroke="none"/>
              <path d="M 47.5 3 C 41.49121475219727 3 35.66376876831055 4.176155090332031 30.17950439453125 6.495796203613281 C 24.88084411621094 8.736953735351562 20.12152099609375 11.94598388671875 16.03375244140625 16.03375244140625 C 11.94598388671875 20.12152099609375 8.736953735351562 24.88084411621094 6.495796203613281 30.17950439453125 C 4.176155090332031 35.66376876831055 3 41.49121475219727 3 47.5 C 3 53.50878524780273 4.176155090332031 59.33623123168945 6.495796203613281 64.82049560546875 C 8.736953735351562 70.11915588378906 11.94598388671875 74.87847900390625 16.03375244140625 78.96624755859375 C 20.12152099609375 83.05401611328125 24.88084411621094 86.26304626464844 30.17950439453125 88.50419616699219 C 35.66376876831055 90.82384490966797 41.49121475219727 92 47.5 92 C 53.50878524780273 92 59.33623123168945 90.82384490966797 64.82049560546875 88.50419616699219 C 70.11915588378906 86.26304626464844 74.87847900390625 83.05401611328125 78.96624755859375 78.96624755859375 C 83.05401611328125 74.87847900390625 86.26304626464844 70.11915588378906 88.50419616699219 64.82049560546875 C 90.82384490966797 59.33623123168945 92 53.50878524780273 92 47.5 C 92 41.49121475219727 90.82384490966797 35.66376876831055 88.50419616699219 30.17950439453125 C 86.26304626464844 24.88084411621094 83.05401611328125 20.12152099609375 78.96624755859375 16.03375244140625 C 74.87847900390625 11.94598388671875 70.11915588378906 8.736953735351562 64.82049560546875 6.495796203613281 C 59.33623123168945 4.176155090332031 53.50878524780273 3 47.5 3 M 47.5 0 C 73.7335205078125 0 95 21.2664794921875 95 47.5 C 95 73.7335205078125 73.7335205078125 95 47.5 95 C 21.2664794921875 95 0 73.7335205078125 0 47.5 C 0 21.2664794921875 21.2664794921875 0 47.5 0 Z" stroke="none" fill="#56838a"/>
            </g>
          </g>
        </g>
      </g>
    </g>
    <g id="agreement_7017955" transform="translate(1244.33 10545.33)">
      <g id="Grupo_1176882" data-name="Grupo 1176882" transform="translate(0.957 0.957)">
        <g id="Grupo_1176876" data-name="Grupo 1176876" transform="translate(5.743 36.37)">
          <path id="Trazado_1035132" data-name="Trazado 1035132" d="M82.8,321.571a1.914,1.914,0,1,1,0,3.828,1.914,1.914,0,0,1,0,3.828H80.884a1.914,1.914,0,1,1,0,3.828H63.657A7.656,7.656,0,0,1,56,325.4v-3.828a7.656,7.656,0,0,1,7.657-7.657h9.4a10.06,10.06,0,0,0,5.581-1.69,1.331,1.331,0,0,1,1.129-.165,1.143,1.143,0,0,1,.122.043,1.343,1.343,0,0,1,.433.29,1.933,1.933,0,0,1,.566,1.366,3.985,3.985,0,0,1-3.985,3.985h5.9a1.914,1.914,0,1,1,0,3.828Z" transform="translate(-56 -312)" fill="#f0d0b4"/>
        </g>
        <g id="Grupo_1176877" data-name="Grupo 1176877" transform="translate(19.142 34.455)">
          <path id="Trazado_1035133" data-name="Trazado 1035133" d="M178.442,297.73l-.078.243a1.331,1.331,0,0,0-1.129.165,10.059,10.059,0,0,1-5.581,1.69h-1.74a1.914,1.914,0,0,1,0-3.828h6.322A4,4,0,0,0,178.442,297.73Z" transform="translate(-168 -296)" fill="#f0d0b4"/>
        </g>
        <g id="Grupo_1176878" data-name="Grupo 1176878" transform="translate(26.642 30.627)">
          <path id="Trazado_1035134" data-name="Trazado 1035134" d="M238.5,281.228a1.914,1.914,0,0,0-1.914-1.914,1.914,1.914,0,0,0,0-3.828h-5.9a3.985,3.985,0,0,0,3.985-3.985,1.933,1.933,0,0,0-.566-1.366,1.343,1.343,0,0,0-.433-.29,1.13,1.13,0,0,0-.122-.043l.078-.243a3.982,3.982,0,0,1-2.785-3.8,1.934,1.934,0,0,1,.566-1.366,1.336,1.336,0,0,1,1.685-.167,10.059,10.059,0,0,0,5.582,1.69h9.4a7.656,7.656,0,0,1,7.657,7.657V277.4a7.656,7.656,0,0,1-7.657,7.657H238.5a1.912,1.912,0,0,0-1.914-1.914,1.912,1.912,0,0,0,1.914-1.914Z" transform="translate(-230.69 -264)" fill="#f0d0b4"/>
        </g>
        <g id="Grupo_1176879" data-name="Grupo 1176879" transform="translate(0 3.828)">
          <path id="Trazado_1035135" data-name="Trazado 1035135" d="M38.627,59.142v5.743A1.914,1.914,0,0,1,36.713,66.8H25.228l-1.914,1.914L21.4,66.8H9.914A1.914,1.914,0,0,1,8,64.884V41.914A1.914,1.914,0,0,1,9.914,40h26.8V57.228A1.914,1.914,0,0,0,38.627,59.142Z" transform="translate(-8 -40)" fill="#ccd1d9"/>
        </g>
        <g id="Grupo_1176880" data-name="Grupo 1176880" transform="translate(5.743 7.657)">
          <path id="Trazado_1035136" data-name="Trazado 1035136" d="M75.142,79.657v3.828a2.2,2.2,0,0,0-1.45,3.5l-2.707,2.707a2.169,2.169,0,0,0-1.312-.443,2.2,2.2,0,0,0-2.187,1.893H63.657a2.2,2.2,0,0,0-3.5-1.45L57.45,86.984a2.169,2.169,0,0,0,.443-1.312A2.2,2.2,0,0,0,56,83.485V79.657a2.2,2.2,0,0,0,1.45-3.5l2.707-2.707a2.169,2.169,0,0,0,1.312.443A2.2,2.2,0,0,0,63.657,72h3.828a2.2,2.2,0,0,0,2.187,1.893,2.169,2.169,0,0,0,1.312-.443l2.707,2.707a2.169,2.169,0,0,0-.443,1.312A2.2,2.2,0,0,0,75.142,79.657ZM69.4,81.571A3.828,3.828,0,1,0,65.571,85.4,3.829,3.829,0,0,0,69.4,81.571Z" transform="translate(-56 -72)" fill="#fcd770"/>
        </g>
        <g id="Grupo_1176881" data-name="Grupo 1176881" transform="translate(28.713)">
          <path id="Trazado_1035137" data-name="Trazado 1035137" d="M276.713,9.914V29.056A1.914,1.914,0,0,1,274.8,30.97H263.313L261.4,32.884l-1.914-1.914h-9.571A1.914,1.914,0,0,1,248,29.056V9.914A1.914,1.914,0,0,1,249.914,8H274.8A1.914,1.914,0,0,1,276.713,9.914Z" transform="translate(-248 -8)" fill="#e6e9ed"/>
        </g>
      </g>
      <g id="Grupo_1176883" data-name="Grupo 1176883" transform="translate(0 0)">
        <path id="Trazado_1035138" data-name="Trazado 1035138" d="M56.469,0H31.584a2.875,2.875,0,0,0-2.871,2.871v.957H2.871A2.875,2.875,0,0,0,0,6.7V29.67a2.875,2.875,0,0,0,2.871,2.871H13.96l2.311,2.311,2.311-2.311h8.33a2.9,2.9,0,0,0-.112.8,4.931,4.931,0,0,0,.128,1.114H22.013a2.87,2.87,0,0,0-2.707,3.828h-4.95A8.614,8.614,0,0,0,5.743,46.9v3.828a8.624,8.624,0,0,0,8.614,8.614H31.584a2.869,2.869,0,0,0,2.668-3.93A2.883,2.883,0,0,0,36.2,53.6h8.779A8.624,8.624,0,0,0,53.6,44.983V41.155a8.624,8.624,0,0,0-8.614-8.614h-9.4a9.073,9.073,0,0,1-3.869-.862,2.861,2.861,0,0,0,.822-2.009V24.884h8.217l2.311,2.311,2.311-2.311H56.469a2.875,2.875,0,0,0,2.871-2.871V2.871A2.875,2.875,0,0,0,56.469,0ZM17.788,30.627l-1.518,1.518-1.518-1.518H2.871a.958.958,0,0,1-.957-.957V6.7a.958.958,0,0,1,.957-.957H28.713V22.013a2.876,2.876,0,0,0,1.914,2.707v4.95a.958.958,0,0,1-.957.957Zm3.268,6.7a.958.958,0,0,1,.957-.957h5.826a4.983,4.983,0,0,0,.578.627,9.071,9.071,0,0,1-4.665,1.287H22.013A.958.958,0,0,1,21.056,37.327ZM33.5,53.6H22.97v1.914h8.614a.957.957,0,1,1,0,1.914H14.356a6.707,6.707,0,0,1-6.7-6.7V46.9a6.7,6.7,0,0,1,6.7-6.7h9.4a10.985,10.985,0,0,0,6.113-1.851.385.385,0,0,1,.476.047.97.97,0,0,1,.286.69A3.031,3.031,0,0,1,27.6,42.112H21.056v1.914H33.5a.957.957,0,0,1,0,1.914H22.97v1.914H33.5a.957.957,0,0,1,0,1.914H22.97v1.914H33.5a.957.957,0,0,1,0,1.914ZM44.983,34.455a6.707,6.707,0,0,1,6.7,6.7v3.828a6.707,6.707,0,0,1-6.7,6.7H36.2a2.873,2.873,0,0,0-.569-.957,2.862,2.862,0,0,0,.7-1.467,5.537,5.537,0,0,1,3.7-1.4H40.2V45.94h-.164A7.439,7.439,0,0,0,35.873,47.2a2.874,2.874,0,0,0-.237-.3A2.869,2.869,0,0,0,33.5,42.112h-2a4.916,4.916,0,0,0,1.04-3.028,2.9,2.9,0,0,0-.112-.8H34.76a7.049,7.049,0,0,0,4.178,3.779l.605-1.816a5.12,5.12,0,0,1-3.223-3.223L36.1,36.37H31.741a3.031,3.031,0,0,1-3.028-3.028.97.97,0,0,1,.286-.69.386.386,0,0,1,.476-.047,10.983,10.983,0,0,0,6.113,1.851ZM57.426,22.013a.958.958,0,0,1-.957.957H44.587l-1.518,1.518L41.551,22.97H31.584a.958.958,0,0,1-.957-.957V2.871a.958.958,0,0,1,.957-.957H56.469a.958.958,0,0,1,.957.957Z" transform="translate(0 0)"/>
        <path id="Trazado_1035139" data-name="Trazado 1035139" d="M100.785,112a4.785,4.785,0,1,0,4.785,4.785A4.791,4.791,0,0,0,100.785,112Zm0,7.657a2.871,2.871,0,1,1,2.871-2.871A2.875,2.875,0,0,1,100.785,119.657Z" transform="translate(-84.515 -98.601)"/>
        <path id="Trazado_1035140" data-name="Trazado 1035140" d="M67.261,70.911a1.217,1.217,0,0,1,.154-1.223l.5-.664-3.881-3.881-.664.5a1.244,1.244,0,0,1-1.978-.819L61.272,64H55.784l-.117.822a1.244,1.244,0,0,1-1.978.819l-.664-.5-3.881,3.881.5.664a1.244,1.244,0,0,1-.82,1.978L48,71.784v5.489l.822.117a1.244,1.244,0,0,1,.82,1.978l-.5.664,3.881,3.881.664-.5a1.244,1.244,0,0,1,1.978.819l.117.822h5.489l.117-.822a1.244,1.244,0,0,1,1.978-.819l.664.5,3.881-3.881-.5-.664a1.244,1.244,0,0,1,.82-1.978l.822-.117V71.784l-.822-.117A1.218,1.218,0,0,1,67.261,70.911Zm-.119,4.815a3.168,3.168,0,0,0-1.676,4.046l-1.694,1.694a3.168,3.168,0,0,0-4.046,1.676h-2.4a3.168,3.168,0,0,0-4.046-1.676L51.59,79.772a3.168,3.168,0,0,0-1.676-4.046v-2.4a3.168,3.168,0,0,0,1.676-4.046l1.694-1.694a3.168,3.168,0,0,0,4.046-1.676h2.4a3.168,3.168,0,0,0,4.046,1.676l1.694,1.694a3.168,3.168,0,0,0,1.676,4.046v2.4Z" transform="translate(-42.257 -56.343)"/>
        <path id="Trazado_1035141" data-name="Trazado 1035141" d="M310.848,61.151,307.7,58l-1.354,1.354,4.505,4.505L323.01,51.7l-1.354-1.354Z" transform="translate(-269.693 -44.32)"/>
      </g>
    </g>
  </g>
</svg>
