<svg xmlns="http://www.w3.org/2000/svg" xmlns:xlink="http://www.w3.org/1999/xlink" width="113" height="113" viewBox="0 0 113 113">
  <defs>
    <filter id="Trazado_982547" x="0" y="0" width="113" height="113" filterUnits="userSpaceOnUse">
      <feOffset dy="3" input="SourceAlpha"/>
      <feGaussianBlur stdDeviation="3" result="blur"/>
      <feFlood flood-opacity="0.161"/>
      <feComposite operator="in" in2="blur"/>
      <feComposite in="SourceGraphic"/>
    </filter>
  </defs>
  <g id="Grupo_1176623" data-name="Grupo 1176623" transform="translate(-901.5 -1298.145)">
    <g id="Grupo_1171048" data-name="Grupo 1171048" transform="translate(910.5 1304.145)">
      <g id="Grupo_1148525" data-name="Grupo 1148525" transform="translate(0)">
        <g transform="matrix(1, 0, 0, 1, -9, -6)" filter="url(#Trazado_982547)">
          <g id="Trazado_982547-2" data-name="Trazado 982547" transform="translate(9 6)" fill="#f4fdfe">
            <path d="M 47.5 93.5 C 41.28937149047852 93.5 35.26533508300781 92.28397369384766 29.59518623352051 89.88570404052734 C 24.11771965026855 87.56893157958984 19.19813346862793 84.25196075439453 14.97309303283691 80.02691650390625 C 10.74804019927979 75.80186462402344 7.431066513061523 70.88229370117188 5.114293098449707 65.40481567382812 C 2.716026782989502 59.73468017578125 1.5 53.71062850952148 1.5 47.5 C 1.5 41.28937149047852 2.716026782989502 35.26533508300781 5.114293098449707 29.59518623352051 C 7.431066513061523 24.11771965026855 10.74804019927979 19.19813346862793 14.97309303283691 14.97309303283691 C 19.19813346862793 10.74804019927979 24.11771965026855 7.431066513061523 29.59518623352051 5.114293098449707 C 35.26533508300781 2.716026782989502 41.28937149047852 1.5 47.5 1.5 C 53.71062850952148 1.5 59.73468017578125 2.716026782989502 65.40481567382812 5.114293098449707 C 70.88229370117188 7.431066513061523 75.80186462402344 10.74804019927979 80.02691650390625 14.97309303283691 C 84.25196075439453 19.19813346862793 87.56893157958984 24.11771965026855 89.88570404052734 29.59518623352051 C 92.28397369384766 35.26533508300781 93.5 41.28937149047852 93.5 47.5 C 93.5 53.71062850952148 92.28397369384766 59.73468017578125 89.88570404052734 65.40481567382812 C 87.56893157958984 70.88229370117188 84.25196075439453 75.80186462402344 80.02691650390625 80.02691650390625 C 75.80186462402344 84.25196075439453 70.88229370117188 87.56893157958984 65.40481567382812 89.88570404052734 C 59.73468017578125 92.28397369384766 53.71062850952148 93.5 47.5 93.5 Z" stroke="none"/>
            <path d="M 47.5 3 C 41.49121475219727 3 35.66376876831055 4.176155090332031 30.17950439453125 6.495796203613281 C 24.88084411621094 8.736953735351562 20.12152099609375 11.94598388671875 16.03375244140625 16.03375244140625 C 11.94598388671875 20.12152099609375 8.736953735351562 24.88084411621094 6.495796203613281 30.17950439453125 C 4.176155090332031 35.66376876831055 3 41.49121475219727 3 47.5 C 3 53.50878524780273 4.176155090332031 59.33623123168945 6.495796203613281 64.82049560546875 C 8.736953735351562 70.11915588378906 11.94598388671875 74.87847900390625 16.03375244140625 78.96624755859375 C 20.12152099609375 83.05401611328125 24.88084411621094 86.26304626464844 30.17950439453125 88.50419616699219 C 35.66376876831055 90.82384490966797 41.49121475219727 92 47.5 92 C 53.50878524780273 92 59.33623123168945 90.82384490966797 64.82049560546875 88.50419616699219 C 70.11915588378906 86.26304626464844 74.87847900390625 83.05401611328125 78.96624755859375 78.96624755859375 C 83.05401611328125 74.87847900390625 86.26304626464844 70.11915588378906 88.50419616699219 64.82049560546875 C 90.82384490966797 59.33623123168945 92 53.50878524780273 92 47.5 C 92 41.49121475219727 90.82384490966797 35.66376876831055 88.50419616699219 30.17950439453125 C 86.26304626464844 24.88084411621094 83.05401611328125 20.12152099609375 78.96624755859375 16.03375244140625 C 74.87847900390625 11.94598388671875 70.11915588378906 8.736953735351562 64.82049560546875 6.495796203613281 C 59.33623123168945 4.176155090332031 53.50878524780273 3 47.5 3 M 47.5 0 C 73.7335205078125 0 95 21.2664794921875 95 47.5 C 95 73.7335205078125 73.7335205078125 95 47.5 95 C 21.2664794921875 95 0 73.7335205078125 0 47.5 C 0 21.2664794921875 21.2664794921875 0 47.5 0 Z" stroke="none" fill="#56838a"/>
          </g>
        </g>
      </g>
    </g>
    <g id="emocional" transform="translate(905.51 1321.273)">
      <g id="Grupo_1171129" data-name="Grupo 1171129" transform="translate(26.103 0.887)">
        <g id="Grupo_1171124" data-name="Grupo 1171124" transform="translate(0)">
          <g id="Grupo_1171122" data-name="Grupo 1171122">
            <path id="Trazado_1024074" data-name="Trazado 1024074" d="M79.128,64.864a39.423,39.423,0,0,1-2.363-11.312,8.929,8.929,0,0,1,2.1-6.432c8.752-10.234,8.767-23.034,1.105-31.167C76.4,12.17,73.4,9.584,69.036,8.5c-.318-.079-.8-.323-1.124-.391a33.93,33.93,0,0,0-14.386.308A20.789,20.789,0,0,0,40.532,17.05c-1.354,2.015-2.146,3.9-2.412,8.055-.134,2.083-.988,2.545-1.318,4.194a3.506,3.506,0,0,0,.512,2.48,2.708,2.708,0,0,1,.293,2.072c-.086.334-.193.7-.326,1.08a16.2,16.2,0,0,1-3.167,5.613,2.079,2.079,0,0,0,.393,3.094,3.562,3.562,0,0,0,1.487.578l1.992.29a.118.118,0,0,1,.1.083,2.59,2.59,0,0,1-.442,2.564,1.1,1.1,0,0,0-.12,1.678,3.121,3.121,0,0,0,.738.679.119.119,0,0,1,0,.2,1.333,1.333,0,0,0,.222,2.385,6.619,6.619,0,0,1,.819.411,1.524,1.524,0,0,1,.02,1.84,3.2,3.2,0,0,0-.6,2.756c.7,2.559,3.564,3.2,6.231,2.756,2.157-.36,3.834-1.558,5.392-.36,1.1.85,2.4,2.3,2.618,6.5a.475.475,0,0,0,.474.452H77.094l1.588-.945A.474.474,0,0,0,79.128,64.864Z" transform="translate(-33.595 -7.477)" fill="#f4aa73"/>
          </g>
          <g id="Grupo_1171123" data-name="Grupo 1171123" transform="translate(34.317 0.632)">
            <path id="Trazado_1024075" data-name="Trazado 1024075" d="M335.459,70.5a.474.474,0,0,1-.446.636h-3a61.156,61.156,0,0,1-3.357-13.983,9.082,9.082,0,0,1,2.162-6.51C339.5,40.423,339.544,27.017,331.9,18.9a24.34,24.34,0,0,0-9.072-6.1,24.654,24.654,0,0,1,13.106,7.289c7.642,8.113,7.6,21.519-1.084,31.741a9.082,9.082,0,0,0-2.162,6.51,45.633,45.633,0,0,0,2.769,12.16Z" transform="translate(-322.83 -12.801)" fill="#ea9f6c"/>
          </g>
        </g>
        <g id="Grupo_1171128" data-name="Grupo 1171128" transform="translate(12.445 8.691)">
          <g id="Grupo_1171125" data-name="Grupo 1171125" transform="translate(7.238 14.772)">
            <path id="Trazado_1024076" data-name="Trazado 1024076" d="M216.628,214.125c0,4.915-3.325,8.483-8.24,8.483a8.79,8.79,0,0,1-8.342-5.381,8.413,8.413,0,0,1-.556-3.1,8.9,8.9,0,0,1,15.818-5.595s.189.369.3.533C216.63,210.51,216.628,212.22,216.628,214.125Z" transform="translate(-199.489 -205.226)" fill="#ffe077"/>
            <path id="Trazado_1024077" data-name="Trazado 1024077" d="M221.42,238.666a8.9,8.9,0,0,1-17.241,3.1,8.9,8.9,0,0,0,15.261-8.7A8.855,8.855,0,0,1,221.42,238.666Z" transform="translate(-203.623 -229.767)" fill="#ffd05b"/>
          </g>
          <g id="Grupo_1171126" data-name="Grupo 1171126" transform="translate(15.306 4.212)">
            <path id="Trazado_1024078" data-name="Trazado 1024078" d="M284.628,125.125c0,4.915-3.325,8.483-8.24,8.483a8.79,8.79,0,0,1-8.342-5.381,8.413,8.413,0,0,1-.556-3.1,8.9,8.9,0,0,1,15.818-5.595s.189.369.3.533C284.63,121.51,284.628,123.22,284.628,125.125Z" transform="translate(-267.489 -116.226)" fill="#bbf39b"/>
            <path id="Trazado_1024079" data-name="Trazado 1024079" d="M289.42,149.666a8.9,8.9,0,0,1-17.241,3.1,8.9,8.9,0,0,0,15.261-8.7A8.855,8.855,0,0,1,289.42,149.666Z" transform="translate(-271.623 -140.767)" fill="#9ae59c"/>
          </g>
          <g id="Grupo_1171127" data-name="Grupo 1171127">
            <path id="Trazado_1024080" data-name="Trazado 1024080" d="M155.628,89.625c0,4.915-3.325,8.483-8.24,8.483a8.79,8.79,0,0,1-8.342-5.381,8.413,8.413,0,0,1-.556-3.1,8.9,8.9,0,0,1,15.818-5.595s.189.369.3.533C155.63,86.01,155.628,87.72,155.628,89.625Z" transform="translate(-138.489 -80.726)" fill="#fe8991"/>
            <path id="Trazado_1024081" data-name="Trazado 1024081" d="M160.42,114.166a8.9,8.9,0,0,1-17.241,3.1,8.9,8.9,0,0,0,15.261-8.7A8.855,8.855,0,0,1,160.42,114.166Z" transform="translate(-142.623 -105.267)" fill="#fe646f"/>
          </g>
        </g>
      </g>
      <g id="Grupo_1171130" data-name="Grupo 1171130" transform="translate(25.095 -0.001)">
        <path id="Trazado_1024082" data-name="Trazado 1024082" d="M43.274,101.368c-1.461-1.124-2.957-.675-4.4-.24a13.628,13.628,0,0,1-1.677.427c-2.151.358-4.652-.008-5.226-2.112a2.472,2.472,0,0,1,.513-2.081A2.317,2.317,0,0,0,32.2,94.35a5.851,5.851,0,0,0-.916-.469c-.143-.074-.382-.234-.383-.464a.543.543,0,0,1,.328-.443.89.89,0,0,0,.016-1.564,2.351,2.351,0,0,1-.619-.535c-.217-.29-.177-.325-.007-.473a3.42,3.42,0,0,0,.676-3.6.89.89,0,0,0-.713-.59l-2.066-.3a2.689,2.689,0,0,1-1.116-.434,1.189,1.189,0,0,1-.226-1.768A17.218,17.218,0,0,0,30.512,77.8c.13-.376.246-.762.346-1.148a3.621,3.621,0,0,0-.392-2.754,2.646,2.646,0,0,1-.4-1.847A5.675,5.675,0,0,1,30.6,70.6a6.916,6.916,0,0,0,.8-2.858c.253-3.947.991-5.722,2.263-7.615a18.9,18.9,0,0,1,2.322-2.818.89.89,0,0,0-1.258-1.259,20.686,20.686,0,0,0-2.541,3.084c-1.412,2.1-2.284,4.166-2.562,8.494a5.187,5.187,0,0,1-.628,2.2,7.405,7.405,0,0,0-.675,1.875,4.39,4.39,0,0,0,.621,3.112,1.831,1.831,0,0,1,.195,1.393c-.088.34-.19.68-.3,1.011a15.481,15.481,0,0,1-2.992,5.314,2.969,2.969,0,0,0,.56,4.42,4.481,4.481,0,0,0,1.858.722l1.46.213a1.365,1.365,0,0,1-.27,1.173,1.974,1.974,0,0,0-.247,2.882,3.319,3.319,0,0,0,.264.309,2.169,2.169,0,0,0-.345,1.171,2.328,2.328,0,0,0,1.34,2.036c.148.078.354.182.63.3a1.031,1.031,0,0,1-.152.725,4.091,4.091,0,0,0-.685,3.432c.73,2.676,3.57,4.01,7.236,3.4a15.205,15.205,0,0,0,1.9-.478c1.359-.409,2.1-.6,2.806-.054,1.061.816,2.163,2.2,2.289,6.272a.89.89,0,0,0,.889.862H45.4a.89.89,0,0,0,.862-.917C46.108,104.181,44.665,102.438,43.274,101.368Z" transform="translate(-25.095 -49.168)"/>
        <path id="Trazado_1024083" data-name="Trazado 1024083" d="M132.757,5.624a21.544,21.544,0,0,1,7.032-2.93C146.034,1.271,157.8.251,166.435,9.418c7.2,7.643,7.075,20.07-.3,29.548a.89.89,0,1,0,1.4,1.093,27.6,27.6,0,0,0,6.018-16.736A21.879,21.879,0,0,0,167.73,8.2,25.51,25.51,0,0,0,153.89.592a34.962,34.962,0,0,0-14.5.366,23.319,23.319,0,0,0-7.61,3.175.89.89,0,0,0,.974,1.49Z" transform="translate(-118.77 0.001)"/>
        <path id="Trazado_1024084" data-name="Trazado 1024084" d="M399.043,359.187a8.134,8.134,0,0,1,.63-3.731.89.89,0,1,0-1.638-.7,9.922,9.922,0,0,0-.767,4.551,47.556,47.556,0,0,0,3.063,13.05.89.89,0,0,0,1.664-.631A45.76,45.76,0,0,1,399.043,359.187Z" transform="translate(-353.09 -312.191)"/>
        <path id="Trazado_1024085" data-name="Trazado 1024085" d="M242.879,245.226a.89.89,0,0,0-.89.89v2.373a.89.89,0,1,0,1.78,0v-2.373a.89.89,0,0,0-.89-.89Z" transform="translate(-216.255 -216.13)"/>
        <path id="Trazado_1024086" data-name="Trazado 1024086" d="M247.259,298.6a.89.89,0,0,0,1.258,0,2.467,2.467,0,0,1,3.485,0,.89.89,0,0,0,1.258-1.258,4.249,4.249,0,0,0-6,0A.89.89,0,0,0,247.259,298.6Z" transform="translate(-220.67 -260.971)"/>
        <path id="Trazado_1024087" data-name="Trazado 1024087" d="M165.871,87.228a9.828,9.828,0,0,0-6.4-9.184.89.89,0,1,0-.617,1.669,8.01,8.01,0,1,1-10.53,9.524,9.784,9.784,0,0,0,2.124-7.7,7.989,7.989,0,0,1,4.755-2.266.89.89,0,1,0-.192-1.769,9.759,9.759,0,0,0-5.067,2.1A9.788,9.788,0,1,0,139.63,92.736a9.8,9.8,0,0,0-.692,8.726.89.89,0,1,0,1.649-.668,8.019,8.019,0,0,1,1.2-8.04,9.742,9.742,0,0,0,5.12-2.114,9.794,9.794,0,0,0,3.183,4.318V96.9a.89.89,0,1,0,1.78,0v-.842a9.731,9.731,0,0,0,4.115.958c.025.257.037.515.037.773a8.009,8.009,0,0,1-13.28,6.03.89.89,0,1,0-1.172,1.339A9.789,9.789,0,0,0,157.8,97.788c0-.306-.014-.613-.043-.918a9.8,9.8,0,0,0,8.111-9.642Zm-25.094,3.8a8.009,8.009,0,1,1,8.009-8.009A8.018,8.018,0,0,1,140.777,91.025Z" transform="translate(-118.424 -64.54)"/>
        <path id="Trazado_1024088" data-name="Trazado 1024088" d="M311.769,159.489v-2.373a.89.89,0,1,0-1.78,0v2.373a.89.89,0,1,0,1.78,0Z" transform="translate(-276.187 -137.69)"/>
        <path id="Trazado_1024089" data-name="Trazado 1024089" d="M361.769,159.489v-2.373a.89.89,0,1,0-1.78,0v2.373a.89.89,0,1,0,1.78,0Z" transform="translate(-320.255 -137.69)"/>
        <path id="Trazado_1024090" data-name="Trazado 1024090" d="M318.261,211.846a4.231,4.231,0,0,0,3-1.241A.89.89,0,1,0,320,209.347a2.467,2.467,0,0,1-3.485,0,.89.89,0,1,0-1.258,1.258A4.231,4.231,0,0,0,318.261,211.846Z" transform="translate(-280.603 -184.278)"/>
        <path id="Trazado_1024091" data-name="Trazado 1024091" d="M178.932,125.169a.89.89,0,0,0,0-1.258l-1.424-1.424a.89.89,0,1,0-1.258,1.258l.795.795-.795.795a.89.89,0,1,0,1.258,1.258Z" transform="translate(-158.086 -107.724)"/>
        <path id="Trazado_1024092" data-name="Trazado 1024092" d="M226.932,122.487a.89.89,0,0,0-1.258,0l-1.424,1.424a.89.89,0,0,0,0,1.258l1.424,1.424a.89.89,0,1,0,1.258-1.258l-.795-.795.795-.795A.89.89,0,0,0,226.932,122.487Z" transform="translate(-200.391 -107.724)"/>
        <path id="Trazado_1024093" data-name="Trazado 1024093" d="M186.259,174.844a.89.89,0,0,0,1.258,1.258,2.467,2.467,0,0,1,3.485,0,.89.89,0,0,0,1.258-1.258A4.249,4.249,0,0,0,186.259,174.844Z" transform="translate(-166.907 -153.006)"/>
      </g>
    </g>
  </g>
</svg>
