<svg xmlns="http://www.w3.org/2000/svg" xmlns:xlink="http://www.w3.org/1999/xlink" width="113" height="113" viewBox="0 0 113 113">
  <defs>
    <filter id="Trazado_982547" x="0" y="0" width="113" height="113" filterUnits="userSpaceOnUse">
      <feOffset dy="3" input="SourceAlpha"/>
      <feGaussianBlur stdDeviation="3" result="blur"/>
      <feFlood flood-opacity="0.161"/>
      <feComposite operator="in" in2="blur"/>
      <feComposite in="SourceGraphic"/>
    </filter>
  </defs>
  <g id="Grupo_1174896" data-name="Grupo 1174896" transform="translate(-901.5 -1298.145)">
    <g id="Grupo_1171048" data-name="Grupo 1171048" transform="translate(910.5 1304.145)">
      <g id="Grupo_1148525" data-name="Grupo 1148525" transform="translate(0)">
        <g transform="matrix(1, 0, 0, 1, -9, -6)" filter="url(#Trazado_982547)">
          <g id="Trazado_982547-2" data-name="Trazado 982547" transform="translate(9 6)" fill="#f4fdfe">
            <path d="M 47.5 93.5 C 41.28937149047852 93.5 35.26533508300781 92.28397369384766 29.59518623352051 89.88570404052734 C 24.11771965026855 87.56893157958984 19.19813346862793 84.25196075439453 14.97309303283691 80.02691650390625 C 10.74804019927979 75.80186462402344 7.431066513061523 70.88229370117188 5.114293098449707 65.40481567382812 C 2.716026782989502 59.73468017578125 1.5 53.71062850952148 1.5 47.5 C 1.5 41.28937149047852 2.716026782989502 35.26533508300781 5.114293098449707 29.59518623352051 C 7.431066513061523 24.11771965026855 10.74804019927979 19.19813346862793 14.97309303283691 14.97309303283691 C 19.19813346862793 10.74804019927979 24.11771965026855 7.431066513061523 29.59518623352051 5.114293098449707 C 35.26533508300781 2.716026782989502 41.28937149047852 1.5 47.5 1.5 C 53.71062850952148 1.5 59.73468017578125 2.716026782989502 65.40481567382812 5.114293098449707 C 70.88229370117188 7.431066513061523 75.80186462402344 10.74804019927979 80.02691650390625 14.97309303283691 C 84.25196075439453 19.19813346862793 87.56893157958984 24.11771965026855 89.88570404052734 29.59518623352051 C 92.28397369384766 35.26533508300781 93.5 41.28937149047852 93.5 47.5 C 93.5 53.71062850952148 92.28397369384766 59.73468017578125 89.88570404052734 65.40481567382812 C 87.56893157958984 70.88229370117188 84.25196075439453 75.80186462402344 80.02691650390625 80.02691650390625 C 75.80186462402344 84.25196075439453 70.88229370117188 87.56893157958984 65.40481567382812 89.88570404052734 C 59.73468017578125 92.28397369384766 53.71062850952148 93.5 47.5 93.5 Z" stroke="none"/>
            <path d="M 47.5 3 C 41.49121475219727 3 35.66376876831055 4.176155090332031 30.17950439453125 6.495796203613281 C 24.88084411621094 8.736953735351562 20.12152099609375 11.94598388671875 16.03375244140625 16.03375244140625 C 11.94598388671875 20.12152099609375 8.736953735351562 24.88084411621094 6.495796203613281 30.17950439453125 C 4.176155090332031 35.66376876831055 3 41.49121475219727 3 47.5 C 3 53.50878524780273 4.176155090332031 59.33623123168945 6.495796203613281 64.82049560546875 C 8.736953735351562 70.11915588378906 11.94598388671875 74.87847900390625 16.03375244140625 78.96624755859375 C 20.12152099609375 83.05401611328125 24.88084411621094 86.26304626464844 30.17950439453125 88.50419616699219 C 35.66376876831055 90.82384490966797 41.49121475219727 92 47.5 92 C 53.50878524780273 92 59.33623123168945 90.82384490966797 64.82049560546875 88.50419616699219 C 70.11915588378906 86.26304626464844 74.87847900390625 83.05401611328125 78.96624755859375 78.96624755859375 C 83.05401611328125 74.87847900390625 86.26304626464844 70.11915588378906 88.50419616699219 64.82049560546875 C 90.82384490966797 59.33623123168945 92 53.50878524780273 92 47.5 C 92 41.49121475219727 90.82384490966797 35.66376876831055 88.50419616699219 30.17950439453125 C 86.26304626464844 24.88084411621094 83.05401611328125 20.12152099609375 78.96624755859375 16.03375244140625 C 74.87847900390625 11.94598388671875 70.11915588378906 8.736953735351562 64.82049560546875 6.495796203613281 C 59.33623123168945 4.176155090332031 53.50878524780273 3 47.5 3 M 47.5 0 C 73.7335205078125 0 95 21.2664794921875 95 47.5 C 95 73.7335205078125 73.7335205078125 95 47.5 95 C 21.2664794921875 95 0 73.7335205078125 0 47.5 C 0 21.2664794921875 21.2664794921875 0 47.5 0 Z" stroke="none" fill="#56838a"/>
          </g>
        </g>
      </g>
    </g>
    <g id="deep-learning_2857426" transform="translate(929.276 1322.921)">
      <g id="Grupo_1171435" data-name="Grupo 1171435" transform="translate(1.894 1.894)">
        <g id="Grupo_1171421" data-name="Grupo 1171421" transform="translate(20.569 46.504)">
          <path id="Trazado_1024834" data-name="Trazado 1024834" d="M37.52,54v.894a6.26,6.26,0,1,1-12.52,0V54Z" transform="translate(-25 -54)" fill="#aab2bd"/>
        </g>
        <g id="Grupo_1171422" data-name="Grupo 1171422" transform="translate(16.992 42.927)">
          <path id="Trazado_1024835" data-name="Trazado 1024835" d="M38.886,50a1.794,1.794,0,0,1,1.789,1.789,1.8,1.8,0,0,1-1.789,1.789h-16.1A1.794,1.794,0,0,1,21,51.789,1.8,1.8,0,0,1,22.789,50Z" transform="translate(-21 -50)" fill="#ccd1d9"/>
        </g>
        <g id="Grupo_1171423" data-name="Grupo 1171423" transform="translate(16.992 39.35)">
          <path id="Trazado_1024836" data-name="Trazado 1024836" d="M38.886,46a1.794,1.794,0,0,1,1.789,1.789,1.8,1.8,0,0,1-1.789,1.789h-16.1A1.794,1.794,0,0,1,21,47.789,1.8,1.8,0,0,1,22.789,46h16.1Z" transform="translate(-21 -46)" fill="#ccd1d9"/>
        </g>
        <g id="Grupo_1171424" data-name="Grupo 1171424" transform="translate(0 21.463)">
          <ellipse id="Elipse_12296" data-name="Elipse 12296" cx="2" cy="1.5" rx="2" ry="1.5" transform="translate(-0.171 0.366)" fill="#ff826e"/>
        </g>
        <g id="Grupo_1171425" data-name="Grupo 1171425" transform="translate(0 37.561)">
          <path id="Trazado_1024837" data-name="Trazado 1024837" d="M7.366,44A5.366,5.366,0,1,1,2,49.366,5.37,5.37,0,0,1,7.366,44Z" transform="translate(-2 -44)" fill="#ff826e"/>
        </g>
        <g id="Grupo_1171426" data-name="Grupo 1171426" transform="translate(1.789 1.789)">
          <circle id="Elipse_12297" data-name="Elipse 12297" cx="3.5" cy="3.5" r="3.5" transform="translate(0.041 0.041)" fill="#ff826e"/>
        </g>
        <g id="Grupo_1171427" data-name="Grupo 1171427" transform="translate(46.504 4.472)">
          <path id="Trazado_1024838" data-name="Trazado 1024838" d="M57.577,7A3.579,3.579,0,1,1,54,10.577,3.576,3.576,0,0,1,57.577,7Z" transform="translate(-54 -7)" fill="#ff826e"/>
        </g>
        <g id="Grupo_1171428" data-name="Grupo 1171428" transform="translate(50.081 21.463)">
          <ellipse id="Elipse_12298" data-name="Elipse 12298" cx="2" cy="1.5" rx="2" ry="1.5" transform="translate(-0.252 0.366)" fill="#ff826e"/>
        </g>
        <g id="Grupo_1171429" data-name="Grupo 1171429" transform="translate(25.041)">
          <circle id="Elipse_12299" data-name="Elipse 12299" cx="2" cy="2" r="2" transform="translate(-0.211 -0.171)" fill="#ff826e"/>
        </g>
        <g id="Grupo_1171430" data-name="Grupo 1171430" transform="translate(42.927 42.927)">
          <path id="Trazado_1024839" data-name="Trazado 1024839" d="M55.366,50A5.366,5.366,0,1,1,50,55.366,5.37,5.37,0,0,1,55.366,50Z" transform="translate(-50 -50)" fill="#ff826e"/>
        </g>
        <g id="Grupo_1171431" data-name="Grupo 1171431" transform="translate(3.577 41.138)">
          <ellipse id="Elipse_12300" data-name="Elipse 12300" cx="1.5" cy="2" rx="1.5" ry="2" transform="translate(0.252 -0.309)" fill="#fc6e51"/>
        </g>
        <g id="Grupo_1171432" data-name="Grupo 1171432" transform="translate(46.504 46.504)">
          <circle id="Elipse_12301" data-name="Elipse 12301" cx="1.5" cy="1.5" r="1.5" transform="translate(0.325 0.325)" fill="#fc6e51"/>
        </g>
        <g id="Grupo_1171433" data-name="Grupo 1171433" transform="translate(12.52 8.943)">
          <path id="Trazado_1024840" data-name="Trazado 1024840" d="M41.479,17.366A14.309,14.309,0,0,0,16,26.309a15.545,15.545,0,0,0,2.889,8.943,14.446,14.446,0,0,0,2.79,2.969A6.263,6.263,0,0,1,24,42.407h12.61a6.263,6.263,0,0,1,2.325-4.185,14.757,14.757,0,0,0,3.38-3.863,15.509,15.509,0,0,0,2.3-8.049,14.236,14.236,0,0,0-3.139-8.943Z" transform="translate(-16 -12)" fill="#ffeaa7"/>
        </g>
        <g id="Grupo_1171434" data-name="Grupo 1171434" transform="translate(17.886 14.309)">
          <path id="Trazado_1024841" data-name="Trazado 1024841" d="M37.5,30.324a3.589,3.589,0,0,1,.581,2.334,3.681,3.681,0,0,1-3.711,3.228H34.35A1.618,1.618,0,0,0,32.732,37.5v5.536H29.154V37.5a1.618,1.618,0,0,0-1.619-1.619,3.683,3.683,0,0,1-3.694-2.96,3.592,3.592,0,0,1,.563-2.62,3.568,3.568,0,0,1-.009-6.743,3.52,3.52,0,0,1-.608-1.985,3.577,3.577,0,1,1,7.154,0,3.577,3.577,0,1,1,7.154,0,3.516,3.516,0,0,1-.617,2,3.56,3.56,0,0,1,2.406,3.363,3.6,3.6,0,0,1-2.388,3.38Z" transform="translate(-22 -18)" fill="#dfb28b"/>
        </g>
      </g>
      <g id="Grupo_1171436" data-name="Grupo 1171436" transform="translate(1 1)">
        <path id="Trazado_1024842" data-name="Trazado 1024842" d="M53,55.683A2.683,2.683,0,1,0,55.683,53,2.686,2.686,0,0,0,53,55.683Zm3.577,0a.894.894,0,1,1-.894-.894A.9.9,0,0,1,56.577,55.683Z" transform="translate(-6.496 -6.496)"/>
        <path id="Trazado_1024843" data-name="Trazado 1024843" d="M5,49.683A2.683,2.683,0,1,0,7.683,47,2.686,2.686,0,0,0,5,49.683Zm3.577,0a.894.894,0,1,1-.894-.894A.9.9,0,0,1,8.577,49.683Z" transform="translate(-1.423 -5.862)"/>
        <path id="Trazado_1024844" data-name="Trazado 1024844" d="M51.246,26.041a2.683,2.683,0,1,0,0-1.789H43.881A15.084,15.084,0,0,0,41.6,17.1h3.377a2.667,2.667,0,0,0,1.9-.786l2.642-2.642a4.485,4.485,0,1,0-1.265-1.265l-2.642,2.642a.89.89,0,0,1-.633.262h-4.68a15.16,15.16,0,0,0-10.676-5.32V6.2a2.683,2.683,0,1,0-1.789,0V9.989a15.164,15.164,0,0,0-10.676,5.32h-8.1a.9.9,0,0,1-.894-.894V11.641a4.472,4.472,0,1,0-1.789,0v2.773A2.686,2.686,0,0,0,9.049,17.1h6.8a15.084,15.084,0,0,0-2.284,7.154H6.2a2.683,2.683,0,1,0,0,1.789h7.346A16.581,16.581,0,0,0,15.685,33.2H9.049a2.686,2.686,0,0,0-2.683,2.683v2.754a6.26,6.26,0,1,0,1.789,0V35.878a.9.9,0,0,1,.894-.894h7.808a15.33,15.33,0,0,0,2.677,2.772,5.361,5.361,0,0,1,1.787,2.594h-.646a2.671,2.671,0,0,0-1.985,4.472,2.671,2.671,0,0,0,1.985,4.472h.894a7.154,7.154,0,1,0,14.309,0h.894a2.671,2.671,0,0,0,1.985-4.472,2.671,2.671,0,0,0-1.985-4.472h-.646a5.357,5.357,0,0,1,1.787-2.594,15.513,15.513,0,0,0,3.3-3.667H48.4a.9.9,0,0,1,.894.894V44a6.26,6.26,0,1,0,1.789,0V34.984A2.686,2.686,0,0,0,48.4,32.3H42.236a16.523,16.523,0,0,0,1.665-6.26Zm.73-18.781a2.683,2.683,0,1,1-2.683,2.683A2.686,2.686,0,0,1,51.976,7.26Zm-47.4,0A2.683,2.683,0,1,1,7.26,9.943,2.686,2.686,0,0,1,4.577,7.26Zm7.154,37.561A4.472,4.472,0,1,1,7.26,40.35,4.477,4.477,0,0,1,11.732,44.821Zm42.927,5.366a4.472,4.472,0,1,1-4.472-4.472A4.477,4.477,0,0,1,54.659,50.187Zm-.894-25.935a.894.894,0,1,1-.894.894A.9.9,0,0,1,53.764,24.252ZM28.724,2.789a.894.894,0,1,1-.894.894A.9.9,0,0,1,28.724,2.789ZM3.683,26.041a.894.894,0,1,1,.894-.894A.9.9,0,0,1,3.683,26.041ZM28.724,54.659a5.371,5.371,0,0,1-5.366-5.366H34.09A5.371,5.371,0,0,1,28.724,54.659ZM36.772,47.5h-16.1a.894.894,0,0,1,0-1.789h16.1a.894.894,0,1,1,0,1.789Zm.894-4.472a.9.9,0,0,1-.894.894h-16.1a.894.894,0,0,1,0-1.789h16.1A.9.9,0,0,1,37.667,43.033ZM25.319,33.2A2.8,2.8,0,0,1,22.5,30.98a2.7,2.7,0,0,1,.42-1.969l.651-.962-1.1-.384a2.663,2.663,0,0,1-.542-4.785,4.452,4.452,0,0,0,3.211,1.372V22.463a2.683,2.683,0,1,1,2.683-2.683h1.789a2.683,2.683,0,1,1,4.906,1.5l-.651.962,1.1.384a2.663,2.663,0,0,1,.539,4.786A4.477,4.477,0,0,0,32.3,26.041v1.789a2.69,2.69,0,0,1,1.985.878,2.663,2.663,0,0,1,.685,2.07A2.8,2.8,0,0,1,32.128,33.2a2.514,2.514,0,0,0-2.51,2.511V40.35H27.829V35.706A2.514,2.514,0,0,0,25.319,33.2ZM36.8,36.357a7.12,7.12,0,0,0-2.523,3.993h-2.87V35.706a.727.727,0,0,1,.74-.723,4.591,4.591,0,0,0,4.6-4.036,4.488,4.488,0,0,0-.291-2.026,4.443,4.443,0,0,0,.015-7.541A4.471,4.471,0,0,0,28.724,17.1a4.46,4.46,0,0,0-7.742,4.273,4.444,4.444,0,0,0-.011,7.538,4.508,4.508,0,0,0-.232,2.365,4.6,4.6,0,0,0,4.58,3.708.723.723,0,0,1,.722.723V40.35h-2.87a7.126,7.126,0,0,0-2.523-3.993,14.614,14.614,0,0,1-5.339-11.21,13.415,13.415,0,0,1,26.829,0A14.614,14.614,0,0,1,36.8,36.357Z" transform="translate(-1 -1)"/>
      </g>
    </g>
  </g>
</svg>
